<?xml version="1.0" standalone="no"?>
<!DOCTYPE svg PUBLIC "-//W3C//DTD SVG 1.1//EN" "http://www.w3.org/Graphics/SVG/1.1/DTD/svg11.dtd" >
<svg xmlns="http://www.w3.org/2000/svg" xmlns:xlink="http://www.w3.org/1999/xlink" version="1.1">
<metadata>
Created by FontForge 20201107 at Wed Feb 14 14:10:40 2024
 By 
Copyright 2022 The Noto Project Authors (https://github.com/notofonts/georgian)
</metadata>
<defs>
<font id="NotoSansGeorgian-Bold" horiz-adv-x="650" >
  <font-face 
    font-family="Noto Sans Georgian"
    font-weight="700"
    font-stretch="normal"
    units-per-em="1000"
    panose-1="2 11 5 2 4 5 4 2 2 4"
    ascent="800"
    descent="-200"
    x-height="546"
    cap-height="714"
    bbox="-543 -250 1142 1006"
    underline-thickness="50"
    underline-position="-125"
    unicode-range="U+000D-2D2D"
  />
<missing-glyph horiz-adv-x="600" 
d="M94 0v714h411v-714h-411zM145 51h309v612h-309v-612z" />
    <glyph glyph-name=".notdef" horiz-adv-x="600" 
d="M94 0v714h411v-714h-411zM145 51h309v612h-309v-612z" />
    <glyph glyph-name=".null" horiz-adv-x="0" 
 />
    <glyph glyph-name="nonmarkingreturn" horiz-adv-x="333" 
 />
    <glyph glyph-name="NULL" horiz-adv-x="0" 
 />
    <glyph glyph-name="NULL" horiz-adv-x="0" 
 />
    <glyph glyph-name="CR" unicode="&#xd;" horiz-adv-x="260" 
 />
    <glyph glyph-name="space" unicode=" " horiz-adv-x="260" 
 />
    <glyph glyph-name="exclam" unicode="!" horiz-adv-x="282" 
d="M201 232h-120l-25 482h170zM54 70q0 47 25.5 65.5t61.5 18.5q34 0 60 -18.5t26 -65.5q0 -44 -26 -63.5t-60 -19.5q-36 0 -61.5 19.5t-25.5 63.5z" />
    <glyph glyph-name="quotedbl" unicode="&#x22;" horiz-adv-x="479" 
d="M205 714l-20 -258h-104l-20 258h144zM417 714l-20 -258h-103l-20 258h143z" />
    <glyph glyph-name="numbersign" unicode="#" horiz-adv-x="656" 
d="M498 412l-22 -112h126v-102h-145l-38 -198h-107l38 198h-106l-37 -198h-106l36 198h-116v102h136l21 112h-123v103h143l37 199h108l-38 -199h106l37 199h106l-37 -199h118v-103h-137zM264 300h105l21 112h-105z" />
    <glyph glyph-name="dollar" unicode="$" horiz-adv-x="575" 
d="M246 33q-60 1 -109 11t-87 26v127q42 -19 95 -31.5t101 -15.5v154q-63 18 -109.5 42.5t-71.5 62.5t-25 95t25.5 95t72 59.5t108.5 24.5v77h81v-76q58 -2 105.5 -14t86.5 -28l-37 -111q-35 15 -75 24.5t-80 13.5v-153q69 -20 116 -42.5t71.5 -57t24.5 -90.5
q0 -77 -52.5 -128t-159.5 -63v-93h-81v91zM327 154q41 5 60 20t19 40q0 18 -7 30t-24 20.5t-48 17.5v-128zM246 567q-25 -1 -41 -8.5t-24.5 -19.5t-8.5 -28q0 -17 7 -30t23 -22t44 -18v126z" />
    <glyph glyph-name="percent" unicode="%" horiz-adv-x="902" 
d="M198 724q80 0 126 -58.5t46 -164.5t-43 -165.5t-129 -59.5q-78 0 -123 59.5t-45 165.5t42.5 164.5t125.5 58.5zM199 627q-27 0 -39 -33t-12 -94t12 -94.5t39 -33.5q28 0 40.5 33t12.5 95q0 61 -12.5 94t-40.5 33zM707 714l-396 -714h-119l396 714h119zM700 439
q79 0 125.5 -58.5t46.5 -164.5t-43.5 -165.5t-128.5 -59.5q-78 0 -123 59.5t-45 165.5t42 164.5t126 58.5zM701 342q-28 0 -39.5 -33t-11.5 -94t11.5 -94.5t39.5 -33.5t40.5 33t12.5 95t-12.5 94.5t-40.5 32.5z" />
    <glyph glyph-name="ampersand" unicode="&#x26;" horiz-adv-x="773" 
d="M320 724q93 0 146.5 -43.5t53.5 -120.5q0 -62 -37.5 -107t-96.5 -80l134 -129q21 28 35.5 64t23.5 76h155q-16 -70 -45 -132t-66 -105l152 -147h-197l-63 63q-29 -21 -59 -37.5t-70 -26t-98 -9.5q-78 0 -133 26t-84 72t-29 105q0 46 16.5 82.5t48.5 66t76 53.5
q-20 23 -36.5 48t-26.5 54t-10 62q0 74 54.5 119.5t155.5 45.5zM267 309q-22 -14 -37.5 -30t-23.5 -34.5t-8 -41.5q0 -40 28 -65t74 -25q42 0 72.5 13t49.5 29zM317 619q-29 0 -48.5 -15.5t-19.5 -47.5q0 -27 15 -50.5t40 -48.5q40 23 58.5 48.5t18.5 54.5t-17.5 44
t-46.5 15z" />
    <glyph glyph-name="quotesingle" unicode="'" horiz-adv-x="266" 
d="M205 714l-20 -258h-104l-20 258h144z" />
    <glyph glyph-name="parenleft" unicode="(" horiz-adv-x="336" 
d="M38 280q0 82 14 161.5t45 152t81 132.5h130q-68 -94 -100.5 -210t-32.5 -235q0 -77 14 -155t43.5 -150t74.5 -134h-129q-50 59 -81 130t-45 149.5t-14 158.5z" />
    <glyph glyph-name="parenright" unicode=")" horiz-adv-x="336" 
d="M298 280q0 -80 -14 -158.5t-44.5 -149.5t-81.5 -130h-129q46 62 75 134t43 150t14 155q0 79 -14 157.5t-43.5 152t-75.5 135.5h130q51 -60 81.5 -132.5t44.5 -152t14 -161.5z" />
    <glyph glyph-name="asterisk" unicode="*" horiz-adv-x="542" 
d="M335 760l-20 -180l181 51l17 -124l-165 -12l108 -144l-111 -59l-76 152l-67 -152l-116 59l108 144l-165 14l19 122l178 -51l-20 180h129z" />
    <glyph glyph-name="plus" unicode="+" horiz-adv-x="581" 
d="M344 406h188v-107h-188v-188h-108v188h-189v107h189v190h108v-190z" />
    <glyph glyph-name="comma" unicode="," horiz-adv-x="293" 
d="M227 123q-9 -35 -23 -81.5t-30 -93t-33 -83.5h-108q10 43 19 90.5t17 94t13 84.5h138z" />
    <glyph glyph-name="hyphen" unicode="-" horiz-adv-x="320" 
d="M28 206v124h263v-124h-263z" />
    <glyph glyph-name="period" unicode="." horiz-adv-x="281" 
d="M54 70q0 47 25.5 65.5t61.5 18.5q35 0 60.5 -18.5t25.5 -65.5q0 -44 -25.5 -63.5t-60.5 -19.5q-36 0 -61.5 19.5t-25.5 63.5z" />
    <glyph glyph-name="slash" unicode="/" horiz-adv-x="415" 
d="M410 720l-266 -726h-137l266 726h137z" />
    <glyph glyph-name="zero" unicode="0" horiz-adv-x="581" 
d="M540 357q0 -87 -13.5 -154.5t-43 -115t-77 -72.5t-116.5 -25q-86 0 -141.5 44t-82 126t-26.5 197q0 116 24.5 198t79.5 125.5t146 43.5q85 0 140.5 -43.5t82.5 -125.5t27 -198zM192 357q0 -81 9 -135t30 -81.5t59 -27.5q37 0 58.5 27t30.5 81.5t9 135.5t-9 135.5
t-30.5 81.5t-58.5 27q-38 0 -59 -27t-30 -81.5t-9 -135.5z" />
    <glyph glyph-name="one" unicode="1" horiz-adv-x="581" 
d="M419 0h-153v410v41t1 50t2 49q-14 -15 -25.5 -26t-25.5 -23l-79 -66l-79 98l224 181h135v-714z" />
    <glyph glyph-name="two" unicode="2" horiz-adv-x="581" 
d="M537 0h-500v106l179 181q54 56 87 93t48 67.5t15 65.5q0 42 -26.5 62.5t-65.5 20.5q-41 0 -77 -18.5t-79 -54.5l-83 99q31 27 66 50t80.5 37.5t106.5 14.5q70 0 121.5 -24.5t79.5 -68t28 -100.5q0 -60 -22.5 -108.5t-66.5 -96.5t-107 -107l-89 -86v-5h305v-128z" />
    <glyph glyph-name="three" unicode="3" horiz-adv-x="581" 
d="M512 554q0 -50 -20.5 -85.5t-55 -58.5t-78.5 -34v-3q86 -10 130.5 -52.5t44.5 -116.5q0 -60 -30.5 -109t-94 -77t-163.5 -28q-64 0 -112.5 9.5t-94.5 29.5v130q47 -24 97 -35.5t93 -11.5q81 0 113 26.5t32 73.5q0 32 -17 53.5t-54 32t-100 10.5h-53v118h54q57 0 92 12
t51.5 34.5t16.5 51.5q0 38 -27 57.5t-73 19.5q-34 0 -63.5 -8.5t-52.5 -20.5t-41 -23l-66 102q42 30 99 51.5t142 21.5q111 0 171 -46.5t60 -123.5z" />
    <glyph glyph-name="four" unicode="4" horiz-adv-x="581" 
d="M564 147h-89v-147h-149v147h-307v116l312 453h144v-450h89v-119zM326 404q0 17 0.5 36t1 37t1.5 32t1 21h-4q-10 -21 -19 -38t-21 -35l-132 -191h172v138z" />
    <glyph glyph-name="five" unicode="5" horiz-adv-x="581" 
d="M305 456q65 0 116 -26t80 -75.5t29 -120.5q0 -78 -32 -132.5t-94 -83t-155 -28.5q-59 0 -109 10t-87 29v129q37 -19 89.5 -32.5t97.5 -13.5q42 0 72.5 12.5t47 38.5t16.5 64q0 52 -34.5 81t-107.5 29q-27 0 -56.5 -5.5t-50.5 -11.5l-60 33l27 361h387v-129h-258l-12 -138
q16 3 37.5 6t56.5 3z" />
    <glyph glyph-name="six" unicode="6" horiz-adv-x="581" 
d="M42 303q0 62 9 122.5t31 114t62 95t102 65.5t152 24q21 0 49.5 -2.5t46.5 -5.5v-122q-19 5 -43 7.5t-55 2.5q-60 0 -100.5 -16.5t-64 -46.5t-35 -70.5t-13.5 -89.5h6q13 24 33 43t49.5 30t69.5 11q62 0 107.5 -26.5t70 -77t24.5 -122.5q0 -78 -29.5 -134t-83.5 -85.5
t-129 -29.5q-55 0 -102 18.5t-82 57.5t-55 98t-20 139zM298 112q44 0 70.5 30t26.5 94q0 52 -23 81.5t-71 29.5q-33 0 -57 -14.5t-37 -37t-13 -46.5q0 -25 6.5 -49t19.5 -44t32.5 -32t45.5 -12z" />
    <glyph glyph-name="seven" unicode="7" horiz-adv-x="581" 
d="M115 0l264 585h-339v129h501v-96l-266 -618h-160z" />
    <glyph glyph-name="eight" unicode="8" horiz-adv-x="581" 
d="M291 724q101 0 165 -43.5t64 -129.5q0 -43 -17 -75t-46 -56.5t-65 -42.5q38 -20 72 -46t56 -60.5t22 -82.5q0 -58 -28.5 -103t-84 -70t-138.5 -25q-85 0 -141 24t-83.5 68t-27.5 104q0 49 18.5 84t49.5 59.5t69 43.5q-32 20 -58 45.5t-41.5 58.5t-15.5 75q0 57 30 95
t82 57.5t118 19.5zM181 190q0 -38 27.5 -63t80.5 -25q55 0 83 24t28 63q0 27 -15 48.5t-38.5 37.5t-49.5 27l-14 7q-31 -14 -54 -31t-35.5 -38.5t-12.5 -49.5zM290 612q-36 0 -60.5 -19t-24.5 -53q0 -24 11.5 -42t31 -32t43.5 -25q22 10 41.5 23.5t31 31.5t11.5 44
q0 34 -24 53t-61 19z" />
    <glyph glyph-name="nine" unicode="9" horiz-adv-x="581" 
d="M540 404q0 -88 -18.5 -163.5t-59.5 -132t-109.5 -87.5t-168.5 -31q-21 0 -49 1.5t-47 5.5v123q20 -5 42 -7.5t48 -2.5q64 0 105.5 16.5t66 46.5t36 71t13.5 88h-6q-14 -23 -34 -42t-49 -30t-71 -11q-61 0 -106 26.5t-70 77.5t-25 123q0 78 30 133.5t84.5 85t129.5 29.5
q54 0 100.5 -19t82 -58t55.5 -99.5t20 -143.5zM285 601q-45 0 -72 -30t-27 -94q0 -51 24 -80.5t72 -29.5q32 0 55.5 14.5t37 37t13.5 46.5t-6.5 48.5t-19 44.5t-32 31.5t-45.5 11.5z" />
    <glyph glyph-name="colon" unicode=":" horiz-adv-x="281" 
d="M54 70q0 47 25.5 65.5t61.5 18.5q35 0 60.5 -18.5t25.5 -65.5q0 -44 -25.5 -63.5t-60.5 -19.5q-36 0 -61.5 19.5t-25.5 63.5zM54 473q0 46 25.5 64.5t61.5 18.5q35 0 60.5 -18.5t25.5 -64.5q0 -45 -25.5 -64.5t-60.5 -19.5q-36 0 -61.5 19.5t-25.5 64.5z" />
    <glyph glyph-name="semicolon" unicode=";" horiz-adv-x="286" 
d="M224 123q-9 -35 -23 -81.5t-30.5 -93t-32.5 -83.5h-109q7 32 14.5 67t14 70.5t12 69.5t8.5 62h139zM55 473q0 46 25 64.5t61 18.5t61.5 -18.5t25.5 -64.5q0 -45 -25.5 -64.5t-61.5 -19.5t-61 19.5t-25 64.5z" />
    <glyph glyph-name="less" unicode="&#x3c;" horiz-adv-x="581" 
d="M532 98l-485 215v70l485 243v-119l-332 -154l332 -136v-119z" />
    <glyph glyph-name="equal" unicode="=" horiz-adv-x="581" 
d="M49 405v108h481v-108h-481zM49 191v109h481v-109h-481z" />
    <glyph glyph-name="greater" unicode="&#x3e;" horiz-adv-x="581" 
d="M47 217l332 136l-332 154v119l485 -243v-70l-485 -215v119z" />
    <glyph glyph-name="question" unicode="?" horiz-adv-x="477" 
d="M142 268q0 33 7.5 59t27 49t52.5 47q36 26 54 44t24.5 34t6.5 36q0 31 -23.5 48t-64.5 17q-42 0 -83 -12.5t-85 -35.5l-53 109q49 28 106.5 44.5t124.5 16.5q105 0 162.5 -48t57.5 -129q0 -41 -12.5 -72.5t-38.5 -58.5t-66 -56q-30 -22 -47.5 -38t-24 -31.5t-6.5 -36.5
v-22h-119v36zM121 70q0 47 25 65.5t62 18.5q34 0 59.5 -18.5t25.5 -65.5q0 -43 -25.5 -63t-59.5 -20q-37 0 -62 20t-25 63z" />
    <glyph glyph-name="at" unicode="@" horiz-adv-x="898" 
d="M851 364q0 -46 -11.5 -91t-34.5 -81t-56.5 -58t-78.5 -22q-39 0 -69 19.5t-44 49.5h-6q-21 -29 -54 -49t-79 -20q-86 0 -130.5 53t-44.5 140q0 66 27.5 118t80.5 82t128 30q47 0 92 -9t73 -19l-10 -205q0 -10 -0.5 -21t-0.5 -21q0 -34 11.5 -46.5t27.5 -12.5
q23 0 39 22.5t25 60t9 81.5q0 82 -32 140.5t-92 90t-143 31.5q-79 0 -139 -24.5t-100.5 -70t-61.5 -107t-21 -134.5q0 -86 32 -148.5t94.5 -96t154.5 -33.5q58 0 120.5 13t116.5 32v-94q-49 -21 -108 -32.5t-125 -11.5q-124 0 -212.5 44.5t-135 128t-46.5 198.5
q0 91 30 169.5t86 136t135.5 90t178.5 32.5q83 0 151.5 -24.5t118.5 -70.5t77 -111.5t27 -148.5zM357 305q0 -55 21 -79.5t56 -24.5q46 0 66 36t24 107l5 95q-11 3 -23 4.5t-26 1.5q-43 0 -70.5 -20t-40 -51.5t-12.5 -68.5z" />
    <glyph glyph-name="A" unicode="A" horiz-adv-x="692" 
d="M527 0l-55 168h-252l-55 -168h-165l251 717h188l253 -717h-165zM387 451q-4 15 -12.5 45t-16.5 61.5t-13 51.5q-4 -23 -11.5 -53l-14.5 -58t-12 -47l-51 -155h181z" />
    <glyph glyph-name="B" unicode="B" horiz-adv-x="665" 
d="M316 714q147 0 214 -43.5t67 -134.5q0 -45 -16.5 -77.5t-44 -52.5t-60.5 -27v-5q35 -7 67 -25t52 -52t20 -90q0 -65 -32 -111.5t-90.5 -71t-140.5 -24.5h-267v714h231zM324 428q66 0 91 24t25 63q0 41 -29.5 60.5t-93.5 19.5h-79v-167h86zM238 313v-192h97
q68 0 94.5 27.5t26.5 70.5q0 27 -11.5 48t-39 33.5t-75.5 12.5h-92z" />
    <glyph glyph-name="C" unicode="C" horiz-adv-x="642" 
d="M398 597q-43 0 -77.5 -16.5t-58.5 -48t-36.5 -76t-12.5 -101.5q0 -75 21 -128.5t63.5 -81.5t106.5 -28q47 0 90.5 11t87.5 28v-130q-45 -19 -91.5 -27.5t-103.5 -8.5q-114 0 -187.5 45.5t-109 128.5t-35.5 192q0 81 22.5 148.5t66.5 116.5t108 76t148 27
q53 0 107.5 -11.5t103.5 -35.5l-50 -122q-36 17 -76.5 29.5t-86.5 12.5z" />
    <glyph glyph-name="D" unicode="D" horiz-adv-x="732" 
d="M678 369q0 -123 -46 -205t-129.5 -123t-199.5 -41h-218v714h236q113 0 192.5 -39.5t122 -116.5t42.5 -189zM518 363q0 77 -22.5 127t-67.5 74.5t-111 24.5h-79v-463h64q110 0 163 59t53 178z" />
    <glyph glyph-name="E" unicode="E" horiz-adv-x="552" 
d="M499 0h-414v714h414v-125h-261v-156h244v-125h-244v-181h261v-127z" />
    <glyph glyph-name="F" unicode="F" horiz-adv-x="531" 
d="M236 0h-151v714h413v-125h-262v-182h243v-125h-243v-282z" />
    <glyph glyph-name="G" unicode="G" horiz-adv-x="735" 
d="M381 402h284v-371q-56 -19 -122.5 -30t-143.5 -11q-106 0 -183 42t-119 124t-42 202q0 112 43.5 194t126.5 127t203 45q64 0 121.5 -12t102.5 -32l-51 -122q-38 18 -82 28.5t-92 10.5q-73 0 -120.5 -31.5t-70.5 -86t-23 -124.5q0 -73 22.5 -126.5t67.5 -82.5t114 -29
q28 0 56 3.5t46 8.5v151h-138v122z" />
    <glyph glyph-name="H" unicode="H" horiz-adv-x="756" 
d="M671 0h-153v307h-280v-307h-153v714h153v-279h280v279h153v-714z" />
    <glyph glyph-name="I" unicode="I" horiz-adv-x="401" 
d="M364 0h-328v87l87 29v483l-87 28v87h328v-87l-87 -28v-483l87 -29v-87z" />
    <glyph glyph-name="J" unicode="J" horiz-adv-x="321" 
d="M11 -211q-29 0 -51 3.5t-39 7.5v122q16 -4 34 -7t38 -3q31 0 51.5 12t30.5 39.5t10 70.5v680h154v-667q0 -92 -29 -149t-80 -83t-119 -26z" />
    <glyph glyph-name="K" unicode="K" horiz-adv-x="660" 
d="M660 0h-174l-185 300l-63 -46v-254h-153v714h153v-326q19 27 41 54.5t43 53.5l167 218h170l-248 -316z" />
    <glyph glyph-name="L" unicode="L" horiz-adv-x="559" 
d="M85 0v714h153v-588h289v-126h-442z" />
    <glyph glyph-name="M" unicode="M" horiz-adv-x="944" 
d="M397 0l-180 558h-4q2 -20 3.5 -53t3 -71.5t1.5 -75.5v-358h-136v714h208l177 -537h4l177 537h208v-714h-143v362q0 35 1 71.5t3 69.5t3 54h-4l-181 -557h-141z" />
    <glyph glyph-name="N" unicode="N" horiz-adv-x="805" 
d="M720 0h-195l-308 538h-4q2 -23 3.5 -55t3 -66t1.5 -65v-352h-136v714h194l307 -533h4q-1 20 -3 51.5t-3 66t-1 61.5v354h137v-714z" />
    <glyph glyph-name="O" unicode="O" horiz-adv-x="791" 
d="M735 358q0 -83 -20.5 -150.5t-62 -116.5t-105.5 -75t-152 -26q-87 0 -151.5 26t-106 75t-62 116.5t-20.5 151.5q0 111 36.5 193t112 127.5t192.5 45.5q116 0 191.5 -45.5t111.5 -128t36 -193.5zM216 358q0 -74 18.5 -128t58.5 -82.5t102 -28.5q64 0 103.5 28.5t57.5 82.5
t18 128q0 112 -41 176t-137 64q-63 0 -103 -29t-58.5 -82.5t-18.5 -128.5z" />
    <glyph glyph-name="P" unicode="P" horiz-adv-x="621" 
d="M309 714q138 0 204 -57.5t66 -162.5q0 -47 -14 -90t-46.5 -77.5t-85.5 -54t-130 -19.5h-65v-253h-153v714h224zM304 589h-66v-210h51q42 0 72.5 10.5t47 35t16.5 64.5q0 48 -29.5 74t-91.5 26z" />
    <glyph glyph-name="Q" unicode="Q" horiz-adv-x="791" 
d="M735 358q0 -79 -19 -145.5t-57 -115t-99 -75.5l173 -192h-197l-127 160h-7h-7q-87 0 -151.5 26t-106 75t-62 116.5t-20.5 151.5q0 111 36.5 193t112 127.5t192.5 45.5q116 0 191.5 -45.5t111.5 -128t36 -193.5zM216 358q0 -74 18.5 -128t58.5 -82.5t102 -28.5
q64 0 103.5 28.5t57.5 82.5t18 128q0 112 -41 176t-137 64q-63 0 -103 -29t-58.5 -82.5t-18.5 -128.5z" />
    <glyph glyph-name="R" unicode="R" horiz-adv-x="656" 
d="M304 714q94 0 156 -23.5t92.5 -69.5t30.5 -115q0 -48 -17 -85t-46 -63t-66 -43l203 -315h-175l-159 274h-85v-274h-153v714h219zM301 595h-63v-203h63q61 0 94 25t33 82q0 32 -13.5 53t-41.5 32t-72 11z" />
    <glyph glyph-name="S" unicode="S" horiz-adv-x="566" 
d="M528 207q0 -60 -30.5 -109.5t-90 -78.5t-150.5 -29q-45 0 -81.5 4.5t-68 13.5t-60.5 23v138q49 -24 106 -38.5t108 -14.5q39 0 64 10t37.5 27.5t12.5 39.5q0 26 -14 43t-45 33.5t-85 38.5q-57 24 -96.5 51.5t-60.5 67.5t-21 99q0 64 32 108t89 67t132 23
q66 0 119.5 -13.5t95.5 -33.5l-47 -121q-42 19 -86.5 31t-85.5 12q-33 0 -54.5 -8.5t-32 -24t-10.5 -35.5q0 -25 14 -42t46 -34t87 -40q56 -23 95 -50.5t60 -64.5t21 -93z" />
    <glyph glyph-name="T" unicode="T" horiz-adv-x="577" 
d="M365 0h-153v587h-193v127h539v-127h-193v-587z" />
    <glyph glyph-name="U" unicode="U" horiz-adv-x="747" 
d="M667 272q0 -84 -32.5 -147.5t-98.5 -99t-165 -35.5q-143 0 -217 74.5t-74 205.5v444h153v-436q0 -80 35.5 -119.5t105.5 -39.5q50 0 81 18t45 54t14 88v435h153v-442z" />
    <glyph glyph-name="V" unicode="V" horiz-adv-x="657" 
d="M657 714l-242 -714h-173l-242 714h169l122 -399q7 -24 14.5 -54t14 -59t9.5 -51q3 22 9 51t13 58.5t15 53.5l123 400h168z" />
    <glyph glyph-name="W" unicode="W" horiz-adv-x="996" 
d="M982 714l-181 -714h-175l-95 372q-4 14 -9 35.5t-10 45.5t-9 45.5t-5 35.5q-2 -14 -5.5 -35.5t-8.5 -45.5t-10 -45.5t-9 -36.5l-95 -371h-174l-182 714h150l91 -388q4 -17 9 -41t10 -49.5t9.5 -49.5t6.5 -42q4 26 9 58t12 65t14 62.5t12 51.5l88 333h145l89 -334
q5 -22 12 -52t14 -63t12.5 -65t8.5 -56q3 25 9.5 58.5t13.5 66.5t12 56l91 389h150z" />
    <glyph glyph-name="X" unicode="X" horiz-adv-x="670" 
d="M666 0h-176l-158 257l-159 -257h-170l237 368l-223 346h170l147 -244l144 244h171l-224 -355z" />
    <glyph glyph-name="Y" unicode="Y" horiz-adv-x="626" 
d="M313 415l147 299h166l-236 -436v-278h-154v273l-236 441h166z" />
    <glyph glyph-name="Z" unicode="Z" horiz-adv-x="596" 
d="M565 0h-532v99l335 489h-326v126h515v-99l-336 -489h344v-126z" />
    <glyph glyph-name="bracketleft" unicode="[" horiz-adv-x="326" 
d="M302 -164h-236v890h236v-104h-108v-682h108v-104z" />
    <glyph glyph-name="backslash" unicode="\" horiz-adv-x="415" 
d="M142 720l267 -726h-137l-266 726h136z" />
    <glyph glyph-name="bracketright" unicode="]" horiz-adv-x="326" 
d="M24 -60h108v682h-108v104h236v-890h-236v104z" />
    <glyph glyph-name="asciicircum" unicode="^" horiz-adv-x="543" 
d="M10 254l214 464h70l242 -464h-118l-156 312l-136 -312h-116z" />
    <glyph glyph-name="underscore" unicode="_" horiz-adv-x="478" 
d="M480 -173h-482v98h482v-98z" />
    <glyph glyph-name="grave" unicode="`" horiz-adv-x="365" 
d="M209 766q15 -22 35.5 -49t42.5 -53t38 -45v-13h-101q-19 13 -44.5 32.5t-52 41t-50 42t-37.5 34.5v10h169z" />
    <glyph glyph-name="a" unicode="a" horiz-adv-x="599" 
d="M317 556q103 0 157 -48.5t54 -143.5v-364h-105l-29 74h-4q-23 -29 -47.5 -48t-56.5 -27.5t-78 -8.5q-48 0 -86 18.5t-60 56.5t-22 96q0 86 62 129t185 48l91 3v17q0 49 -22 68.5t-62 19.5q-37 0 -76 -12t-77 -29l-44 103q43 22 98.5 35t121.5 13zM321 250q-71 -2 -99 -23
t-28 -59q0 -35 19.5 -51.5t52.5 -16.5q47 0 79.5 28t32.5 80v45z" />
    <glyph glyph-name="b" unicode="b" horiz-adv-x="632" 
d="M224 583q0 -31 -1.5 -59t-4.5 -49h6q22 34 59 57.5t96 23.5q91 0 148 -71.5t57 -210.5q0 -93 -26 -156.5t-73.5 -95.5t-109.5 -32q-60 0 -94.5 21.5t-56.5 47.5h-10l-25 -59h-116v760h151v-177zM330 436q-38 0 -61.5 -16t-34 -48.5t-10.5 -84.5v-18q0 -77 23.5 -117
t84.5 -40q49 0 74 42t25 122q0 79 -24.5 119.5t-76.5 40.5z" />
    <glyph glyph-name="c" unicode="c" horiz-adv-x="516" 
d="M311 -10q-79 0 -138.5 29.5t-92.5 92t-33 158.5q0 101 36 164t98 92.5t141 29.5q48 0 90.5 -10t75.5 -27l-45 -114q-30 13 -60.5 21.5t-60.5 8.5q-39 0 -66 -18t-41 -54.5t-14 -91.5q0 -54 14 -89t41 -52.5t64 -17.5q43 0 81 11.5t72 30.5v-123q-31 -19 -70 -30t-92 -11z
" />
    <glyph glyph-name="d" unicode="d" horiz-adv-x="632" 
d="M252 -10q-90 0 -147.5 71.5t-57.5 210.5q0 141 58 212.5t152 71.5q39 0 67.5 -10.5t49.5 -28.5t36 -41h5q-3 18 -5.5 50.5t-2.5 59.5v174h152v-760h-116l-30 71h-6q-14 -23 -35 -41t-50.5 -29t-69.5 -11zM305 111q62 0 87 35.5t25 108.5v16q0 79 -24 121t-89 42
q-49 0 -76.5 -42t-27.5 -122t27.5 -119.5t77.5 -39.5z" />
    <glyph glyph-name="e" unicode="e" horiz-adv-x="597" 
d="M306 556q76 0 131 -28.5t84.5 -84t29.5 -135.5v-73h-351q2 -62 38 -97.5t103 -35.5q51 0 93 10t86 30v-113q-40 -20 -84.5 -29.5t-110.5 -9.5q-81 0 -143.5 30t-98.5 92.5t-36 156.5q0 96 32.5 159.5t91 95.5t135.5 32zM310 449q-45 0 -73 -28.5t-33 -84.5h206
q0 33 -11 58t-33.5 40t-55.5 15z" />
    <glyph glyph-name="f" unicode="f" horiz-adv-x="386" 
d="M376 433h-125v-433h-151v433h-81v73l84 40v18q0 106 44.5 153.5t137.5 47.5q39 0 71 -6t62 -17l-34 -102q-15 4 -33.5 8t-39.5 4q-31 0 -45.5 -20t-14.5 -63v-23h125v-113z" />
    <glyph glyph-name="g" unicode="g" horiz-adv-x="632" 
d="M255 556q57 0 95 -21.5t63 -57.5h4l14 69h128v-550q0 -77 -30 -129.5t-90.5 -79.5t-153.5 -27q-63 0 -113 7.5t-94 25.5v128q45 -20 92.5 -31t109.5 -11q63 0 95.5 29t32.5 80v15q0 12 1.5 32t3.5 35h-5q-23 -36 -60.5 -58t-93.5 -22q-94 0 -150.5 73t-56.5 209t57 210
t151 74zM304 437q-33 0 -56.5 -19t-35 -56t-11.5 -92q0 -82 26.5 -122t79.5 -40q30 0 51 9t34 26.5t19.5 44.5t6.5 64v22q0 55 -11 91t-36 54t-67 18z" />
    <glyph glyph-name="h" unicode="h" 
d="M224 607q0 -44 -2.5 -77.5t-4.5 -53.5h8q18 29 42 46t53.5 25.5t62.5 8.5q59 0 103 -21t68.5 -64.5t24.5 -114.5v-356h-151v318q0 59 -21 88.5t-66 29.5q-44 0 -69.5 -21t-36.5 -61t-11 -98v-256h-151v760h151v-153z" />
    <glyph glyph-name="i" unicode="i" horiz-adv-x="299" 
d="M225 546v-546h-151v546h151zM150 761q33 0 57.5 -15.5t24.5 -58.5q0 -41 -24.5 -57t-57.5 -16q-34 0 -58 16t-24 57q0 43 24 58.5t58 15.5z" />
    <glyph glyph-name="j" unicode="j" horiz-adv-x="298" 
d="M40 -240q-23 0 -49 3.5t-44 8.5v119q16 -4 30.5 -7t31.5 -3q27 0 45.5 17t18.5 67v581h151v-605q0 -50 -18 -91t-58.5 -65.5t-107.5 -24.5zM68 687q0 43 23.5 58.5t58.5 15.5q32 0 57 -15.5t25 -58.5q0 -41 -25 -57t-57 -16q-35 0 -58.5 16t-23.5 57z" />
    <glyph glyph-name="k" unicode="k" horiz-adv-x="610" 
d="M224 423q0 -27 -2 -62t-6 -64h4q7 11 18 26t22.5 31t20.5 27l142 165h171l-202 -232l215 -314h-175l-146 218l-62 -49v-169h-151v760h151v-337z" />
    <glyph glyph-name="l" unicode="l" horiz-adv-x="298" 
d="M224 0h-151v760h151v-760z" />
    <glyph glyph-name="m" unicode="m" horiz-adv-x="975" 
d="M714 556q94 0 142 -47t48 -153v-356h-150v318q0 63 -21 90.5t-63 27.5q-58 0 -82 -42.5t-24 -120.5v-273h-151v318q0 41 -9 67t-27 38.5t-46 12.5q-41 0 -64.5 -21t-33 -61t-9.5 -98v-256h-151v546h116l22 -70h5q16 25 39.5 43t54.5 27.5t69 9.5q61 0 101.5 -21t63.5 -61
h5q27 41 70 61.5t95 20.5z" />
    <glyph glyph-name="n" unicode="n" 
d="M385 556q90 0 142 -47t52 -153v-356h-150v318q0 59 -21.5 88.5t-66.5 29.5q-68 0 -92.5 -46.5t-24.5 -133.5v-256h-151v546h116l21 -73h6q18 27 43.5 45.5t57 28t68.5 9.5z" />
    <glyph glyph-name="o" unicode="o" horiz-adv-x="625" 
d="M577 274q0 -68 -18.5 -121t-53 -89t-83.5 -55t-111 -19q-58 0 -106 19t-83 55t-55 89t-20 121q0 91 32 154t92 95.5t143 32.5q77 0 136 -32.5t93 -95.5t34 -154zM201 274q0 -53 11.5 -91t36 -58t64.5 -20q39 0 63.5 20t35.5 58t11 91q0 54 -11.5 91t-35.5 56.5t-64 19.5
q-58 0 -84.5 -43t-26.5 -124z" />
    <glyph glyph-name="p" unicode="p" horiz-adv-x="632" 
d="M379 556q95 0 150 -71.5t55 -210.5q0 -92 -26.5 -156t-73.5 -96t-109 -32q-40 0 -69 10.5t-48.5 26t-33.5 32.5h-6q2 -18 4 -41.5t2 -48.5v-209h-151v786h123l21 -71h7q15 23 35.5 41t50 29t69.5 11zM329 436q-38 0 -61 -16t-33 -48t-11 -81v-16q0 -52 9.5 -88.5
t33 -55.5t63.5 -19q34 0 56.5 19t33.5 55.5t11 89.5q0 81 -25.5 120.5t-76.5 39.5z" />
    <glyph glyph-name="q" unicode="q" horiz-adv-x="632" 
d="M408 -11q0 19 1 41t4 41h-6q-20 -34 -57 -57.5t-97 -23.5q-92 0 -149 71.5t-57 210.5q0 94 26.5 157t74 95t108.5 32q60 0 97 -23t60 -57h4l14 70h128v-786h-151v229zM307 109q40 0 64.5 15.5t35 48t10.5 80.5v21q0 79 -23.5 121.5t-89.5 42.5q-52 0 -77.5 -44
t-25.5 -124q0 -81 26 -121t80 -40z" />
    <glyph glyph-name="r" unicode="r" horiz-adv-x="447" 
d="M375 556q15 0 32.5 -1.5t27.5 -4.5l-15 -141q-11 2 -26 4t-36 2q-23 0 -46.5 -7t-43.5 -23t-32 -42t-12 -66v-277h-151v546h115l22 -92h7q16 29 40 52t54 36.5t64 13.5z" />
    <glyph glyph-name="s" unicode="s" horiz-adv-x="502" 
d="M460 161q0 -52 -24.5 -90.5t-74.5 -59.5t-127 -21q-58 0 -102 7.5t-85 24.5v125q44 -21 95 -33t88 -12q46 0 66.5 13t20.5 35q0 15 -10.5 27t-37 25t-75.5 32q-49 20 -82 41.5t-49.5 51.5t-16.5 75q0 75 59.5 114.5t157.5 39.5q53 0 98.5 -11t92.5 -31l-44 -103
q-38 17 -78 28t-71 11q-34 0 -53 -10.5t-19 -29.5q0 -14 10.5 -25t37 -23t74.5 -31q49 -19 82.5 -40.5t50 -52t16.5 -77.5z" />
    <glyph glyph-name="t" unicode="t" horiz-adv-x="421" 
d="M309 110q23 0 44.5 5t40.5 11v-111q-24 -11 -55.5 -18t-74.5 -7q-49 0 -87.5 16t-61 55.5t-22.5 110.5v261h-71v64l82 50l44 115h96v-116h143v-113h-143v-252q0 -36 17.5 -53.5t47.5 -17.5z" />
    <glyph glyph-name="u" unicode="u" 
d="M576 546v-546h-116l-19 70h-9q-17 -28 -43.5 -46t-58 -26t-66.5 -8q-58 0 -101.5 21t-68 65t-24.5 114v356h152v-318q0 -58 20.5 -87.5t65.5 -29.5q46 0 71.5 20.5t35.5 60.5t10 98v256h151z" />
    <glyph glyph-name="v" unicode="v" horiz-adv-x="571" 
d="M208 0l-208 546h158l102 -322q4 -11 8.5 -27t8.5 -33t5 -30h4q1 13 5 29.5t9 32.5t9 27l104 323h158l-208 -546h-155z" />
    <glyph glyph-name="w" unicode="w" horiz-adv-x="862" 
d="M463 266q-6 26 -13 56.5t-11.5 57.5t-7.5 42h-3q-2 -15 -7.5 -42.5t-12 -58.5t-14.5 -60l-71 -261h-162l-149 547h150l56 -241q6 -25 12 -56.5t11 -62.5t6 -55h3q2 17 6 40t8.5 46.5t9 43.5t7.5 31l68 254h166l65 -256q5 -20 11 -48.5t12 -57.5t8 -52h3q2 23 6.5 54
t10.5 62.5t13 56.5l59 241h147l-151 -547h-164z" />
    <glyph glyph-name="x" unicode="x" horiz-adv-x="591" 
d="M194 279l-175 267h171l106 -173l105 173h171l-177 -267l186 -279h-172l-113 186l-115 -186h-171z" />
    <glyph glyph-name="y" unicode="y" horiz-adv-x="571" 
d="M0 546h159l103 -312q5 -15 9.5 -30.5t8 -31.5t5.5 -31h4q3 21 10.5 46t14.5 47l101 312h156l-224 -596q-22 -61 -52.5 -103.5t-74.5 -64.5t-109 -22q-25 0 -44 2.5t-32 5.5v119q11 -2 26.5 -4t32.5 -2q31 0 52 12.5t35 33t24 46.5l12 31z" />
    <glyph glyph-name="z" unicode="z" horiz-adv-x="493" 
d="M462 0h-432v89l252 342h-238v115h409v-97l-245 -333h254v-116z" />
    <glyph glyph-name="braceleft" unicode="{" horiz-adv-x="412" 
d="M380 -164q-86 0 -136.5 17.5t-72 54t-21.5 92.5v132q0 31 -16 50.5t-43.5 28t-61.5 8.5v118q35 0 62 8.5t43 28t16 50.5v133q0 56 21.5 92t72 53.5t136.5 17.5v-111q-25 0 -48 -6t-37.5 -20t-14.5 -42v-137q0 -57 -29 -85.5t-85 -37.5v-6q57 -9 85.5 -37.5t28.5 -82.5
v-140q0 -27 14.5 -42t37.5 -20t48 -6v-111z" />
    <glyph glyph-name="bar" unicode="|" horiz-adv-x="525" 
d="M208 760h109v-987h-109v987z" />
    <glyph glyph-name="braceright" unicode="}" horiz-adv-x="412" 
d="M32 -53q26 1 48.5 6.5t37 20t14.5 41.5v139q0 55 29 83.5t85 37.5v6q-55 9 -84.5 37.5t-29.5 85.5v137q0 28 -14 42.5t-37 20t-49 5.5v111q88 0 138 -17.5t71 -53.5t21 -92v-133q0 -31 16 -50.5t43.5 -28t61.5 -8.5v-118q-33 0 -60.5 -8.5t-44 -28t-16.5 -50.5v-132
q0 -56 -22 -92.5t-72 -54t-136 -17.5v111z" />
    <glyph glyph-name="asciitilde" unicode="~" horiz-adv-x="581" 
d="M272 301q-37 16 -62.5 21.5t-48.5 5.5q-29 0 -59 -17t-55 -42v114q25 26 56 39.5t69 13.5q29 0 58.5 -6t76.5 -26q37 -16 63.5 -21.5t48.5 -5.5q28 0 58.5 17t55.5 42v-113q-25 -26 -56 -40t-70 -14q-29 0 -58.5 6.5t-76.5 25.5z" />
    <glyph glyph-name="uni00A0" unicode="&#xa0;" horiz-adv-x="260" 
 />
    <glyph glyph-name="exclamdown" unicode="&#xa1;" horiz-adv-x="282" 
d="M80 311h121l25 -481h-171zM228 473q0 -46 -25.5 -64.5t-61.5 -18.5q-34 0 -59.5 18.5t-25.5 64.5q0 45 25.5 64t59.5 19q36 0 61.5 -19t25.5 -64z" />
    <glyph glyph-name="cent" unicode="&#xa2;" horiz-adv-x="581" 
d="M368 647q41 -2 79 -12t69 -24l-45 -115q-31 13 -61.5 22t-60.5 9q-39 0 -66.5 -18t-41.5 -54.5t-14 -92.5t14.5 -90.5t41.5 -51t65 -16.5q42 0 80 11t72 30v-123q-27 -16 -59 -26.5t-74 -13.5v-92h-87v95q-64 9 -110 41t-71 90.5t-25 144.5q0 87 26 145.5t72 91.5t108 44
v82h88v-77z" />
    <glyph glyph-name="sterling" unicode="&#xa3;" horiz-adv-x="581" 
d="M346 724q53 0 101.5 -11.5t87.5 -28.5l-45 -113q-34 14 -67.5 22.5t-63.5 8.5q-36 0 -57.5 -20t-21.5 -70v-86h182v-108h-182v-69q0 -35 -11 -58.5t-28 -38t-35 -24.5h350v-128h-512v122q27 13 46.5 27.5t30 38t10.5 60.5v70h-87v108h87v93q0 70 27 115t75.5 67.5
t112.5 22.5z" />
    <glyph glyph-name="yen" unicode="&#xa5;" horiz-adv-x="581" 
d="M290 428l127 286h155l-186 -359h106v-87h-131v-67h131v-87h-131v-114h-142v114h-132v87h132v67h-132v87h104l-183 359h155z" />
    <glyph glyph-name="section" unicode="&#xa7;" horiz-adv-x="505" 
d="M58 393q0 43 25 72.5t54 46.5q-34 22 -52.5 51t-18.5 67q0 62 51 100t146 38q53 0 96.5 -11t80.5 -28l-39 -92q-33 16 -68 27.5t-73 11.5t-56 -11.5t-18 -33.5q0 -14 8.5 -26.5t31 -26t63.5 -29.5q55 -21 90.5 -45t53.5 -52t18 -64q0 -50 -23 -79.5t-51 -48.5
q31 -20 49 -48.5t18 -67.5q0 -68 -55.5 -110.5t-159.5 -42.5q-52 0 -94.5 9.5t-76.5 28.5v102q26 -13 56 -24t60.5 -17.5t56.5 -6.5q52 0 72 16t20 40q0 16 -7.5 28t-29 25.5t-64.5 29.5q-50 22 -86.5 44t-57 52t-20.5 75zM174 406q0 -19 10.5 -35t34 -30.5t62.5 -32.5
l16 -7q13 10 25 26t12 41q0 21 -10 37.5t-35 32.5t-70 32q-17 -6 -31 -22.5t-14 -41.5z" />
    <glyph glyph-name="dieresis" unicode="&#xa8;" horiz-adv-x="593" 
d="M125 686q0 35 20 51t49 16q28 0 48.5 -16t20.5 -51q0 -33 -20.5 -49t-48.5 -16q-29 0 -49 16t-20 49zM341 686q0 35 19.5 51t49.5 16q28 0 48.5 -16t20.5 -51q0 -33 -20.5 -49t-48.5 -16q-30 0 -49.5 16t-19.5 49z" />
    <glyph glyph-name="copyright" unicode="&#xa9;" horiz-adv-x="827" 
d="M420 130q-104 0 -156.5 62.5t-52.5 165.5q0 67 23 118t69.5 79t115.5 28q39 0 74.5 -9t68.5 -26l-38 -85q-25 14 -49.5 20.5t-50.5 6.5q-46 0 -72.5 -34.5t-26.5 -98.5q0 -67 24 -100.5t77 -33.5q28 0 59 7.5t59 21.5v-94q-29 -13 -58 -20.5t-66 -7.5zM414 -10
q-80 0 -147 27t-116.5 76.5t-76.5 116.5t-27 147t27 147t76.5 116.5t116.5 76.5t147 27q78 0 145 -27t116.5 -76.5t77.5 -116.5t28 -147t-27 -147t-76.5 -116.5t-116.5 -76.5t-147 -27zM414 59q62 0 115 22t92 62t60.5 94.5t21.5 119.5q0 64 -21 118.5t-59.5 94.5t-92 62.5
t-116.5 22.5q-65 0 -118 -22t-92.5 -62t-60.5 -94.5t-21 -119.5q0 -64 21 -118.5t60.5 -94.5t92.5 -62.5t118 -22.5z" />
    <glyph glyph-name="ordfeminine" unicode="&#xaa;" horiz-adv-x="381" 
d="M199 722q65 0 102.5 -32t37.5 -98v-219h-67l-18 54q-21 -29 -48.5 -44.5t-68.5 -15.5q-32 0 -57 11.5t-39 36t-14 61.5q0 39 18.5 62.5t55.5 35t90 13.5l48 2v10q0 25 -15.5 35.5t-42.5 10.5t-50.5 -7t-51.5 -20l-31 69q32 16 67 25.5t84 9.5zM196 528
q-42 -2 -55.5 -15.5t-13.5 -32.5q0 -20 11 -29.5t31 -9.5q36 0 53 21.5t17 52.5v16z" />
    <glyph glyph-name="guillemotleft" unicode="&#xab;" horiz-adv-x="614" 
d="M38 280l181 223l108 -59l-136 -170l136 -170l-108 -58l-181 221v13zM286 280l182 223l108 -59l-136 -170l136 -170l-108 -58l-182 221v13z" />
    <glyph glyph-name="registered" unicode="&#xae;" horiz-adv-x="827" 
d="M263 147v431h133q95 0 137 -33.5t42 -97.5q0 -49 -21.5 -76t-50.5 -40l103 -184h-116l-83 163h-34v-163h-110zM395 386q33 0 51.5 14.5t18.5 42.5q0 30 -17.5 41t-52.5 11h-22v-109h22zM414 -10q-80 0 -147 27t-116.5 76.5t-76.5 116.5t-27 147t27 147t76.5 116.5
t116.5 76.5t147 27q78 0 145 -27t116.5 -76.5t77.5 -116.5t28 -147t-27 -147t-76.5 -116.5t-116.5 -76.5t-147 -27zM414 59q62 0 115 22t92 62t60.5 94.5t21.5 119.5q0 64 -21 118.5t-59.5 94.5t-92 62.5t-116.5 22.5q-65 0 -118 -22t-92.5 -62t-60.5 -94.5t-21 -119.5
q0 -64 21 -118.5t60.5 -94.5t92.5 -62.5t118 -22.5z" />
    <glyph glyph-name="overscore" unicode="&#xaf;" horiz-adv-x="500" 
d="M503 760h-506v99h506v-99z" />
    <glyph glyph-name="degree" unicode="&#xb0;" horiz-adv-x="424" 
d="M212 386q-50 0 -89 21.5t-61 59.5t-22 87q0 50 22 88t60.5 60t89.5 22t89.5 -22t60.5 -60t22 -88q0 -49 -22 -87t-60.5 -59.5t-89.5 -21.5zM213 480q36 0 55.5 20.5t19.5 53.5q0 35 -20 56t-55 21q-37 0 -57 -21t-20 -56q0 -33 20 -53.5t57 -20.5z" />
    <glyph glyph-name="acute" unicode="&#xb4;" horiz-adv-x="365" 
d="M325 756q-15 -14 -38 -34.5t-50 -42t-52.5 -41t-44.5 -32.5h-100v13q16 19 37.5 45t43 53t35.5 49h169v-10z" />
    <glyph glyph-name="paragraph" unicode="&#xb6;" horiz-adv-x="648" 
d="M567 -127h-79v797h-87v-797h-79v400q-15 -4 -30.5 -6.5t-34.5 -2.5q-62 0 -108 23t-71.5 77t-25.5 145q0 96 27.5 150.5t77.5 77.5t115 23h295v-887z" />
    <glyph glyph-name="periodcentered" unicode="&#xb7;" horiz-adv-x="281" 
d="M54 353q0 47 25.5 65.5t61.5 18.5q35 0 60.5 -18.5t25.5 -65.5q0 -44 -25.5 -63.5t-60.5 -19.5q-36 0 -61.5 19.5t-25.5 63.5z" />
    <glyph glyph-name="cedilla" unicode="&#xb8;" horiz-adv-x="263" 
d="M244 -129q0 -51 -37 -81t-103 -30q-26 0 -48.5 3.5t-36.5 8.5v79q14 -4 29.5 -6.5t30.5 -2.5q26 0 39.5 8.5t13.5 26.5q0 20 -20 31t-58 17l35 75h80l-15 -39q21 -4 42 -14.5t34.5 -28.5t13.5 -47z" />
    <glyph glyph-name="ordmasculine" unicode="&#xba;" horiz-adv-x="386" 
d="M360 544q0 -84 -45.5 -130.5t-122.5 -46.5q-72 0 -118.5 46.5t-46.5 130.5q0 86 44.5 132t122.5 46q48 0 85 -21t59 -60.5t22 -96.5zM127 544q0 -48 16 -72t50 -24t49.5 24t15.5 72q0 49 -15.5 73.5t-49.5 24.5t-50 -24.5t-16 -73.5z" />
    <glyph glyph-name="guillemotright" unicode="&#xbb;" horiz-adv-x="614" 
d="M576 267l-181 -221l-109 58l136 170l-136 170l109 59l181 -223v-13zM327 267l-181 -221l-108 58l136 170l-136 170l108 59l181 -223v-13z" />
    <glyph glyph-name="questiondown" unicode="&#xbf;" horiz-adv-x="477" 
d="M334 275q0 -32 -7.5 -58t-26.5 -49t-53 -47q-35 -26 -53 -44t-24.5 -34t-6.5 -36q0 -31 23.5 -48.5t64.5 -17.5q42 0 83 13.5t84 34.5l54 -108q-49 -27 -106 -44t-126 -17q-105 0 -162.5 48t-57.5 128q0 41 13 73t39 59.5t65 54.5q32 23 48.5 39t23 32t6.5 36v21h119v-36
zM356 473q0 -46 -25 -64.5t-62 -18.5q-35 0 -60.5 18.5t-25.5 64.5q0 45 25.5 64t60.5 19q37 0 62 -19t25 -64z" />
    <glyph glyph-name="Agrave" unicode="&#xc0;" horiz-adv-x="692" 
d="M527 0l-55 168h-252l-55 -168h-165l251 717h188l253 -717h-165zM387 451q-4 15 -12.5 45t-16.5 61.5t-13 51.5q-4 -23 -11.5 -53l-14.5 -58t-12 -47l-51 -155h181zM361 934q15 -22 35.5 -49t42.5 -53t38 -45v-13h-101q-19 13 -44.5 32.5t-52 41t-50 42t-37.5 34.5v10h169
z" />
    <glyph glyph-name="Aacute" unicode="&#xc1;" horiz-adv-x="692" 
d="M527 0l-55 168h-252l-55 -168h-165l251 717h188l253 -717h-165zM387 451q-4 15 -12.5 45t-16.5 61.5t-13 51.5q-4 -23 -11.5 -53l-14.5 -58t-12 -47l-51 -155h181zM549 924q-15 -14 -38 -34.5t-50 -42t-52.5 -41t-44.5 -32.5h-100v13q16 19 37.5 45t43 53t35.5 49h169
v-10z" />
    <glyph glyph-name="Acircumflex" unicode="&#xc2;" horiz-adv-x="692" 
d="M527 0l-55 168h-252l-55 -168h-165l251 717h188l253 -717h-165zM387 451q-4 15 -12.5 45t-16.5 61.5t-13 51.5q-4 -23 -11.5 -53l-14.5 -58t-12 -47l-51 -155h181zM422 934q14 -23 36.5 -50.5t46.5 -53t42 -43.5v-13h-100q-26 15 -51 35.5t-51 44.5q-26 -24 -50 -43.5
t-50 -36.5h-100v13q19 19 42.5 44.5t46 52.5t36.5 50h152z" />
    <glyph glyph-name="Atilde" unicode="&#xc3;" horiz-adv-x="692" 
d="M527 0l-55 168h-252l-55 -168h-165l251 717h188l253 -717h-165zM387 451q-4 15 -12.5 45t-16.5 61.5t-13 51.5q-4 -23 -11.5 -53l-14.5 -58t-12 -47l-51 -155h181zM149 773q3 40 12 68.5t24 47t35.5 27.5t46.5 9q20 0 40.5 -8t41.5 -18t40 -17.5t37 -7.5q15 0 26 10.5
t17 41.5h74q-6 -78 -37 -115t-79 -37q-21 0 -42.5 7.5t-42 18t-40 18t-37.5 7.5q-14 0 -25 -10.5t-17 -41.5h-74z" />
    <glyph glyph-name="Adieresis" unicode="&#xc4;" horiz-adv-x="692" 
d="M527 0l-55 168h-252l-55 -168h-165l251 717h188l253 -717h-165zM387 451q-4 15 -12.5 45t-16.5 61.5t-13 51.5q-4 -23 -11.5 -53l-14.5 -58t-12 -47l-51 -155h181zM169 854q0 35 20 51t49 16q28 0 48.5 -16t20.5 -51q0 -33 -20.5 -49t-48.5 -16q-29 0 -49 16t-20 49z
M385 854q0 35 19.5 51t49.5 16q28 0 48.5 -16t20.5 -51q0 -33 -20.5 -49t-48.5 -16q-30 0 -49.5 16t-19.5 49z" />
    <glyph glyph-name="Aring" unicode="&#xc5;" horiz-adv-x="692" 
d="M527 0l-55 168h-252l-55 -168h-165l251 717h188l253 -717h-165zM387 451q-4 15 -12.5 45t-16.5 61.5t-13 51.5q-4 -23 -11.5 -53l-14.5 -58t-12 -47l-51 -155h181zM343 648q-54 0 -87.5 31t-33.5 85q0 55 33.5 86t87.5 31q52 0 88.5 -31t36.5 -85q0 -55 -36 -86t-89 -31z
M343 717q20 0 33.5 13t13.5 34q0 22 -13.5 34.5t-33.5 12.5t-33.5 -12.5t-13.5 -34.5q0 -21 12 -34t35 -13z" />
    <glyph glyph-name="AE" unicode="&#xc6;" horiz-adv-x="921" 
d="M868 0h-404v168h-228l-71 -168h-168l319 714h552v-125h-251v-156h233v-125h-233v-181h251v-127zM286 297h178v286h-56z" />
    <glyph glyph-name="Ccedilla" unicode="&#xc7;" horiz-adv-x="642" 
d="M398 597q-43 0 -77.5 -16.5t-58.5 -48t-36.5 -76t-12.5 -101.5q0 -75 21 -128.5t63.5 -81.5t106.5 -28q47 0 90.5 11t87.5 28v-130q-45 -19 -91.5 -27.5t-103.5 -8.5q-114 0 -187.5 45.5t-109 128.5t-35.5 192q0 81 22.5 148.5t66.5 116.5t108 76t148 27
q53 0 107.5 -11.5t103.5 -35.5l-50 -122q-36 17 -76.5 29.5t-86.5 12.5zM486 -129q0 -51 -37 -81t-103 -30q-26 0 -48.5 3.5t-36.5 8.5v79q14 -4 29.5 -6.5t30.5 -2.5q26 0 39.5 8.5t13.5 26.5q0 20 -20 31t-58 17l35 75h80l-15 -39q21 -4 42 -14.5t34.5 -28.5t13.5 -47z
" />
    <glyph glyph-name="Egrave" unicode="&#xc8;" horiz-adv-x="552" 
d="M499 0h-414v714h414v-125h-261v-156h244v-125h-244v-181h261v-127zM310 934q15 -22 35.5 -49t42.5 -53t38 -45v-13h-101q-19 13 -44.5 32.5t-52 41t-50 42t-37.5 34.5v10h169z" />
    <glyph glyph-name="Eacute" unicode="&#xc9;" horiz-adv-x="552" 
d="M499 0h-414v714h414v-125h-261v-156h244v-125h-244v-181h261v-127zM499 924q-15 -14 -38 -34.5t-50 -42t-52.5 -41t-44.5 -32.5h-100v13q16 19 37.5 45t43 53t35.5 49h169v-10z" />
    <glyph glyph-name="Ecircumflex" unicode="&#xca;" horiz-adv-x="552" 
d="M499 0h-414v714h414v-125h-261v-156h244v-125h-244v-181h261v-127zM372 934q14 -23 36.5 -50.5t46.5 -53t42 -43.5v-13h-100q-26 15 -51 35.5t-51 44.5q-26 -24 -50 -43.5t-50 -36.5h-100v13q19 19 42.5 44.5t46 52.5t36.5 50h152z" />
    <glyph glyph-name="Edieresis" unicode="&#xcb;" horiz-adv-x="552" 
d="M499 0h-414v714h414v-125h-261v-156h244v-125h-244v-181h261v-127zM118 854q0 35 20 51t49 16q28 0 48.5 -16t20.5 -51q0 -33 -20.5 -49t-48.5 -16q-29 0 -49 16t-20 49zM334 854q0 35 19.5 51t49.5 16q28 0 48.5 -16t20.5 -51q0 -33 -20.5 -49t-48.5 -16q-30 0 -49.5 16
t-19.5 49z" />
    <glyph glyph-name="Igrave" unicode="&#xcc;" horiz-adv-x="401" 
d="M364 0h-328v87l87 29v483l-87 28v87h328v-87l-87 -28v-483l87 -29v-87zM216 934q15 -22 35.5 -49t42.5 -53t38 -45v-13h-101q-19 13 -44.5 32.5t-52 41t-50 42t-37.5 34.5v10h169z" />
    <glyph glyph-name="Iacute" unicode="&#xcd;" horiz-adv-x="401" 
d="M364 0h-328v87l87 29v483l-87 28v87h328v-87l-87 -28v-483l87 -29v-87zM404 924q-15 -14 -38 -34.5t-50 -42t-52.5 -41t-44.5 -32.5h-100v13q16 19 37.5 45t43 53t35.5 49h169v-10z" />
    <glyph glyph-name="Icircumflex" unicode="&#xce;" horiz-adv-x="401" 
d="M364 0h-328v87l87 29v483l-87 28v87h328v-87l-87 -28v-483l87 -29v-87zM277 934q14 -23 36.5 -50.5t46.5 -53t42 -43.5v-13h-100q-26 15 -51 35.5t-51 44.5q-26 -24 -50 -43.5t-50 -36.5h-100v13q19 19 42.5 44.5t46 52.5t36.5 50h152z" />
    <glyph glyph-name="Idieresis" unicode="&#xcf;" horiz-adv-x="401" 
d="M364 0h-328v87l87 29v483l-87 28v87h328v-87l-87 -28v-483l87 -29v-87zM24 854q0 35 20 51t49 16q28 0 48.5 -16t20.5 -51q0 -33 -20.5 -49t-48.5 -16q-29 0 -49 16t-20 49zM240 854q0 35 19.5 51t49.5 16q28 0 48.5 -16t20.5 -51q0 -33 -20.5 -49t-48.5 -16
q-30 0 -49.5 16t-19.5 49z" />
    <glyph glyph-name="Eth" unicode="&#xd0;" horiz-adv-x="732" 
d="M321 714q112 0 191.5 -39.5t122.5 -116.5t43 -189q0 -123 -46 -205t-130 -123t-199 -41h-215v290h-67v126h67v298h233zM317 589h-77v-173h133v-126h-133v-164h62q110 0 163 59t53 178q0 77 -23 127t-67.5 74.5t-110.5 24.5z" />
    <glyph glyph-name="Ntilde" unicode="&#xd1;" horiz-adv-x="805" 
d="M720 0h-195l-308 538h-4q2 -23 3.5 -55t3 -66t1.5 -65v-352h-136v714h194l307 -533h4q-1 20 -3 51.5t-3 66t-1 61.5v354h137v-714zM206 773q3 40 12 68.5t24 47t35.5 27.5t46.5 9q20 0 40.5 -8t41.5 -18t40 -17.5t37 -7.5q15 0 26 10.5t17 41.5h74q-6 -78 -37 -115
t-79 -37q-21 0 -42.5 7.5t-42 18t-40 18t-37.5 7.5q-14 0 -25 -10.5t-17 -41.5h-74z" />
    <glyph glyph-name="Ograve" unicode="&#xd2;" horiz-adv-x="791" 
d="M735 358q0 -83 -20.5 -150.5t-62 -116.5t-105.5 -75t-152 -26q-87 0 -151.5 26t-106 75t-62 116.5t-20.5 151.5q0 111 36.5 193t112 127.5t192.5 45.5q116 0 191.5 -45.5t111.5 -128t36 -193.5zM216 358q0 -74 18.5 -128t58.5 -82.5t102 -28.5q64 0 103.5 28.5t57.5 82.5
t18 128q0 112 -41 176t-137 64q-63 0 -103 -29t-58.5 -82.5t-18.5 -128.5zM411 934q15 -22 35.5 -49t42.5 -53t38 -45v-13h-101q-19 13 -44.5 32.5t-52 41t-50 42t-37.5 34.5v10h169z" />
    <glyph glyph-name="Oacute" unicode="&#xd3;" horiz-adv-x="791" 
d="M735 358q0 -83 -20.5 -150.5t-62 -116.5t-105.5 -75t-152 -26q-87 0 -151.5 26t-106 75t-62 116.5t-20.5 151.5q0 111 36.5 193t112 127.5t192.5 45.5q116 0 191.5 -45.5t111.5 -128t36 -193.5zM216 358q0 -74 18.5 -128t58.5 -82.5t102 -28.5q64 0 103.5 28.5t57.5 82.5
t18 128q0 112 -41 176t-137 64q-63 0 -103 -29t-58.5 -82.5t-18.5 -128.5zM600 924q-15 -14 -38 -34.5t-50 -42t-52.5 -41t-44.5 -32.5h-100v13q16 19 37.5 45t43 53t35.5 49h169v-10z" />
    <glyph glyph-name="Ocircumflex" unicode="&#xd4;" horiz-adv-x="791" 
d="M735 358q0 -83 -20.5 -150.5t-62 -116.5t-105.5 -75t-152 -26q-87 0 -151.5 26t-106 75t-62 116.5t-20.5 151.5q0 111 36.5 193t112 127.5t192.5 45.5q116 0 191.5 -45.5t111.5 -128t36 -193.5zM216 358q0 -74 18.5 -128t58.5 -82.5t102 -28.5q64 0 103.5 28.5t57.5 82.5
t18 128q0 112 -41 176t-137 64q-63 0 -103 -29t-58.5 -82.5t-18.5 -128.5zM472 934q14 -23 36.5 -50.5t46.5 -53t42 -43.5v-13h-100q-26 15 -51 35.5t-51 44.5q-26 -24 -50 -43.5t-50 -36.5h-100v13q19 19 42.5 44.5t46 52.5t36.5 50h152z" />
    <glyph glyph-name="Otilde" unicode="&#xd5;" horiz-adv-x="791" 
d="M735 358q0 -83 -20.5 -150.5t-62 -116.5t-105.5 -75t-152 -26q-87 0 -151.5 26t-106 75t-62 116.5t-20.5 151.5q0 111 36.5 193t112 127.5t192.5 45.5q116 0 191.5 -45.5t111.5 -128t36 -193.5zM216 358q0 -74 18.5 -128t58.5 -82.5t102 -28.5q64 0 103.5 28.5t57.5 82.5
t18 128q0 112 -41 176t-137 64q-63 0 -103 -29t-58.5 -82.5t-18.5 -128.5zM199 773q3 40 12 68.5t24 47t35.5 27.5t46.5 9q20 0 40.5 -8t41.5 -18t40 -17.5t37 -7.5q15 0 26 10.5t17 41.5h74q-6 -78 -37 -115t-79 -37q-21 0 -42.5 7.5t-42 18t-40 18t-37.5 7.5
q-14 0 -25 -10.5t-17 -41.5h-74z" />
    <glyph glyph-name="Odieresis" unicode="&#xd6;" horiz-adv-x="791" 
d="M735 358q0 -83 -20.5 -150.5t-62 -116.5t-105.5 -75t-152 -26q-87 0 -151.5 26t-106 75t-62 116.5t-20.5 151.5q0 111 36.5 193t112 127.5t192.5 45.5q116 0 191.5 -45.5t111.5 -128t36 -193.5zM216 358q0 -74 18.5 -128t58.5 -82.5t102 -28.5q64 0 103.5 28.5t57.5 82.5
t18 128q0 112 -41 176t-137 64q-63 0 -103 -29t-58.5 -82.5t-18.5 -128.5zM219 854q0 35 20 51t49 16q28 0 48.5 -16t20.5 -51q0 -33 -20.5 -49t-48.5 -16q-29 0 -49 16t-20 49zM435 854q0 35 19.5 51t49.5 16q28 0 48.5 -16t20.5 -51q0 -33 -20.5 -49t-48.5 -16
q-30 0 -49.5 16t-19.5 49z" />
    <glyph glyph-name="multiply" unicode="&#xd7;" horiz-adv-x="581" 
d="M436 575l76 -74l-148 -148l146 -147l-74 -75l-148 146l-146 -146l-74 76l145 146l-146 146l75 76l146 -146z" />
    <glyph glyph-name="Oslash" unicode="&#xd8;" horiz-adv-x="791" 
d="M735 358q0 -83 -20.5 -150.5t-62 -116.5t-105.5 -75t-152 -26q-48 0 -89 8t-74 23l-44 -65l-81 52l45 66q-49 49 -73 121.5t-24 163.5q0 111 36.5 193t112 127.5t192.5 45.5q49 0 91 -8.5t77 -25.5l40 61l81 -50l-44 -65q48 -48 71 -119t23 -160zM574 358q0 88 -25 142
l-242 -362q18 -9 40 -14t48 -5q64 0 103.5 28.5t57.5 82.5t18 128zM216 358q0 -45 6 -82.5t21 -66.5l244 367q-18 10 -41 16t-50 6q-63 0 -103 -29t-58.5 -82.5t-18.5 -128.5z" />
    <glyph glyph-name="Ugrave" unicode="&#xd9;" horiz-adv-x="747" 
d="M667 272q0 -84 -32.5 -147.5t-98.5 -99t-165 -35.5q-143 0 -217 74.5t-74 205.5v444h153v-436q0 -80 35.5 -119.5t105.5 -39.5q50 0 81 18t45 54t14 88v435h153v-442zM389 934q15 -22 35.5 -49t42.5 -53t38 -45v-13h-101q-19 13 -44.5 32.5t-52 41t-50 42t-37.5 34.5v10
h169z" />
    <glyph glyph-name="Uacute" unicode="&#xda;" horiz-adv-x="747" 
d="M667 272q0 -84 -32.5 -147.5t-98.5 -99t-165 -35.5q-143 0 -217 74.5t-74 205.5v444h153v-436q0 -80 35.5 -119.5t105.5 -39.5q50 0 81 18t45 54t14 88v435h153v-442zM578 924q-15 -14 -38 -34.5t-50 -42t-52.5 -41t-44.5 -32.5h-100v13q16 19 37.5 45t43 53t35.5 49h169
v-10z" />
    <glyph glyph-name="Ucircumflex" unicode="&#xdb;" horiz-adv-x="747" 
d="M667 272q0 -84 -32.5 -147.5t-98.5 -99t-165 -35.5q-143 0 -217 74.5t-74 205.5v444h153v-436q0 -80 35.5 -119.5t105.5 -39.5q50 0 81 18t45 54t14 88v435h153v-442zM450 934q14 -23 36.5 -50.5t46.5 -53t42 -43.5v-13h-100q-26 15 -51 35.5t-51 44.5q-26 -24 -50 -43.5
t-50 -36.5h-100v13q19 19 42.5 44.5t46 52.5t36.5 50h152z" />
    <glyph glyph-name="Udieresis" unicode="&#xdc;" horiz-adv-x="747" 
d="M667 272q0 -84 -32.5 -147.5t-98.5 -99t-165 -35.5q-143 0 -217 74.5t-74 205.5v444h153v-436q0 -80 35.5 -119.5t105.5 -39.5q50 0 81 18t45 54t14 88v435h153v-442zM197 854q0 35 20 51t49 16q28 0 48.5 -16t20.5 -51q0 -33 -20.5 -49t-48.5 -16q-29 0 -49 16t-20 49z
M413 854q0 35 19.5 51t49.5 16q28 0 48.5 -16t20.5 -51q0 -33 -20.5 -49t-48.5 -16q-30 0 -49.5 16t-19.5 49z" />
    <glyph glyph-name="Yacute" unicode="&#xdd;" horiz-adv-x="626" 
d="M313 415l147 299h166l-236 -436v-278h-154v273l-236 441h166zM517 924q-15 -14 -38 -34.5t-50 -42t-52.5 -41t-44.5 -32.5h-100v13q16 19 37.5 45t43 53t35.5 49h169v-10z" />
    <glyph glyph-name="Thorn" unicode="&#xde;" horiz-adv-x="618" 
d="M579 383q0 -48 -14 -91t-46 -77t-85 -53.5t-132 -19.5h-64v-142h-153v714h153v-112h70q140 0 205.5 -57.5t65.5 -161.5zM287 267q43 0 73.5 11.5t47 36.5t16.5 65q0 48 -28.5 72.5t-92.5 24.5h-65v-210h49z" />
    <glyph glyph-name="germandbls" unicode="&#xdf;" horiz-adv-x="704" 
d="M603 595q0 -34 -13.5 -60t-33.5 -45.5t-40.5 -34.5t-34 -28t-13.5 -25t9.5 -22t30.5 -23t56 -36q34 -22 57.5 -44.5t35 -50.5t11.5 -67q0 -56 -24 -93.5t-71 -56.5t-112 -19q-59 0 -98 7.5t-69 23.5v117q17 -10 40.5 -19t49.5 -15t48 -6q39 0 60 16t21 43q0 16 -6.5 29
t-26.5 28t-59 37q-41 24 -64.5 44t-34 41.5t-10.5 47.5q0 31 13.5 52.5t34 38t41 31.5t34 32.5t13.5 42.5q0 32 -28.5 49t-77.5 17q-36 0 -62.5 -11t-41 -33.5t-14.5 -59.5v-543h-151v555q0 72 35.5 118t96 69t137.5 23t135.5 -19t92 -56.5t33.5 -94.5z" />
    <glyph glyph-name="agrave" unicode="&#xe0;" horiz-adv-x="599" 
d="M317 556q103 0 157 -48.5t54 -143.5v-364h-105l-29 74h-4q-23 -29 -47.5 -48t-56.5 -27.5t-78 -8.5q-48 0 -86 18.5t-60 56.5t-22 96q0 86 62 129t185 48l91 3v17q0 49 -22 68.5t-62 19.5q-37 0 -76 -12t-77 -29l-44 103q43 22 98.5 35t121.5 13zM321 250q-71 -2 -99 -23
t-28 -59q0 -35 19.5 -51.5t52.5 -16.5q47 0 79.5 28t32.5 80v45zM315 766q15 -22 35.5 -49t42.5 -53t38 -45v-13h-101q-19 13 -44.5 32.5t-52 41t-50 42t-37.5 34.5v10h169z" />
    <glyph glyph-name="aacute" unicode="&#xe1;" horiz-adv-x="599" 
d="M317 556q103 0 157 -48.5t54 -143.5v-364h-105l-29 74h-4q-23 -29 -47.5 -48t-56.5 -27.5t-78 -8.5q-48 0 -86 18.5t-60 56.5t-22 96q0 86 62 129t185 48l91 3v17q0 49 -22 68.5t-62 19.5q-37 0 -76 -12t-77 -29l-44 103q43 22 98.5 35t121.5 13zM321 250q-71 -2 -99 -23
t-28 -59q0 -35 19.5 -51.5t52.5 -16.5q47 0 79.5 28t32.5 80v45zM504 756q-15 -14 -38 -34.5t-50 -42t-52.5 -41t-44.5 -32.5h-100v13q16 19 37.5 45t43 53t35.5 49h169v-10z" />
    <glyph glyph-name="acircumflex" unicode="&#xe2;" horiz-adv-x="599" 
d="M317 556q103 0 157 -48.5t54 -143.5v-364h-105l-29 74h-4q-23 -29 -47.5 -48t-56.5 -27.5t-78 -8.5q-48 0 -86 18.5t-60 56.5t-22 96q0 86 62 129t185 48l91 3v17q0 49 -22 68.5t-62 19.5q-37 0 -76 -12t-77 -29l-44 103q43 22 98.5 35t121.5 13zM321 250q-71 -2 -99 -23
t-28 -59q0 -35 19.5 -51.5t52.5 -16.5q47 0 79.5 28t32.5 80v45zM376 766q14 -23 36.5 -50.5t46.5 -53t42 -43.5v-13h-100q-26 15 -51 35.5t-51 44.5q-26 -24 -50 -43.5t-50 -36.5h-100v13q19 19 42.5 44.5t46 52.5t36.5 50h152z" />
    <glyph glyph-name="atilde" unicode="&#xe3;" horiz-adv-x="599" 
d="M317 556q103 0 157 -48.5t54 -143.5v-364h-105l-29 74h-4q-23 -29 -47.5 -48t-56.5 -27.5t-78 -8.5q-48 0 -86 18.5t-60 56.5t-22 96q0 86 62 129t185 48l91 3v17q0 49 -22 68.5t-62 19.5q-37 0 -76 -12t-77 -29l-44 103q43 22 98.5 35t121.5 13zM321 250q-71 -2 -99 -23
t-28 -59q0 -35 19.5 -51.5t52.5 -16.5q47 0 79.5 28t32.5 80v45zM103 605q3 40 12 68.5t24 47t35.5 27.5t46.5 9q20 0 40.5 -8t41.5 -18t40 -17.5t37 -7.5q15 0 26 10.5t17 41.5h74q-6 -78 -37 -115t-79 -37q-21 0 -42.5 7.5t-42 18t-40 18t-37.5 7.5q-14 0 -25 -10.5
t-17 -41.5h-74z" />
    <glyph glyph-name="adieresis" unicode="&#xe4;" horiz-adv-x="599" 
d="M317 556q103 0 157 -48.5t54 -143.5v-364h-105l-29 74h-4q-23 -29 -47.5 -48t-56.5 -27.5t-78 -8.5q-48 0 -86 18.5t-60 56.5t-22 96q0 86 62 129t185 48l91 3v17q0 49 -22 68.5t-62 19.5q-37 0 -76 -12t-77 -29l-44 103q43 22 98.5 35t121.5 13zM321 250q-71 -2 -99 -23
t-28 -59q0 -35 19.5 -51.5t52.5 -16.5q47 0 79.5 28t32.5 80v45zM123 686q0 35 20 51t49 16q28 0 48.5 -16t20.5 -51q0 -33 -20.5 -49t-48.5 -16q-29 0 -49 16t-20 49zM339 686q0 35 19.5 51t49.5 16q28 0 48.5 -16t20.5 -51q0 -33 -20.5 -49t-48.5 -16q-30 0 -49.5 16
t-19.5 49z" />
    <glyph glyph-name="aring" unicode="&#xe5;" horiz-adv-x="599" 
d="M317 556q103 0 157 -48.5t54 -143.5v-364h-105l-29 74h-4q-23 -29 -47.5 -48t-56.5 -27.5t-78 -8.5q-48 0 -86 18.5t-60 56.5t-22 96q0 86 62 129t185 48l91 3v17q0 49 -22 68.5t-62 19.5q-37 0 -76 -12t-77 -29l-44 103q43 22 98.5 35t121.5 13zM321 250q-71 -2 -99 -23
t-28 -59q0 -35 19.5 -51.5t52.5 -16.5q47 0 79.5 28t32.5 80v45zM298 605q-54 0 -87.5 31t-33.5 85q0 55 33.5 86t87.5 31q52 0 88.5 -31t36.5 -85q0 -55 -36 -86t-89 -31zM298 674q20 0 33.5 13t13.5 34q0 22 -13.5 34.5t-33.5 12.5t-33.5 -12.5t-13.5 -34.5q0 -21 12 -34
t35 -13z" />
    <glyph glyph-name="ae" unicode="&#xe6;" horiz-adv-x="907" 
d="M634 556q68 0 119 -28.5t80 -84t29 -135.5v-72h-341q2 -62 36.5 -98t101.5 -36q42 0 85.5 9.5t86.5 30.5v-113q-40 -20 -83 -29.5t-106 -9.5q-43 0 -81.5 11t-70.5 33.5t-55 56.5q-30 -35 -59.5 -57.5t-67.5 -33t-94 -10.5q-47 0 -86.5 18.5t-63.5 57t-24 97.5t29 96.5
t83.5 57t130.5 21.5l90 3v18q0 50 -24.5 68.5t-59.5 18.5q-36 0 -75.5 -11t-76.5 -29l-44 102q43 23 97 35.5t111 12.5q52 0 93.5 -15t70.5 -47q31 31 72 46.5t97 15.5zM318 250q-71 -2 -97.5 -24.5t-26.5 -61.5q0 -34 19.5 -49t50.5 -15t55 12.5t39 37t15 58.5v45zM626 449
q-44 0 -71 -27.5t-32 -85.5h198q0 32 -10.5 58t-31.5 40.5t-53 14.5z" />
    <glyph glyph-name="ccedilla" unicode="&#xe7;" horiz-adv-x="516" 
d="M311 -10q-79 0 -138.5 29.5t-92.5 92t-33 158.5q0 101 36 164t98 92.5t141 29.5q48 0 90.5 -10t75.5 -27l-45 -114q-30 13 -60.5 21.5t-60.5 8.5q-39 0 -66 -18t-41 -54.5t-14 -91.5q0 -54 14 -89t41 -52.5t64 -17.5q43 0 81 11.5t72 30.5v-123q-31 -19 -70 -30t-92 -11z
M412 -129q0 -51 -37 -81t-103 -30q-26 0 -48.5 3.5t-36.5 8.5v79q14 -4 29.5 -6.5t30.5 -2.5q26 0 39.5 8.5t13.5 26.5q0 20 -20 31t-58 17l35 75h80l-15 -39q21 -4 42 -14.5t34.5 -28.5t13.5 -47z" />
    <glyph glyph-name="egrave" unicode="&#xe8;" horiz-adv-x="597" 
d="M306 556q76 0 131 -28.5t84.5 -84t29.5 -135.5v-73h-351q2 -62 38 -97.5t103 -35.5q51 0 93 10t86 30v-113q-40 -20 -84.5 -29.5t-110.5 -9.5q-81 0 -143.5 30t-98.5 92.5t-36 156.5q0 96 32.5 159.5t91 95.5t135.5 32zM310 449q-45 0 -73 -28.5t-33 -84.5h206
q0 33 -11 58t-33.5 40t-55.5 15zM315 766q15 -22 35.5 -49t42.5 -53t38 -45v-13h-101q-19 13 -44.5 32.5t-52 41t-50 42t-37.5 34.5v10h169z" />
    <glyph glyph-name="eacute" unicode="&#xe9;" horiz-adv-x="597" 
d="M306 556q76 0 131 -28.5t84.5 -84t29.5 -135.5v-73h-351q2 -62 38 -97.5t103 -35.5q51 0 93 10t86 30v-113q-40 -20 -84.5 -29.5t-110.5 -9.5q-81 0 -143.5 30t-98.5 92.5t-36 156.5q0 96 32.5 159.5t91 95.5t135.5 32zM310 449q-45 0 -73 -28.5t-33 -84.5h206
q0 33 -11 58t-33.5 40t-55.5 15zM504 756q-15 -14 -38 -34.5t-50 -42t-52.5 -41t-44.5 -32.5h-100v13q16 19 37.5 45t43 53t35.5 49h169v-10z" />
    <glyph glyph-name="ecircumflex" unicode="&#xea;" horiz-adv-x="597" 
d="M306 556q76 0 131 -28.5t84.5 -84t29.5 -135.5v-73h-351q2 -62 38 -97.5t103 -35.5q51 0 93 10t86 30v-113q-40 -20 -84.5 -29.5t-110.5 -9.5q-81 0 -143.5 30t-98.5 92.5t-36 156.5q0 96 32.5 159.5t91 95.5t135.5 32zM310 449q-45 0 -73 -28.5t-33 -84.5h206
q0 33 -11 58t-33.5 40t-55.5 15zM376 766q14 -23 36.5 -50.5t46.5 -53t42 -43.5v-13h-100q-26 15 -51 35.5t-51 44.5q-26 -24 -50 -43.5t-50 -36.5h-100v13q19 19 42.5 44.5t46 52.5t36.5 50h152z" />
    <glyph glyph-name="edieresis" unicode="&#xeb;" horiz-adv-x="597" 
d="M306 556q76 0 131 -28.5t84.5 -84t29.5 -135.5v-73h-351q2 -62 38 -97.5t103 -35.5q51 0 93 10t86 30v-113q-40 -20 -84.5 -29.5t-110.5 -9.5q-81 0 -143.5 30t-98.5 92.5t-36 156.5q0 96 32.5 159.5t91 95.5t135.5 32zM310 449q-45 0 -73 -28.5t-33 -84.5h206
q0 33 -11 58t-33.5 40t-55.5 15zM123 686q0 35 20 51t49 16q28 0 48.5 -16t20.5 -51q0 -33 -20.5 -49t-48.5 -16q-29 0 -49 16t-20 49zM339 686q0 35 19.5 51t49.5 16q28 0 48.5 -16t20.5 -51q0 -33 -20.5 -49t-48.5 -16q-30 0 -49.5 16t-19.5 49z" />
    <glyph glyph-name="igrave" unicode="&#xec;" horiz-adv-x="299" 
d="M225 0h-151v546h151v-546zM165 766q15 -22 35.5 -49t42.5 -53t38 -45v-13h-101q-19 13 -44.5 32.5t-52 41t-50 42t-37.5 34.5v10h169z" />
    <glyph glyph-name="iacute" unicode="&#xed;" horiz-adv-x="299" 
d="M225 0h-151v546h151v-546zM354 756q-15 -14 -38 -34.5t-50 -42t-52.5 -41t-44.5 -32.5h-100v13q16 19 37.5 45t43 53t35.5 49h169v-10z" />
    <glyph glyph-name="icircumflex" unicode="&#xee;" horiz-adv-x="299" 
d="M225 0h-151v546h151v-546zM226 766q14 -23 36.5 -50.5t46.5 -53t42 -43.5v-13h-100q-26 15 -51 35.5t-51 44.5q-26 -24 -50 -43.5t-50 -36.5h-100v13q19 19 42.5 44.5t46 52.5t36.5 50h152z" />
    <glyph glyph-name="idieresis" unicode="&#xef;" horiz-adv-x="299" 
d="M225 0h-151v546h151v-546zM-27 686q0 35 20 51t49 16q28 0 48.5 -16t20.5 -51q0 -33 -20.5 -49t-48.5 -16q-29 0 -49 16t-20 49zM189 686q0 35 19.5 51t49.5 16q28 0 48.5 -16t20.5 -51q0 -33 -20.5 -49t-48.5 -16q-30 0 -49.5 16t-19.5 49z" />
    <glyph glyph-name="eth" unicode="&#xf0;" horiz-adv-x="627" 
d="M227 767q36 -16 68.5 -32.5t59.5 -36.5l107 67l49 -75l-81 -51q46 -44 79 -97t50.5 -118t17.5 -144q0 -92 -32.5 -157t-92 -99t-141.5 -34q-77 0 -136 29t-93 85t-34 135q0 80 30 135t83 83.5t121 28.5q34 0 60 -5t44 -15.5t29 -26.5l4 2q-14 38 -37 72t-54 64l-105 -65
l-49 77l86 52q-17 12 -38 24.5t-41 23.5zM313 375q-40 0 -64.5 -15t-35.5 -45t-11 -76q0 -41 11 -72t36 -48.5t64 -17.5q59 0 85 40.5t26 118.5q0 23 -7 43.5t-20.5 36.5t-34 25.5t-49.5 9.5z" />
    <glyph glyph-name="ntilde" unicode="&#xf1;" 
d="M385 556q90 0 142 -47t52 -153v-356h-150v318q0 59 -21.5 88.5t-66.5 29.5q-68 0 -92.5 -46.5t-24.5 -133.5v-256h-151v546h116l21 -73h6q18 27 43.5 45.5t57 28t68.5 9.5zM128 605q3 40 12 68.5t24 47t35.5 27.5t46.5 9q20 0 40.5 -8t41.5 -18t40 -17.5t37 -7.5
q15 0 26 10.5t17 41.5h74q-6 -78 -37 -115t-79 -37q-21 0 -42.5 7.5t-42 18t-40 18t-37.5 7.5q-14 0 -25 -10.5t-17 -41.5h-74z" />
    <glyph glyph-name="ograve" unicode="&#xf2;" horiz-adv-x="625" 
d="M577 274q0 -68 -18.5 -121t-53 -89t-83.5 -55t-111 -19q-58 0 -106 19t-83 55t-55 89t-20 121q0 91 32 154t92 95.5t143 32.5q77 0 136 -32.5t93 -95.5t34 -154zM201 274q0 -53 11.5 -91t36 -58t64.5 -20q39 0 63.5 20t35.5 58t11 91q0 54 -11.5 91t-35.5 56.5t-64 19.5
q-58 0 -84.5 -43t-26.5 -124zM328 766q15 -22 35.5 -49t42.5 -53t38 -45v-13h-101q-19 13 -44.5 32.5t-52 41t-50 42t-37.5 34.5v10h169z" />
    <glyph glyph-name="oacute" unicode="&#xf3;" horiz-adv-x="625" 
d="M577 274q0 -68 -18.5 -121t-53 -89t-83.5 -55t-111 -19q-58 0 -106 19t-83 55t-55 89t-20 121q0 91 32 154t92 95.5t143 32.5q77 0 136 -32.5t93 -95.5t34 -154zM201 274q0 -53 11.5 -91t36 -58t64.5 -20q39 0 63.5 20t35.5 58t11 91q0 54 -11.5 91t-35.5 56.5t-64 19.5
q-58 0 -84.5 -43t-26.5 -124zM517 756q-15 -14 -38 -34.5t-50 -42t-52.5 -41t-44.5 -32.5h-100v13q16 19 37.5 45t43 53t35.5 49h169v-10z" />
    <glyph glyph-name="ocircumflex" unicode="&#xf4;" horiz-adv-x="625" 
d="M577 274q0 -68 -18.5 -121t-53 -89t-83.5 -55t-111 -19q-58 0 -106 19t-83 55t-55 89t-20 121q0 91 32 154t92 95.5t143 32.5q77 0 136 -32.5t93 -95.5t34 -154zM201 274q0 -53 11.5 -91t36 -58t64.5 -20q39 0 63.5 20t35.5 58t11 91q0 54 -11.5 91t-35.5 56.5t-64 19.5
q-58 0 -84.5 -43t-26.5 -124zM389 766q14 -23 36.5 -50.5t46.5 -53t42 -43.5v-13h-100q-26 15 -51 35.5t-51 44.5q-26 -24 -50 -43.5t-50 -36.5h-100v13q19 19 42.5 44.5t46 52.5t36.5 50h152z" />
    <glyph glyph-name="otilde" unicode="&#xf5;" horiz-adv-x="625" 
d="M577 274q0 -68 -18.5 -121t-53 -89t-83.5 -55t-111 -19q-58 0 -106 19t-83 55t-55 89t-20 121q0 91 32 154t92 95.5t143 32.5q77 0 136 -32.5t93 -95.5t34 -154zM201 274q0 -53 11.5 -91t36 -58t64.5 -20q39 0 63.5 20t35.5 58t11 91q0 54 -11.5 91t-35.5 56.5t-64 19.5
q-58 0 -84.5 -43t-26.5 -124zM116 605q3 40 12 68.5t24 47t35.5 27.5t46.5 9q20 0 40.5 -8t41.5 -18t40 -17.5t37 -7.5q15 0 26 10.5t17 41.5h74q-6 -78 -37 -115t-79 -37q-21 0 -42.5 7.5t-42 18t-40 18t-37.5 7.5q-14 0 -25 -10.5t-17 -41.5h-74z" />
    <glyph glyph-name="odieresis" unicode="&#xf6;" horiz-adv-x="625" 
d="M577 274q0 -68 -18.5 -121t-53 -89t-83.5 -55t-111 -19q-58 0 -106 19t-83 55t-55 89t-20 121q0 91 32 154t92 95.5t143 32.5q77 0 136 -32.5t93 -95.5t34 -154zM201 274q0 -53 11.5 -91t36 -58t64.5 -20q39 0 63.5 20t35.5 58t11 91q0 54 -11.5 91t-35.5 56.5t-64 19.5
q-58 0 -84.5 -43t-26.5 -124zM136 686q0 35 20 51t49 16q28 0 48.5 -16t20.5 -51q0 -33 -20.5 -49t-48.5 -16q-29 0 -49 16t-20 49zM352 686q0 35 19.5 51t49.5 16q28 0 48.5 -16t20.5 -51q0 -33 -20.5 -49t-48.5 -16q-30 0 -49.5 16t-19.5 49z" />
    <glyph glyph-name="divide" unicode="&#xf7;" horiz-adv-x="581" 
d="M47 299v107h486v-107h-486zM289 95q-28 0 -48 18t-20 57q0 42 20 58t48 16t48.5 -16t20.5 -58q0 -39 -20.5 -57t-48.5 -18zM289 461q-28 0 -48 17.5t-20 56.5q0 42 20 58t48 16t48.5 -16t20.5 -58q0 -39 -20.5 -56.5t-48.5 -17.5z" />
    <glyph glyph-name="oslash" unicode="&#xf8;" horiz-adv-x="642" 
d="M594 274q0 -90 -33 -154t-94.5 -97t-147.5 -33q-32 0 -62 6t-56 17l-41 -61l-73 47l41 61q-38 37 -59.5 90.5t-21.5 123.5q0 136 73.5 209t201.5 73q34 0 64.5 -6.5t56.5 -18.5l36 55l74 -46l-38 -56q37 -36 58 -88.5t21 -121.5zM194 274q0 -27 3 -50.5t10 -42.5l172 253
q-12 6 -27 9.5t-32 3.5q-68 0 -97 -44.5t-29 -128.5zM447 274q0 26 -3 48t-9 39l-170 -251q12 -5 26 -8t30 -3q46 0 74 20.5t40 60t12 94.5z" />
    <glyph glyph-name="ugrave" unicode="&#xf9;" 
d="M576 546v-546h-116l-19 70h-9q-17 -28 -43.5 -46t-58 -26t-66.5 -8q-58 0 -101.5 21t-68 65t-24.5 114v356h152v-318q0 -58 20.5 -87.5t65.5 -29.5q46 0 71.5 20.5t35.5 60.5t10 98v256h151zM340 766q15 -22 35.5 -49t42.5 -53t38 -45v-13h-101q-19 13 -44.5 32.5t-52 41
t-50 42t-37.5 34.5v10h169z" />
    <glyph glyph-name="uacute" unicode="&#xfa;" 
d="M576 546v-546h-116l-19 70h-9q-17 -28 -43.5 -46t-58 -26t-66.5 -8q-58 0 -101.5 21t-68 65t-24.5 114v356h152v-318q0 -58 20.5 -87.5t65.5 -29.5q46 0 71.5 20.5t35.5 60.5t10 98v256h151zM529 756q-15 -14 -38 -34.5t-50 -42t-52.5 -41t-44.5 -32.5h-100v13
q16 19 37.5 45t43 53t35.5 49h169v-10z" />
    <glyph glyph-name="ucircumflex" unicode="&#xfb;" 
d="M576 546v-546h-116l-19 70h-9q-17 -28 -43.5 -46t-58 -26t-66.5 -8q-58 0 -101.5 21t-68 65t-24.5 114v356h152v-318q0 -58 20.5 -87.5t65.5 -29.5q46 0 71.5 20.5t35.5 60.5t10 98v256h151zM401 766q14 -23 36.5 -50.5t46.5 -53t42 -43.5v-13h-100q-26 15 -51 35.5
t-51 44.5q-26 -24 -50 -43.5t-50 -36.5h-100v13q19 19 42.5 44.5t46 52.5t36.5 50h152z" />
    <glyph glyph-name="udieresis" unicode="&#xfc;" 
d="M576 546v-546h-116l-19 70h-9q-17 -28 -43.5 -46t-58 -26t-66.5 -8q-58 0 -101.5 21t-68 65t-24.5 114v356h152v-318q0 -58 20.5 -87.5t65.5 -29.5q46 0 71.5 20.5t35.5 60.5t10 98v256h151zM148 686q0 35 20 51t49 16q28 0 48.5 -16t20.5 -51q0 -33 -20.5 -49t-48.5 -16
q-29 0 -49 16t-20 49zM364 686q0 35 19.5 51t49.5 16q28 0 48.5 -16t20.5 -51q0 -33 -20.5 -49t-48.5 -16q-30 0 -49.5 16t-19.5 49z" />
    <glyph glyph-name="yacute" unicode="&#xfd;" horiz-adv-x="571" 
d="M0 546h159l103 -312q5 -15 9.5 -30.5t8 -31.5t5.5 -31h4q3 21 10.5 46t14.5 47l101 312h156l-224 -596q-22 -61 -52.5 -103.5t-74.5 -64.5t-109 -22q-25 0 -44 2.5t-32 5.5v119q11 -2 26.5 -4t32.5 -2q31 0 52 12.5t35 33t24 46.5l12 31zM489 756q-15 -14 -38 -34.5
t-50 -42t-52.5 -41t-44.5 -32.5h-100v13q16 19 37.5 45t43 53t35.5 49h169v-10z" />
    <glyph glyph-name="thorn" unicode="&#xfe;" horiz-adv-x="632" 
d="M584 274q0 -92 -26.5 -156t-73.5 -96t-109 -32q-37 0 -65.5 9.5t-49.5 25.5t-36 34h-6q1 -9 2.5 -23.5t2.5 -29t1 -25.5v-221h-151v1000h151v-190q0 -30 -2 -55.5t-4 -39.5h7q14 23 35 41t50.5 29t68.5 11q91 0 148 -71.5t57 -210.5zM431 276q0 79 -23.5 119.5
t-77.5 40.5q-57 0 -80.5 -36t-25.5 -109v-16q0 -79 23.5 -121t84.5 -42q35 0 57 19t32 56t10 89z" />
    <glyph glyph-name="ydieresis" unicode="&#xff;" horiz-adv-x="571" 
d="M0 546h159l103 -312q5 -15 9.5 -30.5t8 -31.5t5.5 -31h4q3 21 10.5 46t14.5 47l101 312h156l-224 -596q-22 -61 -52.5 -103.5t-74.5 -64.5t-109 -22q-25 0 -44 2.5t-32 5.5v119q11 -2 26.5 -4t32.5 -2q31 0 52 12.5t35 33t24 46.5l12 31zM109 686q0 35 20 51t49 16
q28 0 48.5 -16t20.5 -51q0 -33 -20.5 -49t-48.5 -16q-29 0 -49 16t-20 49zM325 686q0 35 19.5 51t49.5 16q28 0 48.5 -16t20.5 -51q0 -33 -20.5 -49t-48.5 -16q-30 0 -49.5 16t-19.5 49z" />
    <glyph glyph-name="Amacron" unicode="&#x100;" horiz-adv-x="692" 
d="M527 0l-55 168h-252l-55 -168h-165l251 717h188l253 -717h-165zM387 451q-4 15 -12.5 45t-16.5 61.5t-13 51.5q-4 -23 -11.5 -53l-14.5 -58t-12 -47l-51 -155h181zM511 872v-98h-332v98h332z" />
    <glyph glyph-name="amacron" unicode="&#x101;" horiz-adv-x="599" 
d="M317 556q103 0 157 -48.5t54 -143.5v-364h-105l-29 74h-4q-23 -29 -47.5 -48t-56.5 -27.5t-78 -8.5q-48 0 -86 18.5t-60 56.5t-22 96q0 86 62 129t185 48l91 3v17q0 49 -22 68.5t-62 19.5q-37 0 -76 -12t-77 -29l-44 103q43 22 98.5 35t121.5 13zM321 250q-71 -2 -99 -23
t-28 -59q0 -35 19.5 -51.5t52.5 -16.5q47 0 79.5 28t32.5 80v45zM466 704v-98h-332v98h332z" />
    <glyph glyph-name="Abreve" unicode="&#x102;" horiz-adv-x="692" 
d="M527 0l-55 168h-252l-55 -168h-165l251 717h188l253 -717h-165zM387 451q-4 15 -12.5 45t-16.5 61.5t-13 51.5q-4 -23 -11.5 -53l-14.5 -58t-12 -47l-51 -155h181zM526 937q-3 -49 -25.5 -85.5t-62 -57t-95.5 -20.5q-87 0 -131 44t-48 119h84q9 -42 31 -53t65 -11
q35 0 61 12.5t35 51.5h86z" />
    <glyph glyph-name="abreve" unicode="&#x103;" horiz-adv-x="599" 
d="M317 556q103 0 157 -48.5t54 -143.5v-364h-105l-29 74h-4q-23 -29 -47.5 -48t-56.5 -27.5t-78 -8.5q-48 0 -86 18.5t-60 56.5t-22 96q0 86 62 129t185 48l91 3v17q0 49 -22 68.5t-62 19.5q-37 0 -76 -12t-77 -29l-44 103q43 22 98.5 35t121.5 13zM321 250q-71 -2 -99 -23
t-28 -59q0 -35 19.5 -51.5t52.5 -16.5q47 0 79.5 28t32.5 80v45zM480 769q-3 -49 -25.5 -85.5t-62 -57t-95.5 -20.5q-87 0 -131 44t-48 119h84q9 -42 31 -53t65 -11q35 0 61 12.5t35 51.5h86z" />
    <glyph glyph-name="Aogonek" unicode="&#x104;" horiz-adv-x="692" 
d="M527 0l-55 168h-252l-55 -168h-165l251 717h188l253 -717h-165zM387 451q-4 15 -12.5 45t-16.5 61.5t-13 51.5q-4 -23 -11.5 -53l-14.5 -58t-12 -47l-51 -155h181zM587 -104q0 -20 11 -29t29 -9q15 0 30 3t25 6v-88q-16 -4 -34 -7.5t-42 -3.5q-56 0 -89.5 28.5
t-33.5 76.5q0 26 12 50.5t35.5 49t57.5 48.5l65 -21q-34 -32 -50 -55t-16 -49z" />
    <glyph glyph-name="aogonek" unicode="&#x105;" horiz-adv-x="599" 
d="M317 556q103 0 157 -48.5t54 -143.5v-364h-105l-29 74h-4q-23 -29 -47.5 -48t-56.5 -27.5t-78 -8.5q-48 0 -86 18.5t-60 56.5t-22 96q0 86 62 129t185 48l91 3v17q0 49 -22 68.5t-62 19.5q-37 0 -76 -12t-77 -29l-44 103q43 22 98.5 35t121.5 13zM321 250q-71 -2 -99 -23
t-28 -59q0 -35 19.5 -51.5t52.5 -16.5q47 0 79.5 28t32.5 80v45zM445 -104q0 -20 11 -29t29 -9q15 0 30 3t25 6v-88q-16 -4 -34 -7.5t-42 -3.5q-56 0 -89.5 28.5t-33.5 76.5q0 26 12 50.5t35.5 49t57.5 48.5l65 -21q-34 -32 -50 -55t-16 -49z" />
    <glyph glyph-name="Cacute" unicode="&#x106;" horiz-adv-x="642" 
d="M398 597q-43 0 -77.5 -16.5t-58.5 -48t-36.5 -76t-12.5 -101.5q0 -75 21 -128.5t63.5 -81.5t106.5 -28q47 0 90.5 11t87.5 28v-130q-45 -19 -91.5 -27.5t-103.5 -8.5q-114 0 -187.5 45.5t-109 128.5t-35.5 192q0 81 22.5 148.5t66.5 116.5t108 76t148 27
q53 0 107.5 -11.5t103.5 -35.5l-50 -122q-36 17 -76.5 29.5t-86.5 12.5zM575 924q-15 -14 -38 -34.5t-50 -42t-52.5 -41t-44.5 -32.5h-100v13q16 19 37.5 45t43 53t35.5 49h169v-10z" />
    <glyph glyph-name="cacute" unicode="&#x107;" horiz-adv-x="516" 
d="M311 -10q-79 0 -138.5 29.5t-92.5 92t-33 158.5q0 101 36 164t98 92.5t141 29.5q48 0 90.5 -10t75.5 -27l-45 -114q-30 13 -60.5 21.5t-60.5 8.5q-39 0 -66 -18t-41 -54.5t-14 -91.5q0 -54 14 -89t41 -52.5t64 -17.5q43 0 81 11.5t72 30.5v-123q-31 -19 -70 -30t-92 -11z
M493 756q-15 -14 -38 -34.5t-50 -42t-52.5 -41t-44.5 -32.5h-100v13q16 19 37.5 45t43 53t35.5 49h169v-10z" />
    <glyph glyph-name="Cdotaccent" unicode="&#x10a;" horiz-adv-x="642" 
d="M398 597q-43 0 -77.5 -16.5t-58.5 -48t-36.5 -76t-12.5 -101.5q0 -75 21 -128.5t63.5 -81.5t106.5 -28q47 0 90.5 11t87.5 28v-130q-45 -19 -91.5 -27.5t-103.5 -8.5q-114 0 -187.5 45.5t-109 128.5t-35.5 192q0 81 22.5 148.5t66.5 116.5t108 76t148 27
q53 0 107.5 -11.5t103.5 -35.5l-50 -122q-36 17 -76.5 29.5t-86.5 12.5zM371 929q33 0 57.5 -15.5t24.5 -58.5q0 -41 -24.5 -57t-57.5 -16q-34 0 -58 16t-24 57q0 43 24 58.5t58 15.5z" />
    <glyph glyph-name="cdotaccent" unicode="&#x10b;" horiz-adv-x="516" 
d="M311 -10q-79 0 -138.5 29.5t-92.5 92t-33 158.5q0 101 36 164t98 92.5t141 29.5q48 0 90.5 -10t75.5 -27l-45 -114q-30 13 -60.5 21.5t-60.5 8.5q-39 0 -66 -18t-41 -54.5t-14 -91.5q0 -54 14 -89t41 -52.5t64 -17.5q43 0 81 11.5t72 30.5v-123q-31 -19 -70 -30t-92 -11z
M290 761q33 0 57.5 -15.5t24.5 -58.5q0 -41 -24.5 -57t-57.5 -16q-34 0 -58 16t-24 57q0 43 24 58.5t58 15.5z" />
    <glyph glyph-name="Ccaron" unicode="&#x10c;" horiz-adv-x="642" 
d="M398 597q-43 0 -77.5 -16.5t-58.5 -48t-36.5 -76t-12.5 -101.5q0 -75 21 -128.5t63.5 -81.5t106.5 -28q47 0 90.5 11t87.5 28v-130q-45 -19 -91.5 -27.5t-103.5 -8.5q-114 0 -187.5 45.5t-109 128.5t-35.5 192q0 81 22.5 148.5t66.5 116.5t108 76t148 27
q53 0 107.5 -11.5t103.5 -35.5l-50 -122q-36 17 -76.5 29.5t-86.5 12.5zM295 774q-14 23 -36.5 50t-46 52.5t-42.5 43.5v14h100q26 -16 50 -36t50 -44q26 24 51 44t51 36h100v-14q-18 -17 -42 -43t-46.5 -53t-36.5 -50h-152z" />
    <glyph glyph-name="ccaron" unicode="&#x10d;" horiz-adv-x="516" 
d="M311 -10q-79 0 -138.5 29.5t-92.5 92t-33 158.5q0 101 36 164t98 92.5t141 29.5q48 0 90.5 -10t75.5 -27l-45 -114q-30 13 -60.5 21.5t-60.5 8.5q-39 0 -66 -18t-41 -54.5t-14 -91.5q0 -54 14 -89t41 -52.5t64 -17.5q43 0 81 11.5t72 30.5v-123q-31 -19 -70 -30t-92 -11z
M214 606q-14 23 -36.5 50t-46 52.5t-42.5 43.5v14h100q26 -16 50 -36t50 -44q26 24 51 44t51 36h100v-14q-18 -17 -42 -43t-46.5 -53t-36.5 -50h-152z" />
    <glyph glyph-name="Dcaron" unicode="&#x10e;" horiz-adv-x="732" 
d="M678 369q0 -123 -46 -205t-129.5 -123t-199.5 -41h-218v714h236q113 0 192.5 -39.5t122 -116.5t42.5 -189zM518 363q0 77 -22.5 127t-67.5 74.5t-111 24.5h-79v-463h64q110 0 163 59t53 178zM289 774q-14 23 -36.5 50t-46 52.5t-42.5 43.5v14h100q26 -16 50 -36t50 -44
q26 24 51 44t51 36h100v-14q-18 -17 -42 -43t-46.5 -53t-36.5 -50h-152z" />
    <glyph glyph-name="dcaron" unicode="&#x10f;" horiz-adv-x="632" 
d="M252 -10q-90 0 -147.5 71.5t-57.5 210.5q0 141 58 212.5t152 71.5q39 0 67.5 -10.5t49.5 -28.5t36 -41h5q-3 18 -5.5 50.5t-2.5 59.5v174h152v-760h-116l-30 71h-6q-14 -23 -35 -41t-50.5 -29t-69.5 -11zM305 111q62 0 87 35.5t25 108.5v16q0 79 -24 121t-89 42
q-49 0 -76.5 -42t-27.5 -122t27.5 -119.5t77.5 -39.5zM765 750q-10 -22 -22.5 -46.5t-27 -50.5t-31.5 -53h-89v13q5 15 9 33.5t8.5 38.5t7.5 39.5t5 35.5h140v-10z" />
    <glyph glyph-name="Dcroat" unicode="&#x110;" horiz-adv-x="732" 
d="M321 714q112 0 191.5 -39.5t122.5 -116.5t43 -189q0 -123 -46 -205t-130 -123t-199 -41h-215v290h-67v126h67v298h233zM317 589h-77v-173h133v-126h-133v-164h62q110 0 163 59t53 178q0 77 -23 127t-67.5 74.5t-110.5 24.5z" />
    <glyph glyph-name="dcroat" unicode="&#x111;" horiz-adv-x="645" 
d="M248 -10q-89 0 -145 68t-56 198q0 137 59 203t153 66q39 0 68 -10.5t50.5 -28.5t36.5 -40h5q-3 12 -7.5 44.5t-4.5 66.5v27h-152v97h152v79h152v-79h76v-97h-76v-584h-124l-31 71h-6q-14 -23 -35 -41t-49 -29t-66 -11zM312 111q58 0 81.5 32.5t23.5 98.5v14
q0 72 -26 109.5t-82 37.5q-46 0 -71.5 -36.5t-25.5 -111.5q0 -63 24 -103.5t76 -40.5z" />
    <glyph glyph-name="Emacron" unicode="&#x112;" horiz-adv-x="552" 
d="M499 0h-414v714h414v-125h-261v-156h244v-125h-244v-181h261v-127zM461 872v-98h-332v98h332z" />
    <glyph glyph-name="emacron" unicode="&#x113;" horiz-adv-x="597" 
d="M306 556q76 0 131 -28.5t84.5 -84t29.5 -135.5v-73h-351q2 -62 38 -97.5t103 -35.5q51 0 93 10t86 30v-113q-40 -20 -84.5 -29.5t-110.5 -9.5q-81 0 -143.5 30t-98.5 92.5t-36 156.5q0 96 32.5 159.5t91 95.5t135.5 32zM310 449q-45 0 -73 -28.5t-33 -84.5h206
q0 33 -11 58t-33.5 40t-55.5 15zM466 704v-98h-332v98h332z" />
    <glyph glyph-name="Edotaccent" unicode="&#x116;" horiz-adv-x="552" 
d="M499 0h-414v714h414v-125h-261v-156h244v-125h-244v-181h261v-127zM296 929q33 0 57.5 -15.5t24.5 -58.5q0 -41 -24.5 -57t-57.5 -16q-34 0 -58 16t-24 57q0 43 24 58.5t58 15.5z" />
    <glyph glyph-name="edotaccent" unicode="&#x117;" horiz-adv-x="597" 
d="M306 556q76 0 131 -28.5t84.5 -84t29.5 -135.5v-73h-351q2 -62 38 -97.5t103 -35.5q51 0 93 10t86 30v-113q-40 -20 -84.5 -29.5t-110.5 -9.5q-81 0 -143.5 30t-98.5 92.5t-36 156.5q0 96 32.5 159.5t91 95.5t135.5 32zM310 449q-45 0 -73 -28.5t-33 -84.5h206
q0 33 -11 58t-33.5 40t-55.5 15zM300 761q33 0 57.5 -15.5t24.5 -58.5q0 -41 -24.5 -57t-57.5 -16q-34 0 -58 16t-24 57q0 43 24 58.5t58 15.5z" />
    <glyph glyph-name="Eogonek" unicode="&#x118;" horiz-adv-x="552" 
d="M499 0h-414v714h414v-125h-261v-156h244v-125h-244v-181h261v-127zM404 -104q0 -20 11 -29t29 -9q15 0 30 3t25 6v-88q-16 -4 -34 -7.5t-42 -3.5q-56 0 -89.5 28.5t-33.5 76.5q0 26 12 50.5t35.5 49t57.5 48.5l65 -21q-34 -32 -50 -55t-16 -49z" />
    <glyph glyph-name="eogonek" unicode="&#x119;" horiz-adv-x="597" 
d="M424 -101q0 -20 12 -30.5t31 -10.5q16 0 29.5 3t22.5 6v-88q-15 -4 -33.5 -7.5t-42.5 -3.5q-55 0 -88.5 28.5t-33.5 76.5q0 26 11.5 50.5t35 49t58.5 48.5l94 8q-40 -34 -60.5 -56.5t-28 -39t-7.5 -34.5zM306 556q76 0 131 -28.5t84.5 -84t29.5 -135.5v-73h-351
q2 -62 38 -97.5t103 -35.5q51 0 93 10t86 30v-113q-40 -20 -84.5 -29.5t-110.5 -9.5q-81 0 -143.5 30t-98.5 92.5t-36 156.5q0 96 32.5 159.5t91 95.5t135.5 32zM310 449q-45 0 -73 -28.5t-33 -84.5h206q0 33 -11 58t-33.5 40t-55.5 15z" />
    <glyph glyph-name="Ecaron" unicode="&#x11a;" horiz-adv-x="552" 
d="M499 0h-414v714h414v-125h-261v-156h244v-125h-244v-181h261v-127zM220 774q-14 23 -36.5 50t-46 52.5t-42.5 43.5v14h100q26 -16 50 -36t50 -44q26 24 51 44t51 36h100v-14q-18 -17 -42 -43t-46.5 -53t-36.5 -50h-152z" />
    <glyph glyph-name="ecaron" unicode="&#x11b;" horiz-adv-x="597" 
d="M306 556q76 0 131 -28.5t84.5 -84t29.5 -135.5v-73h-351q2 -62 38 -97.5t103 -35.5q51 0 93 10t86 30v-113q-40 -20 -84.5 -29.5t-110.5 -9.5q-81 0 -143.5 30t-98.5 92.5t-36 156.5q0 96 32.5 159.5t91 95.5t135.5 32zM310 449q-45 0 -73 -28.5t-33 -84.5h206
q0 33 -11 58t-33.5 40t-55.5 15zM224 606q-14 23 -36.5 50t-46 52.5t-42.5 43.5v14h100q26 -16 50 -36t50 -44q26 24 51 44t51 36h100v-14q-18 -17 -42 -43t-46.5 -53t-36.5 -50h-152z" />
    <glyph glyph-name="Gbreve" unicode="&#x11e;" horiz-adv-x="735" 
d="M381 402h284v-371q-56 -19 -122.5 -30t-143.5 -11q-106 0 -183 42t-119 124t-42 202q0 112 43.5 194t126.5 127t203 45q64 0 121.5 -12t102.5 -32l-51 -122q-38 18 -82 28.5t-92 10.5q-73 0 -120.5 -31.5t-70.5 -86t-23 -124.5q0 -73 22.5 -126.5t67.5 -82.5t114 -29
q28 0 56 3.5t46 8.5v151h-138v122zM583 937q-3 -49 -25.5 -85.5t-62 -57t-95.5 -20.5q-87 0 -131 44t-48 119h84q9 -42 31 -53t65 -11q35 0 61 12.5t35 51.5h86z" />
    <glyph glyph-name="gbreve" unicode="&#x11f;" horiz-adv-x="632" 
d="M255 556q57 0 95 -21.5t63 -57.5h4l14 69h128v-550q0 -77 -30 -129.5t-90.5 -79.5t-153.5 -27q-63 0 -113 7.5t-94 25.5v128q45 -20 92.5 -31t109.5 -11q63 0 95.5 29t32.5 80v15q0 12 1.5 32t3.5 35h-5q-23 -36 -60.5 -58t-93.5 -22q-94 0 -150.5 73t-56.5 209t57 210
t151 74zM304 437q-33 0 -56.5 -19t-35 -56t-11.5 -92q0 -82 26.5 -122t79.5 -40q30 0 51 9t34 26.5t19.5 44.5t6.5 64v22q0 55 -11 91t-36 54t-67 18zM488 769q-3 -49 -25.5 -85.5t-62 -57t-95.5 -20.5q-87 0 -131 44t-48 119h84q9 -42 31 -53t65 -11q35 0 61 12.5t35 51.5
h86z" />
    <glyph glyph-name="Gdotaccent" unicode="&#x120;" horiz-adv-x="735" 
d="M381 402h284v-371q-56 -19 -122.5 -30t-143.5 -11q-106 0 -183 42t-119 124t-42 202q0 112 43.5 194t126.5 127t203 45q64 0 121.5 -12t102.5 -32l-51 -122q-38 18 -82 28.5t-92 10.5q-73 0 -120.5 -31.5t-70.5 -86t-23 -124.5q0 -73 22.5 -126.5t67.5 -82.5t114 -29
q28 0 56 3.5t46 8.5v151h-138v122zM403 929q33 0 57.5 -15.5t24.5 -58.5q0 -41 -24.5 -57t-57.5 -16q-34 0 -58 16t-24 57q0 43 24 58.5t58 15.5z" />
    <glyph glyph-name="gdotaccent" unicode="&#x121;" horiz-adv-x="632" 
d="M255 556q57 0 95 -21.5t63 -57.5h4l14 69h128v-550q0 -77 -30 -129.5t-90.5 -79.5t-153.5 -27q-63 0 -113 7.5t-94 25.5v128q45 -20 92.5 -31t109.5 -11q63 0 95.5 29t32.5 80v15q0 12 1.5 32t3.5 35h-5q-23 -36 -60.5 -58t-93.5 -22q-94 0 -150.5 73t-56.5 209t57 210
t151 74zM304 437q-33 0 -56.5 -19t-35 -56t-11.5 -92q0 -82 26.5 -122t79.5 -40q30 0 51 9t34 26.5t19.5 44.5t6.5 64v22q0 55 -11 91t-36 54t-67 18zM308 761q33 0 57.5 -15.5t24.5 -58.5q0 -41 -24.5 -57t-57.5 -16q-34 0 -58 16t-24 57q0 43 24 58.5t58 15.5z" />
    <glyph glyph-name="uni0122" unicode="&#x122;" horiz-adv-x="735" 
d="M381 402h284v-371q-56 -19 -122.5 -30t-143.5 -11q-106 0 -183 42t-119 124t-42 202q0 112 43.5 194t126.5 127t203 45q64 0 121.5 -12t102.5 -32l-51 -122q-38 18 -82 28.5t-92 10.5q-73 0 -120.5 -31.5t-70.5 -86t-23 -124.5q0 -73 22.5 -126.5t67.5 -82.5t114 -29
q28 0 56 3.5t46 8.5v151h-138v122zM473 -71q-8 -24 -20 -49t-27 -50.5t-34 -50.5h-88v13q6 20 12.5 46.5t11.5 53.5t6 47h139v-10z" />
    <glyph glyph-name="uni0123" unicode="&#x123;" horiz-adv-x="632" 
d="M255 556q57 0 95 -21.5t63 -57.5h4l14 69h128v-550q0 -77 -30 -129.5t-90.5 -79.5t-153.5 -27q-63 0 -113 7.5t-94 25.5v128q45 -20 92.5 -31t109.5 -11q63 0 95.5 29t32.5 80v15q0 12 1.5 32t3.5 35h-5q-23 -36 -60.5 -58t-93.5 -22q-94 0 -150.5 73t-56.5 209t57 210
t151 74zM304 437q-33 0 -56.5 -19t-35 -56t-11.5 -92q0 -82 26.5 -122t79.5 -40q30 0 51 9t34 26.5t19.5 44.5t6.5 64v22q0 55 -11 91t-36 54t-67 18zM394 753l-11.5 -46t-11 -52.5t-7.5 -48.5h-140v10q11 22 23 46.5t27 51t32 52.5h88v-13z" />
    <glyph glyph-name="Hbar" unicode="&#x126;" horiz-adv-x="766" 
d="M90 0v522h-90v97h90v95h153v-95h279v95h154v-95h90v-97h-90v-522h-154v307h-279v-307h-153zM243 435h279v87h-279v-87z" />
    <glyph glyph-name="hbar" unicode="&#x127;" horiz-adv-x="656" 
d="M230 760v-79h153v-98h-153v-46q0 -21 -2 -49.5t-4 -48.5h9q17 28 41 45.5t53 26t63 8.5q59 0 102.5 -21t68 -65t24.5 -114v-319h-151v280q0 59 -21 88.5t-66 29.5q-44 0 -69.5 -21t-36.5 -61t-11 -98v-218h-150v583h-76v98h76v79h150z" />
    <glyph glyph-name="Imacron" unicode="&#x12a;" horiz-adv-x="401" 
d="M364 0h-328v87l87 29v483l-87 28v87h328v-87l-87 -28v-483l87 -29v-87zM366 872v-98h-332v98h332z" />
    <glyph glyph-name="imacron" unicode="&#x12b;" horiz-adv-x="299" 
d="M225 0h-151v546h151v-546zM316 704v-98h-332v98h332z" />
    <glyph glyph-name="Iogonek" unicode="&#x12e;" horiz-adv-x="401" 
d="M364 0h-328v87l87 29v483l-87 28v87h328v-87l-87 -28v-483l87 -29v-87zM275 -104q0 -20 11 -29t29 -9q15 0 30 3t25 6v-88q-16 -4 -34 -7.5t-42 -3.5q-56 0 -89.5 28.5t-33.5 76.5q0 26 12 50.5t35.5 49t57.5 48.5l65 -21q-34 -32 -50 -55t-16 -49z" />
    <glyph glyph-name="iogonek" unicode="&#x12f;" horiz-adv-x="299" 
d="M225 546v-546h-151v546h151zM150 761q33 0 57.5 -15.5t24.5 -58.5q0 -41 -24.5 -57t-57.5 -16q-34 0 -58 16t-24 57q0 43 24 58.5t58 15.5zM145 -104q0 -20 11 -29t29 -9q15 0 30 3t25 6v-88q-16 -4 -34 -7.5t-42 -3.5q-56 0 -89.5 28.5t-33.5 76.5q0 26 12 50.5t35.5 49
t57.5 48.5l65 -21q-34 -32 -50 -55t-16 -49z" />
    <glyph glyph-name="Idotaccent" unicode="&#x130;" horiz-adv-x="401" 
d="M364 0h-328v87l87 29v483l-87 28v87h328v-87l-87 -28v-483l87 -29v-87zM201 929q33 0 57.5 -15.5t24.5 -58.5q0 -41 -24.5 -57t-57.5 -16q-34 0 -58 16t-24 57q0 43 24 58.5t58 15.5z" />
    <glyph glyph-name="dotlessi" unicode="&#x131;" horiz-adv-x="299" 
d="M225 0h-151v546h151v-546z" />
    <glyph glyph-name="uni0136" unicode="&#x136;" horiz-adv-x="660" 
d="M660 0h-174l-185 300l-63 -46v-254h-153v714h153v-326q19 27 41 54.5t43 53.5l167 218h170l-248 -316zM433 -71q-8 -24 -20 -49t-27 -50.5t-34 -50.5h-88v13q6 20 12.5 46.5t11.5 53.5t6 47h139v-10z" />
    <glyph glyph-name="uni0137" unicode="&#x137;" horiz-adv-x="610" 
d="M224 423q0 -27 -2 -62t-6 -64h4q7 11 18 26t22.5 31t20.5 27l142 165h171l-202 -232l215 -314h-175l-146 218l-62 -49v-169h-151v760h151v-337zM390 -71q-8 -24 -20 -49t-27 -50.5t-34 -50.5h-88v13q6 20 12.5 46.5t11.5 53.5t6 47h139v-10z" />
    <glyph glyph-name="Lacute" unicode="&#x139;" horiz-adv-x="559" 
d="M85 0v714h153v-588h289v-126h-442zM362 924q-15 -14 -38 -34.5t-50 -42t-52.5 -41t-44.5 -32.5h-100v13q16 19 37.5 45t43 53t35.5 49h169v-10z" />
    <glyph glyph-name="lacute" unicode="&#x13a;" horiz-adv-x="298" 
d="M224 0h-151v760h151v-760zM353 970q-15 -14 -38 -34.5t-50 -42t-52.5 -41t-44.5 -32.5h-100v13q16 19 37.5 45t43 53t35.5 49h169v-10z" />
    <glyph glyph-name="uni013B" unicode="&#x13b;" horiz-adv-x="559" 
d="M85 0v714h153v-588h289v-126h-442zM390 -71q-8 -24 -20 -49t-27 -50.5t-34 -50.5h-88v13q6 20 12.5 46.5t11.5 53.5t6 47h139v-10z" />
    <glyph glyph-name="uni013C" unicode="&#x13c;" horiz-adv-x="298" 
d="M224 0h-151v760h151v-760zM234 -71q-8 -24 -20 -49t-27 -50.5t-34 -50.5h-88v13q6 20 12.5 46.5t11.5 53.5t6 47h139v-10z" />
    <glyph glyph-name="Lcaron" unicode="&#x13d;" horiz-adv-x="559" 
d="M85 0v714h153v-588h289v-126h-442zM546 704q-10 -22 -22.5 -46.5t-27 -50.5t-31.5 -53h-89v13q5 15 9 33.5t8.5 38.5t7.5 39.5t5 35.5h140v-10z" />
    <glyph glyph-name="lcaron" unicode="&#x13e;" horiz-adv-x="298" 
d="M224 0h-151v760h151v-760zM430 750q-10 -22 -22.5 -46.5t-27 -50.5t-31.5 -53h-89v13q5 15 9 33.5t8.5 38.5t7.5 39.5t5 35.5h140v-10z" />
    <glyph glyph-name="Lslash" unicode="&#x141;" horiz-adv-x="576" 
d="M101 0v240l-49 -28l-56 97l105 63v342h153v-249l116 71l58 -98l-174 -105v-207h290v-126h-443z" />
    <glyph glyph-name="lslash" unicode="&#x142;" horiz-adv-x="355" 
d="M100 0v231l-57 -32l-56 97l113 67v397h151v-305l59 38l58 -97l-117 -72v-324h-151z" />
    <glyph glyph-name="Nacute" unicode="&#x143;" horiz-adv-x="805" 
d="M720 0h-195l-308 538h-4q2 -23 3.5 -55t3 -66t1.5 -65v-352h-136v714h194l307 -533h4q-1 20 -3 51.5t-3 66t-1 61.5v354h137v-714zM607 924q-15 -14 -38 -34.5t-50 -42t-52.5 -41t-44.5 -32.5h-100v13q16 19 37.5 45t43 53t35.5 49h169v-10z" />
    <glyph glyph-name="nacute" unicode="&#x144;" 
d="M385 556q90 0 142 -47t52 -153v-356h-150v318q0 59 -21.5 88.5t-66.5 29.5q-68 0 -92.5 -46.5t-24.5 -133.5v-256h-151v546h116l21 -73h6q18 27 43.5 45.5t57 28t68.5 9.5zM529 756q-15 -14 -38 -34.5t-50 -42t-52.5 -41t-44.5 -32.5h-100v13q16 19 37.5 45t43 53
t35.5 49h169v-10z" />
    <glyph glyph-name="uni0145" unicode="&#x145;" horiz-adv-x="805" 
d="M720 0h-195l-308 538h-4q2 -23 3.5 -55t3 -66t1.5 -65v-352h-136v714h194l307 -533h4q-1 20 -3 51.5t-3 66t-1 61.5v354h137v-714zM487 -71q-8 -24 -20 -49t-27 -50.5t-34 -50.5h-88v13q6 20 12.5 46.5t11.5 53.5t6 47h139v-10z" />
    <glyph glyph-name="uni0146" unicode="&#x146;" 
d="M385 556q90 0 142 -47t52 -153v-356h-150v318q0 59 -21.5 88.5t-66.5 29.5q-68 0 -92.5 -46.5t-24.5 -133.5v-256h-151v546h116l21 -73h6q18 27 43.5 45.5t57 28t68.5 9.5zM409 -71q-8 -24 -20 -49t-27 -50.5t-34 -50.5h-88v13q6 20 12.5 46.5t11.5 53.5t6 47h139v-10z
" />
    <glyph glyph-name="Ncaron" unicode="&#x147;" horiz-adv-x="805" 
d="M720 0h-195l-308 538h-4q2 -23 3.5 -55t3 -66t1.5 -65v-352h-136v714h194l307 -533h4q-1 20 -3 51.5t-3 66t-1 61.5v354h137v-714zM327 774q-14 23 -36.5 50t-46 52.5t-42.5 43.5v14h100q26 -16 50 -36t50 -44q26 24 51 44t51 36h100v-14q-18 -17 -42 -43t-46.5 -53
t-36.5 -50h-152z" />
    <glyph glyph-name="ncaron" unicode="&#x148;" 
d="M385 556q90 0 142 -47t52 -153v-356h-150v318q0 59 -21.5 88.5t-66.5 29.5q-68 0 -92.5 -46.5t-24.5 -133.5v-256h-151v546h116l21 -73h6q18 27 43.5 45.5t57 28t68.5 9.5zM249 606q-14 23 -36.5 50t-46 52.5t-42.5 43.5v14h100q26 -16 50 -36t50 -44q26 24 51 44t51 36
h100v-14q-18 -17 -42 -43t-46.5 -53t-36.5 -50h-152z" />
    <glyph glyph-name="Eng" unicode="&#x14a;" horiz-adv-x="805" 
d="M491 -220q-31 0 -55 3t-41 8v121q18 -3 37.5 -6.5t43.5 -3.5q34 0 58.5 10t39 32t15.5 56l-372 538h-4q2 -19 3.5 -53.5t3 -74t1.5 -76.5v-334h-136v714h182l319 -464h4q-1 20 -3 54.5t-3 74.5t-1 75v260h137v-714q0 -73 -28.5 -122t-80 -73.5t-120.5 -24.5z" />
    <glyph glyph-name="eng" unicode="&#x14b;" 
d="M401 -240q-23 0 -48.5 3.5t-42.5 8.5v119q16 -4 29 -7t29 -3q25 0 42.5 17t17.5 67v364q0 54 -21.5 80.5t-65.5 26.5q-45 0 -70.5 -21t-36 -60.5t-10.5 -98.5v-256h-151v546h116l20 -70h9q18 28 44.5 46t58 26t64.5 8q59 0 102.5 -20.5t67.5 -65t24 -114.5v-415
q0 -50 -17.5 -91t-57 -65.5t-103.5 -24.5z" />
    <glyph glyph-name="Omacron" unicode="&#x14c;" horiz-adv-x="791" 
d="M735 358q0 -83 -20.5 -150.5t-62 -116.5t-105.5 -75t-152 -26q-87 0 -151.5 26t-106 75t-62 116.5t-20.5 151.5q0 111 36.5 193t112 127.5t192.5 45.5q116 0 191.5 -45.5t111.5 -128t36 -193.5zM216 358q0 -74 18.5 -128t58.5 -82.5t102 -28.5q64 0 103.5 28.5t57.5 82.5
t18 128q0 112 -41 176t-137 64q-63 0 -103 -29t-58.5 -82.5t-18.5 -128.5zM562 872v-98h-332v98h332z" />
    <glyph glyph-name="omacron" unicode="&#x14d;" horiz-adv-x="625" 
d="M577 274q0 -68 -18.5 -121t-53 -89t-83.5 -55t-111 -19q-58 0 -106 19t-83 55t-55 89t-20 121q0 91 32 154t92 95.5t143 32.5q77 0 136 -32.5t93 -95.5t34 -154zM201 274q0 -53 11.5 -91t36 -58t64.5 -20q39 0 63.5 20t35.5 58t11 91q0 54 -11.5 91t-35.5 56.5t-64 19.5
q-58 0 -84.5 -43t-26.5 -124zM479 704v-98h-332v98h332z" />
    <glyph glyph-name="Ohungarumlaut" unicode="&#x150;" horiz-adv-x="791" 
d="M735 358q0 -83 -20.5 -150.5t-62 -116.5t-105.5 -75t-152 -26q-87 0 -151.5 26t-106 75t-62 116.5t-20.5 151.5q0 111 36.5 193t112 127.5t192.5 45.5q116 0 191.5 -45.5t111.5 -128t36 -193.5zM216 358q0 -74 18.5 -128t58.5 -82.5t102 -28.5q64 0 103.5 28.5t57.5 82.5
t18 128q0 112 -41 176t-137 64q-63 0 -103 -29t-58.5 -82.5t-18.5 -128.5zM621 924q-8 -13 -27.5 -33t-44.5 -42t-49.5 -42t-43.5 -33h-79v13q14 19 31.5 45t35 53t28.5 49h149v-10zM413 924q-8 -13 -27 -33t-44 -42t-49.5 -42t-42.5 -33h-80v13q14 19 31.5 45t34.5 53
t30 49h147v-10z" />
    <glyph glyph-name="ohungarumlaut" unicode="&#x151;" horiz-adv-x="625" 
d="M577 274q0 -68 -18.5 -121t-53 -89t-83.5 -55t-111 -19q-58 0 -106 19t-83 55t-55 89t-20 121q0 91 32 154t92 95.5t143 32.5q77 0 136 -32.5t93 -95.5t34 -154zM201 274q0 -53 11.5 -91t36 -58t64.5 -20q39 0 63.5 20t35.5 58t11 91q0 54 -11.5 91t-35.5 56.5t-64 19.5
q-58 0 -84.5 -43t-26.5 -124zM538 756q-8 -13 -27.5 -33t-44.5 -42t-49.5 -42t-43.5 -33h-79v13q14 19 31.5 45t35 53t28.5 49h149v-10zM330 756q-8 -13 -27 -33t-44 -42t-49.5 -42t-42.5 -33h-80v13q14 19 31.5 45t34.5 53t30 49h147v-10z" />
    <glyph glyph-name="OE" unicode="&#x152;" horiz-adv-x="946" 
d="M382 725q26 0 58 -3t54 -8h399v-125h-253v-156h235v-125h-235v-181h253v-127h-400q-21 -4 -52.5 -7t-57.5 -3q-109 0 -182 46t-109.5 129t-36.5 194t36 193t108.5 127.5t182.5 45.5zM385 598q-43 0 -75.5 -16.5t-53 -47.5t-31 -75.5t-10.5 -100.5q0 -74 18.5 -128
t56 -82.5t94.5 -28.5q30 0 57.5 5t46.5 14v439q-18 10 -45.5 15.5t-57.5 5.5z" />
    <glyph glyph-name="oe" unicode="&#x153;" horiz-adv-x="967" 
d="M690 556q69 0 121 -29t81 -84.5t29 -135.5v-72h-346q2 -62 37.5 -97.5t102.5 -35.5q44 0 87.5 9.5t87.5 30.5v-113q-40 -20 -83 -29.5t-107 -9.5q-60 0 -109.5 21t-84.5 63q-34 -41 -84 -62.5t-113 -21.5q-76 0 -135 33t-93 97t-34 154q0 91 32 153.5t91 95.5t142 33
q57 0 105 -20.5t82 -60.5q22 27 50 44.5t63.5 27t77.5 9.5zM309 441q-57 0 -82 -42t-25 -125q0 -54 10.5 -92t34.5 -57.5t63 -19.5t62.5 19t34.5 57t11 92q0 56 -11 93t-35 56t-63 19zM683 449q-45 0 -73 -27.5t-33 -85.5h203q0 32 -10.5 57.5t-32 40.5t-54.5 15z" />
    <glyph glyph-name="Racute" unicode="&#x154;" horiz-adv-x="656" 
d="M304 714q94 0 156 -23.5t92.5 -69.5t30.5 -115q0 -48 -17 -85t-46 -63t-66 -43l203 -315h-175l-159 274h-85v-274h-153v714h219zM301 595h-63v-203h63q61 0 94 25t33 82q0 32 -13.5 53t-41.5 32t-72 11zM532 924q-15 -14 -38 -34.5t-50 -42t-52.5 -41t-44.5 -32.5h-100
v13q16 19 37.5 45t43 53t35.5 49h169v-10z" />
    <glyph glyph-name="racute" unicode="&#x155;" horiz-adv-x="447" 
d="M375 556q15 0 32.5 -1.5t27.5 -4.5l-15 -141q-11 2 -26 4t-36 2q-23 0 -46.5 -7t-43.5 -23t-32 -42t-12 -66v-277h-151v546h115l22 -92h7q16 29 40 52t54 36.5t64 13.5zM451 756q-15 -14 -38 -34.5t-50 -42t-52.5 -41t-44.5 -32.5h-100v13q16 19 37.5 45t43 53t35.5 49
h169v-10z" />
    <glyph glyph-name="uni0156" unicode="&#x156;" horiz-adv-x="656" 
d="M304 714q94 0 156 -23.5t92.5 -69.5t30.5 -115q0 -48 -17 -85t-46 -63t-66 -43l203 -315h-175l-159 274h-85v-274h-153v714h219zM301 595h-63v-203h63q61 0 94 25t33 82q0 32 -13.5 53t-41.5 32t-72 11zM428 -71q-8 -24 -20 -49t-27 -50.5t-34 -50.5h-88v13
q6 20 12.5 46.5t11.5 53.5t6 47h139v-10z" />
    <glyph glyph-name="uni0157" unicode="&#x157;" horiz-adv-x="447" 
d="M375 556q15 0 32.5 -1.5t27.5 -4.5l-15 -141q-11 2 -26 4t-36 2q-23 0 -46.5 -7t-43.5 -23t-32 -42t-12 -66v-277h-151v546h115l22 -92h7q16 29 40 52t54 36.5t64 13.5zM234 -71q-8 -24 -20 -49t-27 -50.5t-34 -50.5h-88v13q6 20 12.5 46.5t11.5 53.5t6 47h139v-10z" />
    <glyph glyph-name="Rcaron" unicode="&#x158;" horiz-adv-x="656" 
d="M304 714q94 0 156 -23.5t92.5 -69.5t30.5 -115q0 -48 -17 -85t-46 -63t-66 -43l203 -315h-175l-159 274h-85v-274h-153v714h219zM301 595h-63v-203h63q61 0 94 25t33 82q0 32 -13.5 53t-41.5 32t-72 11zM252 774q-14 23 -36.5 50t-46 52.5t-42.5 43.5v14h100
q26 -16 50 -36t50 -44q26 24 51 44t51 36h100v-14q-18 -17 -42 -43t-46.5 -53t-36.5 -50h-152z" />
    <glyph glyph-name="rcaron" unicode="&#x159;" horiz-adv-x="447" 
d="M375 556q15 0 32.5 -1.5t27.5 -4.5l-15 -141q-11 2 -26 4t-36 2q-23 0 -46.5 -7t-43.5 -23t-32 -42t-12 -66v-277h-151v546h115l22 -92h7q16 29 40 52t54 36.5t64 13.5zM171 606q-14 23 -36.5 50t-46 52.5t-42.5 43.5v14h100q26 -16 50 -36t50 -44q26 24 51 44t51 36h100
v-14q-18 -17 -42 -43t-46.5 -53t-36.5 -50h-152z" />
    <glyph glyph-name="Sacute" unicode="&#x15a;" horiz-adv-x="566" 
d="M528 207q0 -60 -30.5 -109.5t-90 -78.5t-150.5 -29q-45 0 -81.5 4.5t-68 13.5t-60.5 23v138q49 -24 106 -38.5t108 -14.5q39 0 64 10t37.5 27.5t12.5 39.5q0 26 -14 43t-45 33.5t-85 38.5q-57 24 -96.5 51.5t-60.5 67.5t-21 99q0 64 32 108t89 67t132 23
q66 0 119.5 -13.5t95.5 -33.5l-47 -121q-42 19 -86.5 31t-85.5 12q-33 0 -54.5 -8.5t-32 -24t-10.5 -35.5q0 -25 14 -42t46 -34t87 -40q56 -23 95 -50.5t60 -64.5t21 -93zM491 924q-15 -14 -38 -34.5t-50 -42t-52.5 -41t-44.5 -32.5h-100v13q16 19 37.5 45t43 53t35.5 49
h169v-10z" />
    <glyph glyph-name="sacute" unicode="&#x15b;" horiz-adv-x="502" 
d="M460 161q0 -52 -24.5 -90.5t-74.5 -59.5t-127 -21q-58 0 -102 7.5t-85 24.5v125q44 -21 95 -33t88 -12q46 0 66.5 13t20.5 35q0 15 -10.5 27t-37 25t-75.5 32q-49 20 -82 41.5t-49.5 51.5t-16.5 75q0 75 59.5 114.5t157.5 39.5q53 0 98.5 -11t92.5 -31l-44 -103
q-38 17 -78 28t-71 11q-34 0 -53 -10.5t-19 -29.5q0 -14 10.5 -25t37 -23t74.5 -31q49 -19 82.5 -40.5t50 -52t16.5 -77.5zM451 756q-15 -14 -38 -34.5t-50 -42t-52.5 -41t-44.5 -32.5h-100v13q16 19 37.5 45t43 53t35.5 49h169v-10z" />
    <glyph glyph-name="Scedilla" unicode="&#x15e;" horiz-adv-x="566" 
d="M528 207q0 -60 -30.5 -109.5t-90 -78.5t-150.5 -29q-45 0 -81.5 4.5t-68 13.5t-60.5 23v138q49 -24 106 -38.5t108 -14.5q39 0 64 10t37.5 27.5t12.5 39.5q0 26 -14 43t-45 33.5t-85 38.5q-57 24 -96.5 51.5t-60.5 67.5t-21 99q0 64 32 108t89 67t132 23
q66 0 119.5 -13.5t95.5 -33.5l-47 -121q-42 19 -86.5 31t-85.5 12q-33 0 -54.5 -8.5t-32 -24t-10.5 -35.5q0 -25 14 -42t46 -34t87 -40q56 -23 95 -50.5t60 -64.5t21 -93zM389 -129q0 -51 -37 -81t-103 -30q-26 0 -48.5 3.5t-36.5 8.5v79q14 -4 29.5 -6.5t30.5 -2.5
q26 0 39.5 8.5t13.5 26.5q0 20 -20 31t-58 17l35 75h80l-15 -39q21 -4 42 -14.5t34.5 -28.5t13.5 -47z" />
    <glyph glyph-name="scedilla" unicode="&#x15f;" horiz-adv-x="502" 
d="M460 161q0 -52 -24.5 -90.5t-74.5 -59.5t-127 -21q-58 0 -102 7.5t-85 24.5v125q44 -21 95 -33t88 -12q46 0 66.5 13t20.5 35q0 15 -10.5 27t-37 25t-75.5 32q-49 20 -82 41.5t-49.5 51.5t-16.5 75q0 75 59.5 114.5t157.5 39.5q53 0 98.5 -11t92.5 -31l-44 -103
q-38 17 -78 28t-71 11q-34 0 -53 -10.5t-19 -29.5q0 -14 10.5 -25t37 -23t74.5 -31q49 -19 82.5 -40.5t50 -52t16.5 -77.5zM359 -129q0 -51 -37 -81t-103 -30q-26 0 -48.5 3.5t-36.5 8.5v79q14 -4 29.5 -6.5t30.5 -2.5q26 0 39.5 8.5t13.5 26.5q0 20 -20 31t-58 17l35 75h80
l-15 -39q21 -4 42 -14.5t34.5 -28.5t13.5 -47z" />
    <glyph glyph-name="Scaron" unicode="&#x160;" horiz-adv-x="566" 
d="M528 207q0 -60 -30.5 -109.5t-90 -78.5t-150.5 -29q-45 0 -81.5 4.5t-68 13.5t-60.5 23v138q49 -24 106 -38.5t108 -14.5q39 0 64 10t37.5 27.5t12.5 39.5q0 26 -14 43t-45 33.5t-85 38.5q-57 24 -96.5 51.5t-60.5 67.5t-21 99q0 64 32 108t89 67t132 23
q66 0 119.5 -13.5t95.5 -33.5l-47 -121q-42 19 -86.5 31t-85.5 12q-33 0 -54.5 -8.5t-32 -24t-10.5 -35.5q0 -25 14 -42t46 -34t87 -40q56 -23 95 -50.5t60 -64.5t21 -93zM212 774q-14 23 -36.5 50t-46 52.5t-42.5 43.5v14h100q26 -16 50 -36t50 -44q26 24 51 44t51 36h100
v-14q-18 -17 -42 -43t-46.5 -53t-36.5 -50h-152z" />
    <glyph glyph-name="scaron" unicode="&#x161;" horiz-adv-x="502" 
d="M460 161q0 -52 -24.5 -90.5t-74.5 -59.5t-127 -21q-58 0 -102 7.5t-85 24.5v125q44 -21 95 -33t88 -12q46 0 66.5 13t20.5 35q0 15 -10.5 27t-37 25t-75.5 32q-49 20 -82 41.5t-49.5 51.5t-16.5 75q0 75 59.5 114.5t157.5 39.5q53 0 98.5 -11t92.5 -31l-44 -103
q-38 17 -78 28t-71 11q-34 0 -53 -10.5t-19 -29.5q0 -14 10.5 -25t37 -23t74.5 -31q49 -19 82.5 -40.5t50 -52t16.5 -77.5zM171 606q-14 23 -36.5 50t-46 52.5t-42.5 43.5v14h100q26 -16 50 -36t50 -44q26 24 51 44t51 36h100v-14q-18 -17 -42 -43t-46.5 -53t-36.5 -50h-152
z" />
    <glyph glyph-name="Tcaron" unicode="&#x164;" horiz-adv-x="577" 
d="M365 0h-153v587h-193v127h539v-127h-193v-587zM213 774q-14 23 -36.5 50t-46 52.5t-42.5 43.5v14h100q26 -16 50 -36t50 -44q26 24 51 44t51 36h100v-14q-18 -17 -42 -43t-46.5 -53t-36.5 -50h-152z" />
    <glyph glyph-name="tcaron" unicode="&#x165;" horiz-adv-x="421" 
d="M309 110q23 0 44.5 5t40.5 11v-111q-24 -11 -55.5 -18t-74.5 -7q-49 0 -87.5 16t-61 55.5t-22.5 110.5v261h-71v64l82 50l44 115h96v-116h143v-113h-143v-252q0 -36 17.5 -53.5t47.5 -17.5zM569 750q-10 -22 -22.5 -46.5t-27 -50.5t-31.5 -53h-89v13q5 15 9 33.5
t8.5 38.5t7.5 39.5t5 35.5h140v-10z" />
    <glyph glyph-name="Umacron" unicode="&#x16a;" horiz-adv-x="747" 
d="M667 272q0 -84 -32.5 -147.5t-98.5 -99t-165 -35.5q-143 0 -217 74.5t-74 205.5v444h153v-436q0 -80 35.5 -119.5t105.5 -39.5q50 0 81 18t45 54t14 88v435h153v-442zM540 872v-98h-332v98h332z" />
    <glyph glyph-name="umacron" unicode="&#x16b;" 
d="M576 546v-546h-116l-19 70h-9q-17 -28 -43.5 -46t-58 -26t-66.5 -8q-58 0 -101.5 21t-68 65t-24.5 114v356h152v-318q0 -58 20.5 -87.5t65.5 -29.5q46 0 71.5 20.5t35.5 60.5t10 98v256h151zM491 704v-98h-332v98h332z" />
    <glyph glyph-name="Ubreve" unicode="&#x16c;" horiz-adv-x="747" 
d="M667 272q0 -84 -32.5 -147.5t-98.5 -99t-165 -35.5q-143 0 -217 74.5t-74 205.5v444h153v-436q0 -80 35.5 -119.5t105.5 -39.5q50 0 81 18t45 54t14 88v435h153v-442zM554 937q-3 -49 -25.5 -85.5t-62 -57t-95.5 -20.5q-87 0 -131 44t-48 119h84q9 -42 31 -53t65 -11
q35 0 61 12.5t35 51.5h86z" />
    <glyph glyph-name="ubreve" unicode="&#x16d;" 
d="M576 546v-546h-116l-19 70h-9q-17 -28 -43.5 -46t-58 -26t-66.5 -8q-58 0 -101.5 21t-68 65t-24.5 114v356h152v-318q0 -58 20.5 -87.5t65.5 -29.5q46 0 71.5 20.5t35.5 60.5t10 98v256h151zM505 769q-3 -49 -25.5 -85.5t-62 -57t-95.5 -20.5q-87 0 -131 44t-48 119h84
q9 -42 31 -53t65 -11q35 0 61 12.5t35 51.5h86z" />
    <glyph glyph-name="Uring" unicode="&#x16e;" horiz-adv-x="747" 
d="M667 272q0 -84 -32.5 -147.5t-98.5 -99t-165 -35.5q-143 0 -217 74.5t-74 205.5v444h153v-436q0 -80 35.5 -119.5t105.5 -39.5q50 0 81 18t45 54t14 88v435h153v-442zM372 773q-54 0 -87.5 31t-33.5 85q0 55 33.5 86t87.5 31q52 0 88.5 -31t36.5 -85q0 -55 -36 -86
t-89 -31zM372 842q20 0 33.5 13t13.5 34q0 22 -13.5 34.5t-33.5 12.5t-33.5 -12.5t-13.5 -34.5q0 -21 12 -34t35 -13z" />
    <glyph glyph-name="uring" unicode="&#x16f;" 
d="M576 546v-546h-116l-19 70h-9q-17 -28 -43.5 -46t-58 -26t-66.5 -8q-58 0 -101.5 21t-68 65t-24.5 114v356h152v-318q0 -58 20.5 -87.5t65.5 -29.5q46 0 71.5 20.5t35.5 60.5t10 98v256h151zM323 605q-54 0 -87.5 31t-33.5 85q0 55 33.5 86t87.5 31q52 0 88.5 -31
t36.5 -85q0 -55 -36 -86t-89 -31zM323 674q20 0 33.5 13t13.5 34q0 22 -13.5 34.5t-33.5 12.5t-33.5 -12.5t-13.5 -34.5q0 -21 12 -34t35 -13z" />
    <glyph glyph-name="Uhungarumlaut" unicode="&#x170;" horiz-adv-x="747" 
d="M667 272q0 -84 -32.5 -147.5t-98.5 -99t-165 -35.5q-143 0 -217 74.5t-74 205.5v444h153v-436q0 -80 35.5 -119.5t105.5 -39.5q50 0 81 18t45 54t14 88v435h153v-442zM599 924q-8 -13 -27.5 -33t-44.5 -42t-49.5 -42t-43.5 -33h-79v13q14 19 31.5 45t35 53t28.5 49h149
v-10zM391 924q-8 -13 -27 -33t-44 -42t-49.5 -42t-42.5 -33h-80v13q14 19 31.5 45t34.5 53t30 49h147v-10z" />
    <glyph glyph-name="uhungarumlaut" unicode="&#x171;" 
d="M576 546v-546h-116l-19 70h-9q-17 -28 -43.5 -46t-58 -26t-66.5 -8q-58 0 -101.5 21t-68 65t-24.5 114v356h152v-318q0 -58 20.5 -87.5t65.5 -29.5q46 0 71.5 20.5t35.5 60.5t10 98v256h151zM550 756q-8 -13 -27.5 -33t-44.5 -42t-49.5 -42t-43.5 -33h-79v13
q14 19 31.5 45t35 53t28.5 49h149v-10zM342 756q-8 -13 -27 -33t-44 -42t-49.5 -42t-42.5 -33h-80v13q14 19 31.5 45t34.5 53t30 49h147v-10z" />
    <glyph glyph-name="Uogonek" unicode="&#x172;" horiz-adv-x="747" 
d="M498 -95q0 -27 11.5 -37t29.5 -10q15 0 30 3t24 6v-88q-15 -4 -33.5 -7.5t-42.5 -3.5q-55 0 -88.5 29.5t-33.5 84.5q0 28 12 57t36.5 57.5t58.5 55.5l91 19q-30 -35 -51.5 -62.5t-32.5 -52t-11 -51.5zM667 272q0 -84 -32.5 -147.5t-98.5 -99t-165 -35.5q-143 0 -217 74.5
t-74 205.5v444h153v-436q0 -80 35.5 -119.5t105.5 -39.5q50 0 81 18t45 54t14 88v435h153v-442z" />
    <glyph glyph-name="uogonek" unicode="&#x173;" 
d="M576 546v-546h-116l-19 70h-9q-17 -28 -43.5 -46t-58 -26t-66.5 -8q-58 0 -101.5 21t-68 65t-24.5 114v356h152v-318q0 -58 20.5 -87.5t65.5 -29.5q46 0 71.5 20.5t35.5 60.5t10 98v256h151zM481 -104q0 -20 11 -29t29 -9q15 0 30 3t25 6v-88q-16 -4 -34 -7.5t-42 -3.5
q-56 0 -89.5 28.5t-33.5 76.5q0 26 12 50.5t35.5 49t57.5 48.5l65 -21q-34 -32 -50 -55t-16 -49z" />
    <glyph glyph-name="Wcircumflex" unicode="&#x174;" horiz-adv-x="996" 
d="M982 714l-181 -714h-175l-95 372q-4 14 -9 35.5t-10 45.5t-9 45.5t-5 35.5q-2 -14 -5.5 -35.5t-8.5 -45.5t-10 -45.5t-9 -36.5l-95 -371h-174l-182 714h150l91 -388q4 -17 9 -41t10 -49.5t9.5 -49.5t6.5 -42q4 26 9 58t12 65t14 62.5t12 51.5l88 333h145l89 -334
q5 -22 12 -52t14 -63t12.5 -65t8.5 -56q3 25 9.5 58.5t13.5 66.5t12 56l91 389h150zM575 934q14 -23 36.5 -50.5t46.5 -53t42 -43.5v-13h-100q-26 15 -51 35.5t-51 44.5q-26 -24 -50 -43.5t-50 -36.5h-100v13q19 19 42.5 44.5t46 52.5t36.5 50h152z" />
    <glyph glyph-name="wcircumflex" unicode="&#x175;" horiz-adv-x="862" 
d="M463 266q-6 26 -13 56.5t-11.5 57.5t-7.5 42h-3q-2 -15 -7.5 -42.5t-12 -58.5t-14.5 -60l-71 -261h-162l-149 547h150l56 -241q6 -25 12 -56.5t11 -62.5t6 -55h3q2 17 6 40t8.5 46.5t9 43.5t7.5 31l68 254h166l65 -256q5 -20 11 -48.5t12 -57.5t8 -52h3q2 23 6.5 54
t10.5 62.5t13 56.5l59 241h147l-151 -547h-164zM507 766q14 -23 36.5 -50.5t46.5 -53t42 -43.5v-13h-100q-26 15 -51 35.5t-51 44.5q-26 -24 -50 -43.5t-50 -36.5h-100v13q19 19 42.5 44.5t46 52.5t36.5 50h152z" />
    <glyph glyph-name="Ycircumflex" unicode="&#x176;" horiz-adv-x="626" 
d="M313 415l147 299h166l-236 -436v-278h-154v273l-236 441h166zM389 934q14 -23 36.5 -50.5t46.5 -53t42 -43.5v-13h-100q-26 15 -51 35.5t-51 44.5q-26 -24 -50 -43.5t-50 -36.5h-100v13q19 19 42.5 44.5t46 52.5t36.5 50h152z" />
    <glyph glyph-name="ycircumflex" unicode="&#x177;" horiz-adv-x="571" 
d="M0 546h159l103 -312q5 -15 9.5 -30.5t8 -31.5t5.5 -31h4q3 21 10.5 46t14.5 47l101 312h156l-224 -596q-22 -61 -52.5 -103.5t-74.5 -64.5t-109 -22q-25 0 -44 2.5t-32 5.5v119q11 -2 26.5 -4t32.5 -2q31 0 52 12.5t35 33t24 46.5l12 31zM362 766q14 -23 36.5 -50.5
t46.5 -53t42 -43.5v-13h-100q-26 15 -51 35.5t-51 44.5q-26 -24 -50 -43.5t-50 -36.5h-100v13q19 19 42.5 44.5t46 52.5t36.5 50h152z" />
    <glyph glyph-name="Ydieresis" unicode="&#x178;" horiz-adv-x="626" 
d="M313 415l147 299h166l-236 -436v-278h-154v273l-236 441h166zM136 854q0 35 20 51t49 16q28 0 48.5 -16t20.5 -51q0 -33 -20.5 -49t-48.5 -16q-29 0 -49 16t-20 49zM352 854q0 35 19.5 51t49.5 16q28 0 48.5 -16t20.5 -51q0 -33 -20.5 -49t-48.5 -16q-30 0 -49.5 16
t-19.5 49z" />
    <glyph glyph-name="Zacute" unicode="&#x179;" horiz-adv-x="596" 
d="M565 0h-532v99l335 489h-326v126h515v-99l-336 -489h344v-126zM509 924q-15 -14 -38 -34.5t-50 -42t-52.5 -41t-44.5 -32.5h-100v13q16 19 37.5 45t43 53t35.5 49h169v-10z" />
    <glyph glyph-name="zacute" unicode="&#x17a;" horiz-adv-x="493" 
d="M462 0h-432v89l252 342h-238v115h409v-97l-245 -333h254v-116zM451 756q-15 -14 -38 -34.5t-50 -42t-52.5 -41t-44.5 -32.5h-100v13q16 19 37.5 45t43 53t35.5 49h169v-10z" />
    <glyph glyph-name="Zdotaccent" unicode="&#x17b;" horiz-adv-x="596" 
d="M565 0h-532v99l335 489h-326v126h515v-99l-336 -489h344v-126zM306 929q33 0 57.5 -15.5t24.5 -58.5q0 -41 -24.5 -57t-57.5 -16q-34 0 -58 16t-24 57q0 43 24 58.5t58 15.5z" />
    <glyph glyph-name="zdotaccent" unicode="&#x17c;" horiz-adv-x="493" 
d="M462 0h-432v89l252 342h-238v115h409v-97l-245 -333h254v-116zM247 761q33 0 57.5 -15.5t24.5 -58.5q0 -41 -24.5 -57t-57.5 -16q-34 0 -58 16t-24 57q0 43 24 58.5t58 15.5z" />
    <glyph glyph-name="Zcaron" unicode="&#x17d;" horiz-adv-x="596" 
d="M565 0h-532v99l335 489h-326v126h515v-99l-336 -489h344v-126zM230 774q-14 23 -36.5 50t-46 52.5t-42.5 43.5v14h100q26 -16 50 -36t50 -44q26 24 51 44t51 36h100v-14q-18 -17 -42 -43t-46.5 -53t-36.5 -50h-152z" />
    <glyph glyph-name="zcaron" unicode="&#x17e;" horiz-adv-x="493" 
d="M462 0h-432v89l252 342h-238v115h409v-97l-245 -333h254v-116zM171 606q-14 23 -36.5 50t-46 52.5t-42.5 43.5v14h100q26 -16 50 -36t50 -44q26 24 51 44t51 36h100v-14q-18 -17 -42 -43t-46.5 -53t-36.5 -50h-152z" />
    <glyph glyph-name="uni0218" unicode="&#x218;" horiz-adv-x="566" 
d="M528 207q0 -60 -30.5 -109.5t-90 -78.5t-150.5 -29q-45 0 -81.5 4.5t-68 13.5t-60.5 23v138q49 -24 106 -38.5t108 -14.5q39 0 64 10t37.5 27.5t12.5 39.5q0 26 -14 43t-45 33.5t-85 38.5q-57 24 -96.5 51.5t-60.5 67.5t-21 99q0 64 32 108t89 67t132 23
q66 0 119.5 -13.5t95.5 -33.5l-47 -121q-42 19 -86.5 31t-85.5 12q-33 0 -54.5 -8.5t-32 -24t-10.5 -35.5q0 -25 14 -42t46 -34t87 -40q56 -23 95 -50.5t60 -64.5t21 -93zM361 -71q-8 -24 -20 -49t-27 -50.5t-34 -50.5h-88v13q6 20 12.5 46.5t11.5 53.5t6 47h139v-10z" />
    <glyph glyph-name="uni0219" unicode="&#x219;" horiz-adv-x="502" 
d="M460 161q0 -52 -24.5 -90.5t-74.5 -59.5t-127 -21q-58 0 -102 7.5t-85 24.5v125q44 -21 95 -33t88 -12q46 0 66.5 13t20.5 35q0 15 -10.5 27t-37 25t-75.5 32q-49 20 -82 41.5t-49.5 51.5t-16.5 75q0 75 59.5 114.5t157.5 39.5q53 0 98.5 -11t92.5 -31l-44 -103
q-38 17 -78 28t-71 11q-34 0 -53 -10.5t-19 -29.5q0 -14 10.5 -25t37 -23t74.5 -31q49 -19 82.5 -40.5t50 -52t16.5 -77.5zM331 -71q-8 -24 -20 -49t-27 -50.5t-34 -50.5h-88v13q6 20 12.5 46.5t11.5 53.5t6 47h139v-10z" />
    <glyph glyph-name="uni021A" unicode="&#x21a;" horiz-adv-x="577" 
d="M365 0h-153v587h-193v127h539v-127h-193v-587zM374 -71q-8 -24 -20 -49t-27 -50.5t-34 -50.5h-88v13q6 20 12.5 46.5t11.5 53.5t6 47h139v-10z" />
    <glyph glyph-name="uni021B" unicode="&#x21b;" horiz-adv-x="421" 
d="M309 110q23 0 44.5 5t40.5 11v-111q-24 -11 -55.5 -18t-74.5 -7q-49 0 -87.5 16t-61 55.5t-22.5 110.5v261h-71v64l82 50l44 115h96v-116h143v-113h-143v-252q0 -36 17.5 -53.5t47.5 -17.5zM329 -71q-8 -24 -20 -49t-27 -50.5t-34 -50.5h-88v13q6 20 12.5 46.5t11.5 53.5
t6 47h139v-10z" />
    <glyph glyph-name="uni0237" unicode="&#x237;" horiz-adv-x="298" 
d="M40 -240q-23 0 -49 3.5t-44 8.5v119q16 -4 30.5 -7t31.5 -3q27 0 45.5 17t18.5 67v581h151v-605q0 -50 -18 -91t-58.5 -65.5t-107.5 -24.5z" />
    <glyph glyph-name="circumflex" unicode="&#x2c6;" horiz-adv-x="482" 
d="M317 766q14 -23 36.5 -50.5t46.5 -53t42 -43.5v-13h-100q-26 15 -51 35.5t-51 44.5q-26 -24 -50 -43.5t-50 -36.5h-100v13q19 19 42.5 44.5t46 52.5t36.5 50h152z" />
    <glyph glyph-name="caron" unicode="&#x2c7;" horiz-adv-x="482" 
d="M165 606q-14 23 -36.5 50t-46 52.5t-42.5 43.5v14h100q26 -16 50 -36t50 -44q26 24 51 44t51 36h100v-14q-18 -17 -42 -43t-46.5 -53t-36.5 -50h-152z" />
    <glyph glyph-name="macronmod" unicode="&#x2c9;" horiz-adv-x="412" 
d="M372 704v-98h-332v98h332z" />
    <glyph glyph-name="breve" unicode="&#x2d8;" horiz-adv-x="442" 
d="M402 769q-3 -49 -25.5 -85.5t-62 -57t-95.5 -20.5q-87 0 -131 44t-48 119h84q9 -42 31 -53t65 -11q35 0 61 12.5t35 51.5h86z" />
    <glyph glyph-name="dotaccent" unicode="&#x2d9;" horiz-adv-x="244" 
d="M122 761q33 0 57.5 -15.5t24.5 -58.5q0 -41 -24.5 -57t-57.5 -16q-34 0 -58 16t-24 57q0 43 24 58.5t58 15.5z" />
    <glyph glyph-name="ring" unicode="&#x2da;" horiz-adv-x="326" 
d="M161 605q-54 0 -87.5 31t-33.5 85q0 55 33.5 86t87.5 31q52 0 88.5 -31t36.5 -85q0 -55 -36 -86t-89 -31zM161 674q20 0 33.5 13t13.5 34q0 22 -13.5 34.5t-33.5 12.5t-33.5 -12.5t-13.5 -34.5q0 -21 12 -34t35 -13z" />
    <glyph glyph-name="ogonek" unicode="&#x2db;" horiz-adv-x="279" 
d="M144 -104q0 -20 11 -29t29 -9q15 0 30 3t25 6v-88q-16 -4 -34 -7.5t-42 -3.5q-56 0 -89.5 28.5t-33.5 76.5q0 26 12 50.5t35.5 49t57.5 48.5l65 -21q-34 -32 -50 -55t-16 -49z" />
    <glyph glyph-name="tilde" unicode="&#x2dc;" horiz-adv-x="474" 
d="M40 605q3 40 12 68.5t24 47t35.5 27.5t46.5 9q20 0 40.5 -8t41.5 -18t40 -17.5t37 -7.5q15 0 26 10.5t17 41.5h74q-6 -78 -37 -115t-79 -37q-21 0 -42.5 7.5t-42 18t-40 18t-37.5 7.5q-14 0 -25 -10.5t-17 -41.5h-74z" />
    <glyph glyph-name="hungarumlaut" unicode="&#x2dd;" horiz-adv-x="531" 
d="M491 756q-8 -13 -27.5 -33t-44.5 -42t-49.5 -42t-43.5 -33h-79v13q14 19 31.5 45t35 53t28.5 49h149v-10zM283 756q-8 -13 -27 -33t-44 -42t-49.5 -42t-42.5 -33h-80v13q14 19 31.5 45t34.5 53t30 49h147v-10z" />
    <glyph glyph-name="gravecomb" unicode="&#x300;" horiz-adv-x="0" 
d="M-364 766q15 -22 35.5 -49t42.5 -53t38 -45v-13h-101q-19 13 -44.5 32.5t-52 41t-50 42t-37.5 34.5v10h169z" />
    <glyph glyph-name="acutecomb" unicode="&#x301;" horiz-adv-x="0" 
d="M-79 756q-15 -14 -38 -34.5t-50 -42t-52.5 -41t-44.5 -32.5h-100v13q16 19 37.5 45t43 53t35.5 49h169v-10z" />
    <glyph glyph-name="uni0302" unicode="&#x302;" horiz-adv-x="0" 
d="M73 766q14 -23 36.5 -50.5t46.5 -53t42 -43.5v-13h-100q-26 15 -51 35.5t-51 44.5q-26 -24 -50 -43.5t-50 -36.5h-100v13q19 19 42.5 44.5t46 52.5t36.5 50h152z" />
    <glyph glyph-name="tildecomb" unicode="&#x303;" horiz-adv-x="0" 
d="M-543 605q3 40 12 68.5t24 47t35.5 27.5t46.5 9q20 0 40.5 -8t41.5 -18t40 -17.5t37 -7.5q15 0 26 10.5t17 41.5h74q-6 -78 -37 -115t-79 -37q-21 0 -42.5 7.5t-42 18t-40 18t-37.5 7.5q-14 0 -25 -10.5t-17 -41.5h-74z" />
    <glyph glyph-name="uni0304" unicode="&#x304;" horiz-adv-x="0" 
d="M166 704v-98h-332v98h332z" />
    <glyph glyph-name="uni0306" unicode="&#x306;" horiz-adv-x="0" 
d="M181 769q-3 -49 -25.5 -85.5t-62 -57t-95.5 -20.5q-87 0 -131 44t-48 119h84q9 -42 31 -53t65 -11q35 0 61 12.5t35 51.5h86z" />
    <glyph glyph-name="uni0307" unicode="&#x307;" horiz-adv-x="0" 
d="M0 761q33 0 57.5 -15.5t24.5 -58.5q0 -41 -24.5 -57t-57.5 -16q-34 0 -58 16t-24 57q0 43 24 58.5t58 15.5z" />
    <glyph glyph-name="uni0308" unicode="&#x308;" horiz-adv-x="0" 
d="M-178 686q0 35 20 51t49 16q28 0 48.5 -16t20.5 -51q0 -33 -20.5 -49t-48.5 -16q-29 0 -49 16t-20 49zM38 686q0 35 19.5 51t49.5 16q28 0 48.5 -16t20.5 -51q0 -33 -20.5 -49t-48.5 -16q-30 0 -49.5 16t-19.5 49z" />
    <glyph glyph-name="uni030A" unicode="&#x30a;" horiz-adv-x="0" 
d="M-10 605q-54 0 -87.5 31t-33.5 85q0 55 33.5 86t87.5 31q52 0 88.5 -31t36.5 -85q0 -55 -36 -86t-89 -31zM-10 674q20 0 33.5 13t13.5 34q0 22 -13.5 34.5t-33.5 12.5t-33.5 -12.5t-13.5 -34.5q0 -21 12 -34t35 -13z" />
    <glyph glyph-name="uni030B" unicode="&#x30b;" horiz-adv-x="0" 
d="M291 756q-8 -13 -27.5 -33t-44.5 -42t-49.5 -42t-43.5 -33h-79v13q14 19 31.5 45t35 53t28.5 49h149v-10zM83 756q-8 -13 -27 -33t-44 -42t-49.5 -42t-42.5 -33h-80v13q14 19 31.5 45t34.5 53t30 49h147v-10z" />
    <glyph glyph-name="uni030C" unicode="&#x30c;" horiz-adv-x="0" 
d="M-79 606q-14 23 -36.5 50t-46 52.5t-42.5 43.5v14h100q26 -16 50 -36t50 -44q26 24 51 44t51 36h100v-14q-18 -17 -42 -43t-46.5 -53t-36.5 -50h-152z" />
    <glyph glyph-name="uni0312" unicode="&#x312;" horiz-adv-x="0" 
d="M-97 455q9 36 23 82.5t30.5 93t32.5 82.5h108q-9 -42 -18.5 -90t-17.5 -94.5t-13 -84.5h-139z" />
    <glyph glyph-name="uni0326" unicode="&#x326;" horiz-adv-x="0" 
d="M87 -71q-8 -24 -20 -49t-27 -50.5t-34 -50.5h-88v13q6 20 12.5 46.5t11.5 53.5t6 47h139v-10z" />
    <glyph glyph-name="uni0327" unicode="&#x327;" horiz-adv-x="0" 
d="M113 -129q0 -51 -37 -81t-103 -30q-26 0 -48.5 3.5t-36.5 8.5v79q14 -4 29.5 -6.5t30.5 -2.5q26 0 39.5 8.5t13.5 26.5q0 20 -20 31t-58 17l35 75h80l-15 -39q21 -4 42 -14.5t34.5 -28.5t13.5 -47z" />
    <glyph glyph-name="uni0328" unicode="&#x328;" horiz-adv-x="0" 
d="M5 -104q0 -20 11 -29t29 -9q15 0 30 3t25 6v-88q-16 -4 -34 -7.5t-42 -3.5q-56 0 -89.5 28.5t-33.5 76.5q0 26 12 50.5t35.5 49t57.5 48.5l65 -21q-34 -32 -50 -55t-16 -49z" />
    <glyph glyph-name="uni0589" unicode="&#x589;" horiz-adv-x="281" 
d="M54 70q0 47 25.5 65.5t61.5 18.5q35 0 60.5 -18.5t25.5 -65.5q0 -44 -25.5 -63.5t-60.5 -19.5q-36 0 -61.5 19.5t-25.5 63.5zM54 473q0 46 25.5 64.5t61.5 18.5q35 0 60.5 -18.5t25.5 -64.5q0 -45 -25.5 -64.5t-60.5 -19.5q-36 0 -61.5 19.5t-25.5 64.5z" />
    <glyph glyph-name="uni10A0" unicode="&#x10a0;" horiz-adv-x="637" 
d="M401 -10q-103 0 -180.5 41t-121.5 114t-44 170q0 61 18.5 114t51 93.5t75.5 65.5v4h-127v122h517v-127h-132q-77 0 -131.5 -32.5t-83 -89.5t-28.5 -131q0 -68 24 -116.5t69 -74.5t105 -26q47 0 90.5 11t86.5 28v-130q-44 -19 -90 -27.5t-99 -8.5z" />
    <glyph glyph-name="uni10A1" unicode="&#x10a1;" horiz-adv-x="837" 
d="M483 0v176q0 23 2 54t6 69h-5q-29 -41 -79.5 -66t-115.5 -25q-74 0 -128 30.5t-83.5 88t-29.5 138.5q0 67 16.5 129.5t47.5 119.5h165q-22 -33 -38.5 -73t-26 -83.5t-9.5 -86.5q0 -44 15 -75t43.5 -46.5t69.5 -15.5q49 0 82.5 20t51 61t17.5 105v194h153v-589l196 1v-126
h-350z" />
    <glyph glyph-name="uni10A2" unicode="&#x10a2;" horiz-adv-x="790" 
d="M438 0v587h-218v-213h-152v340h523v-588h195v-126h-348z" />
    <glyph glyph-name="uni10A3" unicode="&#x10a3;" horiz-adv-x="773" 
d="M385 -10q-108 0 -182 34.5t-111 97t-37 147.5q0 75 29.5 133t86.5 94t139 47v46h-232v125h616v-125h-231v-46q85 -10 141.5 -46.5t84.5 -94t28 -133.5q0 -86 -37 -148.5t-110.5 -96.5t-184.5 -34zM385 117q58 0 96 18t56.5 52.5t18.5 82.5t-18.5 82.5t-56 53t-95.5 18.5
q-56 0 -94 -18.5t-57 -53t-19 -82.5t19 -82.5t56.5 -52.5t93.5 -18z" />
    <glyph glyph-name="uni10A4" unicode="&#x10a4;" horiz-adv-x="676" 
d="M438 0v587h-218v-213h-152v340h523v-714h-153z" />
    <glyph glyph-name="uni10A5" unicode="&#x10a5;" horiz-adv-x="874" 
d="M438 0v587h-218v-213h-152v340h523v-283h245v-257h-136v131h-109v-305h-153z" />
    <glyph glyph-name="uni10A6" unicode="&#x10a6;" horiz-adv-x="802" 
d="M464 -10q-91 0 -152.5 34t-92 98t-30.5 152v316h-193v124h344v-132q0 -15 -0.5 -32t-1.5 -35.5t-4 -37.5h7q33 41 74.5 60t99.5 19q73 0 126 -34.5t82 -98t29 -149.5q0 -88 -33.5 -151.5t-97 -98t-157.5 -34.5zM463 116q41 0 70 17.5t45 52.5t16 88t-14.5 87t-41.5 51.5
t-67 17.5q-43 0 -72 -17.5t-44 -52.5t-15 -87q0 -79 32 -118t91 -39z" />
    <glyph glyph-name="uni10A7" unicode="&#x10a7;" horiz-adv-x="931" 
d="M648 431h245v-257h-136v131h-109v-305h-237q-170 0 -263 90t-93 255q0 122 45.5 204t129 123.5t199.5 41.5h219v-283zM495 125v463h-64q-110 0 -163.5 -59t-53.5 -178q0 -113 50.5 -169.5t150.5 -56.5h80z" />
    <glyph glyph-name="uni10A8" unicode="&#x10a8;" horiz-adv-x="519" 
d="M281 0v588h-285v126h438v-714h-153z" />
    <glyph glyph-name="uni10A9" unicode="&#x10a9;" horiz-adv-x="723" 
d="M496 0v62q0 28 1.5 59t3.5 65h-5q-31 -43 -76 -65t-107 -22q-75 0 -127.5 32t-80.5 90.5t-28 136.5v356h154v-58q0 -20 -1.5 -49.5t-5.5 -64.5h6q32 44 76.5 65.5t106.5 21.5q75 0 127.5 -32.5t80.5 -90.5t28 -137v-369h-153zM359 225q45 0 75 16.5t46 47.5t16 75
t-14.5 75t-43 47.5t-71.5 16.5q-44 0 -74.5 -16.5t-46 -47.5t-15.5 -75t14 -75t42.5 -47.5t71.5 -16.5z" />
    <glyph glyph-name="uni10AA" unicode="&#x10aa;" horiz-adv-x="1013" 
d="M674 -10q-90 0 -151.5 34t-92.5 98t-31 152v313h-179v-213h-152v340h483v-132q0 -13 -0.5 -28.5t-2 -34.5t-3.5 -42h6q33 41 74.5 60t99.5 19q74 0 127 -35t81.5 -98t28.5 -149q0 -88 -33.5 -152t-97.5 -98t-157 -34zM674 116q41 0 70 17.5t45 52.5t16 88t-14.5 87
t-42 51.5t-67.5 17.5q-41 0 -70.5 -17.5t-44.5 -52t-15 -87.5q0 -79 31.5 -118t91.5 -39z" />
    <glyph glyph-name="uni10AB" unicode="&#x10ab;" horiz-adv-x="794" 
d="M328 -10q-81 0 -142.5 29t-96 84.5t-34.5 131.5q0 79 32.5 133t93.5 82t148 28h124v110h-357v126h508v-236h151v-120h-151v-113q0 -75 -32 -133t-94 -90t-150 -32zM327 116q64 0 95 36.5t31 95.5v110h-122q-56 0 -87.5 -31t-31.5 -90t32 -90t83 -31z" />
    <glyph glyph-name="uni10AC" unicode="&#x10ac;" horiz-adv-x="738" 
d="M85 0v714h545v-126h-391v-68q0 -23 -2 -55t-6 -74h6q21 31 49 52t63 31t75 10q75 0 127 -30.5t79.5 -88t27.5 -139.5v-226h-154v215q0 73 -33 108t-88 35q-72 0 -108 -45t-36 -131v-182h-154z" />
    <glyph glyph-name="uni10AD" unicode="&#x10ad;" horiz-adv-x="918" 
d="M395 -10q-87 0 -151.5 26t-106 75t-62 116.5t-20.5 151.5q0 110 36.5 192t112 127.5t192.5 45.5q116 0 191.5 -45.5t111.5 -127.5t36 -193q0 -73 -16 -135t-49 -109q14 -10 26.5 -14.5t27.5 -4.5q29 0 44.5 21.5t15.5 63.5h130q0 -60 -15 -103t-50 -65t-97 -22
q-40 0 -76.5 16.5t-67.5 43.5q-40 -29 -93 -44.5t-120 -15.5zM395 119q64 0 103.5 28.5t57.5 82.5t18 128q0 111 -41 175t-137 64q-63 0 -103 -29t-58.5 -82t-18.5 -128q0 -74 18.5 -128t58.5 -82.5t102 -28.5z" />
    <glyph glyph-name="uni10AE" unicode="&#x10ae;" horiz-adv-x="856" 
d="M482 -10q-141 0 -217 73t-76 206v318h-193v127h346v-436q0 -80 36 -119.5t104 -39.5q49 0 80 17.5t46 53t15 88.5v436h153v-442q0 -87 -33.5 -150t-98.5 -97.5t-162 -34.5z" />
    <glyph glyph-name="uni10AF" unicode="&#x10af;" horiz-adv-x="769" 
d="M530 0v165q0 32 1.5 64.5t5.5 69.5h-5q-28 -41 -78.5 -66t-115.5 -25q-72 0 -126 29t-83 80t-29 116q0 53 17 90t43 61v3h-159v127h345v-113q-33 -10 -53.5 -30.5t-29 -47t-8.5 -55.5q0 -67 32.5 -100.5t93.5 -33.5q49 0 82 19.5t50 58.5t17 96v206h154v-714h-154z" />
    <glyph glyph-name="uni10B0" unicode="&#x10b0;" horiz-adv-x="978" 
d="M331 -10q-88 0 -151 35t-96.5 94t-33.5 129q0 48 16 94t50 90l130 -54q-18 -29 -27.5 -60t-9.5 -63q0 -40 14.5 -70.5t40.5 -48t64 -17.5q59 0 90.5 38.5t31.5 119.5v437h153v-115q0 -23 -1.5 -52t-5.5 -70h5q29 41 64.5 60t89.5 19q60 0 100.5 -29.5t62 -77t21.5 -99.5
q0 -39 -12 -78t-33 -70l-134 42q11 20 17 42t6 44q0 27 -9.5 49.5t-29.5 36.5t-49 14q-28 0 -49 -13.5t-32 -37.5t-11 -60v-62q0 -83 -31.5 -143t-92 -92t-148.5 -32z" />
    <glyph glyph-name="uni10B1" unicode="&#x10b1;" horiz-adv-x="684" 
d="M352 -10q-87 0 -148 33.5t-92.5 95t-31.5 144.5v451h154v-437q0 -81 31.5 -119.5t90.5 -38.5q37 0 63.5 17.5t40.5 48t14 70.5q0 32 -9.5 63t-27.5 60l130 54q34 -44 50 -90t16 -94q0 -70 -33.5 -129t-96.5 -94t-151 -35z" />
    <glyph glyph-name="uni10B2" unicode="&#x10b2;" horiz-adv-x="635" 
d="M85 0v714h225q135 0 202 -56.5t67 -163.5q0 -52 -15.5 -95.5t-49 -76.5t-86 -51t-125.5 -18h-65v-127h310v-126h-463zM238 379h51q43 0 73.5 11t46.5 35.5t16 63.5q0 48 -29.5 74t-91.5 26h-66v-210z" />
    <glyph glyph-name="uni10B3" unicode="&#x10b3;" horiz-adv-x="790" 
d="M604 -185q-18 0 -35.5 2t-33.5 6v110q9 -2 19.5 -3.5t22.5 -1.5q30 0 45.5 15t15.5 38q0 21 -12.5 37t-32.5 29q-38 -29 -85.5 -43t-112.5 -14q-85 0 -149 25.5t-106.5 74t-63.5 116t-21 153.5q0 113 37.5 195t113.5 126t190 44q115 0 190.5 -44.5t112 -126.5t36.5 -195
q0 -68 -16 -127t-55 -112q30 -11 55.5 -31.5t41 -50t15.5 -68.5q0 -75 -46.5 -114.5t-125.5 -39.5zM395 119q63 0 102.5 27.5t58 81.5t18.5 130q0 114 -42.5 176.5t-135.5 62.5q-61 0 -101.5 -28.5t-59.5 -81.5t-19 -129t19 -129.5t59 -81.5t101 -28z" />
    <glyph glyph-name="uni10B4" unicode="&#x10b4;" horiz-adv-x="884" 
d="M368 0v162q-93 2 -163.5 36t-110 96t-39.5 148q0 74 28.5 127.5t80.5 88t122.5 50.5t154.5 16q96 0 168 -18.5t121 -54t73.5 -88.5t24.5 -121q0 -87 -39.5 -149t-110 -95.5t-162.5 -35.5v-162h-148zM368 281v319q-51 -2 -87.5 -21t-56 -53.5t-19.5 -82.5
q0 -50 19.5 -85.5t56 -55t87.5 -21.5zM516 281q50 2 86.5 21.5t56 55.5t19.5 85q0 48 -19.5 82t-56 53.5t-86.5 21.5v-319z" />
    <glyph glyph-name="uni10B5" unicode="&#x10b5;" horiz-adv-x="668" 
d="M253 0v352h-208v126h208v236h152v-236h208v-126h-208v-352h-152z" />
    <glyph glyph-name="uni10B6" unicode="&#x10b6;" horiz-adv-x="748" 
d="M80 0v442q0 87 34 150.5t100 97.5t162 34q141 0 216 -73.5t75 -206.5v-444h-153v436q0 81 -35.5 120t-105.5 39q-47 0 -78.5 -17t-46.5 -52.5t-15 -90.5v-435h-153z" />
    <glyph glyph-name="uni10B7" unicode="&#x10b7;" horiz-adv-x="722" 
d="M483 0v176q0 23 2 54t6 69h-5q-29 -41 -79.5 -66t-115.5 -25q-74 0 -128 30.5t-83.5 88t-29.5 138.5q0 67 16.5 129.5t47.5 119.5h165q-22 -33 -38.5 -73t-26 -83.5t-9.5 -86.5q0 -44 15 -75t43.5 -46.5t69.5 -15.5q49 0 82.5 20t51 61t17.5 105v194h153v-714h-154z" />
    <glyph glyph-name="uni10B8" unicode="&#x10b8;" horiz-adv-x="728" 
d="M364 -10q-76 0 -138.5 25.5t-99 72t-36.5 108.5q0 27 6 50.5t19 47.5l136 -45q-2 -10 -3.5 -19t-1.5 -18q0 -30 14.5 -52t41 -33t62.5 -11q37 0 65 16t44 47.5t16 75.5v56q0 14 1 30t3 34.5t4 41.5h-6q-32 -46 -76 -69.5t-101 -23.5q-73 0 -125.5 31t-80.5 89t-28 139
v131h154v-120q0 -73 33 -108.5t89 -35.5q64 0 98.5 45.5t34.5 131.5v87h154v-456q0 -86 -34.5 -146t-96.5 -91t-148 -31z" />
    <glyph glyph-name="uni10B9" unicode="&#x10b9;" horiz-adv-x="713" 
d="M85 0v714h154v-251h399v-463h-154v336h-245v-336h-154z" />
    <glyph glyph-name="uni10BA" unicode="&#x10ba;" horiz-adv-x="726" 
d="M373 -9q-99 0 -170 43t-109.5 124.5t-38.5 198.5q0 115 43.5 197t125 126t194.5 44q62 0 118.5 -11.5t98.5 -32.5l-50 -122q-39 19 -81.5 29t-85.5 10q-66 0 -112 -30t-69.5 -84t-23.5 -128q0 -75 22 -128.5t63 -81t96 -27.5q31 0 62 7.5t58 20.5v156h145v-302h-145v25
q-29 -16 -65 -25t-76 -9z" />
    <glyph glyph-name="uni10BB" unicode="&#x10bb;" horiz-adv-x="932" 
d="M323 -10q-81 0 -141 30.5t-93.5 86t-33.5 131.5q0 75 31.5 130t91.5 85t144 30h113v231h152v-231h270v-483h-136v357h-134v-112q0 -80 -32 -137.5t-91 -87.5t-141 -30zM323 116q54 0 83 32t29 94v115h-106q-56 0 -87 -31t-31 -87q0 -58 30.5 -90.5t81.5 -32.5z" />
    <glyph glyph-name="uni10BC" unicode="&#x10bc;" horiz-adv-x="622" 
d="M85 0v714h225q135 0 202 -52.5t67 -151.5q0 -63 -28 -113.5t-89 -80t-159 -29.5h-65v-55h250v-192h-136v67h-114v-107h-153zM238 412h51q43 0 73.5 9.5t46.5 30t16 53.5q0 40 -29.5 62t-91.5 22h-66v-177z" />
    <glyph glyph-name="uni10BD" unicode="&#x10bd;" horiz-adv-x="594" 
d="M290 -10q-122 0 -185 51.5t-63 141.5q0 13 2 26.5t5 24.5h147q-2 -8 -3.5 -18t-1.5 -21q0 -37 26 -58t76 -21q51 0 77 20t26 58q0 28 -17.5 46.5t-48 33t-69.5 30.5q-41 17 -77.5 36.5t-63.5 45t-42.5 59.5t-15.5 79q0 65 30.5 109.5t83.5 67.5t120 23q69 0 121.5 -22
t81.5 -64.5t29 -105.5q0 -6 -0.5 -12.5t-1.5 -9.5h-148q1 4 1.5 9t0.5 10q0 21 -10 36.5t-29 23.5t-44 8q-39 0 -63 -18t-24 -51q0 -29 17.5 -47t49 -32t70.5 -31q57 -22 101.5 -49t70 -67t25.5 -102q0 -100 -64.5 -155t-189.5 -55z" />
    <glyph glyph-name="uni10BE" unicode="&#x10be;" horiz-adv-x="723" 
d="M85 714h154v-316h245v316h154v-443h-399v-145h387v-126h-541v714z" />
    <glyph glyph-name="uni10BF" unicode="&#x10bf;" horiz-adv-x="691" 
d="M18 0l242 370l-144 218h-98v126h606v-100l-179 -253l242 -361h-171l-164 259l-164 -259h-170zM355 457l87 135h-170z" />
    <glyph glyph-name="uni10C0" unicode="&#x10c0;" horiz-adv-x="1002" 
d="M670 -10q-87 0 -148 33.5t-92.5 95t-31.5 144.5v324h-178v-213h-152v340h484v-437q0 -81 31.5 -119.5t90.5 -38.5q37 0 63.5 17.5t40.5 48t14 70.5q0 32 -9.5 63t-27.5 60l130 54q34 -44 50 -90t16 -94q0 -70 -33.5 -129t-96.5 -94t-151 -35z" />
    <glyph glyph-name="uni10C1" unicode="&#x10c1;" horiz-adv-x="748" 
d="M85 0v714h154v-117q0 -26 -2 -57t-5 -66h5q20 28 46 47t59 28.5t73 9.5q94 0 147.5 -53.5t62.5 -144.5h103v-127h-251v67q0 63 -26 97.5t-84 34.5q-43 0 -72 -19t-42.5 -57.5t-13.5 -96.5v-260h-154z" />
    <glyph glyph-name="uni10C2" unicode="&#x10c2;" horiz-adv-x="666" 
d="M242 -10q-56 0 -104.5 8t-95.5 28v130q45 -17 94 -28t96 -11q69 0 118 23t75.5 67t26.5 106q0 47 -14 82.5t-41 60t-68.5 36.5t-96.5 12h-161v210h145v-84h30q88 0 156 -20t114.5 -59.5t70 -98t23.5 -135.5q0 -105 -44 -177.5t-126 -111t-198 -38.5z" />
    <glyph glyph-name="uni10C3" unicode="&#x10c3;" horiz-adv-x="712" 
d="M473 0v137q0 24 2 54.5t6 68.5h-5q-29 -41 -79.5 -66t-112.5 -25q-68 0 -121 27.5t-83 80t-30 126.5q0 49 16 95t50 90l130 -55q-18 -28 -27 -58.5t-9 -61.5q0 -36 13.5 -62.5t38.5 -41t60 -14.5q49 0 82.5 19t51.5 59t18 103v238h153v-714h-154z" />
    <glyph glyph-name="uni10C4" unicode="&#x10c4;" horiz-adv-x="730" 
d="M289 0v231q-107 19 -162.5 89.5t-55.5 184.5v209h154v-201q0 -81 35.5 -120.5t105.5 -39.5q71 0 105.5 40t34.5 121v200h153v-208q0 -73 -25 -130t-72.5 -94t-119.5 -50v-232h-153z" />
    <glyph glyph-name="uni10C5" unicode="&#x10c5;" horiz-adv-x="865" 
d="M264 -10q-112 0 -168.5 43t-56.5 119q0 83 59 126.5t180 43.5h57v198q0 63 26 109t79.5 70.5t134.5 24.5q120 0 182.5 -46t62.5 -128q0 -87 -63.5 -129t-182.5 -42h-87v-57h264v-220h-136v108h-128v-22q0 -93 -55 -145.5t-168 -52.5zM264 99q36 0 53.5 23.5t17.5 62.5v25
h-55q-47 0 -65.5 -15.5t-18.5 -41.5q0 -27 16 -40.5t52 -13.5zM487 485h74q57 0 79.5 17.5t22.5 46.5t-20.5 46t-67.5 17q-45 0 -66.5 -22.5t-21.5 -63.5v-41z" />
    <glyph glyph-name="uni10C7" unicode="&#x10c7;" horiz-adv-x="594" 
d="M304 -10q-124 0 -189 55t-65 155q0 62 25.5 102t70 67t101.5 49q41 17 71.5 31t48 32t17.5 47q0 33 -23.5 51t-63.5 18q-25 0 -44 -8t-29 -23.5t-10 -36.5q0 -5 0.5 -10t1.5 -9h-148q-1 3 -1.5 9.5t-0.5 12.5q0 63 29 105.5t81.5 64.5t121.5 22q68 0 120.5 -23t83 -67.5
t30.5 -109.5q0 -45 -15.5 -79t-42.5 -59.5t-63 -45t-77 -36.5q-39 -16 -69.5 -30.5t-48 -33t-17.5 -46.5q0 -38 26 -58t76 -20q51 0 77 21t26 58q0 11 -1.5 21t-4.5 18h147q3 -11 5 -24.5t2 -26.5q0 -90 -63 -141.5t-185 -51.5z" />
    <glyph glyph-name="uni10CD" unicode="&#x10cd;" horiz-adv-x="596" 
d="M33 0v99l335 489h-326v126h515v-99l-336 -489h344v-126h-532z" />
    <glyph glyph-name="uni10D0" unicode="&#x10d0;" horiz-adv-x="585" 
d="M288 -10q-70 0 -126 24.5t-88 71.5t-32 115q0 28 4.5 48.5t11.5 39.5h145q-4 -17 -7 -36.5t-3 -39.5q0 -33 11.5 -57.5t32.5 -37.5t51 -13q31 0 52.5 13t32.5 36.5t11 55.5q0 44 -21 72t-49 54q-24 24 -49.5 51.5t-42 65.5t-16.5 93h150q1 -41 26 -73.5t58 -63.5
q24 -23 46.5 -51t37 -63t14.5 -83q0 -66 -31 -116t-87 -78t-132 -28z" />
    <glyph glyph-name="uni10D1" unicode="&#x10d1;" horiz-adv-x="624" 
d="M393 546q56 -14 97 -50t64 -92t23 -130q0 -68 -18.5 -121t-53 -89t-83.5 -55t-111 -19q-58 0 -106 19t-83 55t-55 89t-20 121q0 79 24.5 137t70 93.5t109.5 45.5q4 9 7 19t3 22q0 21 -9.5 33.5t-23.5 23.5q-20 17 -38 40t-18 72h142q0 -21 12.5 -36.5t30.5 -30.5
q18 -17 33.5 -37.5t15.5 -52.5q0 -16 -3 -30.5t-10 -26.5zM313 105q39 0 63.5 20t35.5 58t11 91q0 54 -11.5 91t-35.5 56.5t-64 19.5q-58 0 -84.5 -43t-26.5 -124q0 -53 11.5 -91t36 -58t64.5 -20z" />
    <glyph glyph-name="uni10D2" unicode="&#x10d2;" horiz-adv-x="614" 
d="M306 -250q-58 0 -106 18.5t-83 54t-55 86.5t-20 115q0 81 29.5 137t81.5 89.5t120 43.5q55 10 78.5 31t23.5 57q0 30 -18 50t-51 20t-50.5 -19t-17.5 -51q0 -7 1.5 -14.5t2.5 -15.5h-141q-3 13 -4.5 25t-1.5 23q0 48 26 83t73.5 54t111.5 19q67 0 114.5 -21.5t73 -58
t25.5 -80.5q0 -42 -21.5 -77.5t-75.5 -54.5v-3q52 -19 85 -53.5t49 -81t16 -102.5q0 -64 -18.5 -115t-53 -86.5t-83.5 -54t-111 -18.5zM308 -135q39 0 63.5 19.5t35.5 55.5t11 84q0 49 -11.5 84t-35.5 54t-64 19q-58 0 -84.5 -42t-26.5 -115q0 -48 11.5 -84t36 -55.5
t64.5 -19.5z" />
    <glyph glyph-name="uni10D3" unicode="&#x10d3;" horiz-adv-x="917" 
d="M551 -250q-26 40 -61 65.5t-72.5 38t-71.5 12.5q-41 0 -79.5 -11.5t-73.5 -30.5l-46 97q20 10 47 18.5t69 12.5v3q-65 30 -114 77.5t-75.5 111t-26.5 139.5q0 79 25.5 141t74.5 97t118 35q45 0 79 -12t58.5 -35.5t37.5 -57.5h5q21 51 69 78t109 27q74 0 129.5 -32
t86.5 -93.5t31 -147.5q0 -66 -19 -117.5t-52 -87t-79 -54t-100 -18.5q-59 0 -105.5 18.5t-79.5 54t-50 85.5t-17 114v35q0 62 -20.5 95t-64.5 33q-29 0 -48 -21t-27.5 -56.5t-8.5 -79.5q0 -61 16.5 -108.5t45.5 -83.5t68.5 -62t84.5 -44q64 -25 110.5 -50t80 -56.5
t56.5 -75.5zM618 121q36 0 57.5 20t31 56t9.5 86q0 74 -22.5 116t-74.5 42q-53 0 -75.5 -42t-22.5 -116q0 -50 10 -86t31 -56t56 -20z" />
    <glyph glyph-name="uni10D4" unicode="&#x10d4;" horiz-adv-x="610" 
d="M294 -250q-58 0 -104.5 17.5t-79.5 50.5t-50.5 77.5t-17.5 97.5q0 30 5 55t16 49h142q-5 -21 -8.5 -45.5t-3.5 -46.5q0 -39 10.5 -71t33.5 -50.5t58 -18.5q39 0 61 18t31 51.5t9 80.5v304q0 61 -21.5 91.5t-66.5 30.5q-28 0 -48.5 -12t-31.5 -35t-11 -58q0 -18 2 -37
t8 -42h-145q-7 19 -11.5 39.5t-4.5 48.5q0 69 32 115.5t86 71t122 24.5q74 0 128.5 -28.5t83.5 -81.5t29 -127v-307q0 -82 -29 -141t-85.5 -90t-138.5 -31z" />
    <glyph glyph-name="uni10D5" unicode="&#x10d5;" horiz-adv-x="607" 
d="M303 -250q-62 0 -110.5 17t-82 46.5t-51 69.5t-17.5 86q0 27 4.5 50t11.5 41h145q-4 -16 -7 -35.5t-3 -37.5q0 -30 11.5 -58t36 -46t63.5 -18t62 18t34 47.5t11 65.5q0 40 -13.5 67.5t-39 42t-62.5 14.5h-38v114h41q53 0 74 31.5t21 76.5q0 30 -10 52t-29 34.5t-48 12.5
t-48.5 -11.5t-29.5 -32.5t-10 -50q0 -15 1.5 -26.5t5.5 -26.5h-147q-5 16 -8 31t-3 34q0 60 31 104t85.5 68.5t123.5 24.5q73 0 126 -26.5t82 -71.5t29 -99q0 -75 -38.5 -118.5t-102.5 -58.5v-3q43 -8 79.5 -31.5t59 -63.5t22.5 -97q0 -70 -31.5 -123.5t-90 -83.5
t-140.5 -30z" />
    <glyph glyph-name="uni10D6" unicode="&#x10d6;" horiz-adv-x="651" 
d="M348 -10q-55 0 -101.5 18.5t-80.5 53t-53 83t-19 109.5q0 48 14 91.5t42 72.5v4q-41 12 -70 36t-44 58t-15 76q0 45 23 86t68 66.5t113 25.5q65 0 110 -23.5t69 -61.5t24 -81q0 -24 -6 -46.5t-17 -38.5v-3q4 -1 7.5 -1.5t8.5 -1.5q41 -8 74 -28.5t57.5 -53t38 -75
t13.5 -93.5q0 -64 -17.5 -114.5t-51 -86t-81 -54t-106.5 -18.5zM350 105q36 0 58 19.5t32 55t10 83.5q0 47 -10 81.5t-32 53.5t-59 19q-55 0 -78 -41.5t-23 -112.5q0 -48 10.5 -83.5t32.5 -55t59 -19.5zM225 500q34 0 49.5 24.5t15.5 61.5q0 34 -15 58.5t-51 24.5
q-34 0 -49.5 -24.5t-15.5 -58.5t15 -60t51 -26z" />
    <glyph glyph-name="uni10D7" unicode="&#x10d7;" horiz-adv-x="914" 
d="M297 -10q-54 0 -100 19t-79 55t-52 89t-19 121q0 91 31 154t86.5 95.5t129.5 32.5q61 0 110.5 -27t70.5 -78h5q15 34 38 57.5t56 35.5t77 12q69 0 117 -35t73.5 -96t25.5 -140q0 -55 -7 -103.5t-21.5 -92.5t-36.5 -89h-148q32 66 46.5 135.5t14.5 142.5q0 48 -8.5 84.5
t-26 57.5t-46.5 21q-44 0 -64.5 -34t-20.5 -100v-37q0 -67 -17 -118.5t-50 -87.5t-79.5 -55t-105.5 -19zM299 105q35 0 56 20t31 58t10 91q0 81 -22.5 124t-75.5 43q-52 0 -74.5 -43t-22.5 -124q0 -53 9.5 -91t31.5 -58t57 -20z" />
    <glyph glyph-name="uni10D8" unicode="&#x10d8;" horiz-adv-x="605" 
d="M104 0q-18 45 -31 87.5t-19.5 88.5t-6.5 99q0 84 28 147.5t85 98.5t142 35t142 -35t85 -98.5t28 -147.5q0 -53 -6 -99t-18.5 -88.5t-32.5 -87.5h-145q25 66 37.5 134.5t12.5 137.5q0 58 -12 95.5t-35 55.5t-56 18t-55.5 -17.5t-35 -55t-12.5 -98.5q0 -46 5.5 -91.5
t17 -90t28.5 -88.5h-146z" />
    <glyph glyph-name="uni10D9" unicode="&#x10d9;" horiz-adv-x="592" 
d="M291 -250q-79 0 -136 29.5t-87.5 79t-30.5 110.5q0 27 4.5 50t11.5 41h145q-4 -16 -7 -35.5t-3 -37.5q0 -30 11 -58t34 -46t58 -18q38 0 61 18.5t33.5 49.5t10.5 69q0 43 -13.5 73.5t-38.5 47.5t-61 17h-40v114h40q36 0 56.5 14t30 36t9.5 45q0 26 -10 46.5t-30 33
t-48 12.5v115q74 0 127.5 -24.5t82.5 -67t29 -94.5q0 -68 -38.5 -110.5t-102.5 -57.5v-3q43 -8 79.5 -32.5t59 -67.5t22.5 -106q0 -73 -31.5 -128t-89.5 -85t-138 -30z" />
    <glyph glyph-name="uni10DA" unicode="&#x10da;" horiz-adv-x="1145" 
d="M683 -250q-22 37 -54.5 62.5t-70 41.5t-75.5 23t-72 7q-60 0 -107 -15.5t-84 -37.5l-50 96q16 10 35.5 18.5t42 14.5t45.5 8v4q-54 17 -99.5 45.5t-78 68.5t-50.5 92t-18 115q0 76 25.5 135.5t73.5 93.5t117 34q62 0 101.5 -29.5t56.5 -79.5h6q16 52 52.5 80.5t92.5 28.5
q53 0 91.5 -28.5t53.5 -80.5h6q18 50 57.5 79.5t98.5 29.5q70 0 118.5 -35t74 -97t25.5 -143q0 -71 -15 -130t-48 -121l-129 47q22 50 31 99t9 102q0 86 -21.5 124.5t-59.5 38.5q-36 0 -54 -32.5t-18 -94.5v-144h-144v153q0 52 -17 85t-59 33q-40 0 -58 -31.5t-18 -86.5
v-153h-143v144q0 60 -17.5 93.5t-55.5 33.5q-37 0 -59 -36t-22 -116q0 -59 19 -105.5t55 -81t86 -58.5t113 -39q76 -17 139 -44t109.5 -65.5t71.5 -91.5z" />
    <glyph glyph-name="uni10DB" unicode="&#x10db;" horiz-adv-x="621" 
d="M307 -10q-80 0 -138.5 32t-90 93.5t-31.5 147.5q0 131 58 198t152 67q39 0 67.5 -9t49.5 -25.5t36 -39.5h5q-3 17 -5.5 35.5t-2.5 42.5v35q0 30 -9.5 51t-29.5 32.5t-52 11.5q-27 0 -46 -9t-29 -24.5t-10 -34.5q0 -5 0.5 -10t1.5 -10h-148q-3 10 -4 19.5t-1 17.5
q0 50 31.5 85.5t85 54.5t119.5 19q75 0 129.5 -27.5t84 -76.5t29.5 -113v-290q0 -129 -65.5 -201t-186.5 -72zM308 105q56 0 82.5 39t26.5 104v20q0 64 -24 104t-89 40q-49 0 -76.5 -41t-27.5 -111q0 -69 24.5 -112t83.5 -43z" />
    <glyph glyph-name="uni10DC" unicode="&#x10dc;" horiz-adv-x="621" 
d="M314 -10q-121 0 -186 72t-65 208v288q0 75 28.5 119t75 63.5t99.5 19.5h256v-115h-237q-34 0 -52.5 -16t-18.5 -53v-22q0 -17 -2 -41.5t-6 -42.5h5q16 23 36.5 39.5t49.5 25.5t67 9q94 0 152 -68t58 -204q0 -90 -31 -153t-89.5 -96t-139.5 -33zM314 105q58 0 82.5 44
t24.5 120t-27 117.5t-76 41.5q-44 0 -68.5 -18.5t-35 -52t-10.5 -78.5v-22q0 -72 26.5 -112t83.5 -40z" />
    <glyph glyph-name="uni10DD" unicode="&#x10dd;" horiz-adv-x="859" 
d="M112 0q-21 48 -36 91.5t-22 90t-7 99.5q0 81 26 143t75 97t120 35q62 0 101.5 -29.5t56.5 -79.5h6q19 52 58 80.5t99 28.5q72 0 121.5 -35t75.5 -97t26 -143q0 -53 -7 -99.5t-21.5 -90t-36.5 -91.5h-148q32 66 46.5 135.5t14.5 142.5q0 48 -8.5 84.5t-27.5 57.5t-51 21
q-37 0 -54.5 -33t-17.5 -94v-144h-143v144q0 60 -17.5 93.5t-55.5 33.5q-41 0 -63.5 -39t-22.5 -126q0 -49 6.5 -95.5t20 -91.5t34.5 -89h-148z" />
    <glyph glyph-name="uni10DE" unicode="&#x10de;" horiz-adv-x="602" 
d="M295 -10q-74 0 -131 24.5t-89.5 71.5t-32.5 115q0 25 5 44.5t11 35.5h143q-4 -15 -6 -32.5t-2 -35.5q0 -33 11.5 -57.5t35 -37.5t56.5 -13q37 0 60.5 18t34 47.5t10.5 64.5q0 38 -13.5 66t-39.5 43.5t-64 15.5h-40v114h45q30 0 48 7.5t26.5 21.5t8.5 33q0 31 -21 49
t-47 33q-22 14 -43.5 30.5t-35.5 43.5t-14 71l151 1q2 -25 23 -41.5t50 -33.5q22 -13 44 -29.5t36 -42.5t14 -65q0 -57 -37.5 -87.5t-94.5 -42.5v-4q39 -7 75 -30.5t59.5 -64.5t23.5 -100q0 -68 -31.5 -120.5t-89.5 -82.5t-139 -30z" />
    <glyph glyph-name="uni10DF" unicode="&#x10df;" horiz-adv-x="647" 
d="M326 -250q-58 0 -105 17t-79.5 46t-50 68t-17.5 82q0 33 5 53.5t14 40.5h142q-5 -21 -7.5 -37.5t-2.5 -38.5q0 -29 10.5 -55.5t33.5 -43.5t58 -17q38 0 60.5 18t31.5 50.5t9 77.5v426q-27 -12 -58 -20t-66 -13v-3q25 -13 40 -40t15 -61q0 -39 -20 -70.5t-56 -50
t-85 -18.5q-71 0 -116 38t-45 96q0 10 1.5 19t3.5 18h110q-1 -5 -2 -10.5t-1 -10.5q0 -22 12.5 -36t34.5 -14q24 0 36.5 16t12.5 39q0 28 -13.5 45t-41.5 20v102q71 7 139 22.5t121 40.5h129v-534q0 -82 -29.5 -141t-85.5 -90t-138 -31z" />
    <glyph glyph-name="uni10E0" unicode="&#x10e0;" horiz-adv-x="858" 
d="M112 0q-22 48 -36.5 93t-21.5 91t-7 97v39q0 123 30.5 209t99.5 137.5t183 71.5q49 8 107.5 16.5t122.5 15.5l16 -123q-32 -4 -65 -8t-63.5 -8.5t-57 -8t-48.5 -7.5q-40 -6 -81 -19t-73.5 -36.5t-47.5 -64.5h3q16 20 33.5 30.5t36.5 14.5t38 4q52 0 89.5 -29.5
t55.5 -79.5h5q19 51 58 80t100 29q71 0 121 -35t75.5 -95.5t25.5 -138.5q0 -53 -7 -98t-21 -87t-37 -90h-148q32 66 46.5 132.5t14.5 139.5q0 44 -8.5 79.5t-27.5 56.5t-51 21q-37 0 -54 -32t-17 -89v-132h-144v132q0 56 -17.5 88.5t-54.5 32.5q-42 0 -64 -38t-22 -121
q0 -49 6.5 -94t20 -88.5t34.5 -87.5h-148z" />
    <glyph glyph-name="uni10E1" unicode="&#x10e1;" horiz-adv-x="631" 
d="M324 -10q-129 0 -195 72t-66 205v493h151v-503q0 -72 27 -112t82 -40q37 0 60.5 17.5t35 48t11.5 68.5q0 43 -9.5 71t-25.5 52q-22 35 -40.5 78.5t-18.5 105.5h151q0 -45 15.5 -77t36.5 -65t33 -70t12 -89q0 -77 -31.5 -134.5t-90 -89t-138.5 -31.5z" />
    <glyph glyph-name="uni10E2" unicode="&#x10e2;" horiz-adv-x="782" 
d="M391 -250q-82 0 -146.5 27t-108 79t-66.5 129.5t-23 178.5q0 109 32 190t94.5 131.5t152.5 64.5q-3 20 -5.5 38.5t-2.5 35.5v48h144v-47q0 -17 -2.5 -36t-5.5 -38q92 -14 154.5 -64t94.5 -132t32 -192q0 -98 -22.5 -174.5t-66 -130t-108 -81t-147.5 -27.5zM391 -135
q61 0 103.5 32t64.5 97.5t22 168.5q0 82 -14.5 139.5t-43 91.5t-69.5 46q3 -20 5.5 -43t2.5 -57v-170h-144v171q0 33 2.5 55t5.5 41q-40 -11 -68.5 -45t-43 -91.5t-14.5 -137.5q0 -103 22.5 -168.5t65 -97.5t103.5 -32z" />
    <glyph glyph-name="uni10E3" unicode="&#x10e3;" horiz-adv-x="639" 
d="M317 -250q-62 0 -111 17.5t-82.5 50.5t-51 77.5t-17.5 97.5q0 30 5 55t16 49h142q-5 -21 -8.5 -45.5t-3.5 -46.5q0 -39 11 -71t36 -50.5t65 -18.5t63.5 19t33.5 52.5t10 78.5v331q0 47 -15 68.5t-44 21.5q-26 0 -42.5 -21.5t-16.5 -66.5v-112h-144v114q0 40 -16.5 60.5
t-47.5 20.5h-65v120h69q52 0 85 -22.5t49 -68.5h4q18 46 56 71t90 25q61 0 103 -24.5t64 -69t22 -103.5v-347q0 -82 -29.5 -141t-87 -90t-142.5 -31z" />
    <glyph glyph-name="uni10E4" unicode="&#x10e4;" horiz-adv-x="897" 
d="M536 -250q-94 0 -162 22.5t-104.5 65t-36.5 103.5q0 10 1.5 19.5t2.5 19.5h145q-1 -5 -1.5 -10t-0.5 -9q0 -32 19.5 -53.5t55 -32t81.5 -10.5q50 0 81 16.5t46 44t15 58.5q0 28 -9.5 50t-28.5 35t-48 13h-18v114h33q31 0 51 16.5t30 44.5t10 63q0 34 -8 61.5t-25.5 43.5
t-46.5 16q-41 0 -62 -30.5t-21 -88.5v-28q0 -55 -17 -100.5t-49 -78.5t-77.5 -51t-101.5 -18q-53 0 -97.5 18.5t-77.5 52t-50.5 81t-17.5 103.5q0 77 30.5 134.5t85 89t124.5 31.5q60 0 107 -27t68 -78h5q21 49 63 77t106 28q68 0 115.5 -30.5t73 -78.5t25.5 -102
q0 -61 -17.5 -102t-49 -65t-74.5 -34v-3q39 -9 66.5 -32.5t42 -57t14.5 -72.5q0 -65 -33.5 -117.5t-99.5 -82t-163 -29.5zM292 161q34 0 54.5 19t30.5 51t10 70q0 41 -10 72.5t-30.5 49.5t-55.5 18q-33 0 -54 -18t-31 -49.5t-10 -72.5q0 -38 9.5 -70t31 -51t55.5 -19z" />
    <glyph glyph-name="uni10E5" unicode="&#x10e5;" horiz-adv-x="610" 
d="M294 -250q-58 0 -104.5 17.5t-79.5 50.5t-50.5 77.5t-17.5 97.5q0 30 5 55t16 49h142q-5 -21 -8.5 -45.5t-3.5 -46.5q0 -39 10.5 -71t33.5 -50.5t58 -18.5q39 0 61 18t31 51.5t9 80.5v271q0 72 -23 113.5t-74 41.5q-24 0 -42.5 -12t-29 -35t-10.5 -58q0 -18 2 -37t8 -42
h-145q-7 19 -11.5 40.5t-4.5 54.5q0 65 26.5 110.5t68 69.5t86.5 24q40 0 68 -10.5t48.5 -28.5t35.5 -41h5q-3 18 -5.5 50.5t-2.5 59.5v174h151v-748q0 -82 -29 -141t-85.5 -90t-138.5 -31z" />
    <glyph glyph-name="uni10E6" unicode="&#x10e6;" horiz-adv-x="859" 
d="M527 -250q-26 40 -59 65.5t-68.5 38t-70.5 12.5q-40 0 -78.5 -11.5t-73.5 -30.5l-46 97q20 10 47 18.5t70 12.5v3q-100 44 -150.5 128.5t-50.5 195.5q0 82 25.5 144t74.5 97.5t118 35.5q65 0 104.5 -29.5t56.5 -79.5h6q19 52 58.5 80.5t101.5 28.5q71 0 119.5 -35
t74.5 -97t26 -143q0 -71 -15 -130t-49 -121l-129 47q22 50 31.5 99.5t9.5 101.5q0 48 -8.5 84.5t-27 57.5t-48.5 21q-39 0 -57 -31t-18 -92v-148h-143v148q0 60 -17.5 91.5t-55.5 31.5q-41 0 -63.5 -38.5t-22.5 -124.5q0 -59 14 -105t40 -80t63 -59t82 -43
q64 -24 109.5 -50.5t77 -59.5t52.5 -77z" />
    <glyph glyph-name="uni10E7" unicode="&#x10e7;" horiz-adv-x="620" 
d="M304 -250q-61 0 -108 17t-79 46t-48.5 68t-16.5 82q0 33 5 53.5t14 40.5h142q-5 -21 -7.5 -37.5t-2.5 -38.5q0 -29 10.5 -55.5t33.5 -43.5t58 -17q38 0 60.5 18t31.5 50.5t9 77.5v82q0 21 1 41t2.5 41t3.5 43h-7q-22 -36 -60 -59t-94 -23q-61 0 -107 27t-72 79.5
t-26 128.5q0 48 11 93t29 82h147q-15 -40 -24 -77.5t-9 -82.5q0 -41 11.5 -70t33 -44t51.5 -15q36 0 60 17t36.5 50.5t12.5 82.5v139h151v-534q0 -82 -29.5 -141t-85.5 -90t-138 -31z" />
    <glyph glyph-name="uni10E8" unicode="&#x10e8;" horiz-adv-x="621" 
d="M307 -10q-80 0 -138.5 32t-90 91t-31.5 140q0 82 26.5 139t74 86.5t109.5 29.5q39 0 67.5 -9t49.5 -25.5t36 -39.5h5q-3 17 -5.5 35.5t-2.5 42.5v83q0 22 -5.5 36.5t-16.5 22.5t-27 8q-22 0 -34.5 -15.5t-12.5 -43.5v-39h-146v29q0 33 -16.5 46.5t-39.5 13.5
q-14 0 -28 -3t-27 -8l-34 104q24 13 50.5 18.5t52.5 5.5q36 0 69 -19t48 -60h4q17 41 53.5 60t86.5 19q46 0 86 -20t64.5 -60.5t24.5 -102.5v-334q0 -81 -29.5 -140t-85.5 -91t-137 -32zM308 105q56 0 82.5 37.5t26.5 95.5v20q0 38 -10 68.5t-34.5 48t-68.5 17.5
q-33 0 -56 -18t-35.5 -49.5t-12.5 -74.5q0 -41 10.5 -73.5t34.5 -52t63 -19.5z" />
    <glyph glyph-name="uni10E9" unicode="&#x10e9;" horiz-adv-x="619" 
d="M63 0v562q0 64 25.5 110.5t73.5 72t117 25.5q65 0 111.5 -21.5t71 -58t24.5 -80.5q0 -25 -9.5 -55t-41.5 -55v-3q66 -20 101.5 -76.5t35.5 -146.5q0 -55 -7 -105.5t-17.5 -93t-22.5 -75.5h-148q9 26 18.5 66.5t16 89t6.5 96.5q0 50 -11.5 82.5t-33 49t-53.5 16.5
q-34 0 -57.5 -18t-36 -53t-12.5 -85v-244h-151zM206 436h7q12 18 27.5 32t37.5 27q21 14 34.5 26.5t20.5 29t7 40.5q0 33 -16 51t-46 18q-29 0 -47.5 -19.5t-18.5 -58.5v-77q0 -7 -0.5 -18t-1.5 -23.5t-4 -27.5z" />
    <glyph glyph-name="uni10EA" unicode="&#x10ea;" horiz-adv-x="704" 
d="M369 -250q-78 0 -137.5 24.5t-100.5 75t-62.5 130t-21.5 188.5q0 71 9.5 137.5t29 127t47.5 113.5h149q-26 -56 -45 -115t-28 -123.5t-9 -139.5q0 -100 17 -168t55 -101.5t98 -33.5q68 0 103 36.5t35 104.5q0 36 -13.5 65t-40.5 47t-68 18h-34v115h55q29 0 48 8t28.5 22
t9.5 34q0 30 -14.5 52t-33.5 39q-26 22 -47 53.5t-21 85.5l151 1q3 -27 20 -48t42 -43q24 -22 40.5 -51t16.5 -76q0 -57 -37 -88.5t-95 -44.5v-3q39 -8 72 -32.5t54 -67t21 -103.5q0 -75 -37.5 -129t-103 -82t-152.5 -28z" />
    <glyph glyph-name="uni10EB" unicode="&#x10eb;" horiz-adv-x="621" 
d="M307 -10q-80 0 -138.5 33t-90 96t-31.5 153q0 141 58 212.5t152 71.5q39 0 67.5 -10.5t49.5 -28.5t36 -41h5q-3 18 -5.5 50.5t-2.5 59.5v174h152v-490q0 -136 -65 -208t-187 -72zM308 105q56 0 82.5 40t26.5 112v17q0 77 -24 118.5t-89 41.5q-49 0 -76.5 -42t-27.5 -123
q0 -76 24.5 -120t83.5 -44z" />
    <glyph glyph-name="uni10EC" unicode="&#x10ec;" horiz-adv-x="621" 
d="M314 -10q-80 0 -136.5 32t-85.5 91t-29 140v334q0 62 24.5 102.5t64.5 60.5t85 20q51 0 87.5 -19t53.5 -60h4q15 41 48 60t69 19q26 0 52.5 -5.5t49.5 -18.5l-33 -104q-13 5 -27 8t-28 3q-22 0 -39 -13.5t-17 -44.5v-31h-146v42q0 26 -13 41t-35 15q-14 0 -25.5 -8
t-17.5 -22.5t-6 -36.5v-83q0 -24 -2 -42.5t-6 -35.5h5q16 23 36.5 39.5t49.5 25.5t67 9q63 0 110 -29.5t73.5 -86.5t26.5 -139q0 -81 -31 -140t-89.5 -91t-139.5 -32zM314 105q39 0 62.5 19.5t34 52t10.5 73.5q0 43 -12 74.5t-35.5 49.5t-55.5 18q-44 0 -68.5 -17.5t-35 -48
t-10.5 -68.5v-20q0 -58 26.5 -95.5t83.5 -37.5z" />
    <glyph glyph-name="uni10ED" unicode="&#x10ed;" horiz-adv-x="631" 
d="M324 -250q-59 0 -106.5 17.5t-80.5 49t-50.5 74.5t-17.5 92q0 30 5.5 55t15.5 49h142q-5 -21 -8.5 -45.5t-3.5 -46.5q0 -34 10.5 -64t34 -48t60.5 -18t60 18t34 48t11 65q0 38 -10.5 70t-26.5 61q-19 34 -32 65t-21 65h-3q-22 -26 -53 -40.5t-78 -14.5q-39 0 -76.5 20
t-62.5 58.5t-25 92.5q0 51 22.5 90t65 61t101.5 22h82v214h149v-214h115v-115h-115v-53q0 -61 21.5 -107t48.5 -91q21 -35 36 -78.5t15 -100.5q0 -75 -31 -131.5t-89.5 -88t-138.5 -31.5zM247 311q32 0 50.5 20t18.5 52v52h-63q-33 0 -51.5 -16t-18.5 -46q0 -28 17 -45
t47 -17z" />
    <glyph glyph-name="uni10EE" unicode="&#x10ee;" horiz-adv-x="621" 
d="M314 -10q-121 0 -186 72t-65 208v490h151v-174q0 -27 -2 -59.5t-6 -50.5h5q16 23 36.5 41t49.5 28.5t67 10.5q94 0 152 -71.5t58 -212.5q0 -90 -31 -153t-89.5 -96t-139.5 -33zM314 105q58 0 82.5 44t24.5 120q0 81 -27 123t-76 42q-66 0 -90 -41.5t-24 -118.5v-17
q0 -72 26.5 -112t83.5 -40z" />
    <glyph glyph-name="uni10EF" unicode="&#x10ef;" horiz-adv-x="591" 
d="M366 307q0 -25 12.5 -47.5t33.5 -44.5t47 -46q24 -22 44.5 -50.5t33 -63.5t12.5 -80q0 -66 -30.5 -117t-87.5 -79.5t-137 -28.5q-58 0 -104.5 17t-79.5 46t-50.5 68t-17.5 82q0 33 5 53.5t14 40.5h142q-5 -21 -7.5 -37.5t-2.5 -38.5q0 -29 10.5 -55.5t33.5 -43.5t58 -17
q34 0 56.5 14t33.5 38t11 54t-11.5 55t-29.5 47.5t-39 43.5q-24 25 -46.5 53.5t-37.5 63.5t-15 78v32l-165 29v116l165 -29v96h150v-122l172 -30v-116l-173 30v-11z" />
    <glyph glyph-name="uni10F0" unicode="&#x10f0;" horiz-adv-x="590" 
d="M287 -10q-79 0 -134 25.5t-84 67t-29 88.5q0 11 1.5 21.5t4.5 20.5h144q-1 -5 -2 -10.5t-1 -11.5q0 -22 10 -41.5t32.5 -32t59.5 -12.5q36 0 58 9t32 23.5t10 32.5q0 28 -21 47t-76 19h-39v112h54q35 0 53.5 10t18.5 36q0 23 -19 34.5t-57 11.5h-50v112h52q31 0 43 10.5
t12 26.5q0 17 -14 26t-43 19q-24 9 -48 23.5t-39.5 39t-15.5 63.5h151q3 -22 24.5 -35t51.5 -25q24 -10 44.5 -24t33 -35t12.5 -51q0 -34 -28 -56t-76 -33v-3q30 -3 57 -15.5t45 -34.5t18 -54q0 -36 -16.5 -57t-43 -31.5t-57.5 -16.5v-3q36 -7 64.5 -24t45.5 -43t17 -62
q0 -55 -33.5 -92.5t-91 -56t-131.5 -18.5z" />
    <glyph glyph-name="uni10F1" unicode="&#x10f1;" horiz-adv-x="709" 
d="M393 -10q-109 0 -186.5 43.5t-118.5 135t-41 233.5q0 61 9.5 122.5t29 121.5t47.5 114h149q-26 -57 -45 -115t-28 -118t-9 -125q0 -99 22 -165t65.5 -99t105.5 -33q56 0 85.5 17.5t29.5 47.5q0 28 -21 47t-73 19h-42v112h54q35 0 53.5 10t18.5 36q0 23 -19 34.5t-57 11.5
h-50v112h52q21 0 32.5 6t17 15t5.5 19q0 21 -10 33.5t-24 24.5q-14 10 -28 23.5t-23 34t-9 52.5h151q1 -21 14.5 -36t31.5 -29q20 -15 37 -38t17 -62q0 -40 -28 -61.5t-76 -32.5v-3q30 -3 57 -15.5t45 -34.5t18 -54q0 -36 -16.5 -57t-43 -31.5t-57.5 -16.5v-3
q36 -6 64.5 -21.5t45.5 -42t17 -65.5q0 -48 -34 -85.5t-94 -59.5t-141 -22z" />
    <glyph glyph-name="uni10F2" unicode="&#x10f2;" horiz-adv-x="615" 
d="M57 0v115q32 0 62 2.5t70 8.5v3q-49 25 -80 59t-46.5 72.5t-15.5 76.5q0 40 16 79t48 71t81 50.5t115 18.5q67 0 115.5 -18.5t81 -50.5t48 -71t15.5 -79q0 -38 -15 -76.5t-47 -72.5t-80 -59v-3q40 -6 70 -8.5t62 -2.5v-115q-75 0 -136.5 14.5t-114.5 36.5
q-53 -22 -113.5 -36.5t-135.5 -14.5zM307 164q33 17 57.5 41t37.5 54.5t13 66.5q0 33 -12.5 58.5t-36 41t-59.5 15.5q-35 0 -59 -15.5t-36.5 -41t-12.5 -58.5q0 -36 13.5 -66.5t37.5 -54.5t57 -41z" />
    <glyph glyph-name="uni10F3" unicode="&#x10f3;" horiz-adv-x="607" 
d="M303 -250q-62 0 -110.5 17t-82 46.5t-51 69.5t-17.5 86q0 27 4.5 50t11.5 41h145q-4 -16 -7 -35.5t-3 -37.5q0 -30 11.5 -58t36 -46t63.5 -18t62 18t34 47.5t11 65.5q0 69 -32 107t-99 38h-75v98l150 189h-271v118h455v-97l-170 -204q50 -6 94.5 -35.5t73 -82
t28.5 -128.5q0 -75 -31.5 -131.5t-90 -87t-140.5 -30.5z" />
    <glyph glyph-name="uni10F4" unicode="&#x10f4;" horiz-adv-x="597" 
d="M295 -250q-74 0 -131 24.5t-89.5 71.5t-32.5 115q0 25 5 44.5t11 35.5h143q-4 -15 -6 -32.5t-2 -35.5q0 -33 11.5 -57.5t35 -37.5t56.5 -13q37 0 60.5 18t34 47.5t10.5 64.5q0 38 -13.5 66t-39.5 43.5t-64 15.5h-40v114h45q30 0 48 9t26.5 25.5t8.5 37.5q0 23 -12.5 40
t-36.5 31.5t-59 29.5q-43 21 -80 46.5t-59 61.5t-22 89q0 51 25.5 88.5t72.5 57.5t113 20q46 0 90 -12t81 -36l-48 -102q-27 16 -55.5 25.5t-57.5 9.5q-35 0 -52.5 -13t-17.5 -36t14 -39t39.5 -29t60.5 -29q38 -17 75 -39.5t61.5 -56.5t24.5 -86q0 -66 -37.5 -99.5
t-94.5 -45.5v-4q39 -7 75 -30.5t59.5 -64.5t23.5 -100q0 -68 -31.5 -121t-89.5 -82.5t-139 -29.5z" />
    <glyph glyph-name="uni10F5" unicode="&#x10f5;" horiz-adv-x="657" 
d="M291 -10q-119 0 -181.5 46.5t-62.5 131.5q0 83 60 128t163 45h122v89h-130q-98 0 -153.5 42.5t-55.5 123.5q0 84 61.5 129t179.5 45q75 0 129 -22t83 -65t29 -106v-39h101v-108h-101v-89h101v-108h-101v-35q0 -101 -63 -154.5t-181 -53.5zM291 98q52 0 76.5 25.5
t24.5 72.5v37h-109q-41 0 -65 -15.5t-24 -50.5q0 -34 26.5 -51.5t70.5 -17.5zM277 538h115v34q0 46 -26.5 68t-73.5 22q-46 0 -69.5 -16.5t-23.5 -48.5q0 -30 20.5 -44.5t57.5 -14.5z" />
    <glyph glyph-name="uni10F6" unicode="&#x10f6;" horiz-adv-x="935" 
d="M377 -250q-25 0 -48.5 4t-38.5 13v115q12 -4 25 -7.5t27 -3.5q24 0 37 14t13 47v48q0 22 2.5 48.5t5.5 41.5h-5q-15 -24 -35.5 -42.5t-46.5 -28t-61 -9.5q-93 0 -149 73t-56 211q0 137 55 209.5t145 72.5q37 0 64 -10t46.5 -28t34.5 -42h6l-4 36t-2 38v43q0 66 20 104.5
t57.5 55.5t90.5 17q31 0 55.5 -6t34.5 -12v-114q-8 3 -23.5 7t-33.5 4q-21 0 -35.5 -14t-14.5 -48v-37q0 -20 -1.5 -38.5t-4.5 -35.5h6q16 24 35.5 42t46 28t63.5 10q90 0 145 -72.5t55 -209.5q0 -138 -56 -211t-149 -73q-34 0 -60.5 9.5t-46 28t-36.5 42.5h-5
q3 -15 5.5 -41.5t2.5 -49.5v-47q0 -56 -17 -97t-53.5 -63t-95.5 -22zM300 112q55 0 78.5 39t23.5 118v22q0 75 -24.5 110t-76.5 35q-47 0 -74 -39t-27 -121q0 -81 27 -122.5t73 -41.5zM636 112q45 0 72 41.5t27 122.5q0 82 -27 121t-74 39q-52 0 -76.5 -35t-24.5 -110v-22
q0 -79 23.5 -118t79.5 -39z" />
    <glyph glyph-name="uni10F7" unicode="&#x10f7;" horiz-adv-x="591" 
d="M294 -250q-77 0 -133.5 26.5t-87.5 75.5t-31 119q0 75 28.5 124.5t75.5 83t103 60.5q53 25 81.5 45t39.5 40.5t11 45.5q0 33 -20.5 52t-63.5 19q-47 0 -66 -20t-19 -55q0 -6 1 -13t2 -15h-148q-3 11 -4 20.5t-1 19.5q0 53 27.5 93t79.5 62.5t126 22.5q78 0 130.5 -23.5
t79.5 -66t27 -101.5q0 -53 -20.5 -93.5t-64.5 -74t-114 -68.5q-44 -22 -74.5 -43.5t-46.5 -50t-16 -71.5q0 -47 27.5 -73t71.5 -26q50 0 76 27.5t26 76.5q0 17 -2 33t-7 29h150q5 -17 8 -35.5t3 -39.5q0 -70 -31 -116t-88 -68t-136 -22z" />
    <glyph glyph-name="uni10F8" unicode="&#x10f8;" horiz-adv-x="620" 
d="M316 -250q-81 0 -138 31t-86 90t-29 141v534h151v-139q0 -49 12.5 -82.5t37 -50.5t58.5 -17q31 0 53 15t33 44t11 70q0 45 -9 82.5t-24 77.5h147q17 -37 28.5 -82t11.5 -93q0 -76 -26 -128.5t-71.5 -79.5t-107.5 -27q-55 0 -93.5 23t-61.5 59h-6q2 -22 4 -43t2.5 -41
t0.5 -41v-82q0 -45 9 -77.5t31.5 -50.5t60.5 -18q36 0 58 17t33 43.5t11 55.5q0 22 -2.5 38.5t-7.5 37.5h142q10 -20 14.5 -40.5t4.5 -53.5q0 -43 -16.5 -82t-49 -68t-79.5 -46t-107 -17z" />
    <glyph glyph-name="uni10F9" unicode="&#x10f9;" horiz-adv-x="624" 
d="M314 556q57 0 105.5 -18.5t83.5 -53.5t54.5 -86t19.5 -116q0 -80 -29 -136.5t-81 -89.5t-121 -44q-55 -9 -78 -30t-23 -58q0 -30 17.5 -50t50.5 -20t50.5 19t17.5 51q0 8 -0.5 15.5t-2.5 15.5h140q4 -13 5.5 -25t1.5 -24q0 -46 -26.5 -82t-74 -55t-111.5 -19
q-66 0 -114 21.5t-73 58.5t-25 80t21 78.5t75 53.5v4q-51 19 -84.5 53t-49.5 80.5t-16 102.5q0 65 18.5 116t53 86t84 53.5t111.5 18.5zM312 441q-39 0 -63.5 -19.5t-36 -55t-11.5 -84.5q0 -48 11.5 -83t36 -54.5t64.5 -19.5q58 0 84 42t26 115q0 49 -11 84.5t-36 55
t-64 19.5z" />
    <glyph glyph-name="uni10FA" unicode="&#x10fa;" horiz-adv-x="508" 
d="M99 -123v132l78 30v4q-36 14 -65.5 46t-47 79.5t-17.5 108.5q0 97 36 158.5t98 91t141 29.5q48 0 90.5 -10t75.5 -27l-45 -114q-30 13 -60.5 21.5t-60.5 8.5q-39 0 -66 -18t-41 -54.5t-14 -91.5q0 -54 14 -89t41 -52.5t64 -17.5q43 0 81 11.5t72 30.5v-138z" />
    <glyph glyph-name="uni10FB" unicode="&#x10fb;" horiz-adv-x="558" 
d="M422 188q-37 0 -62 20.5t-25 63.5q0 45 25 64.5t62 19.5t61.5 -20t24.5 -64q0 -43 -24.5 -63.5t-61.5 -20.5zM141 -13q-38 0 -62.5 20.5t-24.5 62.5q0 45 24.5 64.5t62.5 19.5q37 0 61.5 -19.5t24.5 -64.5q0 -42 -24.5 -62.5t-61.5 -20.5zM141 389q-38 0 -62.5 20.5
t-24.5 63.5q0 44 24.5 63.5t62.5 19.5q37 0 61.5 -20t24.5 -63t-24.5 -63.5t-61.5 -20.5z" />
    <glyph glyph-name="uni10FC" unicode="&#x10fc;" horiz-adv-x="372" 
d="M191 409q-79 0 -118 41.5t-39 118.5v153q0 47 17.5 74t47.5 38.5t67 11.5h154v-81h-143q-17 0 -26 -7t-9 -24v-13q0 -8 -1.5 -21t-3.5 -26h3q12 21 32.5 32.5t52.5 11.5q57 0 90 -37.5t33 -112.5t-40 -117t-117 -42zM190 489q26 0 37.5 21t11.5 56q0 34 -12 53t-36 19
q-28 0 -39 -18.5t-11 -48.5v-12q0 -32 12 -51t37 -19z" />
    <glyph glyph-name="uni10FD" unicode="&#x10fd;" horiz-adv-x="591" 
d="M297 -10q-78 0 -135.5 22t-88.5 68t-31 116q0 21 3 39.5t8 35.5h150q-4 -13 -7 -29t-3 -33q0 -49 26.5 -76.5t75.5 -27.5q45 0 72.5 26t27.5 73q0 37 -16 59.5t-46.5 40.5t-75.5 41q-69 35 -113.5 68.5t-65.5 73t-21 92.5q0 58 27 101t79.5 66.5t130.5 23.5
q74 0 126 -22.5t79.5 -62.5t27.5 -93q0 -10 -1 -20t-4 -20h-148q2 7 2.5 14.5t0.5 13.5q0 34 -19 54.5t-66 20.5q-43 0 -63.5 -19.5t-20.5 -52.5q0 -24 11.5 -43.5t40 -38.5t78.5 -44q44 -21 82 -43t67 -49.5t45.5 -65t16.5 -88.5q0 -70 -31 -119t-87 -75.5t-134 -26.5z" />
    <glyph glyph-name="uni10FE" unicode="&#x10fe;" horiz-adv-x="615" 
d="M57 546q75 0 135.5 -14t113.5 -37q53 23 114.5 37t136.5 14v-114q-32 0 -62 -3t-70 -8v-4q48 -24 80 -58t47 -72.5t15 -77.5q0 -40 -15.5 -78.5t-48 -70.5t-81 -51t-115.5 -19q-66 0 -115 19t-81 51t-48 70.5t-16 78.5q0 39 15.5 77.5t46.5 72.5t80 58v4q-40 5 -70 8
t-62 3v114zM307 383q-33 -18 -57 -42t-37.5 -54t-13.5 -67q0 -32 12.5 -58t36.5 -41.5t59 -15.5q36 0 59.5 15.5t36 41.5t12.5 58q0 37 -13 67t-37.5 54t-57.5 42z" />
    <glyph glyph-name="uni10FF" unicode="&#x10ff;" horiz-adv-x="624" 
d="M577 274q0 -68 -18.5 -121t-53 -89t-83.5 -55t-111 -19q-58 0 -106 19t-83 55t-55 89t-20 121q0 91 32 154t92 95.5t143 32.5q77 0 136 -32.5t93 -95.5t34 -154zM201 274q0 -53 11.5 -91t36 -58t64.5 -20q39 0 63.5 20t35.5 58t11 91q0 54 -11.5 91t-35.5 56.5t-64 19.5
q-58 0 -84.5 -43t-26.5 -124z" />
    <glyph glyph-name="uni1C90" unicode="&#x1c90;" horiz-adv-x="625" 
d="M309 -10q-78 0 -137 29t-92.5 83t-33.5 128q0 27 3.5 55t18.5 67h154q-12 -35 -15 -63.5t-3 -49.5q0 -54 26 -89t79 -35q39 0 62 16.5t33.5 46t10.5 66.5q0 44 -12 79t-31 65.5t-41 57.5q-29 38 -55.5 76t-40.5 84.5t-5 107.5h154q-4 -39 7.5 -71.5t32.5 -63t45 -63.5
q25 -33 49 -71.5t39.5 -86.5t15.5 -110q0 -78 -31.5 -136t-90.5 -90t-142 -32z" />
    <glyph glyph-name="uni1C91" unicode="&#x1c91;" horiz-adv-x="643" 
d="M321 -9q-56 0 -105 18t-86 52t-57.5 84t-20.5 115q0 86 34 145.5t95.5 90.5t142.5 31q74 0 135 -31t97 -90.5t36 -145.5q0 -65 -19.5 -115t-56 -84t-86 -52t-109.5 -18zM323 116q34 0 58.5 17.5t37 50t12.5 76.5q0 45 -13 76.5t-37 48.5t-59 17q-52 0 -81 -37.5
t-29 -104.5q0 -44 13 -76.5t38 -50t60 -17.5zM398 495l-141 5q8 11 13.5 23.5t5.5 25.5q0 17 -11.5 29t-26.5 21q-15 10 -29 26.5t-21 38.5t-4 50h145q0 -19 11.5 -32t31.5 -26q22 -15 37.5 -37t15.5 -52q0 -19 -6 -36t-21 -36z" />
    <glyph glyph-name="uni1C92" unicode="&#x1c92;" horiz-adv-x="633" 
d="M315 -9q-56 0 -105 17t-85.5 49.5t-57.5 79t-21 105.5q0 76 31.5 128t87.5 81t130 37q51 5 72.5 21.5t21.5 45.5q0 25 -19.5 41t-52.5 16q-34 0 -54 -16.5t-20 -44.5q0 -5 1 -11l2 -12h-148q-3 13 -4.5 23t-1.5 20q0 45 28.5 79.5t78.5 54t118 19.5q70 0 120 -20
t76.5 -55t26.5 -81q0 -36 -20 -68t-68 -50v-4q59 -21 96.5 -72t37.5 -132q0 -59 -19.5 -105.5t-55.5 -79t-86 -49.5t-110 -17zM317 116q34 0 58 16.5t37.5 45t13.5 64.5q0 39 -13.5 67t-38 43t-58.5 15q-33 0 -57.5 -15.5t-38 -43t-13.5 -66.5q0 -36 13.5 -64.5t38.5 -45
t58 -16.5z" />
    <glyph glyph-name="uni1C93" unicode="&#x1c93;" horiz-adv-x="958" 
d="M570 0q-4 22 -21 39t-43 27.5t-57.5 15.5t-62.5 5q-47 0 -93.5 -10.5t-84.5 -30.5l-52 96q19 13 44 22.5t53 11.5v4q-60 24 -105 66.5t-70.5 100.5t-25.5 127q0 71 26 127.5t77.5 89.5t127.5 33q42 0 76.5 -11.5t60 -33t39.5 -51.5h5q15 30 42.5 51.5t64.5 33t80 11.5
q77 0 134 -30t89 -84.5t32 -130.5q0 -54 -19 -98.5t-54 -76t-82.5 -48.5t-103.5 -17q-61 0 -109.5 16.5t-82 48t-51.5 74.5t-18 96v23q0 32 -9.5 56.5t-28.5 38.5t-48 14q-32 0 -52 -17.5t-30 -48t-10 -66.5q0 -66 22.5 -112t60.5 -76t86 -49t98 -32q43 -11 84.5 -25
t76 -36.5t57 -57.5t26.5 -86h-149zM645 356q35 0 57.5 16t34 44.5t11.5 64.5q0 37 -11 65t-34 44t-57 16q-36 0 -59 -15.5t-33.5 -44t-10.5 -65.5q0 -36 10.5 -64t33.5 -44.5t58 -16.5z" />
    <glyph glyph-name="uni1C94" unicode="&#x1c94;" horiz-adv-x="639" 
d="M308 -10q-81 0 -139.5 29t-90.5 79.5t-32 115.5q0 26 3.5 47t9.5 42h154q-4 -17 -6.5 -37t-2.5 -38q0 -31 11.5 -56.5t35 -41t59.5 -15.5q39 0 62 15t33.5 41.5t10.5 62.5v267q0 49 -26 73.5t-67 24.5q-28 0 -49 -10t-32.5 -30t-11.5 -50q0 -13 1.5 -28.5t4.5 -31.5h-154
q-4 17 -7 35.5t-3 42.5q0 64 33 108t89 66.5t126 22.5q75 0 131.5 -26.5t87.5 -75t31 -117.5v-273q0 -76 -31 -130t-89 -83t-142 -29z" />
    <glyph glyph-name="uni1C95" unicode="&#x1c95;" horiz-adv-x="634" 
d="M317 -10q-85 0 -146 28t-93 75.5t-32 103.5q0 20 3 37t9 36h151q-4 -16 -5.5 -29.5t-1.5 -26.5q0 -45 28.5 -75t87.5 -30q40 0 64.5 15t36 39t11.5 52q0 36 -15 58.5t-41 33t-60 10.5h-38v118h41q52 0 73.5 26.5t21.5 61.5q0 25 -10.5 43t-31 28t-49.5 10t-50.5 -10
t-32 -27.5t-10.5 -42.5q0 -11 1 -20.5t3 -22.5h-150q-5 15 -7.5 28.5t-2.5 30.5q0 57 32.5 98t89 63.5t128.5 22.5q76 0 131 -24.5t85.5 -67.5t30.5 -98q0 -63 -33 -101t-88 -51v-3q36 -7 68 -28t52 -56.5t20 -87.5q0 -62 -32.5 -111.5t-93 -77.5t-145.5 -28z" />
    <glyph glyph-name="uni1C96" unicode="&#x1c96;" horiz-adv-x="680" 
d="M363 -10q-58 0 -106 17.5t-83.5 49.5t-55 78t-19.5 102q0 42 13 82t41 66v4q-42 11 -71 34t-44 55.5t-15 71.5q0 43 24 83t71 65.5t117 25.5q66 0 113 -23t72.5 -60.5t25.5 -79.5q0 -22 -6.5 -43t-18.5 -36v-4q5 0 9 -0.5t10 -1.5q56 -9 98.5 -41t66 -80t23.5 -109
q0 -60 -18.5 -107.5t-53 -80.5t-83.5 -50.5t-110 -17.5zM365 114q38 0 61.5 16.5t34 46.5t10.5 69t-10.5 67.5t-34 44.5t-62.5 16q-57 0 -82 -35.5t-25 -92.5q0 -39 10.5 -68.5t34.5 -46.5t63 -17zM235 471q36 0 52 21.5t16 49.5q0 31 -16 52t-53 21q-36 0 -52.5 -21
t-16.5 -52q0 -27 17 -49t53 -22z" />
    <glyph glyph-name="uni1C97" unicode="&#x1c97;" horiz-adv-x="985" 
d="M690 724q67 0 120.5 -33t85.5 -104t32 -188q0 -88 -9 -157t-25.5 -127t-38.5 -115h-157q20 57 35.5 118t24.5 131.5t9 152.5q0 72 -10.5 115t-31.5 61.5t-52 18.5q-29 0 -47.5 -14t-27 -38.5t-8.5 -54.5q0 -23 2 -45t3.5 -45t1.5 -50q0 -119 -29.5 -199t-89.5 -120.5
t-151 -40.5q-92 0 -152 41t-89.5 122.5t-29.5 203.5q0 123 29.5 204.5t89 122t148.5 40.5q41 0 77 -9.5t65 -31t45 -57.5h3q16 37 45.5 58.5t64 30.5t67.5 9zM327 117q41 0 64.5 24.5t34 78t10.5 138.5q0 86 -10.5 138.5t-34.5 76.5t-64 24q-41 0 -65 -24.5t-34.5 -77.5
t-10.5 -138q0 -86 10.5 -139t35 -77t64.5 -24z" />
    <glyph glyph-name="uni1C98" unicode="&#x1c98;" horiz-adv-x="653" 
d="M109 0q-15 47 -27 101.5t-19 125t-7 164.5q0 119 36 192t97 107t138 34q76 0 137.5 -34t97 -107t35.5 -192q0 -94 -7 -164.5t-18.5 -125t-27.5 -101.5h-157q14 47 25 104t17.5 128t6.5 162q0 75 -13 119.5t-37.5 64t-58.5 19.5q-35 0 -59.5 -19.5t-37.5 -64t-13 -119.5
q0 -91 7 -162t18 -128t24 -104h-157z" />
    <glyph glyph-name="uni1C99" unicode="&#x1c99;" horiz-adv-x="619" 
d="M303 -10q-81 0 -140 28t-90.5 75.5t-31.5 103.5q0 20 2.5 37t9.5 36h150q-3 -16 -5 -29.5t-2 -26.5q0 -45 27.5 -75t80.5 -30q39 0 63.5 14.5t36.5 40.5t12 59q0 37 -13 62.5t-37.5 38.5t-59.5 13h-42v115h42q34 0 54.5 11.5t29 29t8.5 36.5q0 22 -9.5 39t-28 28
t-46.5 11v119q76 0 129 -23t81.5 -62t28.5 -88q0 -62 -31 -100t-80 -53v-3q32 -7 62 -28.5t49.5 -60t19.5 -95.5q0 -66 -33 -116t-93 -78.5t-144 -28.5z" />
    <glyph glyph-name="uni1C9A" unicode="&#x1c9a;" horiz-adv-x="1194" 
d="M708 0q-2 23 -17 41.5t-39 33t-54 24t-64 14.5t-68 5q-73 0 -128 -17.5t-96 -39.5l-58 93q14 9 30 17t34 14t36 9v3q-57 16 -100.5 43t-73 63.5t-44 82.5t-14.5 100q0 66 24.5 120t73.5 86t121 32q63 0 107 -28t61 -78h6q17 52 55.5 79t95.5 27q56 0 96 -28t55 -78h6
q18 50 59 78t103 28q73 0 123.5 -32.5t77 -90t26.5 -131.5q0 -64 -14.5 -119.5t-44.5 -113.5l-141 48q24 47 34 93.5t10 93.5q0 66 -23 97t-61 31q-26 0 -43 -15t-25 -42t-8 -61v-110h-152v119q0 30 -7.5 54.5t-24.5 39.5t-46 15q-27 0 -44.5 -14t-25.5 -39t-8 -56v-119
h-151v110q0 32 -7 59t-23 43t-45 16q-39 0 -62 -29.5t-23 -95.5q0 -55 20 -95t58 -68t92.5 -44.5t123.5 -23.5q76 -7 138.5 -24.5t109 -47t75 -72t34.5 -100.5h-150z" />
    <glyph glyph-name="uni1C9B" unicode="&#x1c9b;" horiz-adv-x="649" 
d="M322 -10q-84 0 -144.5 31t-93 88t-32.5 136q0 122 60.5 186t158.5 64q39 0 68.5 -9t51.5 -24t37 -34h5q-3 17 -5 35t-2 35v32q0 24 -11.5 41.5t-33 27t-52.5 9.5q-26 0 -47.5 -7.5t-33.5 -22t-12 -36.5v-4v-4h-155q-1 9 -1 13v9q0 53 34.5 90.5t91 57.5t122.5 20
q77 0 133.5 -26.5t87.5 -72.5t31 -107v-270q0 -122 -66.5 -190t-191.5 -68zM322 113q39 0 64 15.5t37.5 42.5t12.5 62v16q0 30 -9 58.5t-34 46.5t-75 18q-51 0 -80 -34.5t-29 -94.5q0 -56 27.5 -93t85.5 -37z" />
    <glyph glyph-name="uni1C9C" unicode="&#x1c9c;" horiz-adv-x="649" 
d="M327 -10q-124 0 -190.5 68.5t-66.5 196.5v255q0 56 17 95.5t46.5 63t66.5 34.5t78 11h269v-124h-254q-33 0 -51.5 -16t-18.5 -51v-24q0 -16 -2 -33.5t-6 -31.5h5q17 21 39 37t51.5 25t67.5 9q66 0 115.5 -31t76.5 -88t27 -135q0 -82 -32.5 -140.5t-93 -89.5t-144.5 -31z
M329 113q41 0 65.5 17.5t36.5 48.5t12 69q0 41 -13.5 70.5t-38 45.5t-59.5 16q-43 0 -69 -18t-37 -47.5t-11 -64.5v-16q0 -35 12.5 -62.5t38 -43t63.5 -15.5z" />
    <glyph glyph-name="uni1C9D" unicode="&#x1c9d;" horiz-adv-x="935" 
d="M129 0q-16 42 -29.5 85.5t-23 91.5t-15 102.5t-5.5 119.5q0 117 33.5 188.5t88 104t120.5 32.5q32 0 64.5 -10t60 -32.5t43.5 -63.5h4q17 41 44 64t61 32.5t68 9.5q63 0 117 -33t86.5 -104t32.5 -188q0 -88 -9.5 -157t-26 -127t-37.5 -115h-157q20 57 35.5 118
t24.5 131.5t9 152.5q0 72 -11 115t-31 61.5t-48 18.5q-29 0 -47 -16.5t-25.5 -47.5t-7.5 -74v-250h-160v250q0 42 -8 73t-25.5 48t-47.5 17q-27 0 -47.5 -18t-31.5 -61.5t-11 -115.5q0 -84 9 -153.5t25 -130.5t35 -118h-157z" />
    <glyph glyph-name="uni1C9E" unicode="&#x1c9e;" horiz-adv-x="631" 
d="M312 -10q-83 0 -142.5 28t-91.5 75.5t-32 103.5q0 20 3 37t9 36h151q-4 -16 -5.5 -29.5t-1.5 -26.5q0 -45 27.5 -75t82.5 -30q38 0 62 16t35 41.5t11 55.5q0 28 -8 48t-24.5 33.5t-39 19.5t-50.5 6h-42v118h54q31 0 50 6.5t28 17.5t9 26q0 18 -9 30t-24 20t-34 15
q-29 11 -54.5 30t-39.5 48.5t-11 73.5h159q1 -24 21 -39t52 -31q24 -11 47 -28t38.5 -44t15.5 -67q0 -31 -14.5 -55t-38.5 -39t-55 -23v-3q23 -5 46 -19t41.5 -36.5t30 -52.5t11.5 -67q0 -63 -32.5 -113t-92 -78.5t-142.5 -28.5z" />
    <glyph glyph-name="uni1C9F" unicode="&#x1c9f;" horiz-adv-x="676" 
d="M341 -10q-81 0 -140 28t-90.5 75.5t-31.5 103.5q0 20 3 37t9 36h151q-4 -16 -5.5 -29.5t-1.5 -26.5q0 -45 27 -75t79 -30q40 0 63.5 15t33.5 42t10 62v372q-31 -10 -61 -16t-62 -9v-2q25 -11 38 -37t13 -56q0 -36 -20.5 -66.5t-58.5 -49t-90 -18.5q-49 0 -86.5 17
t-58.5 45.5t-21 64.5q0 8 1.5 17t3.5 16h114q0 -4 -0.5 -7t-0.5 -6q0 -20 13 -32.5t35 -12.5q24 0 36.5 14t12.5 34q0 23 -12.5 37.5t-43.5 14.5v110q72 5 144 19t128 37h130v-483q0 -73 -30.5 -127.5t-88.5 -84t-142 -29.5z" />
    <glyph glyph-name="uni1CA0" unicode="&#x1ca0;" horiz-adv-x="893" 
d="M105 0q-20 53 -32 97t-16.5 90t-4.5 103q0 87 16 156t52.5 119.5t98 82.5t152.5 47q36 6 75 11t81 10t85 9l17 -127q-40 -4 -75 -8t-65.5 -7.5t-57 -7t-48.5 -6.5q-39 -5 -80.5 -15.5t-75 -30.5t-49.5 -54h3q15 16 33.5 25t39 13t40.5 4q54 0 93.5 -28.5t57.5 -79.5h3
q19 51 61.5 79.5t110.5 28.5q72 0 121 -33.5t74.5 -90.5t25.5 -129q0 -47 -6 -89.5t-18 -84t-30 -84.5h-155q25 61 39 122.5t14 132.5q0 37 -8.5 68.5t-27.5 51t-51 19.5q-27 0 -44.5 -15.5t-25.5 -42t-8 -59.5v-123h-148v123q0 38 -8.5 64.5t-26 39.5t-43.5 13
q-43 0 -65 -33.5t-22 -108.5q0 -66 14 -128t39 -124h-155z" />
    <glyph glyph-name="uni1CA1" unicode="&#x1ca1;" horiz-adv-x="652" 
d="M337 -10q-130 0 -198.5 69t-68.5 194v461h154v-471q0 -60 28.5 -94.5t83.5 -34.5q36 0 60 15.5t35.5 40.5t11.5 54q0 46 -15 75.5t-35 57.5q-21 31 -36 68t-10 92h155q-1 -37 12 -64t33 -57q21 -31 37.5 -68t16.5 -96q0 -72 -32.5 -126.5t-92 -85t-139.5 -30.5z" />
    <glyph glyph-name="uni1CA2" unicode="&#x1ca2;" horiz-adv-x="826" 
d="M413 -10q-86 0 -153 25.5t-113.5 73.5t-70.5 115t-24 150q0 145 74 237t213 111q-2 11 -3 20.5t-1 20.5v12h155v-12q0 -11 -0.5 -20.5t-2.5 -19.5q139 -19 213.5 -110t74.5 -240q0 -81 -24 -148t-70.5 -115t-114 -74t-153.5 -26zM413 117q65 0 109.5 26.5t67.5 79
t23 131.5q0 104 -34.5 160t-99.5 71q3 -14 5 -35t2 -56v-153h-148v153q0 33 2 53t5 37q-66 -15 -99 -73t-33 -157q0 -79 23.5 -131.5t68 -79t108.5 -26.5z" />
    <glyph glyph-name="uni1CA3" unicode="&#x1ca3;" horiz-adv-x="656" 
d="M325 -10q-81 0 -139.5 29t-90.5 79.5t-32 115.5q0 26 3.5 47t9.5 42h154q-4 -17 -6.5 -37t-2.5 -38q0 -31 11.5 -56.5t35 -41t59.5 -15.5q39 0 62 15t33.5 41.5t10.5 62.5v291q0 26 -7 42.5t-20.5 25t-34.5 8.5q-28 0 -45.5 -17.5t-17.5 -56.5v-97h-148v98
q0 33 -16.5 49.5t-47.5 16.5h-59v125h63q48 0 83.5 -19.5t53.5 -63.5h3q13 29 35 48.5t52 29.5t65 10q62 0 105.5 -23t66.5 -65.5t23 -99.5v-305q0 -75 -31 -129t-89 -83t-142 -29z" />
    <glyph glyph-name="uni1CA4" unicode="&#x1ca4;" horiz-adv-x="949" 
d="M563 -10q-94 0 -164.5 21t-109 60.5t-38.5 94.5q0 10 1.5 19t2.5 17h152q0 -4 -0.5 -8t-0.5 -7q0 -27 20.5 -44t57 -25.5t84.5 -8.5q51 0 84.5 14t49.5 37t16 49q0 24 -10 41.5t-30 27.5t-50 10h-16v116h31q33 0 54 14t31.5 37.5t10.5 50.5q0 29 -8.5 51.5t-26.5 35.5
t-47 13q-28 0 -47 -12.5t-28.5 -35t-9.5 -52.5v-28q0 -50 -18 -92t-52 -72.5t-82 -47t-109 -16.5q-56 0 -103.5 17t-82.5 48t-54 73.5t-19 95.5q0 73 32 127t89.5 83.5t134.5 29.5q43 0 79.5 -11t64 -31.5t41.5 -51.5h4q14 31 40 51.5t61 31.5t77 11q71 0 120.5 -26.5
t75.5 -71t26 -98.5q0 -79 -35 -120t-88 -57v-3q34 -9 57 -30t35.5 -49.5t12.5 -63.5q0 -60 -35.5 -109t-106 -77.5t-174.5 -28.5zM313 367q35 0 57.5 15.5t33.5 43t11 60.5q0 35 -11 62t-33.5 42.5t-58.5 15.5q-35 0 -57.5 -16t-33.5 -42.5t-11 -61.5q0 -34 11 -61
t33.5 -42.5t58.5 -15.5z" />
    <glyph glyph-name="uni1CA5" unicode="&#x1ca5;" horiz-adv-x="638" 
d="M309 -10q-82 0 -140.5 28t-90.5 75.5t-32 103.5q0 20 3 37t9 36h151q-4 -16 -5.5 -29.5t-1.5 -26.5q0 -45 27 -75t80 -30q39 0 62.5 17t34 47t10.5 67v128q0 37 -9.5 66.5t-31 47.5t-59.5 18q-27 0 -47 -10.5t-31 -30t-11 -46.5q0 -9 1 -19t2 -19h-151q-3 12 -4.5 26
t-1.5 32q0 56 27.5 97.5t71.5 64t93 22.5q39 0 67.5 -9t49 -24.5t35.5 -37.5h4q-3 18 -4.5 43t-1.5 49v76h154v-476q0 -78 -30.5 -133.5t-88.5 -85t-141 -29.5z" />
    <glyph glyph-name="uni1CA6" unicode="&#x1ca6;" horiz-adv-x="897" 
d="M524 0q-5 33 -31 55t-63 33t-76 11q-47 0 -87.5 -10.5t-78.5 -30.5l-52 96q19 12 45 22t55 12v4q-58 24 -99.5 64.5t-63 95t-21.5 119.5q0 73 25.5 129.5t75 89.5t121.5 33q66 0 110 -27t62 -74h5q19 49 61 75t106 26q73 0 123.5 -33t77 -89.5t26.5 -129.5
q0 -66 -15.5 -121t-50.5 -115l-132 49q24 47 33 92.5t9 90.5q0 37 -9 69t-29 51.5t-53 19.5q-27 0 -44 -13.5t-24.5 -38.5t-7.5 -59v-131h-148v131q0 34 -7.5 59t-24 38.5t-43.5 13.5q-43 0 -67 -32t-24 -105q0 -63 19.5 -105.5t53.5 -70.5t79 -46t95 -31
q59 -14 106.5 -42.5t77 -72t34.5 -102.5h-149z" />
    <glyph glyph-name="uni1CA7" unicode="&#x1ca7;" horiz-adv-x="644" 
d="M314 -10q-81 0 -140 28t-90.5 75.5t-31.5 103.5q0 20 2.5 37t9.5 36h150q-3 -16 -5 -29.5t-2 -26.5q0 -45 27.5 -75t79.5 -30q40 0 64 16t34.5 43.5t10.5 61.5v83q0 13 0.5 26.5t1.5 28.5t2 31h-3q-23 -31 -64 -51.5t-97 -20.5q-62 0 -109.5 27t-74.5 78.5t-27 125.5
q0 48 9 86.5t23 69.5h153q-12 -36 -19.5 -70.5t-7.5 -78.5q0 -34 12 -60t34 -40.5t52 -14.5q37 0 62.5 15.5t39 46t13.5 75.5v127h151v-481q0 -77 -30 -131t-88.5 -83t-141.5 -29z" />
    <glyph glyph-name="uni1CA8" unicode="&#x1ca8;" horiz-adv-x="649" 
d="M322 -10q-84 0 -144.5 31t-93 88t-32.5 136q0 118 60.5 180.5t158.5 62.5q39 0 68.5 -8.5t51.5 -23t37 -33.5h5q-3 17 -5 34.5t-2 35.5v65q0 18 -6.5 30.5t-18.5 19t-28 6.5q-23 0 -36.5 -14t-13.5 -39v-34h-150v22q0 30 -17.5 43t-40.5 13q-14 0 -28.5 -2.5t-28.5 -8.5
l-36 108q25 12 53.5 17t53.5 5q35 0 70.5 -16.5t51.5 -55.5h3q19 39 57.5 55.5t88.5 16.5q47 0 88 -19.5t66.5 -58t25.5 -98.5v-300q0 -122 -66.5 -190t-191.5 -68zM323 113q40 0 65 15.5t37.5 42.5t12.5 62v12q0 29 -9.5 57.5t-34.5 46.5t-74 18q-51 0 -80.5 -34t-29.5 -90
t27.5 -93t85.5 -37z" />
    <glyph glyph-name="uni1CA9" unicode="&#x1ca9;" horiz-adv-x="646" 
d="M70 0v513q0 65 27 112t78.5 73t123.5 26q99 0 157.5 -42t58.5 -110q0 -33 -12.5 -59.5t-45.5 -49.5v-4q65 -19 101 -75t36 -144q0 -42 -5 -85.5t-14 -83t-21 -71.5h-150q9 24 16.5 60.5t12.5 81.5t5 91q0 60 -26.5 100t-76.5 40q-35 0 -60 -14.5t-38.5 -44.5t-13.5 -77
v-237h-153zM216 417h4q12 15 28.5 29.5t36.5 24.5q22 12 39.5 23.5t27.5 26.5t10 34q0 26 -18 41.5t-50 15.5q-33 0 -52.5 -20t-19.5 -57v-53q0 -8 -0.5 -19t-2 -22.5t-3.5 -23.5z" />
    <glyph glyph-name="uni1CAA" unicode="&#x1caa;" horiz-adv-x="734" 
d="M384 -10q-78 0 -139.5 23t-104.5 69.5t-65.5 120t-22.5 176.5q0 61 9 118.5t25.5 112.5t39.5 104h153q-21 -54 -36 -106t-23 -108t-8 -121q0 -91 18.5 -149t56 -85.5t97.5 -27.5q72 0 109 29t37 81q0 31 -14.5 54t-43 36.5t-71.5 13.5h-35l1 122h64q28 0 47 6t29 18
t10 28q0 21 -14.5 36.5t-33.5 29.5q-17 14 -34 32t-27 44.5t-8 66.5h153q1 -25 16.5 -42t35.5 -33q25 -19 47.5 -46.5t22.5 -75.5q0 -34 -15 -59t-40.5 -40.5t-59.5 -21.5v-3q34 -6 62.5 -27.5t46.5 -58t18 -91.5q0 -70 -39 -121t-107.5 -78t-156.5 -27z" />
    <glyph glyph-name="uni1CAB" unicode="&#x1cab;" 
d="M322 -10q-83 0 -143.5 31.5t-93.5 91.5t-33 145q0 89 28 148.5t77 90t113 30.5q40 0 70 -10t52.5 -27t37.5 -39h5q-3 18 -5.5 51t-2.5 59v153h153v-459q0 -128 -67 -196.5t-191 -68.5zM322 114q39 0 64.5 16t38.5 45.5t13 68.5v16q0 35 -9 65.5t-35 50.5t-76 20
q-33 0 -57.5 -16.5t-38 -48t-13.5 -76.5q0 -62 26.5 -101.5t86.5 -39.5z" />
    <glyph glyph-name="uni1CAC" unicode="&#x1cac;" horiz-adv-x="649" 
d="M327 -10q-124 0 -190.5 68t-66.5 190v300q0 60 25 98.5t66 58t88 19.5q50 0 88.5 -16.5t57.5 -55.5h4q16 39 51 55.5t70 16.5q25 0 53.5 -5t53.5 -17l-36 -108q-14 6 -28 8.5t-28 2.5q-24 0 -41.5 -13t-17.5 -43v-22h-150v34q0 25 -13.5 39t-36.5 14q-16 0 -28 -6.5
t-18.5 -19t-6.5 -30.5v-65q0 -18 -1.5 -35.5t-5.5 -34.5h5q16 19 37.5 33.5t51.5 23t68 8.5q99 0 159 -62.5t60 -180.5q0 -79 -32.5 -136t-93 -88t-144.5 -31zM329 113q59 0 86.5 37t27.5 93t-29 90t-81 34q-48 0 -73 -18t-35 -46.5t-10 -57.5v-12q0 -35 12.5 -62t38 -42.5
t63.5 -15.5z" />
    <glyph glyph-name="uni1CAD" unicode="&#x1cad;" horiz-adv-x="652" 
d="M339 -10q-78 0 -136.5 25t-90.5 70.5t-32 106.5q0 8 1 17t3 21h151q-1 -8 -1 -13v-9q0 -44 27 -71.5t78 -27.5q38 0 60.5 15t33 39.5t10.5 52.5q0 19 -3.5 34t-10 28.5t-15 26.5t-17.5 26.5t-18 28.5h-3q-20 -24 -45.5 -38t-53.5 -20t-57 -6q-45 0 -85 19t-64.5 54
t-24.5 83q0 46 23 81t63 54.5t92 19.5h98v107h153v-107h90v-115h-86v-12q4 -23 17.5 -44.5t31 -44t34.5 -47.5t27.5 -56.5t10.5 -71.5q0 -66 -31 -117.5t-89.5 -80t-140.5 -28.5zM252 407q33 0 53 15.5t20 41.5v33h-72q-31 0 -49.5 -12t-18.5 -33q0 -22 19 -33.5t48 -11.5z
" />
    <glyph glyph-name="uni1CAE" unicode="&#x1cae;" 
d="M328 -10q-124 0 -191 68.5t-67 196.5v459h153v-154q0 -26 -2.5 -59t-5.5 -51h5q16 22 38 39.5t52 27.5t68 10q65 0 114.5 -30.5t77.5 -90t28 -148.5q0 -85 -33 -145t-93.5 -91.5t-143.5 -31.5zM330 114q60 0 86.5 39.5t26.5 101.5q0 45 -13.5 76.5t-38 48t-57.5 16.5
q-50 0 -76 -20t-35 -50.5t-9 -65.5v-16q0 -39 13 -68.5t39 -45.5t64 -16z" />
    <glyph glyph-name="uni1CAF" unicode="&#x1caf;" horiz-adv-x="619" 
d="M308 -10q-81 0 -139.5 28t-90.5 75.5t-32 103.5q0 20 3 37t9 36h151q-4 -16 -5.5 -29.5t-1.5 -26.5q0 -45 27 -75t79 -30q36 0 60 12t36 31.5t12 43.5q0 26 -11.5 45.5t-30.5 37t-44 34.5q-28 20 -51 47t-36 59.5t-13 68.5v28l-174 25v118l174 -26v81h153v-107l179 -26
v-118l-180 26v-9q0 -19 11.5 -36.5t33 -36t51.5 -41.5q26 -18 47 -41.5t34.5 -54t13.5 -70.5q0 -60 -32 -108t-91 -75t-142 -27z" />
    <glyph glyph-name="uni1CB0" unicode="&#x1cb0;" horiz-adv-x="619" 
d="M305 -10q-83 0 -141.5 24t-89 63t-30.5 83q0 10 1.5 19.5t2.5 19.5h149q-1 -4 -1 -9v-9q0 -18 10.5 -35t34.5 -28t64 -11q54 0 79 16.5t25 38.5q0 23 -21 39t-76 16h-47v114h65q30 0 49 8t19 31q0 21 -19 30t-49 9h-65v113h60q30 0 42 8.5t12 21.5q0 15 -16 23t-48 18
q-24 8 -47.5 22t-38 38t-14.5 61h154q4 -21 24.5 -32.5t52.5 -24.5q25 -9 46 -23t34.5 -33t13.5 -47q0 -22 -9.5 -39t-29.5 -28t-54 -17v-3q30 -2 54.5 -14t39.5 -33t15 -50q0 -46 -29.5 -67t-78.5 -29v-3q35 -6 62 -22.5t42 -42t15 -58.5q0 -52 -34.5 -87t-93.5 -53
t-134 -18z" />
    <glyph glyph-name="uni1CB1" unicode="&#x1cb1;" horiz-adv-x="743" 
d="M418 -10q-115 0 -196.5 40t-125.5 126t-44 223q0 55 9.5 113t28 114t44.5 108h152q-24 -56 -41.5 -109.5t-26.5 -109.5t-9 -117q0 -91 24 -150.5t70.5 -88t114.5 -28.5q57 0 86 15t29 39q0 23 -21 38t-68 15h-55v113h65q20 0 35.5 3t24 12t8.5 25q0 20 -17.5 29t-54.5 9
h-61v113h58q30 0 43 8.5t13 23.5t-12.5 26.5t-27.5 22.5t-28.5 26t-21 36t-5.5 49h154q1 -12 8.5 -24.5t18 -22.5t18.5 -16q23 -17 39.5 -38t16.5 -56t-18 -56t-70 -31v-3q30 -2 54 -14.5t37.5 -33.5t13.5 -49q0 -42 -26 -65.5t-76 -32.5v-2q36 -6 61 -20.5t38.5 -38.5
t13.5 -61q0 -46 -35 -82t-96 -57t-142 -21z" />
    <glyph glyph-name="uni1CB2" unicode="&#x1cb2;" horiz-adv-x="644" 
d="M81 0v127q28 1 56.5 5t64.5 14v3q-50 38 -83.5 86t-50 102t-16.5 110q0 91 36 152.5t96.5 93t137.5 31.5t138 -31.5t96.5 -93t35.5 -152.5q0 -56 -16 -110t-49.5 -102t-83.5 -86v-3q35 -10 63.5 -14t56.5 -5l1 -127q-69 1 -129.5 16.5t-112.5 40.5q-51 -25 -111.5 -40.5
t-129.5 -16.5zM322 203q33 28 57.5 63.5t38.5 81t14 100.5q0 72 -28.5 110.5t-81.5 38.5q-52 0 -80.5 -38.5t-28.5 -110.5q0 -55 13.5 -100.5t38.5 -81t57 -63.5z" />
    <glyph glyph-name="uni1CB3" unicode="&#x1cb3;" horiz-adv-x="634" 
d="M317 -10q-85 0 -146 28t-93 75.5t-32 103.5q0 20 3 37t9 36h151q-4 -16 -5.5 -29.5t-1.5 -26.5q0 -45 28.5 -75t87.5 -30q40 0 64.5 15.5t36 41t11.5 55.5q0 37 -14 62.5t-42.5 40.5t-71.5 15h-86v102l153 153h-289v120h484v-100l-179 -171q52 -7 98 -34t75.5 -74.5
t29.5 -115.5t-32.5 -119.5t-93 -80.5t-145.5 -29z" />
    <glyph glyph-name="uni1CB4" unicode="&#x1cb4;" horiz-adv-x="615" 
d="M307 -10q-83 0 -141.5 24t-89 63t-30.5 83q0 10 1.5 19.5t2.5 19.5h149q-1 -4 -1 -8.5v-8.5q0 -18 10.5 -35.5t34.5 -28.5t64 -11q54 0 79 16.5t25 38.5q0 23 -21 39t-76 16h-40v114h58q30 0 48.5 7.5t18.5 27.5q0 14 -12 22t-32 14.5t-45 12.5q-31 9 -64.5 20t-63 29
t-47.5 46t-18 70q0 43 25.5 75.5t74.5 50.5t117 18q48 0 94 -11.5t85 -36.5l-49 -99q-29 14 -61 23t-72 9q-32 0 -49 -8t-17 -22q0 -13 9.5 -21t31 -14t55.5 -15t68.5 -19.5t64 -27.5t47 -43t17.5 -65q0 -43 -29.5 -67t-78.5 -33v-3q35 -6 62 -22.5t42 -42t15 -58.5
q0 -52 -34.5 -87t-93.5 -53t-134 -18z" />
    <glyph glyph-name="uni1CB5" unicode="&#x1cb5;" horiz-adv-x="694" 
d="M310 -10q-125 0 -191.5 45.5t-66.5 124.5q0 54 29 90.5t82.5 56t126.5 19.5h122v71h-130q-106 0 -165 41.5t-59 118.5q0 78 67.5 122.5t185.5 44.5q79 0 136 -21.5t87.5 -62t30.5 -100.5v-32h103v-111h-103v-71h103v-110h-103v-30q0 -62 -29.5 -106t-86.5 -67t-139 -23z
M311 102q37 0 59 11t32 29.5t10 40.5v33h-109q-25 0 -46.5 -5t-34.5 -17t-13 -34q0 -29 28.5 -43.5t73.5 -14.5zM297 508h115v28q0 36 -26 56.5t-74 20.5t-73 -14t-25 -42q0 -18 10.5 -29t29 -15.5t43.5 -4.5z" />
    <glyph glyph-name="uni1CB6" unicode="&#x1cb6;" horiz-adv-x="877" 
d="M513 724v-88q114 -1 182.5 -38t99 -97t30.5 -132q0 -51 -16 -99t-52.5 -86t-96 -60.5t-147.5 -23.5v-110h-148v110q-90 1 -150 23t-95.5 60t-51.5 86t-16 101q0 51 15.5 98.5t52 85t96.5 60t149 22.5v88h148zM365 517q-63 -1 -99 -21t-50 -52.5t-14 -73.5q0 -44 14.5 -78
t50 -53.5t98.5 -20.5v299zM513 517v-299q62 1 97.5 21t50 54t14.5 77q0 42 -14.5 74.5t-50 52t-97.5 20.5z" />
    <glyph glyph-name="uni1CB7" unicode="&#x1cb7;" horiz-adv-x="618" 
d="M309 -10q-80 0 -138.5 25t-91.5 70.5t-33 108.5q0 51 17.5 86.5t47.5 62t68 45.5t79 36q49 21 81 38t47 34.5t15 41.5q0 33 -23 51t-65 18q-49 0 -70 -20t-21 -48q0 -5 0.5 -11t1.5 -11h-152q-2 9 -3 17.5t-1 16.5q0 50 28.5 89t82.5 61.5t130 22.5t131.5 -23t85.5 -66
t30 -102q0 -43 -14 -75.5t-41 -58t-66 -47t-87 -42.5q-43 -19 -75.5 -35.5t-50.5 -36t-18 -45.5q0 -41 29.5 -63t76.5 -22q35 0 58.5 11t36 31.5t12.5 47.5q0 8 -0.5 16.5t-2.5 15.5h152q3 -11 4.5 -22.5t1.5 -23.5q0 -63 -32.5 -106t-91.5 -65.5t-139 -22.5z" />
    <glyph glyph-name="uni1CB8" unicode="&#x1cb8;" horiz-adv-x="644" 
d="M330 -10q-83 0 -141 29t-88.5 83t-30.5 131v481h151v-127q0 -45 13.5 -75.5t39 -46t62.5 -15.5q31 0 52.5 14.5t33.5 40.5t12 60q0 44 -7.5 78.5t-19.5 70.5h153q14 -31 23 -69.5t9 -86.5q0 -74 -27 -125.5t-74.5 -78.5t-109.5 -27q-56 0 -97 20.5t-64 51.5h-3
q2 -16 2.5 -31t1 -28.5t0.5 -26.5v-83q0 -34 10.5 -61.5t34.5 -43.5t64 -16q52 0 79 30t27 75q0 13 -1 26.5t-5 29.5h150q7 -19 9.5 -36t2.5 -37q0 -56 -31.5 -103.5t-90 -75.5t-140.5 -28z" />
    <glyph glyph-name="uni1CB9" unicode="&#x1cb9;" horiz-adv-x="633" 
d="M318 723q56 0 105 -17t85.5 -49.5t57 -79t20.5 -105.5q0 -76 -31 -128t-87 -81t-131 -37q-50 -5 -71.5 -21t-21.5 -46q0 -25 19.5 -41t52.5 -16q34 0 53.5 16.5t19.5 44.5q0 6 -0.5 12t-1.5 11h148q3 -13 4 -23t1 -20q0 -45 -28 -79.5t-78.5 -54t-117.5 -19.5
q-69 0 -119.5 20t-77.5 55.5t-27 80.5q0 37 20 68.5t69 49.5v4q-59 21 -97 72t-38 132q0 59 19.5 105.5t56 79t86 49.5t110.5 17zM316 598q-33 0 -57.5 -16t-38 -45t-13.5 -65q0 -38 13.5 -66.5t38 -43.5t58.5 -15q33 0 57.5 15.5t38 43.5t13.5 66q0 37 -13.5 65t-38 44.5
t-58.5 16.5z" />
    <glyph glyph-name="uni1CBA" unicode="&#x1cba;" horiz-adv-x="547" 
d="M110 -11v142l107 42v3q-46 14 -83.5 48t-59.5 86t-22 118q0 68 20 122.5t57.5 93t90 59.5t116.5 21q51 0 101 -13t88 -36l-53 -120q-36 19 -64.5 28t-61.5 9q-32 0 -56.5 -11.5t-42 -33.5t-26 -54.5t-8.5 -73.5q0 -55 16 -93t46.5 -57.5t74.5 -19.5q42 0 75 11t77 31
v-143z" />
    <glyph glyph-name="uni1CBD" unicode="&#x1cbd;" horiz-adv-x="618" 
d="M310 -10q-80 0 -139.5 22.5t-92 65.5t-32.5 106q0 12 1.5 23.5t4.5 22.5h153q-1 -7 -2 -15.5t-1 -16.5q0 -27 12 -47.5t36 -31.5t58 -11q48 0 77 22t29 63q0 26 -18 44.5t-50.5 34.5t-75.5 34q-48 21 -86.5 42.5t-66 48t-41.5 59.5t-14 77q0 59 30.5 102t85.5 66t131 23
q77 0 130.5 -22.5t82 -61.5t28.5 -89q0 -8 -1 -16.5t-3 -17.5h-151q1 5 1 11v11q0 28 -21 48t-69 20q-41 0 -65 -18t-24 -51q0 -25 15.5 -43.5t47 -36t81.5 -38.5q41 -17 78.5 -35.5t68 -44t47.5 -59t17 -80.5q0 -67 -32.5 -113.5t-91 -72t-138.5 -25.5z" />
    <glyph glyph-name="uni1CBE" unicode="&#x1cbe;" horiz-adv-x="644" 
d="M81 714q69 -1 129.5 -16.5t111.5 -40.5q52 25 112.5 40.5t129.5 16.5l-1 -127q-28 0 -56.5 -4.5t-63.5 -14.5v-3q50 -38 83.5 -85.5t49.5 -101.5t16 -111q0 -90 -35.5 -152t-96.5 -93.5t-138 -31.5t-137.5 31.5t-96.5 93.5t-36 152q0 57 16.5 111t50 101.5t83.5 85.5v3
q-36 10 -64.5 14.5t-56.5 4.5v127zM322 511q-32 -27 -57 -63t-38.5 -81t-13.5 -101q0 -71 28.5 -110t80.5 -39q53 0 81.5 39t28.5 110q0 56 -14 101t-38.5 81t-57.5 63z" />
    <glyph glyph-name="uni1CBF" unicode="&#x1cbf;" horiz-adv-x="673" 
d="M337 -10q-141 0 -211 93.5t-70 273.5q0 122 31 203.5t93.5 122.5t156.5 41q141 0 210.5 -93t69.5 -274q0 -121 -31 -203t-93.5 -123t-155.5 -41zM337 117q64 0 91.5 58t27.5 182q0 85 -12.5 137.5t-38.5 77.5t-68 25q-65 0 -92.5 -58t-27.5 -182q0 -84 12.5 -137t39 -78
t68.5 -25z" />
    <glyph glyph-name="Wgrave" unicode="&#x1e80;" horiz-adv-x="996" 
d="M982 714l-181 -714h-175l-95 372q-4 14 -9 35.5t-10 45.5t-9 45.5t-5 35.5q-2 -14 -5.5 -35.5t-8.5 -45.5t-10 -45.5t-9 -36.5l-95 -371h-174l-182 714h150l91 -388q4 -17 9 -41t10 -49.5t9.5 -49.5t6.5 -42q4 26 9 58t12 65t14 62.5t12 51.5l88 333h145l89 -334
q5 -22 12 -52t14 -63t12.5 -65t8.5 -56q3 25 9.5 58.5t13.5 66.5t12 56l91 389h150zM514 934q15 -22 35.5 -49t42.5 -53t38 -45v-13h-101q-19 13 -44.5 32.5t-52 41t-50 42t-37.5 34.5v10h169z" />
    <glyph glyph-name="wgrave" unicode="&#x1e81;" horiz-adv-x="862" 
d="M463 266q-6 26 -13 56.5t-11.5 57.5t-7.5 42h-3q-2 -15 -7.5 -42.5t-12 -58.5t-14.5 -60l-71 -261h-162l-149 547h150l56 -241q6 -25 12 -56.5t11 -62.5t6 -55h3q2 17 6 40t8.5 46.5t9 43.5t7.5 31l68 254h166l65 -256q5 -20 11 -48.5t12 -57.5t8 -52h3q2 23 6.5 54
t10.5 62.5t13 56.5l59 241h147l-151 -547h-164zM446 766q15 -22 35.5 -49t42.5 -53t38 -45v-13h-101q-19 13 -44.5 32.5t-52 41t-50 42t-37.5 34.5v10h169z" />
    <glyph glyph-name="Wacute" unicode="&#x1e82;" horiz-adv-x="996" 
d="M982 714l-181 -714h-175l-95 372q-4 14 -9 35.5t-10 45.5t-9 45.5t-5 35.5q-2 -14 -5.5 -35.5t-8.5 -45.5t-10 -45.5t-9 -36.5l-95 -371h-174l-182 714h150l91 -388q4 -17 9 -41t10 -49.5t9.5 -49.5t6.5 -42q4 26 9 58t12 65t14 62.5t12 51.5l88 333h145l89 -334
q5 -22 12 -52t14 -63t12.5 -65t8.5 -56q3 25 9.5 58.5t13.5 66.5t12 56l91 389h150zM702 924q-15 -14 -38 -34.5t-50 -42t-52.5 -41t-44.5 -32.5h-100v13q16 19 37.5 45t43 53t35.5 49h169v-10z" />
    <glyph glyph-name="wacute" unicode="&#x1e83;" horiz-adv-x="862" 
d="M463 266q-6 26 -13 56.5t-11.5 57.5t-7.5 42h-3q-2 -15 -7.5 -42.5t-12 -58.5t-14.5 -60l-71 -261h-162l-149 547h150l56 -241q6 -25 12 -56.5t11 -62.5t6 -55h3q2 17 6 40t8.5 46.5t9 43.5t7.5 31l68 254h166l65 -256q5 -20 11 -48.5t12 -57.5t8 -52h3q2 23 6.5 54
t10.5 62.5t13 56.5l59 241h147l-151 -547h-164zM635 756q-15 -14 -38 -34.5t-50 -42t-52.5 -41t-44.5 -32.5h-100v13q16 19 37.5 45t43 53t35.5 49h169v-10z" />
    <glyph glyph-name="Wdieresis" unicode="&#x1e84;" horiz-adv-x="996" 
d="M982 714l-181 -714h-175l-95 372q-4 14 -9 35.5t-10 45.5t-9 45.5t-5 35.5q-2 -14 -5.5 -35.5t-8.5 -45.5t-10 -45.5t-9 -36.5l-95 -371h-174l-182 714h150l91 -388q4 -17 9 -41t10 -49.5t9.5 -49.5t6.5 -42q4 26 9 58t12 65t14 62.5t12 51.5l88 333h145l89 -334
q5 -22 12 -52t14 -63t12.5 -65t8.5 -56q3 25 9.5 58.5t13.5 66.5t12 56l91 389h150zM322 854q0 35 20 51t49 16q28 0 48.5 -16t20.5 -51q0 -33 -20.5 -49t-48.5 -16q-29 0 -49 16t-20 49zM538 854q0 35 19.5 51t49.5 16q28 0 48.5 -16t20.5 -51q0 -33 -20.5 -49t-48.5 -16
q-30 0 -49.5 16t-19.5 49z" />
    <glyph glyph-name="wdieresis" unicode="&#x1e85;" horiz-adv-x="862" 
d="M463 266q-6 26 -13 56.5t-11.5 57.5t-7.5 42h-3q-2 -15 -7.5 -42.5t-12 -58.5t-14.5 -60l-71 -261h-162l-149 547h150l56 -241q6 -25 12 -56.5t11 -62.5t6 -55h3q2 17 6 40t8.5 46.5t9 43.5t7.5 31l68 254h166l65 -256q5 -20 11 -48.5t12 -57.5t8 -52h3q2 23 6.5 54
t10.5 62.5t13 56.5l59 241h147l-151 -547h-164zM254 686q0 35 20 51t49 16q28 0 48.5 -16t20.5 -51q0 -33 -20.5 -49t-48.5 -16q-29 0 -49 16t-20 49zM470 686q0 35 19.5 51t49.5 16q28 0 48.5 -16t20.5 -51q0 -33 -20.5 -49t-48.5 -16q-30 0 -49.5 16t-19.5 49z" />
    <glyph glyph-name="uni1E9E" unicode="&#x1e9e;" horiz-adv-x="763" 
d="M379 724q82 0 141.5 -24.5t96 -69t48.5 -105.5l-110 -109q55 -11 94.5 -36t61.5 -66.5t22 -100.5q0 -66 -28.5 -116t-87 -78.5t-147.5 -28.5q-54 0 -98 9t-85 28v129q39 -24 82 -35t80 -11q71 0 102 29t31 76q0 46 -34 72t-115 26h-42v105l112 116q-11 23 -28.5 36.5
t-41.5 20t-56 6.5q-49 0 -80.5 -17.5t-46 -52.5t-14.5 -91v-436h-151v452q0 89 36.5 149.5t102.5 91.5t155 31z" />
    <glyph glyph-name="Ygrave" unicode="&#x1ef2;" horiz-adv-x="626" 
d="M313 415l147 299h166l-236 -436v-278h-154v273l-236 441h166zM328 934q15 -22 35.5 -49t42.5 -53t38 -45v-13h-101q-19 13 -44.5 32.5t-52 41t-50 42t-37.5 34.5v10h169z" />
    <glyph glyph-name="ygrave" unicode="&#x1ef3;" horiz-adv-x="571" 
d="M0 546h159l103 -312q5 -15 9.5 -30.5t8 -31.5t5.5 -31h4q3 21 10.5 46t14.5 47l101 312h156l-224 -596q-22 -61 -52.5 -103.5t-74.5 -64.5t-109 -22q-25 0 -44 2.5t-32 5.5v119q11 -2 26.5 -4t32.5 -2q31 0 52 12.5t35 33t24 46.5l12 31zM301 766q15 -22 35.5 -49
t42.5 -53t38 -45v-13h-101q-19 13 -44.5 32.5t-52 41t-50 42t-37.5 34.5v10h169z" />
    <glyph glyph-name="uni2010" unicode="&#x2010;" horiz-adv-x="320" 
d="M28 206v124h263v-124h-263z" />
    <glyph glyph-name="endash" unicode="&#x2013;" horiz-adv-x="500" 
d="M38 213v112h424v-112h-424z" />
    <glyph glyph-name="emdash" unicode="&#x2014;" horiz-adv-x="1000" 
d="M38 213v112h923v-112h-923z" />
    <glyph glyph-name="quoteleft" unicode="&#x2018;" horiz-adv-x="221" 
d="M11 455q9 36 23 82.5t30.5 93t32.5 82.5h108q-9 -42 -18.5 -90t-17.5 -94.5t-13 -84.5h-139z" />
    <glyph glyph-name="quoteright" unicode="&#x2019;" horiz-adv-x="221" 
d="M210 702q-9 -35 -23 -81.5t-30 -93t-33 -83.5h-108q7 32 14 67t13.5 70.5t12 69.5t8.5 62h139z" />
    <glyph glyph-name="quotesinglbase" unicode="&#x201a;" horiz-adv-x="286" 
d="M224 122q-9 -35 -23 -81.5t-30 -93t-33 -83.5h-108q7 32 14 67t13.5 70.5t12 69.5t8.5 62h139z" />
    <glyph glyph-name="quotedblleft" unicode="&#x201c;" horiz-adv-x="444" 
d="M429 713q-9 -42 -19 -90.5t-17.5 -94.5t-12.5 -84h-139l-7 11q9 36 23 82t30.5 93t32.5 83h109zM205 713q-9 -42 -19 -90.5t-17.5 -94.5t-12.5 -84h-139l-6 11q9 36 23 82t30.5 93t32.5 83h108z" />
    <glyph glyph-name="quotedblright" unicode="&#x201d;" horiz-adv-x="444" 
d="M434 702q-9 -35 -23 -81.5t-30.5 -93t-32.5 -83.5h-109q10 43 19 90.5t17.5 94t12.5 84.5h139zM210 702q-9 -35 -23 -81.5t-30.5 -93t-32.5 -83.5h-108q7 32 14 67t13.5 70.5t12 69.5t8.5 62h139z" />
    <glyph glyph-name="quotedblbase" unicode="&#x201e;" horiz-adv-x="503" 
d="M448 122q-9 -35 -23 -81.5t-30.5 -93t-32.5 -83.5h-109q10 43 19 90.5t17.5 94t12.5 84.5h139zM224 122q-9 -35 -23 -81.5t-30.5 -93t-32.5 -83.5h-108q7 32 14 67t13.5 70.5t12 69.5t8.5 62h139z" />
    <glyph glyph-name="bullet" unicode="&#x2022;" horiz-adv-x="386" 
d="M52 365q0 57 19 91t50.5 49.5t71.5 15.5q39 0 71 -15.5t51 -49.5t19 -91q0 -55 -19 -89.5t-51 -50.5t-71 -16q-40 0 -71.5 16t-50.5 50.5t-19 89.5z" />
    <glyph glyph-name="ellipsis" unicode="&#x2026;" horiz-adv-x="837" 
d="M54 70q0 47 25.5 65.5t61.5 18.5q35 0 60.5 -18.5t25.5 -65.5q0 -44 -25.5 -63.5t-60.5 -19.5q-36 0 -61.5 19.5t-25.5 63.5zM332 70q0 47 25.5 65.5t61.5 18.5q35 0 60.5 -18.5t25.5 -65.5q0 -44 -25.5 -63.5t-60.5 -19.5q-36 0 -61.5 19.5t-25.5 63.5zM611 70
q0 47 25.5 65.5t61.5 18.5q35 0 60.5 -18.5t25.5 -65.5q0 -44 -25.5 -63.5t-60.5 -19.5q-36 0 -61.5 19.5t-25.5 63.5z" />
    <glyph glyph-name="guilsinglleft" unicode="&#x2039;" horiz-adv-x="365" 
d="M38 280l181 223l108 -59l-136 -170l136 -170l-108 -58l-181 221v13z" />
    <glyph glyph-name="guilsinglright" unicode="&#x203a;" horiz-adv-x="365" 
d="M146 503l181 -223v-13l-181 -221l-108 58l136 170l-136 170z" />
    <glyph glyph-name="Euro" unicode="&#x20ac;" horiz-adv-x="581" 
d="M395 724q47 0 91 -10.5t83 -30.5l-50 -117q-28 13 -59 22t-65 9q-31 0 -55.5 -8.5t-43 -25.5t-30.5 -42t-17 -57h196v-86h-203q-1 -6 -1 -13v-15v-14.5t1 -14.5h172v-86h-162q8 -38 27.5 -64.5t51.5 -40t75 -13.5q38 0 73 8t64 21v-127q-28 -14 -64.5 -21.5t-82.5 -7.5
q-79 0 -139 28t-99 82.5t-55 134.5h-78v86h67q-1 7 -1 14.5v14.5q0 8 0.5 16.5t0.5 11.5h-67v86h75q15 80 52.5 138.5t98.5 90t144 31.5z" />
    <glyph glyph-name="uni20BE" unicode="&#x20be;" horiz-adv-x="789" 
d="M95 0v106l95 10v4q-47 29 -76 69.5t-43 90t-14 103.5q0 94 39 167t115 115.5t187 42.5q115 0 190 -45t112 -125.5t37 -187.5h-154q0 81 -18 136t-58.5 82.5t-108.5 27.5q-67 0 -108 -26.5t-59.5 -76.5t-18.5 -123q0 -76 26.5 -131.5t74 -85t110.5 -29.5h272v-124h-600z
M295 350v420h75v-420h-75zM425 350v420h75v-420h-75z" />
    <glyph glyph-name="uni2116" unicode="&#x2116;" horiz-adv-x="1066" 
d="M80 0v714h172l232 -494h9q-1 25 -3 59t-3 71t-1 67v297h135v-714h-171l-236 499h-7q2 -27 3.5 -64.5t3 -74.5t1.5 -65v-295h-135zM698 0v93h314v-93h-314zM854 143q-48 0 -85.5 21t-59.5 61t-22 97q0 84 46 130.5t123 46.5q47 0 84.5 -21t59.5 -60.5t22 -95.5
q0 -85 -45.5 -132t-122.5 -47zM855 227q32 0 46.5 23t14.5 70q0 48 -14.5 71t-46.5 23t-47 -23t-15 -71q0 -47 15 -70t47 -23z" />
    <glyph glyph-name="trademark" unicode="&#x2122;" horiz-adv-x="771" 
d="M319 362v352h122l77 -248l83 248h118v-352h-83v199q0 8 1 27.5t2 31.5h-4l-85 -258h-69l-80 258h-4q1 -16 2 -32.5t1 -25.5v-200h-81zM108 362v278h-90v74h263v-74h-90v-278h-83z" />
    <glyph glyph-name="minus" unicode="&#x2212;" horiz-adv-x="320" 
d="M28 206v124h263v-124h-263z" />
    <glyph glyph-name="uni2D00" unicode="&#x2d00;" horiz-adv-x="724" 
d="M362 0q-67 0 -114 18t-71 58t-24 109v179q0 39 -17.5 52.5t-46.5 13.5h-75v116h159q40 0 69.5 -16t46.5 -57h6q18 27 43.5 45.5t57 28t68.5 9.5q90 0 142.5 -47t52.5 -153v-111h-151v73q0 59 -21 88.5t-67 29.5q-45 0 -70 -20t-35.5 -56.5t-10.5 -85.5v-78
q0 -40 21 -58.5t67 -18.5h234v-119h-264z" />
    <glyph glyph-name="uni2D01" unicode="&#x2d01;" horiz-adv-x="680" 
d="M348 -250q-49 0 -89.5 3.5t-77 11.5t-74.5 20v126q54 -19 108 -30t119 -11q59 0 97 10t56.5 29.5t18.5 48.5q0 24 -5.5 41.5t-14.5 30.5q-10 16 -17.5 31.5t-10.5 32.5h-5q-19 -38 -49 -61t-66 -33t-74 -10q-57 0 -101 21t-68 65t-24 114v356h151v-318q0 -59 20.5 -88
t66.5 -29q65 0 91 44.5t26 134.5v256h150v-352q0 -36 10.5 -61.5t25.5 -47.5q18 -26 31 -56.5t13 -78.5q0 -69 -38 -113t-107 -65.5t-163 -21.5z" />
    <glyph glyph-name="uni2D02" unicode="&#x2d02;" horiz-adv-x="685" 
d="M351 -250q-49 0 -89.5 3.5t-77.5 11.5t-74 20v126q53 -19 107.5 -30t119.5 -11q58 0 96.5 10t57 31t18.5 53q0 26 -11 47t-26 42q-16 23 -29.5 54t-13.5 74v137q0 59 -21 88.5t-67 29.5q-68 0 -92.5 -46.5t-24.5 -133.5v-256h-151v546h116l21 -73h6q18 27 43.5 45.5
t57 28t68.5 9.5q90 0 142 -47t52 -153v-158q0 -40 11 -65.5t28 -49.5q17 -25 30 -55t13 -78q0 -69 -38.5 -113t-108 -65.5t-163.5 -21.5z" />
    <glyph glyph-name="uni2D03" unicode="&#x2d03;" horiz-adv-x="622" 
d="M309 -10q-79 0 -138.5 30t-92 88t-32.5 140q0 52 13 94t37.5 75t61.5 57t85 40q-15 23 -23 52t-8 62v17h-145v115h480v-115h-191v-16q0 -24 7 -43.5t23 -37t42 -36.5q51 -37 84 -74.5t49 -83t16 -107.5q0 -82 -33.5 -139t-93.5 -87.5t-141 -30.5zM311 105q52 0 82 35
t30 114q0 37 -9.5 63.5t-26 47.5t-39.5 39q-11 10 -21.5 19t-14.5 13q-27 -11 -48 -27t-35 -37.5t-21.5 -50.5t-7.5 -66q0 -76 30 -113t81 -37z" />
    <glyph glyph-name="uni2D04" unicode="&#x2d04;" 
d="M385 556q90 0 142 -47t52 -153v-596h-150v558q0 59 -21 88.5t-67 29.5q-68 0 -92.5 -46.5t-24.5 -133.5v-256h-151v546h116l21 -73h6q18 27 43.5 45.5t57 28t68.5 9.5z" />
    <glyph glyph-name="uni2D05" unicode="&#x2d05;" horiz-adv-x="974" 
d="M714 556q94 0 142 -47t48 -153v-356h-150v318q0 63 -21 90.5t-63 27.5q-58 0 -82 -42.5t-24 -120.5v-513h-151v558q0 41 -9 67t-27 38.5t-46 12.5q-41 0 -64.5 -21t-33 -61t-9.5 -98v-256h-151v546h116l22 -70h5q16 25 39.5 43t54.5 27.5t69 9.5q61 0 101.5 -21t63.5 -61
h5q27 41 70 61.5t95 20.5z" />
    <glyph glyph-name="uni2D06" unicode="&#x2d06;" horiz-adv-x="708" 
d="M457 556q93 0 149.5 -73t56.5 -209q0 -89 -29 -153t-86 -97.5t-140 -33.5q-124 0 -189.5 73.5t-65.5 212.5v300q0 39 -17.5 52.5t-46.5 13.5h-75v118h145q54 0 85 -18.5t44.5 -48.5t13.5 -65v-45q0 -28 -1.5 -55t-4.5 -53h6q24 37 61.5 59t93.5 22zM407 105q38 0 60 20.5
t32 59t10 89.5q0 81 -25 121.5t-76 40.5q-35 0 -59 -15t-35.5 -47.5t-11.5 -84.5v-21q0 -79 24.5 -121t80.5 -42z" />
    <glyph glyph-name="uni2D07" unicode="&#x2d07;" horiz-adv-x="971" 
d="M259 -10q-56 0 -98.5 21t-66 65t-23.5 114v356h115l22 -70h5q16 25 39 42.5t54.5 27.5t69.5 10q62 0 102 -21t63 -61h5q26 40 69 61t97 21q93 0 141 -47.5t48 -152.5v-356h-150v318q0 64 -21 91t-63 27q-56 0 -81 -41.5t-25 -121.5v-273h-115l-20 70h-8
q-16 -27 -40.5 -44.5t-54 -26.5t-64.5 -9zM303 111q60 0 83.5 42t23.5 119v46q0 41 -8.5 67t-26.5 38.5t-47 12.5q-38 0 -61 -17t-34 -52.5t-12 -92.5v-46q0 -59 20 -88t62 -29z" />
    <glyph glyph-name="uni2D08" unicode="&#x2d08;" horiz-adv-x="470" 
d="M249 0v343q0 44 -20.5 66t-66.5 22h-148v115h163q84 0 132.5 -22t69 -66t20.5 -112v-346h-150z" />
    <glyph glyph-name="uni2D09" unicode="&#x2d09;" horiz-adv-x="646" 
d="M427 -240v203q0 27 1.5 54.5t4.5 53.5h-6q-24 -37 -61.5 -59t-93.5 -22q-93 0 -147 73.5t-54 210.5v486h149v-177q0 -28 -1.5 -55t-4.5 -53h6q24 37 61.5 59t93.5 22q93 0 147 -73t54 -209v-514h-149zM321 110q36 0 59.5 15t35 47.5t11.5 84.5v17q0 54 -11.5 90t-33.5 54
t-56 18q-36 0 -59.5 -15t-35 -47.5t-11.5 -84.5v-16q0 -81 25.5 -122t75.5 -41z" />
    <glyph glyph-name="uni2D0A" unicode="&#x2d0a;" horiz-adv-x="974" 
d="M602 -10q-56 0 -98.5 21t-66.5 65t-24 114v128q0 41 -8.5 67t-27 38.5t-46.5 12.5q-39 0 -63 -20t-34 -60t-10 -100v-256h-151v546h116l22 -70h5q15 25 38.5 42.5t55 27.5t69.5 10q62 0 102 -21t63 -61h5q26 40 69 61t96 21q94 0 142 -47.5t48 -152.5v-356h-115l-20 70
h-8q-16 -27 -40.5 -45t-54.5 -26.5t-64 -8.5zM646 111q60 0 83.5 42t23.5 119v46q0 64 -20.5 91t-62.5 27q-57 0 -81.5 -40.5t-24.5 -114.5v-53q0 -59 19.5 -88t62.5 -29z" />
    <glyph glyph-name="uni2D0B" unicode="&#x2d0b;" horiz-adv-x="627" 
d="M303 -10q-81 0 -138.5 33t-88 96.5t-30.5 154.5q0 132 63 202t187 70h110v30q0 27 -8 42t-25 21.5t-45 6.5h-221v114h237q75 0 122 -18.5t69 -58.5t22 -104v-315q0 -130 -66 -202t-188 -72zM303 103q52 0 77.5 38.5t25.5 124.5v165h-93q-43 0 -68 -16.5t-35 -52.5
t-10 -96q0 -87 27.5 -125t75.5 -38z" />
    <glyph glyph-name="uni2D0C" unicode="&#x2d0c;" horiz-adv-x="647" 
d="M71 0v554q0 69 21.5 114.5t73 68.5t139.5 23h249v-117h-244q-53 0 -71 -21.5t-18 -63.5v-16q0 -18 -1.5 -36.5t-3.5 -33.5h6q18 28 41.5 45.5t53 26t63.5 8.5q59 0 103 -20t68.5 -64t24.5 -117v-351h-151v314q0 59 -21 88.5t-66 29.5q-42 0 -67.5 -19t-37.5 -58.5
t-12 -102.5v-252h-150z" />
    <glyph glyph-name="uni2D0D" unicode="&#x2d0d;" horiz-adv-x="975" 
d="M260 -10q-93 0 -141 48t-48 153v355h150v-318q0 -63 21 -90.5t62 -27.5q58 0 82.5 41.5t24.5 122.5v272h150v-318q0 -41 9 -67t27.5 -38.5t45.5 -12.5q40 0 63.5 20t33.5 60t10 100v256h151v-546h-115l-22 70h-5q-15 -24 -39 -42t-55 -28t-69 -10q-62 0 -102 21.5
t-63 60.5h-6q-26 -39 -68.5 -60.5t-96.5 -21.5z" />
    <glyph glyph-name="uni2D0E" unicode="&#x2d0e;" horiz-adv-x="732" 
d="M507 546h151v-546h-116l-19 70h-9q-16 -27 -42 -44.5t-58 -26.5t-68 -9q-58 0 -101.5 21t-68 65t-24.5 114v172q0 39 -17 52.5t-46 13.5h-75v118h144q53 0 85 -18.5t46.5 -52.5t14.5 -79v-168q0 -59 20.5 -88t65.5 -29q66 0 91.5 44.5t25.5 134.5v256z" />
    <glyph glyph-name="uni2D0F" unicode="&#x2d0f;" horiz-adv-x="732" 
d="M507 -240v201q0 32 3.5 57t9.5 52h-7q-16 -26 -41.5 -44t-57 -27t-68.5 -9q-58 0 -101.5 21t-68 65t-24.5 114v172q0 39 -17 52.5t-46 13.5h-75v118h144q53 0 85 -18.5t46.5 -52.5t14.5 -79v-168q0 -59 20.5 -88t65.5 -29q66 0 91.5 44.5t25.5 134.5v256h152v-786h-152z
" />
    <glyph glyph-name="uni2D10" unicode="&#x2d10;" horiz-adv-x="974" 
d="M259 -10q-56 0 -98.5 21t-66 65t-23.5 114v356h150v-318q0 -58 20.5 -87.5t63.5 -29.5q58 0 82 44.5t24 134.5v470h151v-152q0 -46 -2.5 -79t-4.5 -53h8q17 28 40.5 45.5t52.5 26t62 8.5q55 0 96.5 -20.5t65.5 -64.5t24 -115v-356h-152v318q0 59 -20 88.5t-63 29.5
q-56 0 -81.5 -45t-25.5 -134v-257h-115l-20 70h-9q-15 -27 -40.5 -44.5t-55.5 -26.5t-63 -9z" />
    <glyph glyph-name="uni2D11" unicode="&#x2d11;" 
d="M264 -10q-57 0 -101 21t-68 65t-24 114v570h151v-532q0 -59 20.5 -88t66.5 -29q43 0 69 19.5t37 59.5t11 100v256h150v-546h-115l-20 70h-8q-17 -27 -43 -45t-58 -26.5t-68 -8.5z" />
    <glyph glyph-name="uni2D12" unicode="&#x2d12;" horiz-adv-x="631" 
d="M377 556q94 0 151 -74t57 -210t-56 -209t-151 -73q-56 0 -93.5 22t-60.5 58h-5q2 -15 3.5 -35t1.5 -32v-25q0 -51 32.5 -80t95.5 -29q62 0 109.5 11t92.5 31v-128q-43 -18 -93 -25.5t-114 -7.5q-93 0 -153.5 27t-90.5 79.5t-30 129.5v560h128l14 -69h4q25 36 63.5 57.5
t94.5 21.5zM328 437q-42 0 -66.5 -18t-36 -54t-11.5 -91v-22q0 -37 6.5 -64t19.5 -44.5t34.5 -26.5t50.5 -9q54 0 80 40t26 122q0 55 -11.5 92t-34.5 56t-57 19z" />
    <glyph glyph-name="uni2D13" unicode="&#x2d13;" horiz-adv-x="975" 
d="M750 -240v201q0 17 1.5 33t4 35t6.5 42h-6q-15 -25 -38 -43t-53.5 -28t-68.5 -10q-62 0 -102 21.5t-63 60.5h-6q-26 -39 -68.5 -60.5t-96.5 -21.5q-93 0 -141 48t-48 153v355h150v-318q0 -63 21 -90.5t62 -27.5q58 0 82.5 41.5t24.5 122.5v272h150v-318q0 -41 9 -67
t27.5 -38.5t45.5 -12.5q40 0 63.5 20t33.5 60t10 100v470h151v-1000h-151z" />
    <glyph glyph-name="uni2D14" unicode="&#x2d14;" horiz-adv-x="933" 
d="M391 -240v200q0 28 2.5 60t5.5 50h-5q-16 -24 -36 -42.5t-46 -28t-61 -9.5q-93 0 -149 73t-56 211q0 137 55 209.5t145 72.5q37 0 63.5 -10t46.5 -28t35 -42h6l30 70h79l30 -70h6q15 24 34.5 42t46.5 28t64 10q90 0 145 -72.5t55 -209.5q0 -138 -56 -211t-149 -73
q-34 0 -60.5 9.5t-46.5 28t-36 42.5h-5q3 -18 5.5 -50t2.5 -60v-200h-151zM298 112q55 0 79 40t24 123v16q0 75 -24.5 110t-76.5 35q-47 0 -74 -39t-27 -121q0 -81 27 -122.5t72 -41.5zM634 112q46 0 73 41.5t27 122.5q0 82 -27 121t-74 39q-52 0 -76.5 -35t-24.5 -110v-16
q0 -83 23.5 -123t78.5 -40z" />
    <glyph glyph-name="uni2D15" unicode="&#x2d15;" horiz-adv-x="516" 
d="M183 -240v670h-169v116h169v214h150v-214h170v-116h-170v-670h-150z" />
    <glyph glyph-name="uni2D16" unicode="&#x2d16;" 
d="M385 556q90 0 142 -47t52 -153v-356h-150v318q0 59 -21.5 88.5t-66.5 29.5q-68 0 -92.5 -46.5t-24.5 -133.5v-256h-151v546h116l21 -73h6q18 27 43.5 45.5t57 28t68.5 9.5z" />
    <glyph glyph-name="uni2D17" unicode="&#x2d17;" 
d="M426 -240v201q0 31 3 56.5t9 52.5h-7q-16 -26 -41.5 -44t-57 -27t-68.5 -9q-57 0 -101 21t-68 65t-24 114v356h151v-318q0 -59 20.5 -88t66.5 -29q65 0 91 44.5t26 134.5v256h150v-786h-150z" />
    <glyph glyph-name="uni2D18" unicode="&#x2d18;" 
d="M310 -250q-62 0 -113.5 8t-99.5 27v126q46 -21 96.5 -31t107.5 -10q63 0 95.5 28t32.5 81v21q0 16 1 33t4 36h-4q-16 -26 -41 -44t-56.5 -26.5t-68.5 -8.5q-57 0 -101 21t-68 65t-24 114v356h151v-318q0 -59 20.5 -88t66.5 -29q65 0 91 44.5t26 134.5v256h150v-552
q0 -126 -65.5 -185t-200.5 -59z" />
    <glyph glyph-name="uni2D19" unicode="&#x2d19;" horiz-adv-x="649" 
d="M73 -240v1000h151v-153q0 -46 -2.5 -78.5t-4.5 -52.5h8q17 28 40.5 45.5t53.5 26t64 8.5q59 0 103 -21t68.5 -64.5t24.5 -114.5v-356h-151v318q0 59 -21 88.5t-66 29.5q-42 0 -68 -20t-37.5 -59.5t-11.5 -100.5v-496h-151z" />
    <glyph glyph-name="uni2D1A" unicode="&#x2d1a;" horiz-adv-x="649" 
d="M334 -250q-130 0 -195.5 58.5t-65.5 181.5v556h116l21 -73h6q18 27 42.5 45.5t56.5 28t70 9.5q91 0 142.5 -48t51.5 -152v-356h-150v318q0 59 -21 88.5t-67 29.5q-65 0 -91 -44.5t-26 -135.5v-269q0 -58 30.5 -87.5t92.5 -29.5t109.5 10.5t89.5 28.5v-126
q-45 -17 -96.5 -25t-115.5 -8z" />
    <glyph glyph-name="uni2D1B" unicode="&#x2d1b;" horiz-adv-x="952" 
d="M246 -10q-90 0 -145 73t-55 209q0 139 56 211.5t149 72.5q35 0 61 -9.5t46 -27.5t36 -43h5q-3 18 -5.5 50.5t-2.5 59.5v174h151v-153q0 -46 -2 -78.5t-4 -52.5h7q17 26 39 43.5t49 27t60 9.5q57 0 100 -21t67 -64.5t24 -114.5v-356h-151v318q0 59 -20 88.5t-63 29.5
q-56 0 -81 -44.5t-25 -135.5v-256h-115l-30 71h-6q-15 -24 -35 -42t-46.5 -28.5t-63.5 -10.5zM300 111q52 0 76 34.5t25 109.5v16q0 83 -24 123t-79 40q-45 0 -72 -41t-27 -123q0 -81 27 -120t74 -39z" />
    <glyph glyph-name="uni2D1C" unicode="&#x2d1c;" horiz-adv-x="974" 
d="M73 -240v786h116l22 -70h5q15 25 38.5 42.5t55 27.5t69.5 10q62 0 102 -21t63 -61h5q26 40 69 61t96 21q94 0 142 -47.5t48 -152.5v-356h-150v318q0 64 -21 91t-63 27q-57 0 -81.5 -41.5t-24.5 -121.5v-273h-151v318q0 41 -8.5 67t-27 38.5t-46.5 12.5q-39 0 -63 -20
t-34 -60t-10 -100v-496h-151z" />
    <glyph glyph-name="uni2D1D" unicode="&#x2d1d;" horiz-adv-x="645" 
d="M294 -250q-65 0 -118 8t-101 27v126q45 -20 95 -30.5t112 -10.5q79 0 112.5 21.5t33.5 51.5q0 22 -11.5 36t-35 20.5t-60.5 6.5h-248v540h116l21 -73h6q18 27 43.5 45.5t57 28t68.5 9.5q90 0 142 -47t52 -153v-111h-150v73q0 59 -21 88.5t-67 29.5q-45 0 -70.5 -20
t-36 -56.5t-10.5 -85.5v-149h126q72 0 123.5 -20.5t78 -59.5t26.5 -98q0 -60 -30.5 -104.5t-93.5 -68.5t-160 -24z" />
    <glyph glyph-name="uni2D1E" unicode="&#x2d1e;" horiz-adv-x="649" 
d="M333 -250q-131 0 -195.5 59t-64.5 182v555h151v-262q0 -90 26 -131.5t91 -41.5q46 0 66.5 29.5t20.5 87.5v318h150v-353q0 -70 -23.5 -115.5t-66.5 -66.5t-103 -21q-35 0 -66.5 9t-56.5 26.5t-42 43.5h-5q4 -22 5 -43t1 -46q0 -56 32.5 -83t96.5 -27q57 0 106.5 10.5
t93.5 30.5v-126q-47 -19 -100.5 -27t-116.5 -8z" />
    <glyph glyph-name="uni2D1F" unicode="&#x2d1f;" horiz-adv-x="606" 
d="M-58 -241l299 463l-150 208h-73v116h551v-100l-154 -220l165 -226h-167l-82 125l-224 -366h-165zM328 311l81 123h-165z" />
    <glyph glyph-name="uni2D20" unicode="&#x2d20;" horiz-adv-x="977" 
d="M602 -10q-56 0 -98.5 21t-66 65t-23.5 114v128q0 59 -20.5 88.5t-63.5 29.5q-39 0 -62 -20t-33.5 -60t-10.5 -100v-256h-151v546h116l15 -83h6q16 28 39 49t54.5 32.5t71.5 11.5q88 0 138.5 -48t50.5 -152v-128q0 -59 20 -88t63 -29q58 0 82 44.5t24 134.5v256h151v-546
h-116l-20 70h-8q-16 -27 -40 -45t-53.5 -26.5t-64.5 -8.5z" />
    <glyph glyph-name="uni2D21" unicode="&#x2d21;" horiz-adv-x="594" 
d="M73 -240v1000h151v-277h3q15 24 34.5 40t45.5 24.5t60 8.5q62 0 97 -33t35 -93q0 -31 10 -44.5t37 -13.5h34v-116h-84q-52 0 -83.5 16.5t-46 43.5t-14.5 58t-12 46.5t-38 15.5q-25 0 -42.5 -16t-26.5 -48t-9 -78v-534h-151z" />
    <glyph glyph-name="uni2D22" unicode="&#x2d22;" horiz-adv-x="619" 
d="M301 -10q-80 0 -137 27.5t-87.5 74.5t-30.5 106q0 15 2 30.5t6 31.5h146q-2 -13 -3.5 -24t-1.5 -21q0 -50 28.5 -80t77.5 -30q39 0 65.5 19.5t40 56.5t13.5 90q0 77 -34.5 118.5t-115.5 41.5h-210v115h220q97 0 162 -30t98.5 -90.5t33.5 -151.5q0 -87 -30.5 -151
t-91 -98.5t-151.5 -34.5z" />
    <glyph glyph-name="uni2D23" unicode="&#x2d23;" 
d="M426 -240v201q0 31 3 56.5t9 52.5h-7q-16 -26 -41.5 -44t-57 -27t-68.5 -9q-57 0 -101 21t-68 65t-24 114v356h151v-318q0 -59 20.5 -88t66.5 -29q65 0 91 44.5t26 134.5v470h150v-1000h-150z" />
    <glyph glyph-name="uni2D24" unicode="&#x2d24;" horiz-adv-x="646" 
d="M248 -240v237q-90 17 -133.5 74.5t-43.5 158.5v316h150v-320q0 -58 26.5 -87t76.5 -29q48 0 74.5 29t26.5 87v320h150v-318q0 -98 -46 -156t-131 -75v-237h-150z" />
    <glyph glyph-name="uni2D25" unicode="&#x2d25;" horiz-adv-x="952" 
d="M691 550q57 0 100 -21t67 -65t24 -114v-350h-151v312q0 59 -20 88.5t-63 29.5q-56 0 -81 -44.5t-25 -135.5v-250h-115l-30 71h-6q-15 -24 -35 -42t-46.5 -28.5t-63.5 -10.5q-90 0 -145 73t-55 209q0 139 56 211.5t149 72.5q35 0 61 -9.5t46 -27.5t36 -43h5q-3 18 -5 44
t-2 45v21q0 80 48.5 127.5t154.5 47.5h264v-117h-240q-42 0 -59.5 -19t-17.5 -56v-22q0 -19 -1.5 -38t-4.5 -39h7q17 25 39 43t49 27.5t60 9.5zM401 255v16q0 83 -24 123t-79 40q-46 0 -72.5 -41t-26.5 -123q0 -81 27 -120t74 -39q52 0 76.5 34.5t24.5 109.5z" />
    <glyph glyph-name="uni2D27" unicode="&#x2d27;" horiz-adv-x="568" 
d="M283 -250q-72 0 -127 26.5t-85 75.5t-30 119q0 56 16 97t44 71.5t63.5 54.5t73.5 45q47 26 73.5 46t37.5 40t11 45q0 33 -19.5 52t-54.5 19q-39 0 -57.5 -20t-18.5 -55q0 -6 1 -13t2 -15h-148q-2 11 -3.5 20.5t-1.5 19.5q0 53 27.5 93t77.5 62.5t119 22.5
q73 0 123.5 -23.5t77 -66t26.5 -101.5q0 -53 -20.5 -92t-62.5 -72.5t-106 -71.5q-38 -23 -67 -44.5t-44.5 -49.5t-15.5 -71q0 -47 26.5 -73t62.5 -26q43 0 67.5 27.5t24.5 76.5q0 17 -2.5 33t-6.5 29h149q5 -17 8.5 -35.5t3.5 -39.5q0 -70 -31 -116t-85.5 -68t-128.5 -22z
" />
    <glyph glyph-name="uni2D2D" unicode="&#x2d2d;" horiz-adv-x="493" 
d="M462 0h-432v89l252 342h-238v115h409v-97l-245 -333h254v-116z" />
    <glyph glyph-name="caroncommaaccent" horiz-adv-x="482" 
d="M331 750q-10 -22 -22.5 -46.5t-27 -50.5t-31.5 -53h-89v13q5 15 9 33.5t8.5 38.5t7.5 39.5t5 35.5h140v-10z" />
    <glyph glyph-name="commaaccentrotate" horiz-adv-x="482" 
d="M323 753l-11.5 -46t-11 -52.5t-7.5 -48.5h-140v10q11 22 23 46.5t27 51t32 52.5h88v-13z" />
    </font>
</defs>
</svg>
