<?xml version="1.0" encoding="UTF-8"?>
<svg id="Layer_1" data-name="Layer 1" xmlns="http://www.w3.org/2000/svg" viewBox="0 0 355.63 178.33">
  <defs>
    <style>
      .cls-1 {
        fill: #a07b5b;
      }
    </style>
  </defs>
  <path class="cls-1" d="m352.35,72.3c-5.25-6.06-15.61-8.46-23.73-4.72-5.06,2.34-9.42,5.73-13.78,8.92-8.95,6.65-18.3,12.74-28,18.25h0c-67.12,38.66-124.25,48.76-161.21,50.22-17.92.83-35.87-.41-53.5-3.69.36-.11,1.1-.36,2.1-.74,6.25-1.04,11.91-4.3,15.94-9.19.84-.85,1.67-1.75,2.53-2.72,4.84-5.95,10.52-14.84,8.19-15-2.12-.19-4.42-3.93-6-7.11-1.1-3.34-2.86-6.44-5.17-9.09-.54-.62-1.1-1.23-1.7-1.81-.29-.29-.59-.57-.91-.83l-1.8-1.44c-5.01-4.19-9.06-9.4-11.9-15.28-.48-.99-.89-2.01-1.25-3.05,3.91-.41,7.54-.79,11.17-.83,2,0,4.56,3.22,5.39,4.51,2.16,3.37,5.42,4.36,8.55,2.17,17.25-12.05,40.69-5.54,59.85,1.68,4,1.49,7.86,3.13,11.78,4.7.64-3.72,2.31-7.19,4.83-10,2.89-3.45,6.6-6.11,10.8-7.72,5.22-2.24,10.85-3.4,16.53-3.39h-102.07c-8.91-.34-17.83.03-26.68,1.09h0c-2.05.3-4.12-.35-5.62-1.77h0c-.7-.65-1.52-1.18-2.41-1.54-8.48-3.92-26.49,8.66-37.65,17.89-1,.83-2.08,1.63-3.18,2.41l-.51.35c-.93.6-1.85,1.21-2.77,1.84-2.42,1.56-4.89,3-7.22,4.56-4.81,3.12-8.87,6.08-10.56,10.11h0l-.89,2.1,1.46.16h0c3.74.35,7.44.95,11.1,1.79,3.55.82,6.96,2.17,10.1,4.01,3.12,1.93,5.87,4.4,8.13,7.29,2.21,2.85,4.12,5.93,5.68,9.18,1.61,3.31,3,6.73,4.38,10.13.63,1.48,1.29,3,2,4.42h-.06c1.46,3.73,3.2,7.35,5.22,10.81,2.7,4.6,6.41,8.53,10.85,11.49,2.37,1.58,5.05,2.64,7.86,3.13.94.23,1.93.1,2.78-.36,1.72-1.01,2.3-3.22,1.3-4.94-.47-.82-1.25-1.41-2.16-1.65-1.16-.18-2.3-.5-3.4-.93-1.39-.63-2.7-1.4-3.93-2.3l-.15-.12c-.1-.08-.23-.17-.28-.22-.33-.27-.65-.54-1-.83-.66-.59-1.29-1.22-1.9-1.87s-1.14-1.27-1.68-1.94h0l-.31-.41c-.27-.37-.53-.74-.78-1.11-.86-1.3-1.65-2.65-2.38-4,1.1.32,2.2.63,3.31.93,8.45,2.4,17.08,4.14,25.81,5.19,8.09,1.71,24.48,6.74,43.87,21.16.2.15,1.39,1.12,3.71,2.84,2.54,1.89,8.64,6.38,12.58,0,.32-.58.81-1.43,1.44-2.49l-22.26-15.4c-1.06-.65-1.39-2.04-.74-3.09s2.04-1.39,3.09-.74c.07.04.13.09.2.14l22.19,15.31c.2-.3.41-.6.63-.91h0l.74-1.08.21-.29.5-.69.25-.33c1.14-1.52,2.37-2.98,3.67-4.37l-10.81-7.46c-1.06-.65-1.39-2.04-.74-3.09s2.04-1.39,3.09-.74c.07.04.13.09.2.14l11.52,7.89c5.97-5.4,13.09-9.39,20.81-11.67,2.55-.52,5-1.05,7.34-1.61h.06c6.25-1.47,12.15-3.1,19.27-5.23,28.76-8.78,56.45-20.72,82.57-35.62h0l.88-.51c1.87-1.06,3.74-2.14,5.61-3.23l24.08-13.87c3.4,2.29,6.14,4.41,9.17,6.09,7.72,4.29,17.12,3.84,23.24-.92,6.67-5.2,7.71-12.96,2.53-18.94ZM57.79,150.33c-.06-.07-.11-.14-.16-.21l.16.21Zm-1.7-45.73c-4.94,0-8.94-4-8.94-8.94s4-8.94,8.94-8.94,8.94,4,8.94,8.94c0,4.94-4,8.94-8.94,8.94-.02,0-.03,0-.05,0h.05Zm288.1-19.24c-5.16,4.3-11.79,2.73-19-4.37,6.53-6.73,13.55-8.69,18.43-5,3.75,2.89,4.34,6.15.52,9.37h.05Z"/>
  <path class="cls-1" d="m31.13,128.06c-.84-1.66-1.77-3.27-2.79-4.83l-.78-1.14-.41-.55-.17-.24c-.35-.47.18.23.2.26-.52-.76-1.12-1.46-1.78-2.09-.63-.71-1.29-1.37-2-2-.31-.29-.64-.55-1-.82l-.08-.06-.59-.42c-1.45-.99-2.98-1.84-4.59-2.54-3.66-1.39-7.47-2.33-11.35-2.79-1.23-.16-2.47-.31-3.71-.45-.74-.05-1.46-.28-2.08-.68,1,3.15,4.6,6.39,10.33,11.38,7.57,6.59,16,12.14,25.05,16.48-.54-1.32-1.09-2.64-1.64-3.95-.85-1.88-1.68-3.74-2.61-5.56Z"/>
  <path class="cls-1" d="m142.05,0c-9.3,0-14.16,6.4-14.16,12.73v1h5.54v-.94c0-5.07,4.44-7.8,8.62-7.8s8.23,3,8.23,9.43v3c-1.33-1.58-4.17-3.86-9.54-3.86-6.73,0-13.89,4.73-13.89,13.5s7.26,13.44,14.43,13.44,14.59-4.88,14.59-13.93v-12.2c0-6.92-4.32-14.37-13.82-14.37Zm-.77,35.53c-5.06,0-8.88-3.53-8.88-8.23,0-4.8,3.88-8.71,8.69-8.71.06,0,.13,0,.19,0,4.86-.04,8.84,3.85,8.89,8.71,0,4.7-3.82,8.23-8.89,8.23h0Z"/>
  <path class="cls-1" d="m59.14,2.37v33c.09,1.56.76,5.17,5,5.17h.51V0h-3.17c-1.3,0-2.35,1.06-2.34,2.36,0,0,0,0,0,.01Z"/>
  <path class="cls-1" d="m80.01,17.76c2.54-1.07,4.23-3.51,4.33-6.26,0-3.38-1.3-5.61-4.78-8.21-1.66-1.35-2.2-1.92-2.35-2.87l-.07-.42h-6.19v.52c.11,2.91,1.06,4.15,4.06,6.64,2.07,1.66,3.15,2.61,3.15,4.56,0,2.17-2.75,2.95-5.44,2.95-.97-.01-1.77.77-1.78,1.74,0,.03,0,.07,0,.1v2.3c.04.87.7,1.58,1.56,1.7l.68.11c4,.73,6,3,6,6.81,0,4.53-3.84,7.47-9.77,7.5h-.78v5.6h.78c9,0,16-5.61,16-12.71.09-4.49-1.94-8.16-5.4-10.06Z"/>
  <path class="cls-1" d="m105.42,0c-9.51,0-14.54,5.58-14.54,16.16v22.13c.02,1.26,1.05,2.27,2.31,2.25.06,0,.12,0,.18,0h3v-24.26c0-7.47,3-11.26,9-11.26s8.93,3.79,8.93,11.26v24.26h3.06c1.3.08,2.41-.91,2.49-2.2,0-.08,0-.16,0-.25v-21.94c.05-10.4-5.06-16.14-14.43-16.14Z"/>
  <path class="cls-1" d="m281.96,0c-9.51,0-14.54,5.58-14.54,16.16v22.13c.02,1.26,1.05,2.27,2.31,2.25.06,0,.12,0,.18,0h3.06v-24.26c0-7.47,3-11.26,9-11.26s8.94,3.79,8.94,11.26v24.26h3.06c1.28.08,2.39-.89,2.48-2.17,0-.09,0-.19,0-.28v-21.94c-.01-10.4-5.15-16.14-14.49-16.14Z"/>
  <path class="cls-1" d="m198.17,0c-6.74,0-9.37,3.6-10.32,5.69-.95-2.09-3.58-5.69-10.32-5.69-8.06,0-13.06,6.19-13.06,16.16v21.92c-.06,1.3.95,2.39,2.24,2.45.08,0,.16,0,.25,0h3.05v-24.26c0-4.19,1-11.21,7.52-11.21s7.57,7,7.57,11.21v11.27h5.55v-11.27c0-5.11,1.3-11.21,7.52-11.21,6.54,0,7.52,7,7.52,11.21v24.26h3.1c1.3.08,2.41-.91,2.49-2.2,0-.08,0-.16,0-.25v-21.94c-.05-9.95-5.06-16.14-13.11-16.14Z"/>
  <path class="cls-1" d="m248.23,13.82c-3.69-.16-7.16,1.8-8.91,5.06-1.66-3.18-4.98-5.14-8.56-5.06-2.04-.06-4.04.56-5.69,1.77,2.67-6.8,8.2-9.86,17.64-9.86h11.37V.66h-11.64c-16.4,0-23.71,7.64-23.71,24.77v12.65c-.06,1.3.95,2.39,2.24,2.45.08,0,.16,0,.25,0h3.05v-12.16c0-5.94,2.43-9.49,6.49-9.49,5.06,0,5.82,5.32,5.82,8.49v4.86h5.49v-4.86c0-2.55.56-8.49,5.77-8.49,4,0,6.54,3.62,6.54,9.43v12.22h3.06c1.3.08,2.41-.91,2.49-2.2,0-.08,0-.16,0-.25v-9.77c0-8.53-4.82-14.49-11.7-14.49Z"/>
</svg>