<svg id="Layer_1" data-name="Layer 1" xmlns="http://www.w3.org/2000/svg" viewBox="0 0 906.4 497.72"><defs><style>.cls-1{fill:none;}</style></defs><path class="cls-1" d="M498.79,17.76c-1,8.18-1.6,16.43-3,24.54-3.46,20.28-.27,39.05,10.88,56.56a438,438,0,0,1,25.26,44.46c10,20.79,24.45,38.44,41.81,53.69,7.54,6.62,15.8,6.52,21.59-.26,2.33-2.74,3.21-10.76,2.22-17.09,1.82,6.61,4.67,19,5.93,24.7,1.6,7.35-.45,11.94-6.15,15.07-5.32,2.91-10.36,2.15-15.64-2.94-15.76-15.15-30.51-31.23-41.31-50.35-13.17-23.34-25.16-47.31-40.48-69.43C490,82.37,487.12,66,489.35,48.77c1.3-10,2.75-20,4-30,0-.32.1-.64.16-1" transform="translate(-193.16 -17.76)"/><path class="cls-1" d="M574.63,239.85c-12.48-12.83-18.87-25-29.7-39C550.05,219.13,558.35,229.91,574.63,239.85Z" transform="translate(-193.16 -17.76)"/><path class="cls-1" d="M508.83,17.76c-.42,5.54-.82,11.08-1.33,16.59-1.24,13.14-4,26.21-.6,39.45,2.38,9.21,6.49,17.63,11.3,25.73,7.48,12.58,13.67,25.83,20.71,38.64a115.67,115.67,0,0,0,30.38,36.19c3.7,2.87,7.37,5.46,12.32,2.87s6.65-7,6.11-12.24c-.47-4.5-1.28-9-2-13.43-2.86-17.17.69-33.6,5.77-49.83,7.86-25,15.72-50.1,24.79-74.74a79.9,79.9,0,0,0,2.48-9.23" transform="translate(-193.16 -17.76)"/><path class="cls-1" d="M609.72,17.76c-5.13,15.42-10.64,30.7-15.35,46.23-4.5,14.79-9.82,29.35-12.4,44.71-1.66,9.93-1.33,19.72-.17,29.61a45.23,45.23,0,0,1,.44,8.84c-.77,10.4-10.53,15.1-19.26,9.41a70.82,70.82,0,0,1-22.92-24.64,468.3,468.3,0,0,1-24.2-48,58.1,58.1,0,0,1-4.61-27.06q1.37-19.55,2.76-39.12" transform="translate(-193.16 -17.76)"/><path class="cls-1" d="M523.79,17.76a117.85,117.85,0,0,1-1.29,22.9c-3.42,25.46,3.85,48.21,15.73,70.12,3.24,6,6.34,12,11,17a27.66,27.66,0,0,0,9.26,6.68c5.73,2.47,10.64.3,12.74-5.62a14.34,14.34,0,0,0,.77-6.19c-2.55-25.16,4.85-48.64,12.17-72.11,3.41-11,7.2-21.83,11-32.68a.69.69,0,0,1,0-.13" transform="translate(-193.16 -17.76)"/><path class="cls-1" d="M585.67,17.76c-2.55,8.2-5.35,16.33-7.81,24.55-5.38,18-10.75,36.05-10.32,55.18a31.43,31.43,0,0,1-1.91,11.25c-1.89,5.31-5.94,8.15-11.22,9-4.69.8-8.08-2-10.58-5.47a81.49,81.49,0,0,1-14.51-37.08c-2.68-19.12-1.22-38.3-.38-57.47" transform="translate(-193.16 -17.76)"/><path class="cls-1" d="M516.39,17.76a148.53,148.53,0,0,1-1.69,23c-3.4,22.39,1.3,42.85,12.72,62.12,6.73,11.37,11.14,24,19.17,34.7A66.49,66.49,0,0,0,565.13,155c6.83,4.14,13.93.42,14.38-7.68a61.78,61.78,0,0,0-.4-11.46c-2.2-16.42.67-32.17,5.26-47.89,6.89-23.62,15-46.83,22.78-70.16" transform="translate(-193.16 -17.76)"/><path class="cls-1" d="M521.48,17.76c-.64,9.82-1.44,19.63-1.73,29.46-.23,7.63-.69,15.28.66,22.94,3.38,19,12,35.91,21.62,52.31,3.89,6.65,9.26,12.25,17,14.77,5.49,1.79,10.06.17,13.07-4.67,2.73-4.4,2.82-9.28,2.42-14.18a108.09,108.09,0,0,1,3.18-35.72c5.49-21.79,12.45-43.12,19.81-64.33.07-.18.15-.38.24-.58" transform="translate(-193.16 -17.76)"/><path class="cls-1" d="M501.25,17.76C500,28.69,499,39.65,497.43,50.53c-2.38,16.92,2.21,32.19,10.95,46.32,9.89,16,19.27,32.26,27.75,49.06,9.76,19.35,23.66,35.65,39.92,49.92,5.05,4.44,8.93,5,13.77,2.26,5.09-2.91,7.39-7.6,5.71-13.82-5.15-19.07-6.5-38.26-.37-57.2,9.29-28.62,17.13-57.73,28.63-85.63a109.09,109.09,0,0,0,5.91-21.09c.16-.83.27-1.69.45-2.59" transform="translate(-193.16 -17.76)"/><path class="cls-1" d="M621.34,17.76c-1.86,8.81-5,17.23-8,25.67-9.65,26.86-18.93,53.84-24.93,81.81-2.39,11.12-1.1,22.15.83,33.17a64.93,64.93,0,0,1,.77,9.36c.14,5.46-2.64,9.26-7.36,11.68s-9.07,1.22-13.16-1.86C554,165.9,542.35,151,533.75,133.84c-6.32-12.63-13.13-25-20.11-37.22-8.54-15-12.5-30.78-10.11-48.12,1.38-10,1.85-20.12,2.76-30.17,0-.19,0-.38,0-.57" transform="translate(-193.16 -17.76)"/><path class="cls-1" d="M530.64,17.76c.07,5.48.22,10.91-.1,16.32-1.11,18.87-.94,37.6,4.84,55.85a80.51,80.51,0,0,0,8.57,18.4c2.52,4,5.44,8,11.2,6.73s8.52-5.45,9.15-10.78c.76-6.38.38-12.9,1.19-19.27,2.66-21.15,9-41.41,15.63-61.57.63-1.89,1.23-3.79,1.87-5.68" transform="translate(-193.16 -17.76)"/><path class="cls-1" d="M535.16,17.76c-1.35,13.38-2.33,26.79-1.65,40.23.63,12.56,2.15,25,9,36.05,4,6.38,9.64,7.11,15.39,2.27a14.76,14.76,0,0,0,4.46-7.52c1.89-6.57,1.33-13.48,2.79-20.11,3.74-17.12,8-34.13,13-50.92" transform="translate(-193.16 -17.76)"/><path class="cls-1" d="M468.87,17.76c-1.86,6.87-3.82,13.73-5.32,20.67-7.46,34.46-1.45,65.33,25.8,89.64,14.73,13.15,26.74,28.35,37.62,44.61.66,1,11.31,15.9,14.71,22.34-6.12-8.38-25.78-35.11-34.11-40.87a150.11,150.11,0,0,1-38.66-39.24c-7.09-10.33-16.34-19-23.19-29.6-4.25-6.58-4.67-12.85-1.41-19.73,4.18-8.81,8.34-17.64,12.29-26.55,3-6.88,6.27-13.72,8.52-21.27" transform="translate(-193.16 -17.76)"/><path class="cls-1" d="M471.29,17.76c-3.2,11.75-6,23.51-7.5,35.66-3.41,28.63,5.34,52.91,26.49,72,17.8,16.1,31.67,35.11,45,54.79,10.61,15.74,21.2,31.51,32.3,46.9,6.88,9.55,15,18,27.11,21.08,13.85,3.55,21.46-1.39,23.79-15.42a78.3,78.3,0,0,0,.51-23.46c-3.52-25.49,2.83-49.08,12.6-72.18,6.15-14.59,13.07-28.87,16.86-44.37C653.19,73.11,655.16,53,657.89,33q1-7.64,2.17-15.26" transform="translate(-193.16 -17.76)"/><path class="cls-1" d="M480.55,17.76c-1.9,12.51-1.49,25.29-4.61,37.69-1.13,4.53-.48,9.37.7,14,5.84,23,14.62,44.68,29.09,63.71,19.93,26.21,39.61,52.59,57.11,80.52,4.16,6.64,8.78,13.13,15.67,17.31,15.57,9.46,29.76,6.58,34.21-13.54,1.64-7.42,1.16-14.89,1.24-22.37.17-13.39-2-27,2-40.07,6.37-20.61,11.89-41.51,18.76-61.94C643,68.39,652.61,44.14,654,17.76" transform="translate(-193.16 -17.76)"/><path class="cls-1" d="M483,17.76c-.05.63-.15,1.24-.19,1.83-1,12-1.85,23.94-4.21,35.74-1.29,6.48.31,12.74,1.93,19,7.07,27.58,21.45,51.15,39,73.19,16.52,20.72,31.37,42.64,45.58,65,4.69,7.38,9.92,14.32,18.14,18.35,12.86,6.29,22.37,2.24,26.33-11.34,2.89-9.9,2.37-20.08,1.82-30.13-.95-17.62.9-34.61,7.13-51.32,7.2-19.23,10.23-39.87,18.2-58.8,8.36-19.84,12.49-40.43,14.86-61.57" transform="translate(-193.16 -17.76)"/><path class="cls-1" d="M491.09,17.76c-1.18,8-2.26,16-3.56,24-3.28,20.14-.8,39,10.29,56.73,8.85,14.14,19.45,27.23,26.33,42.6A236.75,236.75,0,0,0,544,176.57c10.26,15.3,22.68,28.7,35.82,41.47,4,3.86,8.55,6.72,14.57,5.13,9.54-2.53,14.45-10.42,11.25-20.08-7-21.23-7.6-42.53-.61-63.65,6.23-18.82,12.62-37.59,18.37-56.57,5.43-18,14.63-34.64,18.4-53.19a79.47,79.47,0,0,0,1.89-11.92" transform="translate(-193.16 -17.76)"/><path class="cls-1" d="M788,17.76c.34.53.69,1,1,1.55,14.37,21,32.17,38.93,51.38,55.44s40.71,29.26,65.81,35.07A229.1,229.1,0,0,1,960,129.53c12.51,6.48,25.53,12.17,36.33,21.56,10,8.72,13.84,19.21,9.66,32.25-2.13,6.62-3.57,13.46-5.65,20.09-3.78,12-8.56,23.61-16.19,33.75-8.06,10.7-17.88,18.13-32.6,15.2,17.89.67,27.5-10.72,35.58-24.23C994.41,216,998,202.53,1001.41,189a38.62,38.62,0,0,0,1.54-13.41c-1-10.27-7.24-17.27-14.89-23-20.64-15.42-44.12-25.16-68.28-33.45-13-4.46-26.72-6.56-39.12-12.89-30-15.33-54.28-37.58-76.22-62.66-3.32-3.79-6.22-8-10-11.4-9.43-8.62-18.94-8.85-28.4-.28-9.11,8.25-12.76,19.29-14.85,31-2.56,14.33-2.06,28.82-2.26,43.28-.25,17.22-4.31,33.45-14.17,47.86-8,11.62-13.38,24.37-17.5,37.74-4.8,15.55-.9,25.53,13,34.16,14.77,9.16,31.49,11.78,48.17,14.53,9.93,1.64,19.73,4.58,30,3,8.09-1.28,16.22-2.29,24.3-3.59,14.48-2.31,28.94-4.45,43.61-1.36,18.05,3.8,36,8,54.21,11.09a122.86,122.86,0,0,1-13.15-1.22c-16.58-2.24-33.11-4.76-49.72-6.66-18-2.06-35.33,2.39-52.84,5.44-16.87,3-33.67,8.32-51.1,2.91-3.8-1.18-7.84-1.53-11.79-2.26-16.3-3-32.73-6-47.18-14.62-18.47-11-22.68-22.65-15.72-41,6.09-16,13.53-31.27,24-45,12.59-16.62,18-35.86,17.68-56.32-.44-24.74-1.84-49.43,7-73.12" transform="translate(-193.16 -17.76)"/><path class="cls-1" d="M426.62,17.76c-8.88,22.41-16.38,44.76-6.51,69.29-7.49-10.6-12.07-22.17-15.77-34.14A44.77,44.77,0,0,1,404,27.17c.86-3.12,1.63-6.26,2.41-9.41" transform="translate(-193.16 -17.76)"/><path class="cls-1" d="M348.49,17.76c1.08,7.08.05,14-1.79,20.83s-5.91,10.6-11.5,10.11c-12.06-1.05-24.33-2.84-34.24-10C285.85,27.79,268.88,22,251.27,17.76" transform="translate(-193.16 -17.76)"/><path class="cls-1" d="M333.79,17.76c-2.16,6.64-7.68,10.83-14.85,11.42-8.64.7-16.45-2.18-24.16-5.49-4.18-1.8-8.29-3.71-12.37-5.93" transform="translate(-193.16 -17.76)"/><path class="cls-1" d="M331.21,17.76a13.61,13.61,0,0,1-11.08,8.8,29.91,29.91,0,0,1-12.89-1,105.27,105.27,0,0,1-19.43-7.75" transform="translate(-193.16 -17.76)"/><path class="cls-1" d="M568.53,17.76C564.73,34,561,50.32,557.3,66.61a24,24,0,0,1-4.29,10c-3.72,4.66-6.18,4.47-8.62-1-3.09-7-3.76-14.44-3.6-22.62,1,3.38,1.91,6.35,2.89,9.28.67,2,1.58,4.14,4,4.34,2.81.22,3.86-2.16,4.6-4.26,1.42-4.09,2-8.55,3.9-12.39a71.78,71.78,0,0,0,7.13-28.65,18,18,0,0,1,.86-3.53" transform="translate(-193.16 -17.76)"/><path class="cls-1" d="M641.46,17.76c-.89,2.81-.87,5.83-1.45,8.68-3,14.78-9.29,28.39-14.31,42.47-6.44,18-11.72,36.44-17.9,54.54-3.61,10.55-7.22,21-9,32.1-1.08,6.53-.6,16.19-1.24,22.77-4-10.1-4.84-29-1.95-42.14,4.38-19.94,12.35-38.78,17.74-58.41,5-18.14,14.19-34.86,18.08-53.38a50.61,50.61,0,0,0,1.29-6.63" transform="translate(-193.16 -17.76)"/><path class="cls-1" d="M560.92,17.76a33,33,0,0,0,0,3.32c.55,14.53-8,26.52-10.87,40.07-.23,1.05-.55,2.61-2.21,2.4-1.14-.13-1.58-1.25-2-2.23A24,24,0,0,1,544.21,48c1.83-10,2.59-20.16,3.64-30.27" transform="translate(-193.16 -17.76)"/><path class="cls-1" d="M545.65,17.76c-.3,2.1-.52,4.2-.87,6.28-1.07,6.63-.8,13.46-2.86,19.94-.76-8.82.52-17.5,1.31-26.22" transform="translate(-193.16 -17.76)"/><path class="cls-1" d="M537.4,17.76c0,2.5-.34,5-.45,7.45-1,18.77-2.62,37.57,2.62,56a49.53,49.53,0,0,0,4.49,10.55c3.47,6.24,8,8,14.18.31,2.37-2.93,2.72-6.73,3-10.39,1.82-22,8.59-42.88,14.47-64" transform="translate(-193.16 -17.76)"/><path class="cls-1" d="M540.66,17.76c-1.23,14.6-2.59,29.2-2,43.87.24,6.13,1.5,12.12,4.87,17.43,2.59,4.08,5.39,4.53,9.07,1.44,3.93-3.3,5.75-7.75,6.86-12.61,3.83-16.7,7.72-33.4,11.46-50.13" transform="translate(-193.16 -17.76)"/><path class="cls-1" d="M451.67,17.76c-.07.26-.13.53-.21.78-2,6.67-4,13.32-6.68,19.77-4.2,10.28-10.84,19.06-17,28.1-5.88,8.58-5.5,17.26-.25,26,1.23,2,16.07,16.29,17.33,18.28-12.33-7.22-18-16-19.2-18.48a73,73,0,0,1-7-40.08c1.16-10.56,6.1-19.91,9.11-29.88a45,45,0,0,0,1.23-4.45" transform="translate(-193.16 -17.76)"/><path class="cls-1" d="M948.17,202.3c.17-8.65-2.65-14.71-9-17.43-8.27-3.54-17-6.27-26.28-6.19-6.39,0-9.88,5.92-7,11.65a19.12,19.12,0,0,0,4.11,5.35c6.06,5.49,12.08,10.81,15.7,18.55,2.44,5.23,7.93,5.74,13.25,5.06,5.11-.65,6.63-4.6,7.65-8.77C947.43,207.32,947.86,204,948.17,202.3Z" transform="translate(-193.16 -17.76)"/><path class="cls-1" d="M864,211c-11.47-.73-23-1.61-34.28-3.86-18.17-3.62-24.06-11.73-22.17-30.2.59-5.71,1.37-11.42,2.38-17.07,1.8-10.09,3.09-20.38,9.12-29.15,5-7.36,11.44-12.34,21-10.43,7.17,1.43,14.36,2.87,21.35,5,31.71,9.46,63,20.21,93,34.17,9,4.19,16.92,9.64,22.5,18.07,7.56,11.42,5.34,23.22,1.45,35.11-6.25,19.14-16.66,27.23-37.46,28.33,13.39,3.2,23-1.09,30.5-10.68,9.1-11.59,13-25.27,15.11-39.52.64-4.33-.58-8.53-2.68-12.55-5.61-10.74-14.87-17.66-25.26-22.62-14.77-7-29.48-14.77-45.24-19-32-8.65-60-25-87.76-42-8.4-5.16-14.19-4.46-20.83,2.92-7,7.74-9.27,17.38-10.81,27.28-1.29,8.25-1.54,16.61-2.7,24.9-1.88,13.54-9.15,25.52-10.25,39.32-.8,10.16,1,15.75,10,20,17.73,8.32,36.88,10,56,10.14,16.43.11,32.83-.91,48.1,6.95,4,2.07,8.22,3.8,12.4,5.56,7.39,3.11,14.78,6.27,22.88,7.37-11.5-4-21.52-10.7-31.45-17.42C888.41,214.29,876.59,211.77,864,211Z" transform="translate(-193.16 -17.76)"/><path class="cls-1" d="M722.84,17.76c0,.36-.07.72-.08,1.07-.67,19.86-.91,39.75-2.21,59.57-1.65,25.25-6.53,49.48-21.67,70.95C687,166.21,681.23,186,677.05,206c-2.7,13.05,3.15,23.06,13.91,30.34,13.94,9.43,29.85,14.19,45.84,18.47S769,262.58,785,266.5c7.37,1.79,14.86,1.64,22.36,1.68,25.64.14,51.3-1.61,76.94-.33,34.15,1.7,68.35,3.88,101.16,14.46,18.09,5.83,37.92-7.09,44.75-21.17,6-12.42,9.8-25.67,15-38.41,5.63-13.85,7.6-28.55,9.45-43.23,2.17-17.12-5.25-30.84-16.05-43.17a105.48,105.48,0,0,0-45.94-30.78c-16.34-5.61-31.37-13.3-43.1-26.54-4.24-4.78-10.24-7.3-16.25-9.16C906.52,61.6,882.6,47.78,859.69,32c-6.66-4.58-13.19-9.36-19.94-14.25" transform="translate(-193.16 -17.76)"/><path class="cls-1" d="M790.9,17.76c21.33,29.64,46.71,55.06,78,74.32A129.23,129.23,0,0,0,908,107.76c29.56,6.85,56.56,19.69,82.11,35.66,19,11.84,23.16,22.81,17.37,44.23-4.76,17.63-9.91,35.14-20.82,50.36-10,14-22.88,19.64-40.24,16.89-26.32-4.15-52.78-7.4-79.22-10.76-16.9-2.15-33.26,2.06-49.7,5.08q-16.43,3-33,5.54a27.29,27.29,0,0,1-9.37-.07c-17.55-3.63-35.43-5.82-52.59-11.16-11.77-3.65-22.8-8.71-31.36-18-7.37-8-9.54-17.17-6.4-27.57a160.56,160.56,0,0,1,25-50.26c13.38-17.88,19-38,18.53-60.18-.33-17.24-1-34.54,1.87-51.67a71.46,71.46,0,0,1,5.08-18.08" transform="translate(-193.16 -17.76)"/><path class="cls-1" d="M902.18,212c-8-7.57-16.87-12.82-28.3-12.76-4.87,0-9.75-.39-14.63-.68-6.85-.41-13.45-1.79-19.55-5.18-8.58-4.76-11.86-12.94-8.17-22.11,4.81-11.95,14.4-19.07,25.94-23.57,18-7,35.91-5.56,53.56,1.52,14.87,6,28.92,13.81,44,19.33,11.78,4.3,18.22,13.08,19.87,25.3,1.19,8.87-.63,17.38-4.5,25.38-5.75,11.91-15.53,17.86-28.69,18.59a26.64,26.64,0,0,0,9,.1c11.73-2.2,18.49-10.12,22.87-20.21,6.13-14.11,10.29-28.44-1.11-42.27a41.92,41.92,0,0,0-17-12.79c-20.74-8.07-40.36-18.86-62.06-24.71-17.62-4.75-34.59-11.79-52.67-15.11-6.25-1.14-11.27.14-15.73,4.56-5.53,5.48-8.57,12.29-10.08,19.7C813,157,810.59,167,810,177c-1.23,20,3.85,24.31,21.13,27.85a165,165,0,0,0,29,3.3c17.52.42,33.11,5.45,47.27,15.8,7.4,5.4,15.54,9.78,24.72,11.88C920.17,230.34,911.46,220.82,902.18,212Z" transform="translate(-193.16 -17.76)"/><path class="cls-1" d="M844.71,230.71c-10.41,1.51-21,3.5-31.74,1.44-7.18-1.37-14.48-2.17-21.66-3.55-12.52-2.4-25-5-35.49-13-7.19-5.51-10.31-12.58-8.39-21.55,2-9.37,4.09-18.79,9-27.15a98.58,98.58,0,0,0,13.39-50.38A141.39,141.39,0,0,1,771,97.25c1.41-10.08,3.47-19.88,9.31-28.51C789.55,55.13,801.46,53.38,813,65c9.06,9,19.08,16.78,29.16,24.53,17.2,13.22,35,25.74,56.19,31.51,18.25,5,35.61,12,52.93,19.39,12.28,5.21,23.72,11.89,33.62,20.88,7.68,7,12.85,15.46,10.89,26.31-2.25,12.53-5.57,24.86-11.66,36.15-7.73,14.32-17.55,25.73-35.57,24.75,2.91.38,5.67,1.27,8.7.92,12.23-1.41,19.4-9.5,25.59-18.84,8.12-12.24,11.47-26.34,15.73-40.16,4.75-15.38.22-27-12.31-36-24.06-17.32-51-28.5-79.44-36.25-14.05-3.83-27.59-8.67-39.9-16.51a278.15,278.15,0,0,1-65.88-58.28c-3.09-3.76-6.11-7.58-10-10.68-7.42-6-14.39-6.12-21.83-.26-9,7.14-12.73,17.19-15,27.92C751,75.41,751,90.75,751.18,106.09c.15,15.63-2.93,30.57-11.23,44-8.19,13.24-15.58,26.77-20.2,41.71-4.53,14.63-1.4,23.36,11.33,31.8,10.57,7,22.61,10,34.75,12.25,19.12,3.59,38.11,7.93,57.91,3,10.9-2.72,22.37-3.66,33.64-4.31,14.78-.86,28.93,3.82,43.26,6.65,8.77,1.74,17.5,3.7,26.46,4.32-9.1-2.31-18.16-4.67-27-7.76C882.12,231.39,864,227.92,844.71,230.71Z" transform="translate(-193.16 -17.76)"/><path class="cls-1" d="M856.71,166.69c-1.85.94-3.58,2.11-5.35,3.2-8.34,5.17-8.19,9.28.53,13.91a23.57,23.57,0,0,0,4.26,1.92c5.9,1.73,14.34-3.07,14.42-8.12.21-3.08-1.88-4.95-3-7.42C863.93,164.64,862.4,163.8,856.71,166.69Z" transform="translate(-193.16 -17.76)"/><path class="cls-1" d="M943.54,177c-10.4-4.06-20.47-8.76-30.59-13.44-10.63-4.91-21.58-8.9-33.56-8.7a50.46,50.46,0,0,0-5.22,0c-12.53,1.29-23.73,5.44-32,15.47-7.1,8.63-5.13,15.42,5.52,19a51.93,51.93,0,0,0,18.09,2.16c15.61-.44,28.89,4.65,40,15.81,6.12,6.15,12.4,12.24,19.89,16.84,12.25,7.53,25.23,4,31.77-8.58C966.05,199,960.73,183.68,943.54,177ZM857,188.19c-4.1-.21-8.68-2.73-12.2-6.73-2.46-2.8-3.14-6.86-.21-9.51,4.75-4.3,10.11-8.11,16.66-9.21,3.81-.64,5.47-1.16,7.61,4.22.29.75,1.58,3,2,3.8C876.7,181.67,871.28,187.39,857,188.19Zm90,28.19c-1.84,4.45-6.3,5.65-10.82,5.54-5.81.11-10.66-2-13.1-7.13-3.1-6.49-7.8-11.37-13.19-15.85a22.22,22.22,0,0,1-6-7.14c-3.81-7.76.85-15.87,9.41-15.68,9.83.22,19.23,3,28,7.22,5.25,2.5,7.94,7.61,9.08,13.33C951.81,203.66,949.6,210.17,947,216.38Z" transform="translate(-193.16 -17.76)"/><path class="cls-1" d="M945.16,234.58c13.64-1.29,22.63-9.65,26.1-25.31,4.23-19-.62-32.56-19.9-39.74-10.32-3.84-20.21-8.54-30.14-13.24-15.11-7.16-30.68-12.45-47.88-10C857,148.53,843.23,155,834.87,170c-4.88,8.75-2.22,16.74,6.56,21.64,3.88,2.16,8.14,3,12.4,3.94,8.94,2,18.11.4,27.11,1.83,3.79.61,7.13,2.63,10.95,2.9-6.29-4.77-13.61-5.84-21.17-6.07-7.31-.23-14.72.15-21.81-2-15-4.54-17.53-14.64-6.56-25.88.24-.25.5-.49.76-.72,13.19-12.37,29.22-15.44,46.21-12.36,22.73,4.12,42.34,16.65,63.25,25.6,9.64,4.13,11.78,14,10.78,23.64-1.18,11.48-4.91,21.85-17.12,26.51a24,24,0,0,1-6.12,1.19c-9.33,1-16.29-4-23.5-8.79C924.46,229.29,933.22,235.71,945.16,234.58Z" transform="translate(-193.16 -17.76)"/><path class="cls-1" d="M865.9,221.5c-14.63.24-29.24.71-43.81-1.86-11-1.95-22.1-3.18-32.19-8.45-8-4.17-12.57-10.29-11.48-19.75.76-6.57,1.29-13.14,3.8-19.4a109.42,109.42,0,0,0,8.12-36.51,104.63,104.63,0,0,1,3.48-22.14c1.82-7,4.79-13.45,10-18.6,7.23-7.08,14-8,22.61-2.59,6.18,3.91,12.24,7.92,18.75,11.34,16.8,8.82,32.69,19.66,51.14,24.86,15.34,4.33,30,10.29,44.53,16.52,12.69,5.42,25.41,10.54,35.81,20.07,10.1,9.25,14.65,20,11.06,33.69-1.55,5.91-3,11.85-5.4,17.44-6.89,15.9-16.25,28.94-36.16,29,10.93,2,19.8-1.43,26.9-9.43,12-13.57,16.4-30.43,20.07-47.52,1.69-7.9-.87-14.76-6-20.83a53.33,53.33,0,0,0-10-9.21c-21.26-15.24-45.38-24.5-70.14-31.73-20.39-6-39.06-14.74-56.06-27.26-14.59-10.74-29.11-21.52-42-34.42-7.34-7.34-15.09-6.57-22.55.56-5.34,5.11-8.38,11.5-10.34,18.45-3.35,11.84-4,24-4.12,36.22-.17,15-3.3,29.37-10.73,42.57a113.32,113.32,0,0,0-10.15,25.64c-4.17,15.13-.85,24.15,13.55,30.09a152.31,152.31,0,0,0,66.37,11.4c16.29-.83,32.57-5,48.87-.42,10.89,3.05,21.67,6.51,32.55,9.62,5.61,1.6,11.33,2.82,17,4.21-10.53-3.95-20.69-8-30.62-12.68C888.45,225.44,877.81,221.32,865.9,221.5Z" transform="translate(-193.16 -17.76)"/><path d="M1011.81,437.42c2.12,2.51,5.44,2.88,8.13,4.41s5.68,2.65,8.52,4C1052,457,1067.22,476.11,1078.05,499c2.44,5.12,3.36,10.76,3.76,16.5h-2.45a42.47,42.47,0,0,0-3.48-16.86c-9.44-20.91-24.29-37.64-44.77-48.63-12.12-6.49-24.72-12.14-38-15.88-11.34-3.18-22.77-6.67-34.74-1.93-15,5.91-20.41,17.91-14.79,32.88a86.41,86.41,0,0,1,5.75,28c.21,7.58-1,15-2.21,22.43h-3.48c.23-1.43.48-2.83.83-4.33,3.9-16.79,3-32.94-4.62-48.73-4-8.12-.79-18.47,6.29-25.19,9.73-9.24,21.37-10.92,34-8.72,1.38.23,2.72.68,4.09.82s2.75,1.13,4.48-.42c-13.75-4.77-26.89-10.35-41-12.82-7.83-1.37-14.68,2.25-18.71,9.17-7.36,12.67-6.56,25.55-1.45,38.65,2.06,5.31,4,10.52,4.62,16.39,1.27,12.07-.48,23.67-3.2,35.18h-3.3c2.66-13.37,5.46-26.73,3.08-40.52a18.29,18.29,0,0,0-1.33-4.83c-5.46-12-8.59-24.39-4.44-37.4,3.94-12.42,12.06-22.83,29.37-18.36,1.62.42,3.26,1.36,5.59.39-4.9-1.9-9.36-3.72-13.89-5.37-9.65-3.51-19.32-7-29.55-8.45-9.59-1.39-14.6,3.34-13.42,12.54,2.09,16.22,4.87,32.27,10,47.88,4,11.93,6.83,24.08,4.41,36.9-1.1,5.85-2.84,11.52-4.4,17.22h-3.34c.93-3.64,2-7.25,2.89-10.85,1.75-7,5.06-13.86,3.56-21.35A149.42,149.42,0,0,0,910,466.15a266.86,266.86,0,0,1-11.17-51.41c-1.18-10,2.89-17.93,15.38-16.2,4,.55,7.92,1.35,11.88,2-13.9-6.66-27.91-12.81-43.33-14.44-5-.53-10.61-1-13.76,4-3.06,4.85.07,9.34,2.29,13.67.33.62.65,1.24,1,1.84a208.93,208.93,0,0,1,22.91,54.14c3.25,12.05,6.94,24.16,3.49,37-1.67,6.18-3,12.44-4.46,18.7h-3c.52-1.55,1.06-3.07,1.5-4.61,3.89-13.79,6.51-27.09,2.37-41.9-6-21.62-13.51-42.39-24.78-61.78a47.83,47.83,0,0,1-4.46-9.4c-2.18-6.89,1.52-12.65,8.66-13.83a63,63,0,0,1,7.29-.32c4.93-.22,9.57,1.94,14.52,1.82-7.62-3.94-15.69-6.6-23.76-9.24-9-2.92-18.05-5.32-27.6-5.17-4.45.08-8.94.25-11.31,4.89-2.16,4.27-.46,8,1.83,11.77,3.23,5.24,7.36,9.73,11.57,14.13,11.44,11.94,21,25.24,27,40.63,7.53,19.07,10.81,38.68,6.38,59.27-1,4.63-2.57,9.13-3.63,13.74h-2.71a43,43,0,0,1,2-7.13c5.68-14.25,4.64-28.67,2-43.21-4.23-23.54-15.82-43.23-31.9-60.57-5.45-5.88-11.2-11.51-14.74-18.88-3.68-7.67-.12-14.95,8.2-16.73,3.81-.81,7.63-.48,11.46-.22,5.73.37,11.15,2.28,16.83,3.12a4.89,4.89,0,0,0-1.94-1.55c-12.15-4.8-24.43-9.33-37.19-12.08-7.74-1.67-15.61-3.74-23.74-1.59-5.83,1.55-8.76,5.72-7.67,11.66.72,3.91,3,7,5.46,10,8,9.55,17.95,17,27.19,25.16,27.4,24.35,39.4,54.34,34.52,91.06-1,7.14-2.87,14-4.32,21h-2.27c5.4-19.78,7.36-39.82,2.43-60.25-5.51-22.87-19.85-39.92-37.37-54.7-7.19-6.08-14.41-12.12-20.72-19.16a37.2,37.2,0,0,1-5.5-7.6c-5.15-9.92-.51-18.87,10.62-20,7.9-.8,15.64.57,23.3,2.42,20.25,4.87,39.17,13.45,58.58,20.7,41.27,15.4,82.47,31,126.7,36.42,26.88,3.31,52.84,10.92,78.21,20.44a10.27,10.27,0,0,1,2,.71c.93.59,2.87.59,2.29,2.25-.64,1.85-2.17.42-3,.12-8.6-2.86-17.11-6-25.71-8.83-22.24-7.36-45.33-10.89-68.32-14.87-14.91-2.57-29.75-5.47-44.49-9,6.44,3.46,13.49,5.18,20.48,7,22.94,5.88,46.54,8.61,69.48,14.54,17.11,4.44,33.37,11.14,49.65,17.8,1.18.49,2.7.95,1.88,2.43s-2.23.1-3.19-.3c-11.72-5-23.56-9.58-35.63-13.62-19.56-6.56-40-9.46-60.07-13.58-8.7-1.78-17.33-3.85-26-5.8a31.75,31.75,0,0,0-5.54-.95,126.45,126.45,0,0,0,32.29,9.78c33.16,5.87,65.05,15.38,94.81,31.39,1.4.75,3.6.73,3.46,4.11-18.57-8.23-36.13-18.21-55.59-23.13s-38.92-9-58.52-13.07c7.62,4.14,16,6.29,24.27,7.92a222.22,222.22,0,0,1,78,31.41c3.8,2.42,7.78,4.55,11.65,6.86.19.11.12.64.38,2.23-16.88-8.18-31.72-18.71-48.35-25.74s-34.64-10-52.14-14.35c5.43,3.56,11.63,5.21,17.7,6.73,21.39,5.35,40.1,15.64,57.36,29.11,6.62,5.16,13.18,10.28,18.6,16.7a27.9,27.9,0,0,1,6.8,15.59C1078.07,464.3,1047.67,446.88,1011.81,437.42Z" transform="translate(-193.16 -17.76)"/><line class="cls-1" x1="261.07" x2="258.52"/><line class="cls-1" x1="213.24" x2="210.6"/><path d="M809.16,455.49c-1.47,20.71-9.39,39.86-13.31,59.94,0,0,0,0,0,.05h-2.73c1.54-8.1,3.85-16,6-24,3.41-12.6,6.88-25.16,7.81-38.3,1.53-21.75-7.26-38.1-25.34-49.86-11.45-7.44-23.81-13.13-36.28-18.51-20.06-8.66-35.29-23.26-50.07-38.74-23.9-25-50.59-46.29-83.2-59.33-13.69-5.47-24.85-14.53-34.16-26a186.35,186.35,0,0,0-14.6-15.68c-8.64-8.49-16.6-17.48-21.58-28.64-5.8-13-14.71-23.58-25-33.12C498,166,481.48,146.61,464.77,127.42A62.31,62.31,0,0,0,450,115c11.87,12.27,21.66,26.2,32,39.7,9.68,12.64,20,24.56,32.66,34.38a61.25,61.25,0,0,1,16.06,19.06,222.08,222.08,0,0,0,23.16,33.49,269.11,269.11,0,0,0,64.7,57.28C635,309.3,650.23,321,663.22,335.56c16,17.93,36.25,30.37,56,43.42,13.09,8.64,25.87,17.67,37.3,28.52,25.7,24.41,36.4,53.71,29.68,88.88-1.21,6.35-2.31,12.72-3.42,19.1H779.9c2.3-10.23,5.15-20.37,5.76-30.88,1.44-24.85-5.5-47-22-66-13.29-15.35-29.51-27.09-46.42-37.9C693.53,365.51,671,349,652.16,327.8c-9.89-11.13-22.73-18.89-35.19-27-37.81-24.49-68.46-55.85-90.75-95.14a43.94,43.94,0,0,0-11.58-13.35c-17.19-13-30.07-29.93-42.87-46.93C460.67,130.66,449.41,116,433.24,106c3,4,6.13,7.91,9.1,11.93s5.86,8.23,8.83,12.33A322.14,322.14,0,0,0,496,180.39c11.4,10.34,19.35,23.74,29.21,35.48,14.11,16.81,26.42,35,40.79,51.66a124.49,124.49,0,0,0,12.88,13c10.48,9,19.61,19.28,28.48,29.84a61.41,61.41,0,0,0,16.81,13.93,131.54,131.54,0,0,1,27,20.45c19.44,19.13,41,35.62,62.4,52.44,17.21,13.57,32.52,29,42.17,49.15a86.85,86.85,0,0,1,8.89,42c-.43,9-.12,18.18-1.49,27.17h-2.79c1.23-9.75,2.39-19.51,2.21-29.36-.52-27.61-12.16-50.35-31.25-69.68a234.86,234.86,0,0,0-30.1-25.9c-19-13.7-36.17-29.53-53.3-45.43a152.49,152.49,0,0,0-26.87-19.86A52,52,0,0,1,607,313.69c-10.45-12.67-22-24.17-34-35.37-14.19-13.24-25-29.45-36.87-44.72-19.54-25.18-39.32-50.1-62.56-72.17-13.27-12.6-23.21-28.23-34-43-9-12.35-19.68-23.52-26.67-37.35a144,144,0,0,1-12.24-32.7c-2.41-10.48.36-20.57,3.09-30.61h2.65c-.78,3.15-1.55,6.29-2.41,9.41a44.77,44.77,0,0,0,.35,25.74c3.7,12,8.28,23.54,15.77,34.14-9.87-24.53-2.37-46.88,6.51-69.29h2.31a45,45,0,0,1-1.23,4.45c-3,10-7.95,19.32-9.11,29.88a72.9,72.9,0,0,0,7,40.08c1.18,2.48,6.87,11.26,19.2,18.48-1.26-2-16.1-16.26-17.33-18.28-5.25-8.7-5.63-17.38.25-26,6.21-9,12.85-17.82,17-28.1,2.64-6.45,4.67-13.1,6.68-19.77.08-.25.14-.52.21-.78h2.56a.06.06,0,0,0,0,0c-4.32,16.3-10.64,31.62-21.1,45.11-10.31,13.32-9.56,23.6,2.23,35.64a94.22,94.22,0,0,0,10.95,9.7,170.5,170.5,0,0,1,32.59,31.53c14.55,18.59,32.38,34.1,48.62,51.11,5.22,5.47,10,11.3,13.06,18.17,6.5,14.61,16.17,26.72,27.67,37.65a136.81,136.81,0,0,1,12.25,13.54,84.46,84.46,0,0,0,34.67,25.38c27.82,11.25,51.28,28.71,72.5,49.5,7.85,7.69,15.64,15.43,23.24,23.34,10.44,10.9,23.12,18.33,36.68,24.6,13.11,6.07,26.39,11.88,38.28,20.3C803.94,416.17,810.69,433.74,809.16,455.49Z" transform="translate(-193.16 -17.76)"/><line class="cls-1" x1="235.77" x2="233.47"/><path d="M1098.46,410.25c-.63,1.68-2.51.14-3.66-.26a194.52,194.52,0,0,0-41.76-9.18c-20.62-2.22-41.17-4.84-61.61-8.37-30-5.18-58.73-14.55-86.95-25.76-37.21-14.79-73.44-32.31-112.19-42.92-26.21-7.19-52.42-14.25-78.22-22.74-9.11-3-18.21-6-27.36-8.81a36.27,36.27,0,0,0-7.69-1.38c-3.11-.25-5.86.66-7.63,3.52-1.91,3.09.14,5.42,1.7,7.58,7.57,10.5,16.88,19.47,26,28.6,19.34,19.42,41.73,34.69,65.22,48.58,15.16,9,29.74,18.75,42,31.7,19,20.11,24,44.09,20.67,70.6-1.47,11.6-4.34,22.88-7.59,34.07h-2.93c.78-3.24,1.69-6.46,2.36-9.72,2.65-12.77,6.15-25.41,6.62-38.54.93-26-10.35-46.33-29.45-63-16-14-34.76-23.78-52.52-35.09-26.11-16.64-48.46-37.51-68.61-60.85a46.58,46.58,0,0,1-4.83-6.81c-3.68-6.22-.77-11.92,6.51-12.78,5.87-.69,11.49.84,16.91,2.7,29.34,10,58.8,19.55,88.93,27,29.51,7.32,57.56,18.89,85.56,30.57,28.29,11.81,56.5,23.86,86.06,32.3,22.13,6.32,44.77,10,67.56,13.26,21.51,3.06,43.44,3.63,64.42,10.15,3.15,1,6.35,1.88,9.46,3C1096.69,408.15,1099.29,408,1098.46,410.25Z" transform="translate(-193.16 -17.76)"/><path d="M668.56,515.48c.24-1.43.46-2.86.66-4.3,1-7.26,2.1-14.53-1.76-21.41-5.7-10.16-11.3-20.33-19.52-28.85q-12.72-13.16-24.38-27.29c-15.23-18.41-26.48-38.71-31.32-62.34-2-9.87-3.88-19.84-8.21-29.08-5.9-12.57-15.77-22-25-32-15.73-17-35.26-29.95-50.38-47.83-16-18.86-36.22-33.65-52.62-52.31-19.32-22-40.37-42.42-58.71-65.3-14.09-17.56-28.78-34.53-46.25-48.92-27.56-22.71-56.16-43.95-89.91-56.49-20.35-7.56-41-14.3-61.5-21.6h-6.52c11.61,4,22.89,8.9,34.46,12.93,13.64,4.75,27.89,7.82,41,14.14,45.49,22,85.49,51.22,117.64,90.38,28,34.12,58.08,66.35,88.87,97.93,12.15,12.47,26,23.25,37.27,36.63a140.66,140.66,0,0,0,21,20.35c14.08,11,26.39,23.76,38,37.27a71.21,71.21,0,0,1,15.65,32c3.54,16.32,7.26,32.57,15.38,47.48,10.88,20,25.63,36.9,41.44,52.93,9.26,9.42,15.29,20.8,21.83,31.92,2.52,4.32,2.6,9.33,1.81,14.26-.49,3.17-1.1,6.31-1.55,9.48Z" transform="translate(-193.16 -17.76)"/><path d="M1098.51,422.39c-.78,2-2.52.23-3.5-.13-38.49-13.74-78.84-18.94-118.79-26a324.2,324.2,0,0,1-63.83-17.72c-32.23-12.81-65.15-23.7-97.76-35.44q-34.43-12.39-68.31-26.19c-5.78-2.36-11.73-4.52-18.15-4.53-5.13,0-6.61,2-4.86,6.92,3.75,10.56,11.39,18.22,19.42,25.52,10,9.07,21.77,15.68,32.7,23.46,27.21,19.38,49.63,43.28,65.6,72.67,8.61,15.85,10.35,33.08,5.57,50.72-2.15,7.92-4.24,15.87-6.33,23.81h-2.53c1.41-6.12,2.81-12.26,4.63-18.26,8.55-28.12,1.77-52.75-16-75.34-19.21-24.48-41-45.88-67.83-62.15-13.63-8.28-25.69-18.64-34.24-32.45a34.56,34.56,0,0,1-3.34-7.06c-2.43-7.13,1.53-11.63,9.1-10.4a96.28,96.28,0,0,1,22,6.57c36.59,15.51,74.27,28.08,111.65,41.5,19.68,7.06,39.21,14.56,58.83,21.78,26.3,9.69,53.79,14.39,81.31,18.81,30.48,4.91,60.72,10.72,90,20.86a9.85,9.85,0,0,1,2,.64C1096.88,420.63,1099.25,420.45,1098.51,422.39Z" transform="translate(-193.16 -17.76)"/><path d="M745.75,515.48H743.3a136.26,136.26,0,0,0-2.16-29.88c-2.82-15.84-10.51-29.47-19.85-42.19C705.17,421.49,685.55,403,664.42,386c-21.4-17.2-41.52-35.57-57.77-58-8.92-12.32-20.69-22.12-31.82-32.45-22.45-20.87-42.46-43.94-58-70.35-12.25-20.83-28-38.05-46.53-53.14-20.19-16.47-36.49-35.69-45.46-60.7-5.11-14.28-15.33-24.28-29.57-30a62.26,62.26,0,0,1-8.36-4.3c-12.68-7.59-16.56-17.43-13.16-31.95,2.19-9.41,6.11-18.21,9.17-27.31h2.6q-4,11.47-8.12,22.89a43.42,43.42,0,0,0-2.12,10.74c-.9,9.5,2.28,17.17,10.75,22.09,5.58,3.23,11.21,6.38,17,9.19,10.59,5.15,17.41,13.67,22.37,24,7.23,15,12.79,30.94,24.9,43.24a296.61,296.61,0,0,0,24.06,22.47c18.38,14.87,33.11,32.49,45.33,52.83,15.39,25.63,34.71,48.43,56.84,68.63,15,13.66,29.05,28,41.27,44.27,14.48,19.26,33.51,33.89,52,49.1,21.72,17.93,41.79,37.45,57.78,60.85a101.93,101.93,0,0,1,18,54.79C745.68,507.08,745.94,511.29,745.75,515.48Z" transform="translate(-193.16 -17.76)"/><line class="cls-1" x1="169.01" x2="166.52"/><path d="M701.32,515.48c1.51-4,2.93-8,2.81-12.44-.47-16-8-29-17.71-40.89-21.73-26.58-42.94-53.57-65.56-79.41a74.6,74.6,0,0,1-16.75-32.68c-1.86-8-5.89-14.63-11.62-20.63-30.74-32.09-62.28-63.39-93.58-94.91-31-31.19-59.64-64.47-83.53-101.6-9-13.93-21.74-24.46-33.84-35.44-16.61-15.06-24.76-33.29-23.47-55.66q.66-11.74,1.56-23.46c0-.2,0-.4,0-.6h2.5c-.05.33-.11.65-.13,1-1,11.1-2,22.19-1.26,33.39,1,14.9,6.22,28.08,17.31,38.05,21.9,19.7,39.91,42.44,57.06,66.33,26.57,37,57.74,70.2,90.91,101.49,25,23.57,47.86,49.25,71.84,73.82A28.9,28.9,0,0,1,605.41,346c3.8,17.64,13.57,31.78,25.35,44.93C653.21,416,674,442.39,694.45,469.09c8,10.46,13.22,22.8,12.27,36.77a29.49,29.49,0,0,1-2.65,9.62Z" transform="translate(-193.16 -17.76)"/><path d="M1068.78,515.48h-2.47a25.23,25.23,0,0,0-3.8-12.39c-3.68-6.23-6.11-13.1-10.41-19.16-9.57-13.45-22.36-22.68-36.76-30.1-10.58-5.46-21.39-10.2-33.49-10.89-8.45-.49-15.82,2-21.5,8.52-4.06,4.65-5.36,9.88-3.48,16C961,480.72,966.94,493.38,970,507a52.46,52.46,0,0,1,1.2,8.44h-2.53c-1.5-14.74-7.71-28.24-12.72-42.07-6.3-17.36,3.48-31.89,22.15-33,10.93-.64,21,2.95,30.7,7.35,18.49,8.36,35.39,19.08,46.29,36.84C1061,494.33,1067.91,503.89,1068.78,515.48Z" transform="translate(-193.16 -17.76)"/><path d="M1055.26,515.48h-2.2a29.06,29.06,0,0,0-4-14.09c-10-18-23.86-32.49-42.58-41.72-7.84-3.87-16.12-5.56-24.78-2.66-7.56,2.53-11.12,7.87-10.75,15.84a35.76,35.76,0,0,0,6.76,20c5.23,7,7,14.5,6.94,22.63h-2.52c.16-7.46-1.16-14.61-6.33-21.17-5.77-7.35-7.92-16.06-7.5-25.42.27-5.94,7.08-13,14.41-14.84a33.16,33.16,0,0,1,20.5,1.6c13,5,23.6,13.27,32.52,23.76,7.1,8.35,14.13,16.77,18.24,27.15A22.34,22.34,0,0,1,1055.26,515.48Z" transform="translate(-193.16 -17.76)"/><path d="M1042.11,515.48h-2.32c-.32-9-4.56-16.89-10.08-24.4A185.69,185.69,0,0,0,1017.62,476c-5.33-5.84-12-8.24-19.61-8.09-4.93.1-9.45,1.63-11.78,6.4a12.87,12.87,0,0,0,1.82,14.32c7.27,8.14,10.27,17,9.46,26.83h-2.74c0-10.16-3.74-19.31-9.85-28.14-6.7-9.7-1.77-19.86,10-21.57,8.47-1.24,16.26.6,22.41,7.22,9,9.74,17.33,19.9,22.82,32.25A23.62,23.62,0,0,1,1042.11,515.48Z" transform="translate(-193.16 -17.76)"/><path d="M1029.53,515.48h-2.88c.57-13.29-6.5-24-15.27-34.06-2.59-2.95-6.07-3.28-9.43-.76-3.57,2.68-2.46,5.82-.55,8.76,3.32,5.14,6.7,10.25,8.66,16.08a40.92,40.92,0,0,1,2,10h-2.63c-.53-5.55-3.1-10.67-5.53-15.78-1.48-3.13-3.67-5.89-5.35-8.92-2.64-4.8-2.14-9.43,1.7-12.17s8.2-2.34,12,.72c7.7,6.23,11.39,15.12,15.37,23.79A25.41,25.41,0,0,1,1029.53,515.48Z" transform="translate(-193.16 -17.76)"/><path d="M948.59,248.49a19.07,19.07,0,0,0-2.16-.17C947.17,248.4,947.89,248.45,948.59,248.49Z" transform="translate(-193.16 -17.76)"/><path d="M990.11,143.42c-25.55-16-52.55-28.81-82.11-35.66a129.23,129.23,0,0,1-39.13-15.68c-31.26-19.26-56.64-44.68-78-74.32H788c.34.53.69,1,1,1.55,14.37,21,32.17,38.93,51.38,55.44s40.71,29.26,65.81,35.07A229.1,229.1,0,0,1,960,129.53c12.51,6.48,25.53,12.17,36.33,21.56,10,8.72,13.84,19.21,9.66,32.25-2.13,6.62-3.57,13.46-5.65,20.09-3.78,12-8.56,23.61-16.19,33.75-8.06,10.7-17.88,18.13-32.6,15.2,17.89.67,27.5-10.72,35.58-24.23C994.41,216,998,202.53,1001.41,189a38.62,38.62,0,0,0,1.54-13.41c-1-10.27-7.24-17.27-14.89-23-20.64-15.42-44.12-25.16-68.28-33.45-13-4.46-26.72-6.56-39.12-12.89-30-15.33-54.28-37.58-76.22-62.66-3.32-3.79-6.22-8-10-11.4-9.43-8.62-18.94-8.85-28.4-.28-9.11,8.25-12.76,19.29-14.85,31-2.56,14.33-2.06,28.82-2.26,43.28-.25,17.22-4.31,33.45-14.17,47.86-8,11.62-13.38,24.37-17.5,37.74-4.8,15.55-.9,25.53,13,34.16,14.77,9.16,31.49,11.78,48.17,14.53,9.93,1.64,19.73,4.58,30,3,8.09-1.28,16.22-2.29,24.3-3.59,14.48-2.31,28.94-4.45,43.61-1.36,18.05,3.8,36,8,54.21,11.09a122.86,122.86,0,0,1-13.15-1.22c-16.58-2.24-33.11-4.76-49.72-6.66-18-2.06-35.33,2.39-52.84,5.44-16.87,3-33.67,8.32-51.1,2.91-3.8-1.18-7.84-1.53-11.79-2.26-16.3-3-32.73-6-47.18-14.62-18.47-11-22.68-22.65-15.72-41,6.09-16,13.53-31.27,24-45,12.59-16.62,18-35.86,17.68-56.32-.44-24.74-1.84-49.43,7-73.12h-2.52a71.46,71.46,0,0,0-5.08,18.08C727.23,53,728,70.27,728.28,87.51c.43,22.18-5.15,42.3-18.53,60.18a160.56,160.56,0,0,0-25,50.26c-3.14,10.4-1,19.56,6.4,27.57,8.56,9.3,19.59,14.36,31.36,18,17.16,5.34,35,7.53,52.59,11.16a27.29,27.29,0,0,0,9.37.07q16.54-2.52,33-5.54c16.44-3,32.8-7.23,49.7-5.08,26.44,3.36,52.9,6.61,79.22,10.76,17.36,2.75,30.2-2.9,40.24-16.89,10.91-15.22,16.06-32.73,20.82-50.36C1013.27,166.23,1009.07,155.26,990.11,143.42Zm-82.67,80.49c-14.17-10.33-29.76-15.37-47.27-15.79a165.93,165.93,0,0,1-29.06-3.3C813.82,201.28,808.75,197,810,177c.61-10,3-19.95,5-29.84,1.5-7.41,4.54-14.22,10.07-19.7,4.46-4.43,9.48-5.71,15.73-4.56,18.08,3.32,35.05,10.36,52.67,15.11,21.7,5.86,41.31,16.64,62.06,24.71a41.83,41.83,0,0,1,17,12.79c11.4,13.83,7.24,28.16,1.11,42.27-4.39,10.1-11.15,18-22.87,20.2a26.38,26.38,0,0,1-9-.09c13.16-.73,22.93-6.68,28.69-18.59,3.87-8,5.69-16.5,4.5-25.38-1.66-12.22-8.1-21-19.87-25.31-15.09-5.51-29.14-13.35-44-19.32-17.65-7.08-35.57-8.54-53.56-1.52-11.54,4.51-21.13,11.62-25.94,23.57-3.69,9.16-.41,17.35,8.17,22.11,6.1,3.39,12.7,4.76,19.56,5.18,4.87.29,9.75.71,14.62.67,11.43-.05,20.31,5.2,28.3,12.76,9.27,8.79,18,18.3,30,23.77C923,233.7,914.83,229.32,907.44,223.91Zm32.67,6.3a22.75,22.75,0,0,0,6.12-1.2c12.21-4.64,15.94-15,17.12-26.51,1-9.66-1.14-19.5-10.77-23.63-20.92-8.94-40.53-21.47-63.25-25.6-17-3.08-33,0-46.22,12.36-.26.24-.51.47-.76.72-11,11.24-8.48,21.34,6.56,25.89,7.09,2.14,14.5,1.75,21.82,2,7.55.23,14.87,1.3,21.16,6.07-3.82-.27-7.16-2.3-10.95-2.89-9-1.44-18.17.18-27.12-1.84-4.25-.95-8.51-1.78-12.39-3.94-8.77-4.91-11.44-12.89-6.56-21.64,8.35-15,22.12-21.45,38.48-23.74,17.19-2.4,32.77,2.88,47.87,10,9.92,4.71,19.82,9.41,30.14,13.25,19.28,7.18,24.13,20.71,19.9,39.74-3.47,15.66-12.46,24-26.1,25.32-11.94,1.12-20.71-5.31-28.55-13.17C923.81,226.19,930.78,231.17,940.11,230.21Zm-34.33-22.94c-11.13-11.16-24.41-16.25-40-15.81a51.93,51.93,0,0,1-18.09-2.16c-10.65-3.54-12.62-10.33-5.52-19,8.29-10,19.49-14.18,32-15.47a50.46,50.46,0,0,1,5.22,0c12-.2,22.93,3.79,33.56,8.7,10.12,4.68,20.19,9.38,30.59,13.44,17.19,6.7,22.51,22,13.9,38.55-6.54,12.61-19.52,16.11-31.77,8.58C918.18,219.51,911.9,213.42,905.78,207.27Zm72.65,5.31c3.89-11.9,6.1-23.71-1.46-35.13-5.56-8.42-13.47-13.87-22.49-18.06-30.07-14-61.31-24.72-93-34.16-7-2.09-14.19-3.53-21.35-5-9.58-1.91-16,3.07-21,10.43-6,8.77-7.32,19.06-9.12,29.15q-1.5,8.47-2.38,17.07c-1.89,18.46,4,26.58,22.17,30.2,11.3,2.25,22.81,3.13,34.28,3.86,12.58.79,24.39,3.31,35.05,10.51,9.93,6.71,19.95,13.38,31.44,17.42-8.09-1.1-15.48-4.26-22.87-7.37-4.18-1.76-8.38-3.49-12.41-5.56-15.25-7.86-31.65-6.84-48.09-6.95-19.17-.14-38.32-1.82-56-10.14-9.09-4.26-10.84-9.86-10-20,1.09-13.8,8.35-25.78,10.24-39.32,1.16-8.29,1.41-16.65,2.7-24.9,1.54-9.9,3.84-19.54,10.81-27.28,6.64-7.38,12.43-8.09,20.83-2.92,27.78,17.07,55.8,33.38,87.76,42,15.76,4.27,30.47,12,45.24,19,10.4,5,19.65,11.88,25.27,22.62,2.09,4,3.31,8.22,2.67,12.56-2.12,14.24-6,27.92-15.11,39.52-7.52,9.58-17.1,13.88-30.5,10.67C961.77,239.8,972.17,231.72,978.43,212.58Zm-32.22,32.51c19.9,0,29.27-13.07,36.16-29,2.43-5.58,3.85-11.53,5.39-17.43,3.6-13.7-1-24.44-11-33.69-10.4-9.53-23.12-14.66-35.8-20.08-14.59-6.23-29.21-12.2-44.54-16.52-18.45-5.2-34.35-16-51.14-24.86-6.5-3.42-12.57-7.43-18.75-11.33-8.57-5.42-15.38-4.5-22.61,2.58-5.26,5.16-8.23,11.59-10,18.6a104.73,104.73,0,0,0-3.48,22.14,109.31,109.31,0,0,1-8.12,36.5c-2.52,6.26-3,12.84-3.79,19.4-1.11,9.47,3.49,15.59,11.47,19.76,10.08,5.27,21.19,6.51,32.19,8.45,14.57,2.58,29.19,2.09,43.81,1.86,11.9-.19,22.55,3.93,33,8.85C908.84,235,919,239.08,929.53,243c-5.67-1.38-11.39-2.61-17-4.22-10.87-3.1-21.65-6.56-32.54-9.61-16.3-4.56-32.58-.41-48.87.42a152.46,152.46,0,0,1-66.37-11.4c-14.41-5.93-17.72-15-13.55-30.08a113.58,113.58,0,0,1,10.15-25.65c7.43-13.2,10.56-27.52,10.73-42.57.14-12.21.78-24.38,4.11-36.23,2-6.94,5-13.32,10.35-18.44,7.47-7.13,15.2-7.91,22.54-.55,12.89,12.88,27.4,23.67,42,34.41,17,12.52,35.67,21.29,56.06,27.26,24.76,7.23,48.87,16.49,70.14,31.73a53.93,53.93,0,0,1,10,9.2c5.08,6.08,7.65,12.93,5.95,20.84-3.65,17.09-8,34-20.06,47.52C966,243.66,957.14,247.1,946.21,245.09Zm.22,3.23a16.87,16.87,0,0,1,2.16.17c18,1,27.84-10.43,35.57-24.75,6.09-11.3,9.4-23.62,11.67-36.15,1.95-10.85-3.22-19.33-10.91-26.31-9.9-9-21.33-15.67-33.61-20.88C934,133.06,916.63,126,898.38,121c-21.21-5.77-39-18.28-56.19-31.51C832.11,81.75,822.09,74,813,65c-11.58-11.59-23.49-9.84-32.71,3.77-5.85,8.63-7.89,18.44-9.31,28.51a144.78,144.78,0,0,0-1.25,19.27A98.44,98.44,0,0,1,756.4,166.9c-4.88,8.36-7,17.78-9,27.15-1.92,9,1.21,16,8.39,21.55,10.48,8,23,10.6,35.49,13,7.18,1.37,14.47,2.18,21.65,3.56,10.72,2,21.34.06,31.75-1.45,19.3-2.79,37.41.68,55.41,7,8.82,3.08,17.89,5.44,27,7.76-9-.62-17.68-2.59-26.46-4.32-14.33-2.83-28.48-7.51-43.26-6.66-11.27.66-22.74,1.6-33.64,4.32-19.8,5-38.79.61-57.91-3-12.14-2.27-24.18-5.23-34.76-12.24-12.72-8.43-15.85-17.17-11.32-31.8,4.61-14.94,12-28.47,20.2-41.7,8.3-13.4,11.38-28.34,11.23-44C751,90.74,751,75.41,754.27,60.3c2.3-10.72,6-20.78,15-27.92,7.44-5.86,14.41-5.73,21.82.26,3.84,3.11,6.87,6.92,10,10.69A278,278,0,0,0,867,101.59c12.31,7.85,25.85,12.69,39.9,16.53,28.43,7.75,55.38,18.92,79.45,36.25,12.53,9,17.06,20.66,12.31,36-4.27,13.82-7.62,27.93-15.74,40.16-6.19,9.33-13.36,17.43-25.6,18.83-3,.36-5.78-.53-8.69-.91C947.89,248.45,947.17,248.4,946.43,248.32Z" transform="translate(-193.16 -17.76)"/><line class="cls-1" x1="271.97" x2="269.41"/><path d="M667.85,17.76c-.23,1.34-.37,2.79-.46,3.88-1.44,16.46-1.6,33-4,49.42C660.56,91,657,110.6,648.1,128.82c-14.89,30.48-20.63,63-22.31,96.51A77.52,77.52,0,0,0,631.6,260a40.24,40.24,0,0,1,2.24,8.56c1.31,7.27-.78,9-7.79,6.71a13.35,13.35,0,0,1-2.4-1c-12.7-7.16-23.22-17.42-35.87-24.75a32,32,0,0,1,6.67,1.34c14,3.56,22.21-1.15,25.78-15.15,2.28-8.89,1.7-18,1.35-27-.31-8-1.84-15.89-.94-24,1.93-17.56,7.63-34,14.66-49.93,8.11-18.38,15.76-36.86,18.74-56.85s5.67-40.07,8.43-60.12h-2.41Q658.94,25.4,657.89,33c-2.73,20-4.7,40.09-9.49,59.78-3.79,15.5-10.71,29.78-16.86,44.37-9.77,23.1-16.12,46.69-12.6,72.18a78.3,78.3,0,0,1-.51,23.46c-2.33,14-9.94,19-23.79,15.42-12.11-3.1-20.23-11.53-27.11-21.08-11.1-15.39-21.69-31.16-32.3-46.9-13.28-19.68-27.15-38.69-45-54.79-21.15-19.13-29.9-43.41-26.49-72,1.46-12.15,4.3-23.91,7.5-35.66h-2.42c-1.86,6.87-3.82,13.73-5.32,20.67-7.46,34.46-1.45,65.33,25.8,89.64,14.73,13.15,26.74,28.35,37.62,44.61.66,1,11.31,15.9,14.71,22.34-6.12-8.38-25.78-35.11-34.11-40.87a150.11,150.11,0,0,1-38.66-39.24c-7.09-10.33-16.34-19-23.19-29.6-4.25-6.58-4.67-12.85-1.41-19.73,4.18-8.81,8.34-17.64,12.29-26.55,3-6.88,6.27-13.72,8.52-21.27h-2.55c-5.46,15.66-12.65,30.58-19.87,45.44-4.53,9.28-4,17.3,2.16,25.29,2,2.61,3.78,5.44,5.89,8,8.42,10.21,16.93,20.34,24.68,31.11a103.71,103.71,0,0,0,24.68,23.93c19.17,13.56,33,32,42.51,52.76a99.33,99.33,0,0,0,34.58,41.38c12.87,9,26.49,16.83,38.64,26.85a26.27,26.27,0,0,0,13.71,6.06c4.82.57,7.31-1.65,7.29-6.52a27.94,27.94,0,0,0-2.35-11.71c-5.49-11.7-6.75-23.94-6.06-36.68,1.46-26.56,5-52.68,15-77.56,4.51-11.31,9.74-22.36,13.92-33.79,7.43-20.32,8.3-41.92,11.15-63.09,1.24-9.28.94-18.78,1.18-28.18a10.22,10.22,0,0,1,1.05-3.28ZM544.93,200.89c10.83,14,17.23,26.13,29.7,39C558.35,229.91,550,219.13,544.93,200.89Z" transform="translate(-193.16 -17.76)"/><line class="cls-1" x1="278.13" x2="275.71"/><path d="M1055.56,191.73c-3.51,24.44-13.31,46.75-22.59,69.25-5.33,12.92-16.36,19.46-28.44,24.57-5.22,2.21-10.77,1.23-16-.28-31.68-9.21-64.19-12.44-97-14.7-23.06-1.59-46.06-.58-69,.22-20.82.73-40.93-2.05-61-7.21-21.26-5.48-42.76-10-62.69-19.7A70.57,70.57,0,0,1,685,234.69c-10.38-8.55-12.53-19.87-9.68-32.18,4.45-19.21,10-38.28,21.53-54.53,16.77-23.67,20.56-50.57,21.68-78.31.69-17.31.35-34.65,2.09-51.91h2.26c0,.36-.07.72-.08,1.07-.67,19.86-.91,39.75-2.21,59.57-1.65,25.25-6.53,49.48-21.67,70.95C687,166.21,681.23,186,677.05,206c-2.7,13.05,3.15,23.06,13.91,30.34,13.94,9.43,29.85,14.19,45.84,18.47S769,262.58,785,266.5c7.37,1.79,14.86,1.64,22.36,1.68,25.64.14,51.3-1.61,76.94-.33,34.15,1.7,68.35,3.88,101.16,14.46,18.09,5.83,37.92-7.09,44.75-21.17,6-12.42,9.8-25.67,15-38.41,5.63-13.85,7.59-28.55,9.45-43.23,2.17-17.12-5.25-30.84-16.05-43.17a105.48,105.48,0,0,0-45.94-30.78c-16.34-5.61-31.37-13.3-43.1-26.54-4.24-4.78-10.24-7.3-16.25-9.16C906.52,61.6,882.6,47.78,859.69,32c-6.66-4.58-13.19-9.36-19.94-14.25h4.12c20.22,14.82,40.91,28.86,63.73,39.5A260.18,260.18,0,0,0,935.36,68c6.91,2.3,13.28,5.67,18,11.23,12.12,14.31,29.28,19.68,45.73,26.27,23.74,9.53,42,25.13,53.81,47.89C1059.28,165.73,1057.44,178.68,1055.56,191.73Z" transform="translate(-193.16 -17.76)"/><path d="M643.68,17.76a79.47,79.47,0,0,1-1.89,11.92c-3.77,18.55-13,35.21-18.4,53.19-5.75,19-12.14,37.75-18.37,56.57-7,21.12-6.41,42.42.61,63.65,3.2,9.66-1.71,17.55-11.25,20.08-6,1.59-10.6-1.27-14.57-5.13-13.14-12.77-25.56-26.17-35.82-41.47A236.75,236.75,0,0,1,524.15,141c-6.88-15.37-17.48-28.46-26.33-42.6-11.09-17.69-13.57-36.59-10.29-56.73,1.3-8,2.38-16,3.56-23.95h2.45c-.06.34-.12.66-.16,1-1.28,10-2.73,20-4,30-2.23,17.24.62,33.6,10.56,47.94,15.32,22.12,27.31,46.09,40.48,69.43,10.8,19.12,25.55,35.2,41.31,50.35,5.28,5.09,10.32,5.85,15.64,2.94,5.7-3.13,7.75-7.72,6.15-15.07-1.26-5.75-4.11-18.09-5.93-24.7,1,6.33.11,14.35-2.22,17.09-5.79,6.78-14.05,6.88-21.59.26-17.36-15.25-31.77-32.9-41.81-53.69a438,438,0,0,0-25.26-44.46C495.53,81.35,492.34,62.58,495.8,42.3c1.39-8.11,2-16.36,3-24.54h2.46C500,28.69,499,39.65,497.43,50.53c-2.38,16.92,2.21,32.19,10.95,46.32,9.89,16,19.27,32.26,27.75,49.06,9.76,19.35,23.66,35.65,39.92,49.92,5.05,4.44,8.93,5,13.77,2.26,5.09-2.91,7.39-7.6,5.71-13.82-5.15-19.07-6.5-38.26-.37-57.2,9.29-28.62,17.13-57.73,28.63-85.63a109.09,109.09,0,0,0,5.91-21.09c.16-.83.27-1.69.45-2.59h2.53a50.61,50.61,0,0,1-1.29,6.63c-3.89,18.52-13.1,35.24-18.08,53.38-5.39,19.63-13.36,38.47-17.74,58.41-2.89,13.13-2,32,1.95,42.14.64-6.58.16-16.24,1.24-22.77,1.82-11.05,5.43-21.55,9-32.1,6.18-18.1,11.46-36.53,17.9-54.54,5-14.08,11.33-27.69,14.31-42.47.58-2.85.56-5.87,1.45-8.68Z" transform="translate(-193.16 -17.76)"/><path d="M1099.13,385.31c-24.13-11.89-48.92-12.27-73.66-9.78-34.29,3.45-66.92-2.81-99.24-13.24-32.85-10.59-64.94-23.3-97.5-34.67-30.26-10.55-60.92-20-91.11-30.72-22.86-8.1-46.67-13-69.33-21.61-22.88-8.72-33.5-23.33-31.95-47.59,2.37-37.35,8.67-73.9,26.22-107.75,10.7-20.61,16.16-42.44,13.7-66-1.23-11.77-.64-23.7.13-35.54,0-.2,0-.41,0-.62h2.47c0,.4-.08.79-.09,1.18-.32,14.12-.52,28.23.33,42.35,1.32,22.1-5.27,42.37-15.13,61.64-12,23.44-18.35,48.36-21.91,74.24-1.54,11.22-3.29,22.35-3.36,33.74-.12,21,10.55,34.22,29.44,41.79A240.13,240.13,0,0,0,697,281.8c26.48,6.92,52,17,78.08,25,51.12,15.82,100.44,36.83,151.48,52.85,22.1,6.93,44.27,14.24,67.82,14.1,15-.08,30-1,45-1.51,18.09-.66,35.94.5,53,7.35C1094.71,380.58,1097.93,380.59,1099.13,385.31Z" transform="translate(-193.16 -17.76)"/><path d="M1098.09,227.05c-7.27,17.76-11.93,36.37-18.18,54.47-2.92,8.44-6.91,16.37-13.72,22.53a25,25,0,0,1-6.9,4.68c-5.08,2.19-10.2,4.23-14.91,7.28-4,2.6-8.57,2.25-13.14.87-15.83-4.79-31.16-11.22-47.4-14.68-19.58-4.17-39.53-3.92-59.38-4.92-34.15-1.72-68.19-4.66-102-9.53-43.32-6.24-84.81-19.43-125.84-34.16a76.15,76.15,0,0,1-13.54-6.78c-16-9.71-21.26-22.83-17.16-42.59C671.34,178,680,153,694.14,130c6.8-11.11,9.61-23.65,10.84-36.73,2.37-25.13,3.93-50.28,5.45-75.46h2.4c-.83,14.93-1.54,29.88-2.63,44.79-1,12.84-2.09,25.68-3.61,38.48-1.9,15.93-9.54,29.69-17.41,43.31-11.93,20.7-18,43.41-21.55,66.72-2.62,17.06,4.63,28.17,22.19,36.71,15.57,7.57,32.09,12.68,48.62,17.53q30.09,8.82,60.52,16.47c13.88,3.46,28.25,4.1,42.42,5.94,41.22,5.34,82.72,6.86,124.14,9.35,18.3,1.1,35.49,6.94,52.62,12.94,4.1,1.45,8.29,2.66,12.39,4.12,6.52,2.31,9.72.47,17.6-3.21,1.77-1.07,3.72-2,4.73-2.52,12.75-6.72,18.08-12.12,23.05-23.48,3.8-8.65,6.21-17.75,8.69-26.82,3.62-13.28,9.42-25.78,14-40C1098.8,221.93,1099.13,224.51,1098.09,227.05Z" transform="translate(-193.16 -17.76)"/><path d="M1098.37,374.45c-8-3.91-16-7.57-23.81-11.62-25.25-13.13-52.39-15.13-80-13.1-26.27,1.92-51.75-1.84-77.12-8-48.82-11.8-96.29-28.09-144.11-43.19-31.06-9.8-62.12-19.61-93-29.87-13.48-4.47-25.74-11.25-31.5-25.44-3.84-9.46-3.79-19.42-2.35-29.36,3.77-25.87,8-51.64,19.23-75.6,5.47-11.65,11.78-22.9,15.64-35.27A95.33,95.33,0,0,0,686,71.68,489.88,489.88,0,0,1,687.49,21c.07-1.07.14-2.15.28-3.23h2.43c-.33,7.16-.59,14.33-1.23,21.46A213,213,0,0,0,688.3,69c1,20.31-4.16,39.17-13.71,56.66-14.48,26.49-20.81,55.19-25.18,84.59-1.15,7.8-1.8,15.6-.68,23.4,1.91,13.37,9.89,22.21,21.65,28.17s24.47,9.11,36.9,13.07c25.71,8.2,51.4,16.48,77.13,24.61,49.31,15.62,98.28,32.36,149,43.35,18.77,4.07,37.59,5,56.64,4.53,14.65-.4,29.33-1.11,43.94.46,18.69,2,35.58,9.46,52.09,17.88,3.27,1.65,6.59,3.22,9.79,5C1097,371.37,1099.1,371.55,1098.37,374.45Z" transform="translate(-193.16 -17.76)"/><path d="M1098.65,338.45c.11.83-.3,1.44-1.06,1.47-6.4.23-10.37,5.36-15.72,7.68a14.33,14.33,0,0,1-11.64.37c-12.73-5.24-25.52-10.29-38.3-15.41-17.66-7.05-36.14-8.75-55-8.58-20.24.18-40.48-.07-60.58-3-25.69-3.74-51.12-8.82-76.4-14.73-49.07-11.51-97-26.95-144.76-42.76-8.75-2.9-17.26-6.41-24.89-11.88-12-8.63-16.72-20.67-15-34.64,3.71-30.05,10.64-59.23,25.87-85.94,6.92-12.16,12.39-25,13.37-39.25C695.83,73.89,696.71,56,697.9,38c.44-6.76,1.12-13.52,1.75-20.28H702c0,2.17-.39,4.35-.54,6.52-1.23,18.26-3.27,36.49-3.52,54.76C697.66,97.7,693.23,115,684,130.91c-14.57,25.23-21.46,52.82-25.8,81.15-3.51,22.92,5.25,36.83,28.29,45.52,26.09,9.84,52.73,18.09,79.5,25.88,17.4,5.06,34.61,10.89,52.21,15.12,34.71,8.34,69.53,16.25,105,20.79,22.46,2.88,44.94,1.3,67.4,2.39,18.46.89,35.73,5.54,52.59,12.53,8.53,3.55,17.12,7,25.57,10.68,6.56,2.86,12.44,1.81,17.33-3.05,3.19-3.18,6.62-3.56,11-4.28C1097.86,337.34,1098.52,337.5,1098.65,338.45Z" transform="translate(-193.16 -17.76)"/><path d="M654,17.76c-1.4,26.38-11,50.63-19.25,75.3C627.89,113.49,622.37,134.39,616,155c-4,13-1.87,26.68-2,40.07-.08,7.48.4,15-1.24,22.37-4.45,20.12-18.64,23-34.21,13.54-6.89-4.18-11.51-10.67-15.67-17.31-17.5-27.93-37.18-54.31-57.11-80.52-14.47-19-23.25-40.71-29.09-63.71-1.18-4.62-1.83-9.46-.7-14,3.12-12.4,2.71-25.18,4.61-37.69H483c-.05.63-.15,1.24-.19,1.83-1,12-1.85,23.94-4.21,35.74-1.29,6.48.31,12.74,1.93,19,7.07,27.58,21.45,51.15,39,73.19,16.52,20.72,31.37,42.64,45.58,65,4.69,7.38,9.92,14.32,18.14,18.35,12.86,6.29,22.37,2.24,26.33-11.34,2.89-9.9,2.37-20.08,1.82-30.13-.95-17.62.9-34.61,7.13-51.32,7.2-19.23,10.23-39.87,18.2-58.8,8.36-19.84,12.49-40.43,14.86-61.57Z" transform="translate(-193.16 -17.76)"/><path d="M588.41,125.24c-2.39,11.12-1.1,22.15.83,33.17a64.93,64.93,0,0,1,.77,9.36c.14,5.46-2.64,9.26-7.36,11.68s-9.07,1.22-13.16-1.86C554,165.9,542.35,151,533.75,133.84c-6.32-12.63-13.13-25-20.11-37.22-8.54-15-12.5-30.78-10.11-48.12,1.38-10,1.85-20.12,2.76-30.17,0-.19,0-.38,0-.57h2.5c-.42,5.54-.82,11.08-1.33,16.59-1.24,13.14-4,26.21-.6,39.45,2.38,9.21,6.49,17.63,11.3,25.73,7.48,12.58,13.67,25.83,20.71,38.64a115.67,115.67,0,0,0,30.38,36.19c3.7,2.87,7.37,5.46,12.32,2.87s6.65-7,6.11-12.24c-.47-4.5-1.28-9-2-13.43-2.86-17.17.69-33.6,5.77-49.83,7.86-25,15.72-50.1,24.79-74.74a79.9,79.9,0,0,0,2.48-9.23h2.59c-1.86,8.81-5,17.23-8,25.67C603.69,70.29,594.41,97.27,588.41,125.24Z" transform="translate(-193.16 -17.76)"/><line class="cls-1" x1="315.67" x2="313.18"/><path d="M582,108.7c-1.66,9.93-1.33,19.72-.17,29.61a46,46,0,0,1,.45,8.84c-.78,10.4-10.54,15.1-19.27,9.41a70.82,70.82,0,0,1-22.92-24.64,468.3,468.3,0,0,1-24.2-48,58.1,58.1,0,0,1-4.61-27.06q1.37-19.55,2.76-39.12h2.38a148.53,148.53,0,0,1-1.69,23c-3.4,22.39,1.3,42.85,12.72,62.12,6.73,11.37,11.14,24,19.17,34.7A66.49,66.49,0,0,0,565.13,155c6.83,4.14,13.93.42,14.38-7.68a61.78,61.78,0,0,0-.4-11.46c-2.2-16.42.67-32.17,5.26-47.89,6.89-23.62,15-46.83,22.78-70.16h2.57c-5.13,15.42-10.64,30.7-15.35,46.23C589.87,78.78,584.55,93.34,582,108.7Z" transform="translate(-193.16 -17.76)"/><path d="M597.77,17.76c-.09.2-.17.4-.24.58-7.36,21.21-14.32,42.54-19.81,64.33a108.09,108.09,0,0,0-3.18,35.72c.4,4.9.31,9.78-2.42,14.18-3,4.84-7.58,6.46-13.07,4.67-7.76-2.52-13.13-8.12-17-14.77-9.61-16.4-18.24-33.27-21.62-52.31-1.35-7.66-.89-15.31-.66-22.94.29-9.83,1.09-19.64,1.73-29.46h2.31a117.85,117.85,0,0,1-1.29,22.9c-3.42,25.46,3.85,48.21,15.73,70.12,3.24,6,6.34,12,11,17a27.66,27.66,0,0,0,9.26,6.68c5.73,2.47,10.64.3,12.74-5.62a14.34,14.34,0,0,0,.77-6.19c-2.55-25.16,4.85-48.64,12.17-72.11,3.41-11,7.2-21.83,11-32.68a.69.69,0,0,1,0-.13Z" transform="translate(-193.16 -17.76)"/><path d="M570.93,17.76c-3.74,16.73-7.63,33.43-11.46,50.13-1.11,4.86-2.93,9.31-6.86,12.61-3.68,3.09-6.48,2.64-9.07-1.44-3.37-5.31-4.63-11.3-4.87-17.43-.6-14.67.76-29.27,2-43.87h2.57c-.79,8.72-2.07,17.4-1.31,26.22C544,37.5,543.71,30.67,544.78,24c.35-2.08.57-4.18.87-6.28h2.2C546.8,27.87,546,38,544.21,48a24,24,0,0,0,1.67,13.29c.39,1,.83,2.1,2,2.23,1.66.21,2-1.35,2.21-2.4,2.9-13.55,11.42-25.54,10.87-40.07a33,33,0,0,1,0-3.32h3.26a18,18,0,0,0-.86,3.53,71.78,71.78,0,0,1-7.13,28.65c-1.89,3.84-2.48,8.3-3.9,12.39-.74,2.1-1.79,4.48-4.6,4.26-2.43-.2-3.34-2.31-4-4.34-1-2.93-1.85-5.9-2.89-9.28-.16,8.18.51,15.64,3.6,22.62,2.44,5.48,4.9,5.67,8.62,1a24,24,0,0,0,4.29-10C561,50.32,564.73,34,568.53,17.76Z" transform="translate(-193.16 -17.76)"/><path d="M1098.64,149.54c-4.29-11.15-8.51-20.76-14.36-29.67-9.27-14.12-21.79-23.61-37.66-29.17-10.51-3.67-20.79-8-31.16-12.06-12.33-4.83-21.89-12.94-28-24.69-6.62-12.75-16.57-21-30.31-25.43a177.7,177.7,0,0,1-25.5-10.76h5.88a258.17,258.17,0,0,0,24.72,10c13.07,4.45,21.46,13.88,27.72,25.56,6.15,11.48,15.72,18.6,27.59,23.53,14.32,5.94,29.39,10.09,43.06,17.48,19.64,10.62,30.5,28.43,37.93,48.7C1099.11,144.54,1098.64,146.42,1098.64,149.54Z" transform="translate(-193.16 -17.76)"/><path d="M577.86,42.31c-5.38,18-10.75,36.05-10.32,55.18a31.43,31.43,0,0,1-1.91,11.25c-1.89,5.31-5.94,8.15-11.22,9-4.69.8-8.08-2-10.58-5.47a81.49,81.49,0,0,1-14.51-37.08c-2.68-19.12-1.22-38.3-.38-57.47h1.7c.07,5.48.22,10.91-.1,16.32-1.11,18.87-.94,37.6,4.84,55.85a80.51,80.51,0,0,0,8.57,18.4c2.52,4,5.44,8,11.2,6.73s8.52-5.45,9.15-10.78c.76-6.38.38-12.9,1.19-19.27,2.66-21.15,9-41.41,15.63-61.57.63-1.89,1.23-3.79,1.87-5.68h2.68C583.12,26,580.32,34.09,577.86,42.31Z" transform="translate(-193.16 -17.76)"/><line class="cls-1" x1="337.48" x2="335.78"/><path d="M578.24,17.76c-5.06,16.79-9.3,33.8-13,50.92-1.46,6.63-.9,13.54-2.79,20.11A14.76,14.76,0,0,1,558,96.31c-5.75,4.84-11.4,4.11-15.39-2.27-6.9-11-8.42-23.49-9-36.05-.68-13.44.3-26.85,1.65-40.23h2.24c0,2.5-.34,5-.45,7.45-1,18.77-2.62,37.57,2.62,56a49.53,49.53,0,0,0,4.49,10.55c3.47,6.24,8,8,14.18.31,2.37-2.93,2.72-6.73,3-10.39,1.82-22,8.59-42.88,14.47-64Z" transform="translate(-193.16 -17.76)"/><line class="cls-1" x1="157.7" x2="155.33"/><path d="M346.7,38.59c-1.86,6.93-5.91,10.6-11.5,10.11-12.06-1.06-24.33-2.84-34.24-10-15.11-10.92-32.07-16.65-49.69-20.94H240.51c2.68.68,5.31,1.32,7.94,1.93,17.91,4.15,35.17,9.51,50.35,20.63,10.07,7.38,22.38,9.4,34.57,10.7,7.49.79,11.18-1.74,14.43-8.62,3.73-7.89,3.36-16.28,3.06-24.64h-2.38C349.57,24.84,348.53,31.76,346.7,38.59Z" transform="translate(-193.16 -17.76)"/><line class="cls-1" x1="58.11" x2="47.35"/><path d="M1099.56,75c-8.79-3.12-16.43-5.69-24-8.56-9.59-3.66-19.24-7.24-28.52-11.7-10.43-5-18.39-12.5-23.45-22.94-2.25-4.64-4.39-9.34-6.47-14.07h2.76c1.94,4.25,3.85,8.51,5.84,12.73A44.19,44.19,0,0,0,1047,52c14.13,6.86,28.93,12.06,43.7,17.33C1093.58,70.32,1097.12,70.48,1099.56,75Z" transform="translate(-193.16 -17.76)"/><line class="cls-1" x1="94.65" x2="89.25"/><path d="M318.94,29.18c7.17-.59,12.69-4.78,14.85-11.42h-2.58a13.59,13.59,0,0,1-11.07,8.79,29.85,29.85,0,0,1-12.91-1,105.46,105.46,0,0,1-19.42-7.75h-5.4c4.08,2.22,8.19,4.13,12.36,5.93C302.48,27,310.3,29.88,318.94,29.18Z" transform="translate(-193.16 -17.76)"/><line class="cls-1" x1="140.63" x2="138.05"/><path d="M1098.59,38.89c-.35.81-1.08.56-1.76.27-12.35-5.09-24.58-10.38-32.87-21.4h3c7.28,8.72,17.36,13.43,27.67,17.85,1.11.47,2.24,1,3.33,1.5A1.3,1.3,0,0,1,1098.59,38.89Z" transform="translate(-193.16 -17.76)"/><path d="M950.43,196.67c-1.14-5.72-3.83-10.83-9.08-13.33-8.79-4.21-18.19-7-28-7.22-8.56-.19-13.22,7.92-9.41,15.68a22.22,22.22,0,0,0,6,7.14c5.39,4.48,10.09,9.36,13.19,15.85,2.44,5.11,7.29,7.24,13.1,7.13,4.52.11,9-1.09,10.82-5.54C949.6,210.17,951.81,203.66,950.43,196.67Zm-3.79,13.84c-1,4.18-2.54,8.13-7.65,8.78-5.32.68-10.8.18-13.26-5.06-3.61-7.74-9.63-13.06-15.69-18.55a19.12,19.12,0,0,1-4.11-5.35c-2.93-5.73.56-11.6,7-11.65,9.24-.08,18,2.65,26.28,6.19,6.36,2.71,9.18,8.78,9,17.43C947.86,204,947.43,207.32,946.64,210.51Z" transform="translate(-193.16 -17.76)"/><path d="M870.83,170.76c-.41-.76-1.7-3-2-3.8-2.14-5.38-3.8-4.86-7.61-4.22-6.55,1.1-11.91,4.91-16.66,9.21-2.93,2.65-2.25,6.71.21,9.51,3.52,4,8.1,6.52,12.2,6.73C871.28,187.39,876.7,181.67,870.83,170.76Zm-14.69,15a23.48,23.48,0,0,1-4.25-1.92c-8.72-4.64-8.88-8.74-.53-13.91,1.76-1.1,3.5-2.26,5.35-3.2,5.69-2.9,7.22-2.05,10.84,3.5,1.14,2.46,3.23,4.33,3,7.41C870.5,182.64,862.06,187.45,856.14,185.72Z" transform="translate(-193.16 -17.76)"/><line class="cls-1" x1="602.68" y1="497.72" x2="599.96" y2="497.72"/><line class="cls-1" x1="875.63" y1="497.72" x2="873.15" y2="497.72"/><line class="cls-1" x1="848.95" y1="497.72" x2="846.64" y2="497.72"/><line class="cls-1" x1="818.9" y1="497.72" x2="816.27" y2="497.72"/><line class="cls-1" x1="791.49" y1="497.72" x2="788.98" y2="497.72"/><line class="cls-1" x1="753.98" y1="497.72" x2="750.5" y2="497.72"/><line class="cls-1" x1="717.99" y1="497.72" x2="714.66" y2="497.72"/><line class="cls-1" x1="667.19" y1="497.72" x2="664.93" y2="497.72"/><line class="cls-1" x1="626.19" y1="497.72" x2="623.27" y2="497.72"/><line class="cls-1" x1="647.11" y1="497.72" x2="644.58" y2="497.72"/><line class="cls-1" x1="683.72" y1="497.72" x2="681" y2="497.72"/><line class="cls-1" x1="701.07" y1="497.72" x2="698.08" y2="497.72"/><line class="cls-1" x1="735.83" y1="497.72" x2="732.52" y2="497.72"/><line class="cls-1" x1="778.01" y1="497.72" x2="775.48" y2="497.72"/><line class="cls-1" x1="804.35" y1="497.72" x2="801.61" y2="497.72"/><line class="cls-1" x1="836.37" y1="497.72" x2="833.5" y2="497.72"/><line class="cls-1" x1="862.1" y1="497.72" x2="859.9" y2="497.72"/><line class="cls-1" x1="888.65" y1="497.72" x2="886.21" y2="497.72"/><line class="cls-1" x1="589.66" y1="497.72" x2="586.75" y2="497.72"/><line class="cls-1" x1="570.05" y1="497.72" x2="567.27" y2="497.72"/><line class="cls-1" x1="552.6" y1="497.72" x2="550.14" y2="497.72"/><line class="cls-1" x1="510.92" y1="497.72" x2="508.16" y2="497.72"/><line class="cls-1" x1="475.4" y1="497.72" x2="472.76" y2="497.72"/></svg>